<svg width="87" height="87" viewBox="0 0 87 87" fill="none" xmlns="http://www.w3.org/2000/svg">
<path d="M29.3792 32.4969C20.7493 33.0455 20.4448 41.0857 20.4448 41.0857V56.9838C20.4448 65.2681 28.6494 66.12 28.6494 66.12C37.7047 66.12 38.0092 57.3487 38.0092 57.3487V41.2682C37.2793 32.8618 29.3792 32.4969 29.3792 32.4969ZM35.578 56.9838C35.578 56.9838 35.3955 62.5119 29.7442 63.5619C29.7442 63.5619 28.7956 63.5257 28.8331 62.6484C28.8693 61.7712 29.9266 61.9174 29.9266 61.9174C29.9266 61.9174 33.7921 61.2963 33.9383 56.4352V53.1461C33.9383 53.1461 33.8658 52.4513 34.4857 52.415C35.1055 52.3788 35.3968 52.5613 35.5792 53.511V56.9838H35.578ZM36.6715 49.6733H21.9033V40.9021C21.9033 40.9021 22.0857 34.6284 29.0143 33.9578C29.0143 33.9578 35.8209 33.7137 36.6715 41.267V49.6733Z" fill="#3A70D4"/>
<path d="M42.3241 21.5325C34.3744 21.9711 33.937 29.3903 33.937 29.3903V31.5834L35.213 32.3145V29.2078C36.7814 22.3372 42.8702 22.9946 42.8702 22.9946C49.0327 22.8846 49.9813 29.2078 49.9813 29.2078V38.5277H39.7708C40.0621 38.7102 40.1358 40.1723 40.1358 40.1723V54.6082C40.5007 54.9369 43.0527 54.9731 43.0527 54.9731C50.4912 54.3883 51.2573 47.1153 51.2573 47.1153V29.9389C50.4549 21.3138 42.3241 21.5325 42.3241 21.5325ZM46.1521 51.3179C46.1521 51.3179 42.8702 53.3648 42.1404 51.8665C42.1404 51.8665 41.9579 50.8068 43.0515 50.7705C44.145 50.7343 46.2608 49.3822 46.8807 47.299C46.8807 47.299 47.3543 45.6545 47.2456 42.7303C47.2456 42.7303 47.1356 41.2682 47.793 41.2682C48.4503 41.2682 48.814 41.3407 48.8865 42.9128C48.9602 44.4836 48.9965 49.1985 46.1521 51.3179Z" fill="black"/>
<path d="M66.7553 42.1817C65.9892 33.2642 56.9098 32.1308 56.9098 32.1308H53.4455V41.4506C53.4455 41.4506 59.5717 41.4144 60.374 41.4506C61.1764 41.4869 61.8325 41.9255 61.8325 43.2776C61.8325 44.6298 60.5565 44.7397 60.5565 44.7397H53.4455C53.5917 50.4406 51.0747 52.9624 51.0747 52.9624C52.7519 54.2783 56.7273 54.0584 56.7273 54.0584C67.6301 52.7075 66.7553 42.1817 66.7553 42.1817Z" fill="#A100FF"/>
<path d="M43.5 0C19.4759 0 0 19.4759 0 43.5C0 67.5241 19.4759 87 43.5 87C67.5241 87 87 67.5241 87 43.5C87 19.4759 67.5241 0 43.5 0ZM43.5 84.999C20.5803 84.999 2.001 66.4197 2.001 43.5C2.001 20.5803 20.5803 2.001 43.5 2.001C66.4197 2.001 84.999 20.5803 84.999 43.5C84.999 66.4197 66.4197 84.999 43.5 84.999Z" fill="#66099F"/>
</svg>
