<svg width="87" height="87" viewBox="0 0 87 87" fill="none" xmlns="http://www.w3.org/2000/svg">
<path d="M63.1606 29.0689C63.1606 28.8393 63.1606 28.3704 63.1606 27.4739C63.1606 24.8602 61.6551 25.1261 61.6551 25.1261C61.6551 25.1261 38.4865 25.1261 37.9548 25.1261C37.4231 25.1261 36.2535 25.1261 36.0058 23.5758C35.7581 22.0255 34.4108 22.1584 34.4108 22.1584C34.4108 22.1584 27.4653 22.1584 25.9053 22.1584C24.3453 22.1584 24.1339 23.3631 24.1339 23.9298C24.1339 24.4965 23.3896 25.1261 22.1848 25.1261C20.9801 25.1261 20.5898 26.5881 20.5898 26.5881C20.5898 26.5881 20.5898 28.5722 20.5898 29.0689C20.5898 29.5655 20.5898 30.0875 21.4756 30.0875C22.3613 30.0875 22.1848 29.0689 22.1848 29.0689V26.5881C22.1848 26.5881 60.1555 26.5881 60.9905 26.5881C61.8254 26.5881 61.6551 26.9422 61.6551 26.9422V29.0689C61.6551 29.0689 38.4865 29.0689 38.3101 29.0689C38.1324 29.0689 37.5754 29.0689 37.6008 29.6005C37.6261 30.1322 37.9548 30.0875 37.9548 30.0875H38.3088C38.3088 30.0875 57.4464 30.0875 60.8129 30.0875C64.1793 30.0875 64.8886 32.9669 64.8886 32.9669C64.8886 32.9669 64.7822 33.9952 65.0662 34.3843C65.3501 34.7746 65.7755 34.2067 65.7755 34.2067C65.7755 34.2067 65.7755 33.6037 65.7755 31.1943C65.7755 28.7849 63.1606 29.0689 63.1606 29.0689Z" fill="black"/>
<path d="M63.1606 35.9358C63.1606 35.693 63.1606 35.2277 63.1606 34.3855C63.1606 31.7719 61.6551 32.0377 61.6551 32.0377C61.6551 32.0377 38.4865 32.0377 37.9548 32.0377C37.4231 32.0377 36.2535 32.0377 36.0058 30.4875C35.7581 28.9372 34.4108 29.0701 34.4108 29.0701C34.4108 29.0701 27.4653 29.0701 25.9053 29.0701C24.3453 29.0701 24.1339 30.2748 24.1339 30.8415C24.1339 31.4082 23.3896 32.0377 22.1848 32.0377C20.9801 32.0377 20.5898 33.4998 20.5898 33.4998C20.5898 33.4998 20.5898 35.3776 20.5898 35.9358C20.5898 35.9515 20.5898 35.966 20.5898 35.9805V55.825C20.5898 55.825 20.6346 58.3504 22.8929 58.3504C25.1525 58.3504 33.5251 58.3504 33.5251 58.3504C33.5251 58.3504 32.5064 57.774 32.4617 56.7119C32.417 55.6486 32.4617 54.5853 32.4617 54.5853C32.4617 54.5853 32.5946 53.1679 34.0567 52.9903C34.0567 52.9903 33.0816 52.281 33.3474 51.2188C33.6133 50.1555 34.5437 48.2512 35.4741 48.2065C36.4045 48.1618 36.7151 48.2065 36.7151 48.2065C36.7151 48.2065 36.361 47.1878 37.0691 46.435C37.7784 45.6823 39.1958 45.0177 39.1958 45.0177C39.1958 45.0177 40.3038 44.486 41.4988 45.3717C41.4988 45.3717 42.2516 43.6885 43.9796 43.7767C45.7075 43.8649 46.7261 44.1308 46.9919 45.3717C46.9919 45.3717 48.3211 44.2637 49.6503 45.0177C50.9794 45.7705 51.4217 46.2574 51.4217 46.2574C51.4217 46.2574 52.0863 47.276 51.7757 48.2065C51.7757 48.2065 53.0167 47.6748 54.0788 49.0922C55.1421 50.5095 55.1421 50.6872 55.1421 50.6872C55.1421 50.6872 55.4962 52.2822 54.6105 52.9903C54.6105 52.9903 56.2055 53.3008 56.2055 54.9393C56.2055 56.5778 56.2055 56.7107 56.2055 56.7107C56.2055 56.7107 55.7185 58.3492 54.9645 58.3492H63.6476C63.6476 58.3492 65.7743 58.0387 65.7743 55.8238C65.7743 54.1756 65.7743 45.4684 65.7743 41.1172C65.7743 41.1172 65.7743 40.6036 65.7743 38.6365C65.7743 38.6377 66.4389 35.9358 63.1606 35.9358ZM39.5498 35.9358H26.437C26.437 35.9358 25.1525 35.8911 25.1525 37.9296C25.1525 39.968 25.1525 55.2945 25.1525 55.2945C25.1525 55.2945 25.1525 56.9778 23.4246 56.8895C21.6967 56.8013 22.1836 54.4088 22.1836 54.4088V36.3769C22.2151 36.1642 22.1836 35.9793 22.1836 35.9793V35.9346V33.4986C22.1836 33.4986 60.1543 33.4986 60.9893 33.4986C61.8242 33.4986 61.6539 33.8527 61.6539 33.8527V35.9346C55.9263 35.9358 39.5498 35.9358 39.5498 35.9358ZM63.4724 43.5036C63.4724 43.7646 63.0664 43.7815 63.0664 43.7815H62.5106C62.4659 44.0305 62.3946 44.2697 62.3027 44.4981C62.4659 44.5972 62.6386 44.7011 62.7667 44.7784C63.0918 44.9742 62.9782 45.2448 62.9782 45.2448C62.9782 45.2448 62.7909 45.5844 62.6664 45.8103C62.542 46.0363 62.1819 45.8381 62.1819 45.8381L61.6792 45.5348C61.5318 45.7076 61.3699 45.8671 61.1947 46.0109C61.2962 46.1958 61.4086 46.3988 61.4883 46.5438C61.6756 46.8833 61.4484 47.0585 61.4484 47.0585C61.4484 47.0585 61.1234 47.2543 60.9071 47.3848C60.6908 47.5153 60.4745 47.1564 60.4745 47.1564L60.1724 46.609C59.9779 46.6852 59.7749 46.7444 59.5646 46.7879C59.5646 47.0042 59.5646 47.2446 59.5646 47.4162C59.5646 47.8077 59.2831 47.8403 59.2831 47.8403C59.2831 47.8403 59.2469 47.8403 59.1901 47.8403C59.1707 47.8464 59.1502 47.85 59.1272 47.85C58.865 47.85 58.4723 47.85 58.4723 47.85C58.4723 47.85 58.1775 47.8174 58.1775 47.4271C58.1775 47.2591 58.1775 47.0259 58.1775 46.8133C57.9539 46.7758 57.7364 46.719 57.5286 46.6441L57.2241 47.1685C57.2241 47.1685 56.9969 47.5274 56.7698 47.3969C56.5426 47.2664 56.2019 47.0706 56.2019 47.0706C56.2019 47.0706 55.9626 46.8954 56.1596 46.5571C56.2405 46.4169 56.3529 46.2236 56.4568 46.046C56.2719 45.8998 56.1016 45.7366 55.9469 45.5578L55.4321 45.8526C55.4321 45.8526 55.0551 46.0508 54.9246 45.8248C54.7941 45.5989 54.5972 45.2605 54.5972 45.2605C54.5972 45.2605 54.4776 44.9899 54.8183 44.7953C54.9536 44.718 55.1361 44.6129 55.3089 44.5138C55.2171 44.2866 55.1458 44.0486 55.1011 43.8009H54.5041C54.5041 43.8009 54.0788 43.7852 54.0788 43.5242C54.0788 43.2632 54.0788 42.8729 54.0788 42.8729C54.0788 42.8729 54.1114 42.5793 54.5041 42.5793C54.6612 42.5793 54.8763 42.5793 55.0769 42.5793C55.1168 42.3086 55.1844 42.0476 55.2787 41.7987L54.8437 41.5485C54.8437 41.5485 54.4836 41.3226 54.6141 41.0966C54.7446 40.8707 54.9416 40.5323 54.9416 40.5323C54.9416 40.5323 55.1168 40.2943 55.4575 40.49C55.5784 40.5589 55.7379 40.6508 55.8937 40.7402C56.0617 40.5372 56.2502 40.3523 56.4568 40.188L56.1656 39.6853C56.1656 39.6853 55.9674 39.3107 56.1934 39.1802C56.4206 39.0497 56.7613 38.854 56.7613 38.854C56.7613 38.854 57.0332 38.7355 57.2289 39.0739C57.3111 39.2152 57.4247 39.411 57.5298 39.591C57.7437 39.5149 57.966 39.4569 58.1968 39.4195V38.8793C58.1968 38.8793 58.2137 38.4564 58.4747 38.4564C58.7357 38.4564 59.1296 38.4564 59.1296 38.4564C59.1296 38.4564 59.4245 38.489 59.4245 38.8793C59.4245 39.0292 59.4245 39.231 59.4245 39.4231C59.6746 39.4642 59.9151 39.5306 60.1459 39.6188C60.2546 39.4231 60.3778 39.1971 60.4661 39.0388C60.6534 38.6993 60.9119 38.8177 60.9119 38.8177C60.9119 38.8177 61.237 39.0135 61.4533 39.144C61.6696 39.2745 61.4799 39.6503 61.4799 39.6503L61.1729 40.2073C61.3663 40.3632 61.5439 40.5396 61.7022 40.7305C61.8617 40.6338 62.0296 40.5323 62.1541 40.4574C62.4791 40.2617 62.6459 40.4997 62.6459 40.4997C62.6459 40.4997 62.8332 40.8393 62.9576 41.0652C63.0821 41.2912 62.7389 41.5183 62.7389 41.5183L62.316 41.7745C62.4115 42.0222 62.4816 42.282 62.5226 42.5515C62.7136 42.5515 62.9153 42.5515 63.064 42.5515C63.4386 42.5515 63.47 42.8451 63.47 42.8451C63.47 42.8451 63.4724 43.2414 63.4724 43.5036Z" fill="#3A70D4"/>
<path d="M53.558 54.4245C53.2378 54.4245 52.8028 54.4245 52.3919 54.4245C52.3037 53.8361 52.1527 53.2682 51.9461 52.7292L52.8547 52.177C52.8547 52.177 53.5991 51.684 53.3284 51.1922C53.0577 50.6992 52.6529 49.9609 52.6529 49.9609C52.6529 49.9609 52.2904 49.4426 51.5884 49.8691C51.3214 50.031 50.9613 50.2497 50.6169 50.4588C50.2725 50.0419 49.8871 49.6601 49.4666 49.3193L50.1287 48.1134C50.1287 48.1134 50.5384 47.2954 50.0707 47.0114C49.6031 46.7274 48.8999 46.3009 48.8999 46.3009C48.8999 46.3009 48.3392 46.0423 47.9344 46.7818C47.7459 47.1238 47.4789 47.6119 47.2457 48.0373C46.7454 47.8464 46.2234 47.7014 45.6821 47.6107C45.6821 47.1939 45.6821 46.7589 45.6821 46.435C45.6821 45.5844 45.0441 45.5131 45.0441 45.5131C45.0441 45.5131 44.1934 45.5131 43.6267 45.5131C43.06 45.5131 43.0237 46.435 43.0237 46.435V47.6047C42.5247 47.6856 42.0426 47.8125 41.5786 47.9781C41.3538 47.5878 41.1085 47.1649 40.9321 46.8579C40.5068 46.1209 39.9195 46.3794 39.9195 46.3794C39.9195 46.3794 39.1824 46.8048 38.6919 47.0887C38.2013 47.3727 38.6302 48.1883 38.6302 48.1883L39.2586 49.277C38.8103 49.6347 38.4019 50.0383 38.0369 50.4805C37.701 50.2872 37.3579 50.089 37.0981 49.9392C36.361 49.5139 35.9816 50.031 35.9816 50.031C35.9816 50.031 35.5562 50.7681 35.2723 51.2587C34.9883 51.7493 35.7689 52.2411 35.7689 52.2411L36.7042 52.7812C36.4999 53.3225 36.3525 53.8929 36.2679 54.4825C35.8342 54.4825 35.3702 54.4825 35.0318 54.4825C34.1812 54.4825 34.1099 55.1205 34.1099 55.1205C34.1099 55.1205 34.1099 55.9712 34.1099 56.5379C34.1099 57.1046 35.0318 57.1409 35.0318 57.1409H36.3223C36.4214 57.6786 36.5749 58.1957 36.7742 58.6912C36.4009 58.9062 36.0033 59.1358 35.7121 59.3038C34.975 59.7291 35.2336 60.3164 35.2336 60.3164C35.2336 60.3164 35.6589 61.0535 35.9429 61.544C36.2269 62.0346 37.0425 61.6057 37.0425 61.6057L38.1566 60.9628C38.4901 61.3495 38.8598 61.7035 39.2586 62.0225C39.0338 62.4116 38.7909 62.8321 38.6145 63.1378C38.1892 63.8749 38.7064 64.2543 38.7064 64.2543C38.7064 64.2543 39.4434 64.6797 39.934 64.9636C40.4246 65.2476 40.9164 64.467 40.9164 64.467L41.5774 63.3215C42.0281 63.4834 42.4969 63.6067 42.9814 63.6888C42.9814 64.1516 42.9814 64.6627 42.9814 65.0289C42.9814 65.8795 43.6194 65.9508 43.6194 65.9508C43.6194 65.9508 44.4701 65.9508 45.0368 65.9508C45.0864 65.9508 45.1311 65.9412 45.1722 65.9291C45.2942 65.9291 45.3727 65.9291 45.3727 65.9291C45.3727 65.9291 45.9805 65.8578 45.9805 65.0047C45.9805 64.6301 45.9805 64.1057 45.9805 63.6345C46.4324 63.5414 46.8723 63.4121 47.2928 63.2466L47.9489 64.4416C47.9489 64.4416 48.4177 65.2246 48.8854 64.9395C49.353 64.6555 50.0562 64.229 50.0562 64.229C50.0562 64.229 50.5492 63.8471 50.1432 63.1088C49.9692 62.7923 49.7264 62.35 49.5064 61.9488C49.8871 61.6359 50.2387 61.2903 50.5577 60.9133L51.6428 61.5718C51.6428 61.5718 52.4209 62.0032 52.6904 61.5102C52.9611 61.0172 53.3659 60.2789 53.3659 60.2789C53.3659 60.2789 53.6112 59.6892 52.9091 59.2627C52.6348 59.096 52.2627 58.87 51.911 58.6561C52.1092 58.1571 52.2602 57.6339 52.3569 57.0925H53.558C53.558 57.0925 54.4364 57.0575 54.4364 56.4884C54.4364 55.9192 54.4364 55.0674 54.4364 55.0674C54.4364 55.0674 54.3688 54.4245 53.558 54.4245ZM44.2454 61.8497C40.8693 61.8497 38.1324 59.1129 38.1324 55.7368C38.1324 52.3607 40.8693 49.6238 44.2454 49.6238C47.6214 49.6238 50.3583 52.3607 50.3583 55.7368C50.3583 59.1129 47.6214 61.8497 44.2454 61.8497Z" fill="#A100FF"/>
<path d="M44.3075 59.7248C46.5089 59.6904 48.2656 57.878 48.2312 55.6767C48.1969 53.4753 46.3845 51.7186 44.1832 51.753C41.9818 51.7873 40.2251 53.5997 40.2595 55.801C40.2938 58.0024 42.1062 59.7591 44.3075 59.7248Z" fill="#A100FF"/>
<path d="M58.864 45.3717C60.0385 45.3717 60.9906 44.4195 60.9906 43.245C60.9906 42.0705 60.0385 41.1183 58.864 41.1183C57.6894 41.1183 56.7373 42.0705 56.7373 43.245C56.7373 44.4195 57.6894 45.3717 58.864 45.3717Z" fill="#A100FF"/>
<path d="M43.5 0C19.4759 0 0 19.4759 0 43.5C0 67.5241 19.4759 87 43.5 87C67.5241 87 87 67.5241 87 43.5C87 19.4759 67.5241 0 43.5 0ZM43.5 84.999C20.5803 84.999 2.001 66.4197 2.001 43.5C2.001 20.5803 20.5803 2.001 43.5 2.001C66.4197 2.001 84.999 20.5803 84.999 43.5C84.999 66.4197 66.4197 84.999 43.5 84.999Z" fill="#66099F"/>
</svg>
