<svg width="87" height="87" viewBox="0 0 87 87" fill="none" xmlns="http://www.w3.org/2000/svg">
<path d="M43.5 0C19.4759 0 0 19.4759 0 43.5C0 67.5241 19.4759 87 43.5 87C67.5241 87 87 67.5241 87 43.5C87 19.4759 67.5241 0 43.5 0ZM43.5 84.999C20.5803 84.999 2.001 66.4197 2.001 43.5C2.001 20.5803 20.5803 2.001 43.5 2.001C66.4197 2.001 84.999 20.5803 84.999 43.5C84.999 66.4197 66.4197 84.999 43.5 84.999Z" fill="#A100FD"/>
<path d="M52.0754 29.1499C52.0754 29.1499 39.2694 29.1499 35.2191 29.1499C31.1688 29.1499 31.1035 33.3851 31.1035 33.3851C31.1035 33.3851 31.1035 59.1915 31.1035 63.3288C31.1035 67.4661 34.8276 67.8601 34.8276 67.8601C34.8276 67.8601 46.9798 67.8601 51.2924 67.8601C55.6049 67.8601 55.8985 63.9197 55.8985 63.9197C55.8985 63.9197 55.8985 38.8347 55.8985 34.1729C55.8985 29.5112 52.0754 29.1499 52.0754 29.1499ZM51.0954 65.1026C49.005 65.1026 35.4148 65.1026 35.4148 65.1026C35.4148 65.1026 33.8464 65.1026 33.8464 63.527C33.8464 61.9513 33.8464 33.3863 33.8464 33.3863C33.8464 33.3863 33.9769 32.0729 35.2191 32.0729C36.4613 32.0729 37.7675 32.0729 37.7675 32.0729L40.3158 33.3863H46.5883L48.9409 32.0729H51.2936C51.2936 32.0729 53.0577 32.0076 53.0577 33.3863C53.0577 34.765 53.0577 63.7239 53.0577 63.7239C53.0577 63.7239 53.1858 65.1026 51.0954 65.1026Z" fill="#3A70D4"/>
<path d="M42.6564 47.2543V45.4817C42.6564 45.4805 41.7453 46.3674 42.6564 47.2543ZM43.4491 41.4615C39.2284 41.4615 35.8052 44.9017 35.8052 49.1453C35.8052 53.389 39.2272 56.8291 43.4491 56.8291C47.6698 56.8291 51.0918 53.389 51.0918 49.1453C51.0918 44.9017 47.6698 41.4615 43.4491 41.4615ZM44.2442 54.346V54.8185C44.2442 54.8185 44.2442 55.5278 43.4503 55.4093C42.6564 55.2909 42.6564 54.9961 42.6564 54.8185C42.6564 54.6408 42.6564 54.346 42.6564 54.346C42.6564 54.346 40.1576 54.021 39.922 51.7457C39.922 51.7457 39.7745 50.7995 40.6276 50.6823C41.4807 50.5651 41.6269 51.1548 41.6861 51.7457C41.6861 51.7457 42.2444 52.5142 42.6564 52.5734V49.2638C42.6564 49.2638 40.6276 48.5255 40.6276 46.9003C40.6276 45.275 41.3925 44.1525 42.6564 43.8275V43.5906C42.6564 43.5906 42.6854 42.9695 43.3331 42.8813C43.9795 42.7931 44.2442 43.2656 44.2442 43.5906C44.2442 43.9157 44.2442 43.9447 44.2442 43.9447C44.2442 43.9447 46.0965 44.0921 46.273 45.9541C46.273 45.9541 46.4204 47.1661 45.4501 47.1359C44.4798 47.1069 44.6272 46.0725 44.6272 46.0725L44.2454 45.6001V47.9636C44.2454 47.9636 46.8626 48.8795 46.8626 50.918C46.8626 52.9564 46.0675 54.05 44.2442 54.346ZM44.2442 49.973V52.6918C44.9208 52.426 45.1855 51.7759 45.2145 51.1548C45.2447 50.5337 44.2442 49.973 44.2442 49.973Z" fill="#A100FF"/>
<path d="M50.0379 22.3336C49.6911 22.0025 47.301 19.772 43.3582 19.7925C39.3127 19.8952 37.0459 22.5197 37.0459 22.5197C37.0459 22.5197 36.5553 23.078 36.9238 23.635C37.2912 24.1933 38.0065 23.9238 38.1491 23.6966C38.1491 23.6966 40.1102 21.5687 43.2362 21.4032C46.3621 21.2377 48.6084 23.0973 48.9975 23.5722C48.9975 23.5722 49.6512 24.2947 50.2227 23.7582C50.7931 23.2217 50.3847 22.6635 50.0379 22.3336ZM42.9897 22.5197C40.3543 22.6852 38.8837 24.5026 38.8837 24.5026C38.4548 24.9364 38.659 25.5973 39.1907 25.804C39.7223 26.0106 40.2322 25.3085 40.2322 25.3085C40.9681 24.7092 42.0097 24.0893 43.7255 24.0688C45.4414 24.0483 46.7077 24.9775 47.0968 25.3702C47.4859 25.7629 48.1178 25.9695 48.5069 25.4946C48.8948 25.0198 48.5685 24.5654 48.5685 24.5654C47.504 23.4284 45.625 22.3542 42.9897 22.5197ZM45.932 25.7411C44.6862 24.9146 43.1745 25.1212 43.1745 25.1212C41.9698 25.2457 41.1107 25.9272 40.7845 26.2365C40.457 26.5459 40.2733 27.063 40.7845 27.4763C41.2956 27.8895 41.7656 27.4763 41.7656 27.4763C41.7656 27.4763 42.0315 27.1247 42.6852 26.8564C43.3389 26.5882 44.5641 26.5676 45.3205 27.2902C46.077 28.0128 46.5663 27.5174 46.669 27.3518C46.7693 27.1875 47.1777 26.5676 45.932 25.7411Z" fill="black"/>
</svg>
