<svg width="87" height="87" viewBox="0 0 87 87" fill="none" xmlns="http://www.w3.org/2000/svg">
<path d="M43.5 0C19.4759 0 0 19.4759 0 43.5C0 67.5241 19.4759 87 43.5 87C67.5241 87 87 67.5241 87 43.5C87 19.4759 67.5241 0 43.5 0ZM43.5 84.999C20.5803 84.999 2.001 66.4197 2.001 43.5C2.001 20.5803 20.5803 2.001 43.5 2.001C66.4197 2.001 84.999 20.5803 84.999 43.5C84.999 66.4197 66.4197 84.999 43.5 84.999Z" fill="#A100FD"/>
<path d="M33.5955 38.8044H40.1869C40.0033 36.0651 37.6228 35.2434 35.9759 34.6042C34.3277 33.965 34.3277 32.9609 34.3277 32.9609L34.1441 31.1351C36.2043 30.085 36.3408 27.8472 36.3408 27.8472C37.7147 26.7053 36.5245 25.6553 36.5245 25.6553C36.4326 24.3309 35.472 22.2768 32.3134 22.1849C29.1548 22.0931 28.4685 25.4728 28.4685 25.4728C27.0946 26.6594 28.6522 27.8472 28.6522 27.8472C28.6522 30.1297 30.8489 31.1351 30.8489 31.1351C30.8489 31.1351 30.8489 32.2769 30.8489 33.1445C30.8489 34.0121 28.8346 34.9703 26.8203 35.7014C24.8061 36.4324 24.9897 38.8056 24.9897 38.8056H31.3987V37.3447C30.6206 35.8838 31.1703 35.2905 31.7648 34.9703C32.3593 34.6501 33.6873 34.6513 33.9616 35.7014C34.2359 36.7514 33.5955 37.5271 33.5955 37.5271V38.8044Z" fill="black"/>
<path d="M38.3563 24.5593C38.3563 24.5593 39.4088 26.0202 38.54 28.2121C38.54 28.2121 40.0504 27.8931 40.1881 26.5688C40.3247 25.2445 39.0426 24.6052 38.3563 24.5593ZM35.7922 31.8637C35.7922 31.8637 36.5704 33.0056 37.4404 33.3246C38.3104 33.6436 38.9049 34.0556 38.9049 34.0556C38.9049 34.0556 39.5465 31.3163 35.7922 31.8637ZM26.6427 24.5593C25.9576 24.6052 24.6792 25.2445 24.8169 26.5688C24.9535 27.8931 26.4603 28.2121 26.4603 28.2121C25.5927 26.0202 26.6427 24.5593 26.6427 24.5593ZM26.0954 34.0556C26.0954 34.0556 26.6886 33.6448 27.5562 33.3246C28.4238 33.0044 29.1996 31.8637 29.1996 31.8637C25.4561 31.3163 26.0954 34.0556 26.0954 34.0556Z" fill="#A100FF"/>
<path d="M25.1722 63.8241C24.4399 63.8845 23.3416 63.2767 23.3416 63.2767C23.4032 64.0682 23.4032 65.407 25.3558 65.4686C27.3085 65.5291 27.5526 63.8253 27.5526 63.8253C27.5526 63.8253 25.9044 63.7625 25.1722 63.8241ZM61.6107 63.8241C60.8784 63.7637 59.2303 63.8241 59.2303 63.8241C59.2303 63.8241 59.4743 65.529 61.427 65.4674C63.3797 65.407 63.3797 64.067 63.4413 63.2755C63.4425 63.2755 62.3441 63.8845 61.6107 63.8241Z" fill="#3A70D4"/>
<path d="M66.5551 42.091C66.4632 40.4477 64.5408 40.6301 64.5408 40.6301H61.9767C61.9767 40.6301 61.9767 40.5842 61.9767 39.3517C61.9767 38.1192 61.0608 38.2558 61.0608 38.2558C61.0608 38.2558 61.1526 37.6166 61.2444 37.1598C61.3363 36.7031 61.5187 35.6989 60.8783 35.5165C60.2379 35.334 59.9624 35.8814 59.9624 35.8814L59.4126 38.2558C59.4126 38.2558 59.0924 38.3017 58.4967 38.2558C57.901 38.2098 57.7644 38.9868 57.7644 38.9868V40.5842H52.6375C52.4997 40.1275 52.2714 40.0816 51.5391 39.7166C50.8069 39.3517 50.8069 38.0733 50.8069 38.0733C50.8069 38.0733 55.1097 38.0733 55.7514 38.0733C56.393 38.0733 56.5295 37.5259 56.5295 37.5259C56.5295 37.5259 56.5295 31.3622 56.5295 30.404C56.5295 29.4458 55.5677 29.4458 55.5677 29.4458C55.5677 29.4458 45.3138 29.4458 44.0317 29.4458C42.7497 29.4458 42.8874 30.5877 42.8874 30.5877C42.8874 30.5877 42.8874 36.9338 42.8874 37.5271C42.8874 38.1204 43.6656 38.0745 43.6656 38.0745H48.6101C48.6101 39.3529 47.6942 39.7638 47.3281 39.9003C46.9619 40.0368 46.4122 40.5854 46.4122 40.5854C46.4122 40.5854 22.6986 40.5854 22.0582 40.5854C21.4178 40.5854 20.1816 41.0422 20.2276 42.2747C20.2735 43.5072 21.3259 43.7356 21.3259 43.7356H65.0894C65.0906 43.7343 66.6469 43.7343 66.5551 42.091ZM49.7097 34.9703C49.1031 34.9703 48.6113 34.4785 48.6113 33.8719C48.6113 33.2653 49.1031 32.7736 49.7097 32.7736C50.3163 32.7736 50.8081 33.2653 50.8081 33.8719C50.8081 34.4785 50.3151 34.9703 49.7097 34.9703Z" fill="#3A70D4"/>
<path d="M56.8498 49.625H30.1154C30.0695 50.9493 27.9634 51.9994 27.9634 51.9994V55.9712C29.6575 55.9712 30.1154 58.0253 30.1154 58.0253H56.8039C56.8039 56.1995 58.8641 55.9712 58.8641 55.9712V51.9994C56.6214 51.4049 56.8498 49.625 56.8498 49.625ZM57.2159 54.5042H30.4767V53.4167H57.2159V54.5042Z" fill="#A100FF"/>
<path d="M23.3403 45.5613C23.3403 45.5613 23.3403 57.676 23.3403 59.6239C23.3403 61.5717 25.3546 62.0587 25.3546 62.0587C25.3546 62.0587 59.7184 62.0587 61.4282 62.0587C63.1368 62.0587 63.4425 60.1712 63.4425 60.1712V45.5613H23.3403ZM60.6501 56.1535C60.6501 56.1535 60.0096 57.9346 58.498 57.9793C58.498 57.9793 58.4062 59.851 56.1176 59.851C53.829 59.851 30.1155 59.851 30.1155 59.851C30.1155 59.851 28.2389 59.3484 28.2848 58.0252C28.2848 58.0252 26.2705 57.6144 26.2705 56.1535C26.2705 54.6927 26.2705 52.0899 26.2705 52.0899C26.2705 52.0899 25.9503 50.3088 28.2848 49.8074C28.2848 49.8074 28.0565 48.2099 30.4816 47.7073H56.3001C56.3001 47.7073 58.3143 47.8897 58.4968 49.7614C58.4968 49.7614 60.6488 50.0357 60.6488 52.1358C60.6501 54.2359 60.6501 56.1535 60.6501 56.1535Z" fill="black"/>
</svg>
