<svg width="87" height="87" viewBox="0 0 87 87" fill="none" xmlns="http://www.w3.org/2000/svg">
<path d="M67.2173 65.2307L63.1089 61.2819C65.9195 58.0351 67.6221 53.7938 67.6221 49.1514C67.6221 43.7489 65.3153 38.8878 61.6396 35.5069C62.158 37.3508 62.4359 39.2962 62.4359 41.3069C62.4359 53.07 52.9384 62.605 41.2224 62.605C39.3942 62.605 37.6191 62.373 35.9263 61.9356C39.1489 65.3165 43.6354 67.471 48.6234 67.6305C48.6198 67.6365 48.6162 67.6413 48.6162 67.6413C48.6162 67.6413 48.8325 67.6413 49.2167 67.6413H49.2179H49.2191C51.9572 67.6413 63.1863 67.6413 65.8156 67.6413C68.8171 67.6425 67.2173 65.2307 67.2173 65.2307Z" fill="black"/>
<path d="M59.6287 41.3214C59.6287 31.1098 51.3867 22.8303 41.2197 22.8303C31.0528 22.8303 22.8096 31.1086 22.8096 41.3214C22.8096 45.9602 24.5109 50.2002 27.3191 53.4458L23.2107 57.3922C23.2107 57.3922 21.6097 59.804 24.6112 59.804C27.0943 59.804 37.2504 59.804 40.6832 59.804C40.8609 59.8089 41.0397 59.8125 41.2185 59.8125C41.3974 59.8125 41.5762 59.8089 41.7538 59.804C41.7985 59.804 41.8239 59.804 41.8239 59.804L41.8227 59.8016C51.7105 59.4814 59.6287 51.3312 59.6287 41.3214ZM41.2028 55.1435C33.4139 55.1435 27.0992 48.8288 27.0992 41.0398C27.0992 33.2509 33.4139 26.9362 41.2028 26.9362C48.9917 26.9362 55.3065 33.2509 55.3065 41.0398C55.3065 48.8288 48.9917 55.1435 41.2028 55.1435Z" fill="#3A70D4"/>
<path d="M44.0652 35.4259C44.0652 35.4259 35.5307 35.4259 33.6131 35.4259C31.6955 35.4259 31.4731 37.5912 31.4731 37.5912C31.4731 37.5912 31.4731 42.3062 31.4731 44.9379C31.4731 47.5697 33.7243 47.6796 33.7243 47.6796C33.7243 47.6796 40.2843 47.6796 43.1759 47.6796C46.0674 47.6796 46.0674 45.3765 46.0674 45.3765C46.0674 45.3765 46.0674 40.3052 46.0674 38.0299C46.0674 35.7558 44.0652 35.4259 44.0652 35.4259Z" fill="#A100FF"/>
<path d="M49.9598 36.0567L47.4863 37.1526V45.9252C47.4863 45.9252 48.8203 46.5559 49.9598 47.0211C51.0992 47.4875 51.2382 46.3638 51.2382 46.3638C51.2382 46.3638 51.2382 38.3586 51.2382 36.9339C51.2382 35.5081 49.9598 36.0567 49.9598 36.0567Z" fill="#A100FF"/>
<path d="M43.5 0C19.4759 0 0 19.4759 0 43.5C0 67.5241 19.4759 87 43.5 87C67.5241 87 87 67.5241 87 43.5C87 19.4759 67.5241 0 43.5 0ZM43.5 84.999C20.5803 84.999 2.001 66.4197 2.001 43.5C2.001 20.5803 20.5803 2.001 43.5 2.001C66.4197 2.001 84.999 20.5803 84.999 43.5C84.999 66.4197 66.4197 84.999 43.5 84.999Z" fill="#66099F"/>
</svg>
