<svg width="94" height="87" viewBox="0 0 94 87" fill="none" xmlns="http://www.w3.org/2000/svg">
<path d="M87.1963 35.7323C83.4393 35.7323 80.3927 38.7496 80.3927 42.4738C80.3927 46.198 83.4374 49.2154 87.1963 49.2154C90.9552 49.2154 93.9999 46.198 93.9999 42.4738C93.998 38.7516 90.9533 35.7323 87.1963 35.7323ZM65.4286 49.2154C69.1836 49.2154 72.2283 46.198 72.2283 42.4738C72.2283 38.7496 69.1836 35.7323 65.4286 35.7323C61.6735 35.7323 58.6289 38.7496 58.6289 42.4738C58.6289 46.198 61.6735 49.2154 65.4286 49.2154ZM43.6628 49.2154C47.4198 49.2154 50.4665 46.198 50.4665 42.4738C50.4665 38.7496 47.4218 35.7323 43.6628 35.7323C39.9059 35.7323 36.8612 38.7496 36.8612 42.4738C36.8592 46.198 39.9059 49.2154 43.6628 49.2154ZM66.1099 58.6536C63.4795 58.6536 61.3464 60.7663 61.3464 63.3746C61.3464 65.981 63.4795 68.0956 66.1099 68.0956C68.7404 68.0956 70.8734 65.9829 70.8734 63.3746C70.8734 60.7663 68.7404 58.6536 66.1099 58.6536ZM49.1038 63.3727C49.1038 60.7664 46.9727 58.6517 44.3442 58.6517C41.7156 58.6517 39.5845 60.7644 39.5845 63.3727C39.5845 65.9791 41.7156 68.0937 44.3442 68.0937C46.9727 68.0937 49.1038 65.981 49.1038 63.3727ZM28.0213 63.3727C28.0213 60.7664 25.8883 58.6517 23.2578 58.6517C20.6273 58.6517 18.4943 60.7644 18.4943 63.3727C18.4943 65.9791 20.6273 68.0937 23.2578 68.0937C25.8883 68.0937 28.0213 65.981 28.0213 63.3727ZM65.4286 26.2902C68.0591 26.2902 70.1921 24.1775 70.1921 21.573C70.1921 18.9686 68.0591 16.8559 65.4286 16.8559C62.7981 16.8559 60.6651 18.9686 60.6651 21.573C60.6651 24.1775 62.7981 26.2902 65.4286 26.2902ZM43.6628 26.2902C46.2914 26.2902 48.4225 24.1775 48.4225 21.573C48.4225 18.9686 46.2914 16.8559 43.6628 16.8559C41.0343 16.8559 38.9032 18.9686 38.9032 21.573C38.9032 24.1775 41.0343 26.2902 43.6628 26.2902ZM22.5765 26.2902C25.207 26.2902 27.34 24.1775 27.34 21.573C27.34 18.9686 25.207 16.8559 22.5765 16.8559C19.946 16.8559 17.813 18.9686 17.813 21.573C17.813 24.1775 19.946 26.2902 22.5765 26.2902ZM3.18957 81.5769C1.8753 81.5769 0.808788 82.6332 0.808788 83.9374C0.808788 85.2396 1.8753 86.296 3.18957 86.296C4.50384 86.296 5.57035 85.2396 5.57035 83.9374C5.57035 82.6332 4.50384 81.5769 3.18957 81.5769ZM24.9573 81.5769C23.6411 81.5769 22.5745 82.6332 22.5745 83.9374C22.5745 85.2396 23.6411 86.296 24.9573 86.296C26.2735 86.296 27.34 85.2396 27.34 83.9374C27.34 82.6332 26.2735 81.5769 24.9573 81.5769ZM46.0436 81.5769C44.7294 81.5769 43.6628 82.6332 43.6628 83.9374C43.6628 85.2396 44.7294 86.296 46.0436 86.296C47.3579 86.296 48.4244 85.2396 48.4244 83.9374C48.4225 82.6332 47.3579 81.5769 46.0436 81.5769ZM57.9456 67.4177C55.6906 67.4177 53.8634 69.2289 53.8634 71.4626C53.8634 73.6963 55.6906 75.5075 57.9456 75.5075C60.2006 75.5075 62.0278 73.6963 62.0278 71.4626C62.0278 69.2289 60.2006 67.4177 57.9456 67.4177ZM36.1818 67.4177C33.9268 67.4177 32.0996 69.2289 32.0996 71.4626C32.0996 73.6963 33.9268 75.5075 36.1818 75.5075C38.4367 75.5075 40.2639 73.6963 40.2639 71.4626C40.2639 69.2289 38.4367 67.4177 36.1818 67.4177ZM15.0935 67.4177C12.8385 67.4177 11.0113 69.2289 11.0113 71.4626C11.0113 73.6963 12.8385 75.5075 15.0935 75.5075C17.3484 75.5075 19.1756 73.6963 19.1756 71.4626C19.1756 69.2289 17.3484 67.4177 15.0935 67.4177ZM57.9456 18.2003C60.2006 18.2003 62.0278 16.3891 62.0278 14.1554C62.0278 11.9216 60.2006 10.1104 57.9456 10.1104C55.6906 10.1104 53.8634 11.9216 53.8634 14.1554C53.8634 16.3891 55.6906 18.2003 57.9456 18.2003ZM36.1818 18.2003C38.4367 18.2003 40.2639 16.3891 40.2639 14.1554C40.2639 11.9216 38.4367 10.1104 36.1818 10.1104C33.9268 10.1104 32.0996 11.9216 32.0996 14.1554C32.0996 16.3891 33.9268 18.2003 36.1818 18.2003ZM15.0935 18.2003C17.3484 18.2003 19.1756 16.3891 19.1756 14.1554C19.1756 11.9216 17.3484 10.1104 15.0935 10.1104C12.8385 10.1104 11.0113 11.9216 11.0113 14.1554C11.0113 16.3891 12.8385 18.2003 15.0935 18.2003ZM9.31185 74.8315C7.62208 74.8315 6.25168 76.1894 6.25168 77.8661C6.25168 79.5429 7.62208 80.9008 9.31185 80.9008C11.0016 80.9008 12.372 79.5429 12.372 77.8661C12.372 76.1894 11.0016 74.8315 9.31185 74.8315ZM30.4002 74.8315C28.7104 74.8315 27.34 76.1894 27.34 77.8661C27.34 79.5429 28.7104 80.9008 30.4002 80.9008C32.0899 80.9008 33.4603 79.5429 33.4603 77.8661C33.4603 76.1894 32.0919 74.8315 30.4002 74.8315ZM52.164 74.8315C50.4742 74.8315 49.1038 76.1894 49.1038 77.8661C49.1038 79.5429 50.4742 80.9008 52.164 80.9008C53.8537 80.9008 55.2241 79.5429 55.2241 77.8661C55.2241 76.1894 53.8557 74.8315 52.164 74.8315ZM2.51018 4.71718C3.82444 4.71718 4.89096 3.66081 4.89096 2.35859C4.89096 1.05637 3.82444 0 2.51018 0C1.19591 0 0.129395 1.05637 0.129395 2.35859C0.129395 3.66081 1.19591 4.71718 2.51018 4.71718ZM24.2798 4.71718C25.5941 4.71718 26.6606 3.66081 26.6606 2.35859C26.6606 1.05637 25.5941 0 24.2798 0C22.9655 0 21.899 1.05637 21.899 2.35859C21.899 3.66081 22.9655 4.71718 24.2798 4.71718ZM45.3623 4.71718C46.6766 4.71718 47.7431 3.66081 47.7431 2.35859C47.7431 1.05637 46.6766 0 45.3623 0C44.048 0 42.9815 1.05637 42.9815 2.35859C42.9815 3.66081 44.048 4.71718 45.3623 4.71718ZM8.63052 10.7865C10.3203 10.7865 11.6907 9.4286 11.6907 7.75185C11.6907 6.0751 10.3203 4.71718 8.63052 4.71718C6.94075 4.71718 5.57035 6.0751 5.57035 7.75185C5.57035 9.42668 6.94075 10.7865 8.63052 10.7865ZM29.7208 10.7865C31.4105 10.7865 32.7809 9.4286 32.7809 7.75185C32.7809 6.0751 31.4105 4.71718 29.7208 4.71718C28.031 4.71718 26.6606 6.0751 26.6606 7.75185C26.6586 9.42668 28.029 10.7865 29.7208 10.7865ZM51.4846 10.7865C53.1744 10.7865 54.5448 9.4286 54.5448 7.75185C54.5448 6.0751 53.1744 4.71718 51.4846 4.71718C49.7948 4.71718 48.4244 6.0751 48.4244 7.75185C48.4225 9.42668 49.7929 10.7865 51.4846 10.7865ZM75.2924 48.5393C72.0987 48.5393 69.5108 51.1054 69.5108 54.2706C69.5108 57.4359 72.0987 60.0019 75.2924 60.0019C78.4861 60.0019 81.074 57.4359 81.074 54.2706C81.074 51.1073 78.4861 48.5393 75.2924 48.5393ZM54.2041 60.0038C57.3978 60.0038 59.9857 57.4378 59.9857 54.2725C59.9857 51.1073 57.3978 48.5412 54.2041 48.5412C51.0104 48.5412 48.4225 51.1073 48.4225 54.2725C48.4225 57.4378 51.0123 60.0038 54.2041 60.0038ZM32.4403 60.0038C35.634 60.0038 38.2219 57.4378 38.2219 54.2725C38.2219 51.1073 35.634 48.5412 32.4403 48.5412C29.2465 48.5412 26.6586 51.1073 26.6586 54.2725C26.6586 57.4378 29.2485 60.0038 32.4403 60.0038ZM75.2924 36.4083C78.4861 36.4083 81.074 33.8423 81.074 30.677C81.074 27.5118 78.4861 24.9457 75.2924 24.9457C72.0987 24.9457 69.5108 27.5118 69.5108 30.677C69.5108 33.8423 72.1006 36.4083 75.2924 36.4083ZM54.2041 36.4083C57.3978 36.4083 59.9857 33.8423 59.9857 30.677C59.9857 27.5118 57.3978 24.9457 54.2041 24.9457C51.0104 24.9457 48.4225 27.5118 48.4225 30.677C48.4225 33.8423 51.0123 36.4083 54.2041 36.4083ZM32.4403 36.4083C35.634 36.4083 38.2219 33.8423 38.2219 30.677C38.2219 27.5118 35.634 24.9457 32.4403 24.9457C29.2465 24.9457 26.6586 27.5118 26.6586 30.677C26.6586 33.8423 29.2485 36.4083 32.4403 36.4083Z" fill="white"/>
</svg>
