<svg width="20" height="22" viewBox="0 0 20 22" fill="none" xmlns="http://www.w3.org/2000/svg">
<path d="M11.6448 19.8809C11.4704 20.1815 11.2201 20.4311 10.9189 20.6046C10.6176 20.7781 10.2761 20.8694 9.92855 20.8694C9.58095 20.8694 9.23945 20.7781 8.93825 20.6046C8.63704 20.4311 8.3867 20.1815 8.21228 19.8809" stroke="#A100FD" stroke-width="2" stroke-linecap="round" stroke-linejoin="round"/>
<path d="M15.881 6.98412C15.881 5.40545 15.2538 3.89144 14.1375 2.77515C13.0213 1.65886 11.5072 1.03174 9.92857 1.03174C8.3499 1.03174 6.83589 1.65886 5.7196 2.77515C4.60331 3.89144 3.97619 5.40545 3.97619 6.98412C3.97619 13.9286 1 15.9127 1 15.9127H18.8571C18.8571 15.9127 15.881 13.9286 15.881 6.98412Z" stroke="#A100FD" stroke-width="2" stroke-linecap="round" stroke-linejoin="round"/>
</svg>
