<svg width="12" height="12" viewBox="0 0 12 12" fill="none" xmlns="http://www.w3.org/2000/svg">
<path fill-rule="evenodd" clip-rule="evenodd" d="M2.57153 0.428579C2.57153 0.191878 2.76341 0 3.00011 0C3.23679 0 3.42866 0.191878 3.42866 0.428579V1.28571H2.57153V0.428579ZM8.57129 0.428579C8.57129 0.191878 8.76317 0 8.99987 0C9.23657 0 9.42845 0.191878 9.42842 0.428579V1.28571H8.57129V0.428579ZM10.7143 1.28577H9.42857V3.00006C9.42857 3.23676 9.2367 3.42864 8.99999 3.42864C8.76329 3.42864 8.57141 3.23676 8.57141 3.00006V1.28577H3.42856V3.00006C3.42856 3.23676 3.23668 3.42864 2.99998 3.42864C2.76328 3.42864 2.5714 3.23676 2.5714 3.00006V1.28577H1.28571C0.575633 1.28577 0 1.8614 0 2.57148V10.7143C0 11.4244 0.575633 12.0001 1.28571 12.0001H10.7143C11.4244 12.0001 12 11.4244 12 10.7143V2.57148C12 1.8614 11.4244 1.28577 10.7143 1.28577ZM11.1428 10.7143C11.1428 10.951 10.951 11.1429 10.7143 11.1429H1.28571C1.04901 11.1429 0.857134 10.951 0.857134 10.7143V5.14291H11.1428V10.7143ZM3 6C2.44772 6 2 6.44772 2 7V9C2 9.55229 2.44772 10 3 10C3.55228 10 4 9.55229 4 9V7C4 6.44772 3.55228 6 3 6ZM5 7C5 6.44772 5.44772 6 6 6C6.55228 6 7 6.44772 7 7V9C7 9.55229 6.55228 10 6 10C5.44772 10 5 9.55229 5 9V7ZM9 6C8.44771 6 8 6.44772 8 7V9C8 9.55229 8.44771 10 9 10C9.55229 10 10 9.55229 10 9V7C10 6.44772 9.55229 6 9 6Z" fill="#3A70D4"/>
</svg>
