<svg width="29" height="58" viewBox="0 0 29 58" fill="none" xmlns="http://www.w3.org/2000/svg">
<rect width="29" height="58" fill="white"/>
<path d="M7.05875 20.4708C7.01596 20.5159 6.94367 20.6101 6.89535 20.6749C5.9972 21.8495 4.92385 23.6553 5.00426 25.3982C5.14074 28.3164 9.1339 32.195 10.3548 33.3144C11.576 34.4333 15.7898 38.078 18.748 37.9987C19.2411 37.9867 19.7638 37.8845 20.3008 37.6946C21.5405 37.2563 22.6596 36.4225 23.3704 35.8088C23.3704 35.8088 23.5234 35.6804 23.5825 35.6185C23.7311 35.4603 23.8488 35.2293 23.9421 34.9124C23.9897 34.7506 24 34.5799 24 34.4657C24 34.3384 23.9871 34.0917 23.9023 33.8673C23.7861 33.5603 23.6529 33.3405 23.4936 33.1929C23.3755 33.0848 20.7084 31.024 20.6914 31.0124L20.6711 30.9993C20.5265 30.8898 20.3757 30.8043 20.2222 30.745C19.8202 30.5897 19.375 30.5835 18.9682 30.7268C18.7096 30.8181 18.4768 30.9691 18.2972 31.1604L17.3806 32.1281C17.2947 32.219 17.135 32.3132 17.0785 32.3267C17.0192 32.3376 16.9778 32.3405 16.9513 32.3413L10.7996 26.7031C10.7849 26.6892 10.7775 26.6758 10.7734 26.6663C10.7764 26.6576 10.7801 26.6499 10.7819 26.6441C10.8044 26.599 10.9106 26.4557 11.0434 26.3138L11.9504 25.3454C12.4303 24.8365 12.5494 24.0449 12.244 23.4276C12.1352 23.2075 11.9862 23.0431 11.9172 22.9656L11.8815 22.9219C11.8638 22.9019 9.6182 20.4715 9.5175 20.3802C9.26779 20.1514 8.8746 20.0277 8.31579 20.0015C8.00522 19.987 7.61571 20.0772 7.38961 20.2158C7.24428 20.3057 7.13547 20.3893 7.05875 20.4708ZM8.75288 21.1704C8.87865 21.2962 10.9224 23.504 11.0294 23.6197L11.1047 23.7095C11.1353 23.7434 11.2072 23.823 11.2492 23.9074C11.3584 24.1286 11.3156 24.4167 11.1386 24.6048L10.2305 25.5743C10.1243 25.6874 9.86606 25.977 9.76352 26.2181C9.69565 26.3789 9.66356 26.519 9.6632 26.6816C9.67426 26.9923 9.80779 27.2818 10.0431 27.5005L16.2567 33.1954C16.4932 33.4118 16.8369 33.481 17.2788 33.4006C17.6204 33.3384 17.9903 33.0837 18.1895 32.8735L19.1076 31.904C19.1688 31.8389 19.25 31.7872 19.3414 31.7545C19.4941 31.7006 19.6682 31.7032 19.8187 31.7614C19.9065 31.7952 19.9795 31.8516 20.0035 31.8702C20.0264 31.8876 20.0448 31.9004 20.0614 31.9105C20.317 32.1059 22.6105 33.8837 22.7348 33.987C22.7352 33.9877 22.7894 34.0477 22.8658 34.2489C22.8765 34.2773 22.8935 34.3609 22.8935 34.4653C22.8935 34.5407 22.885 34.5898 22.8794 34.6076C22.8219 34.8026 22.7743 34.871 22.7743 34.8724C22.7385 34.9077 22.664 34.9685 22.6515 34.979C22.0027 35.5389 21.0038 36.2864 19.9272 36.6669C19.5015 36.8175 19.0958 36.8983 18.7196 36.9074C16.6986 36.9616 13.3561 34.5745 11.1083 32.5144C8.86021 30.4547 6.20265 27.3411 6.1097 25.348C6.04183 23.9111 6.98941 22.3646 7.76952 21.3439L7.7994 21.3046C7.81674 21.2813 7.84809 21.2377 7.86432 21.2187C7.89198 21.1929 7.93329 21.1678 7.96612 21.1474C8.01518 21.1227 8.16751 21.0878 8.26268 21.0925C8.58948 21.1081 8.7407 21.166 8.75288 21.1704Z" fill="#A100FD"/>
</svg>
