<svg width="22" height="22" viewBox="0 0 22 22" fill="none" xmlns="http://www.w3.org/2000/svg">
<path d="M8.30071 9.58028L8.29306 9.54816L8.28262 9.51684C8.16566 9.16594 8.40191 8.65321 8.88073 8.48982C10.6147 7.94815 11.0807 5.73 9.80956 4.45889L7.29232 1.94165L7.27466 1.92399L7.25587 1.90755C6.27441 1.04877 4.74448 1.00149 3.80433 1.94165L2.0962 3.64978L2.0894 3.65658L2.08278 3.66355C1.48395 4.29389 1.24675 5.13876 1.25003 6.03286C1.2533 6.9238 1.49291 7.91738 1.90881 8.94525C2.74161 11.0035 4.33543 13.3327 6.50137 15.4986C8.66485 17.6621 10.9929 19.2787 13.0513 20.1235C14.0791 20.5453 15.0757 20.7895 15.9712 20.7879C16.873 20.7862 17.7218 20.5322 18.3502 19.9038L20.0583 18.1957L20.076 18.178L20.0924 18.1592C20.9512 17.1778 20.9985 15.6478 20.0583 14.7077C20.0583 14.7076 20.0583 14.7076 20.0583 14.7076L17.5411 12.1904C16.27 10.9193 14.052 11.3853 13.5102 13.119C13.3713 13.5238 12.8823 13.7972 12.4176 13.6987C11.7016 13.5162 10.7645 12.9213 9.92979 12.0971C9.09055 11.2685 8.47951 10.3312 8.30071 9.58028Z" stroke="white" stroke-width="1.5"/>
</svg>
