<svg width="27" height="23" viewBox="0 0 27 23" fill="none" xmlns="http://www.w3.org/2000/svg">
<path fill-rule="evenodd" clip-rule="evenodd" d="M11.1725 0C4.99774 0 0 4.99689 0 11.1725C0 13.1321 0.511094 15.0461 1.48163 16.7342L0.0421082 21.2044C-0.0583036 21.5161 0.024208 21.8577 0.255718 22.0892C0.485011 22.3185 0.825797 22.4041 1.1405 22.3028L5.61079 20.8633C7.29886 21.8339 9.21282 22.3449 11.1725 22.3449C15.4638 22.3449 19.1867 19.9314 21.0585 16.386H19.0229C17.3319 18.9239 14.4441 20.5992 11.1725 20.5992C9.4024 20.5992 7.67698 20.1054 6.18274 19.171C5.96777 19.0366 5.7008 19.0003 5.45241 19.0803L2.22543 20.1195L3.26466 16.8925C3.34342 16.6477 3.31018 16.3804 3.1738 16.1622C2.23957 14.668 1.7457 12.9425 1.7457 11.1725C1.7457 5.97459 5.97459 1.7457 11.1725 1.7457C14.4439 1.7457 17.3315 3.42084 19.0226 5.9584H21.0582C19.1864 2.41355 15.4641 0 11.1725 0ZM12.2635 11.1725C12.2635 11.7749 11.7751 12.2635 11.1725 12.2635C10.5698 12.2635 10.0814 11.7749 10.0814 11.1725C10.0814 10.5698 10.5698 10.0814 11.1725 10.0814C11.7751 10.0814 12.2635 10.5698 12.2635 11.1725ZM16.6278 11.1725C16.6278 11.7749 16.1394 12.2635 15.5367 12.2635C14.9341 12.2635 14.4457 11.7749 14.4457 11.1725C14.4457 10.5698 14.9341 10.0814 15.5367 10.0814C16.1394 10.0814 16.6278 10.5698 16.6278 11.1725ZM7.89929 11.1725C7.89929 11.7749 7.41087 12.2635 6.80823 12.2635C6.20575 12.2635 5.71716 11.7749 5.71716 11.1725C5.71716 10.5698 6.20575 10.0814 6.80823 10.0814C7.41087 10.0814 7.89929 10.5698 7.89929 11.1725ZM22.3449 7.44817H23.8346V10.4275H26.8139V11.9172H23.8346V14.8965H22.3449V11.9172H19.3656V10.4275H22.3449V7.44817Z" fill="white"/>
</svg>
