<svg width="33" height="58" viewBox="0 0 33 58" fill="none" xmlns="http://www.w3.org/2000/svg">
<rect width="33" height="58" fill="white"/>
<path fill-rule="evenodd" clip-rule="evenodd" d="M16.1667 20C11.1005 20 7 24.0253 7 29C7 30.5786 7.41934 32.1204 8.21563 33.4802L7.03455 37.0813C6.95216 37.3323 7.01986 37.6075 7.20981 37.794C7.39794 37.9787 7.67754 38.0477 7.93575 37.9661L11.6035 36.8065C12.9885 37.5883 14.5588 38 16.1667 38C19.6876 38 22.7421 36.0558 24.2778 33.1998H22.6077C21.2203 35.2442 18.851 36.5938 16.1667 36.5938C14.7144 36.5938 13.2987 36.1959 12.0727 35.4432C11.8964 35.335 11.6773 35.3057 11.4735 35.3701L8.82589 36.2073L9.67855 33.6078C9.74318 33.4106 9.7159 33.1953 9.604 33.0195C8.8375 31.8158 8.43229 30.4259 8.43229 29C8.43229 24.8128 11.902 21.4062 16.1667 21.4062C18.8508 21.4062 21.22 22.7557 22.6075 24.7998H24.2776C22.7419 21.9443 19.6878 20 16.1667 20ZM17.0619 29C17.0619 29.4853 16.6611 29.8789 16.1667 29.8789C15.6722 29.8789 15.2715 29.4853 15.2715 29C15.2715 28.5145 15.6722 28.1211 16.1667 28.1211C16.6611 28.1211 17.0619 28.5145 17.0619 29ZM20.6426 29C20.6426 29.4853 20.2418 29.8789 19.7474 29.8789C19.253 29.8789 18.8522 29.4853 18.8522 29C18.8522 28.5145 19.253 28.1211 19.7474 28.1211C20.2418 28.1211 20.6426 28.5145 20.6426 29ZM13.4811 29C13.4811 29.4853 13.0804 29.8789 12.5859 29.8789C12.0916 29.8789 11.6908 29.4853 11.6908 29C11.6908 28.5145 12.0916 28.1211 12.5859 28.1211C13.0804 28.1211 13.4811 28.5145 13.4811 29ZM25.3333 26H26.5555V28.4H29V29.6H26.5555V32H25.3333V29.6H22.8889V28.4H25.3333V26Z" fill="#A100FD"/>
</svg>
