<svg width="26" height="13" viewBox="0 0 26 13" fill="none" xmlns="http://www.w3.org/2000/svg">
<path d="M15.9446 7.19082L15.9723 7.20873L16.0015 7.22413C16.3287 7.39666 16.5127 7.93037 16.2799 8.37955C15.4022 9.97008 16.5998 11.8944 18.397 11.9332L21.9561 12.0102L21.9811 12.0107L22.006 12.0096C23.3088 11.951 24.4465 10.927 24.4753 9.59772L24.5275 7.18263L24.5277 7.17302L24.5277 7.16341C24.5242 6.29398 24.1111 5.51972 23.4903 4.87625C22.8718 4.23505 22.0115 3.68318 21.0002 3.22848C18.9752 2.31799 16.213 1.73813 13.1507 1.6719C10.0917 1.60575 7.29223 2.04838 5.22131 2.86194C4.18719 3.2682 3.29852 3.78112 2.65289 4.40169C2.00274 5.02662 1.56544 5.79713 1.54624 6.68564L1.49401 9.10073L1.49347 9.12568L1.49459 9.15062C1.55315 10.4535 2.57718 11.5911 3.90649 11.6199C3.9065 11.6199 3.90651 11.6199 3.90651 11.6199L7.46557 11.6968C9.26271 11.7357 10.5424 9.86511 9.73451 8.23822C9.55484 7.84979 9.71896 7.31415 10.1228 7.06383C10.766 6.70039 11.8543 6.48193 13.0272 6.49982C14.2064 6.51781 15.296 6.77212 15.9446 7.19082Z" stroke="white" stroke-width="1.5"/>
</svg>
