<svg width="14" height="16" viewBox="0 0 14 16" fill="none" xmlns="http://www.w3.org/2000/svg">
<path fill-rule="evenodd" clip-rule="evenodd" d="M6.99844 0C5.05712 0 3.47791 1.592 3.47791 3.54881V4.50881C3.47791 6.46562 5.05709 8.05762 6.99844 8.05762C8.93978 8.05762 10.5195 6.46562 10.5195 4.50881V3.54881C10.5195 1.592 8.93978 0 6.99844 0ZM9.45284 4.50881C9.45284 5.87734 8.35203 6.99094 6.99844 6.99094C5.64537 6.99094 4.54456 5.87734 4.54456 4.50881V3.54881C4.54456 2.18028 5.64537 1.06669 6.99844 1.06669C8.35203 1.06669 9.45284 2.18028 9.45284 3.54881V4.50881ZM12.4147 13.8947C12.4864 13.8531 12.5461 13.796 12.5906 13.729C13.0919 13.2422 13.5314 12.6866 13.8924 12.072C13.9905 11.9051 13.9905 11.6987 13.8924 11.5318C12.9074 9.85613 11.3472 8.60619 9.49027 8.00301C9.39922 7.95637 9.29922 7.93831 9.20196 7.94668C9.07362 7.9532 8.94947 8.00624 8.85504 8.09922C8.25133 8.6931 7.53616 9.19225 7.10925 9.46804C7.07353 9.4605 7.03651 9.45654 6.99856 9.45654C6.96628 9.45654 6.93468 9.45941 6.90398 9.4649C6.44283 9.15663 5.66107 8.60742 5.15069 8.10571C5.12978 8.08437 5.10736 8.06508 5.08371 8.0479C4.97661 7.96973 4.84461 7.93446 4.71342 7.94881C4.6706 7.95328 4.62802 7.96296 4.58665 7.97801C2.69372 8.57226 1.10341 9.83368 0.107285 11.5318C0.00916015 11.6987 0.00916015 11.9046 0.107285 12.0715C0.482203 12.7103 0.941951 13.2853 1.46763 13.7856C1.49065 13.812 1.51635 13.8362 1.54447 13.8578C2.99019 15.1978 4.91598 15.9828 6.94256 15.9971C6.96097 15.9991 6.97965 16 6.99856 16C7.01744 16 7.0361 15.9991 7.05448 15.9972C9.06284 15.9832 10.9728 15.2123 12.4147 13.8947ZM7.5319 14.9102C9.02287 14.7953 10.4267 14.2021 11.5362 13.2485C11.4467 12.9558 11.3495 12.6682 11.2455 12.3899C10.7124 10.9643 10.0192 9.84144 9.26696 9.17331C8.60154 9.76626 7.9033 10.231 7.5319 10.4636V14.9102ZM6.46521 10.4549C6.08577 10.2062 5.34855 9.70419 4.74268 9.17902C3.98795 9.84673 3.31182 10.9464 2.77086 12.3914C2.66734 12.6675 2.56882 12.9589 2.47656 13.2605C3.58339 14.2068 4.98119 14.7954 6.46521 14.9101V10.4549ZM11.4486 10.2773C11.7394 10.7959 12.0062 11.3775 12.245 12.016C12.2904 12.1378 12.3347 12.2611 12.3777 12.3858C12.5297 12.1996 12.6724 12.0047 12.8049 11.8016C12.4288 11.2248 11.9712 10.7123 11.4486 10.2773ZM1.19422 11.8016C1.57821 11.2114 2.04819 10.6885 2.58612 10.2471C2.28856 10.7734 2.0157 11.3655 1.77192 12.017C1.72504 12.1426 1.67905 12.2709 1.63411 12.4015C1.47731 12.2106 1.33036 12.0104 1.19422 11.8016ZM8.95483 11.9462H8.49294C8.198 11.9462 7.95959 12.1846 7.95959 12.4795C7.95959 12.7744 8.198 13.0129 8.49294 13.0129H8.95483V13.4752C8.95483 13.7701 9.19324 14.0086 9.48818 14.0086C9.78258 14.0086 10.0215 13.7696 10.0215 13.4752V13.0129H10.4839C10.7783 13.0129 11.0172 12.7744 11.0172 12.4795C11.0172 12.1846 10.7788 11.9462 10.4839 11.9462H10.0215V11.4843C10.0215 11.1893 9.78308 10.9509 9.48818 10.9509C9.19324 10.9509 8.95483 11.1893 8.95483 11.4843V11.9462Z" fill="white"/>
</svg>
