<svg width="327" height="326" viewBox="0 0 327 326" fill="none" xmlns="http://www.w3.org/2000/svg">
<path d="M34.1298 120.062H17.5811V148.8C17.5811 148.8 32.2421 148.8 34.0196 148.8C35.7963 148.8 35.9081 146.99 35.9081 146.99C35.9081 146.99 35.9081 124.022 35.9081 121.986C35.9081 119.949 34.1298 120.062 34.1298 120.062ZM32.6861 145.971C31.6121 145.971 20.4686 145.971 20.4686 145.971C20.4686 145.971 19.7651 145.934 19.7651 145.066C19.7651 144.198 19.7651 140.314 19.7651 140.314C19.7651 140.314 19.6908 139.371 20.3576 139.371H33.0191C33.0191 139.371 33.7226 139.334 33.7226 140.427C33.7226 141.52 33.7226 145.292 33.7226 145.292C33.7226 145.292 33.7601 145.971 32.6861 145.971ZM26.6883 136.468C22.7621 136.468 19.5798 133.227 19.5798 129.228C19.5798 125.229 22.7628 121.987 26.6883 121.987C30.6146 121.987 33.7968 125.229 33.7968 129.228C33.7968 133.227 30.6146 136.468 26.6883 136.468Z" fill="#3A70D4"/>
<path d="M30.4644 141.333C30.3977 140.632 29.7977 140.745 29.7977 140.745H24.0227C24.0227 140.745 23.0229 140.564 23.0229 141.333C23.0229 142.102 23.6897 142.034 23.6897 142.034C23.6897 142.034 29.4429 142.034 29.5764 142.034C29.7092 142.034 30.5312 142.034 30.4644 141.333Z" fill="#9D00FF"/>
<path d="M31.464 144.048C31.3973 143.347 30.7973 143.46 30.7973 143.46H29.0933C28.989 143.444 28.9088 143.46 28.9088 143.46H25.0215C25.0215 143.46 24.792 143.418 24.5528 143.46H23.1331C23.1331 143.46 22.1333 143.279 22.1333 144.048C22.1333 144.817 22.8001 144.749 22.8001 144.749C22.8001 144.749 23.5966 144.749 24.6031 144.749C24.6548 144.752 24.6885 144.749 24.6885 144.749C24.6885 144.749 26.9648 144.749 28.6868 144.749C29.7023 144.749 30.5258 144.749 30.5753 144.749C30.7088 144.75 31.5308 144.75 31.464 144.048Z" fill="#A100FF"/>
<path d="M26.688 123.457C23.559 123.457 21.0225 126.041 21.0225 129.228C21.0225 132.415 23.559 134.998 26.688 134.998C29.817 134.998 32.3535 132.415 32.3535 129.228C32.3542 126.041 29.817 123.457 26.688 123.457ZM30.048 132.169C30.048 132.169 30.0202 132.87 29.3535 132.87C28.6867 132.87 28.6867 132.372 28.6867 131.942C28.6867 131.512 28.6867 129.792 28.6867 129.792H24.8272V132.056C24.8272 132.056 24.8272 132.87 24.1327 132.87C23.4382 132.87 23.4382 132.237 23.4382 131.942C23.4382 131.647 23.4382 126.171 23.4382 126.171C23.4382 126.171 23.466 125.492 24.021 125.492C24.576 125.492 24.8265 125.809 24.8265 126.51C24.8265 127.212 24.8265 128.519 24.8265 128.519H28.686V126.284C28.686 126.284 28.6582 125.492 29.3527 125.492C30.0472 125.492 30.0472 126.148 30.0472 126.397C30.0472 126.646 30.048 132.169 30.048 132.169Z" fill="#A100FF"/>
<path d="M12.694 123.457C12.694 123.457 12.694 141.371 12.694 145.18C12.694 148.989 16.3592 148.801 16.3592 148.801V120.063C12.4345 120.063 12.694 123.457 12.694 123.457ZM39.0167 130.359C38.4617 130.17 37.1282 129.567 37.1282 129.567V145.293C37.1282 145.293 38.4242 144.614 39.5717 144.388C40.7192 144.162 40.9044 142.351 40.9044 142.351C40.9044 142.351 40.9044 134.922 40.9044 132.735C40.9052 130.548 39.5724 130.548 39.0167 130.359Z" fill="black"/>
<path d="M27 107C12.0885 107 0 119.312 0 134.5C0 149.688 12.0885 162 27 162C41.9115 162 54 149.688 54 134.5C54 119.312 41.9115 107 27 107ZM27 160.735C12.774 160.735 1.242 148.989 1.242 134.5C1.242 120.011 12.774 108.265 27 108.265C41.226 108.265 52.758 120.011 52.758 134.5C52.758 148.989 41.226 160.735 27 160.735Z" fill="#A100FF"/>
<path d="M237.921 271.428C237.921 271.428 229.825 271.428 227.265 271.428C224.704 271.428 224.663 274.105 224.663 274.105C224.663 274.105 224.663 290.42 224.663 293.035C224.663 295.651 227.017 295.9 227.017 295.9C227.017 295.9 234.7 295.9 237.426 295.9C240.152 295.9 240.338 293.409 240.338 293.409C240.338 293.409 240.338 277.551 240.338 274.604C240.338 271.656 237.921 271.428 237.921 271.428ZM237.302 294.157C235.98 294.157 227.389 294.157 227.389 294.157C227.389 294.157 226.397 294.157 226.397 293.161C226.397 292.165 226.397 274.106 226.397 274.106C226.397 274.106 226.48 273.276 227.265 273.276C228.05 273.276 228.876 273.276 228.876 273.276L230.487 274.106H234.452L235.94 273.276H237.427C237.427 273.276 238.542 273.235 238.542 274.106C238.542 274.978 238.542 293.285 238.542 293.285C238.542 293.285 238.623 294.157 237.302 294.157Z" fill="#3A70D4"/>
<path d="M231.967 282.873V281.753C231.967 281.752 231.391 282.313 231.967 282.873ZM232.468 279.211C229.799 279.211 227.635 281.386 227.635 284.069C227.635 286.752 229.799 288.926 232.468 288.926C235.136 288.926 237.299 286.752 237.299 284.069C237.299 281.386 235.136 279.211 232.468 279.211ZM232.97 287.357V287.655C232.97 287.655 232.97 288.104 232.468 288.029C231.967 287.954 231.967 287.768 231.967 287.655C231.967 287.543 231.967 287.357 231.967 287.357C231.967 287.357 230.387 287.151 230.238 285.713C230.238 285.713 230.145 285.115 230.684 285.041C231.223 284.966 231.316 285.339 231.353 285.713C231.353 285.713 231.706 286.199 231.967 286.236V284.144C231.967 284.144 230.684 283.677 230.684 282.65C230.684 281.622 231.167 280.913 231.967 280.707V280.557C231.967 280.557 231.985 280.165 232.394 280.109C232.803 280.053 232.97 280.352 232.97 280.557C232.97 280.763 232.97 280.781 232.97 280.781C232.97 280.781 234.141 280.874 234.253 282.051C234.253 282.051 234.346 282.818 233.733 282.799C233.119 282.78 233.212 282.126 233.212 282.126L232.971 281.828V283.322C232.971 283.322 234.626 283.901 234.626 285.19C234.626 286.478 234.123 287.17 232.97 287.357ZM232.97 284.592V286.311C233.398 286.143 233.565 285.732 233.584 285.339C233.603 284.947 232.97 284.592 232.97 284.592Z" fill="#A100FF"/>
<path d="M236.633 267.119C236.414 266.91 234.903 265.5 232.41 265.512C229.853 265.577 228.42 267.237 228.42 267.237C228.42 267.237 228.11 267.59 228.343 267.942C228.575 268.295 229.027 268.124 229.117 267.981C229.117 267.981 230.357 266.635 232.333 266.531C234.309 266.426 235.729 267.602 235.975 267.902C235.975 267.902 236.389 268.359 236.75 268.02C237.111 267.68 236.852 267.327 236.633 267.119ZM232.177 267.237C230.511 267.341 229.582 268.49 229.582 268.49C229.31 268.764 229.44 269.182 229.776 269.313C230.112 269.443 230.434 269 230.434 269C230.899 268.621 231.558 268.229 232.643 268.216C233.727 268.203 234.528 268.79 234.774 269.039C235.02 269.287 235.419 269.417 235.665 269.117C235.91 268.817 235.704 268.53 235.704 268.53C235.031 267.811 233.843 267.132 232.177 267.237ZM234.037 269.273C233.25 268.751 232.294 268.881 232.294 268.881C231.533 268.96 230.989 269.391 230.783 269.586C230.576 269.782 230.46 270.109 230.783 270.37C231.106 270.631 231.404 270.37 231.404 270.37C231.404 270.37 231.572 270.148 231.985 269.978C232.398 269.809 233.173 269.796 233.651 270.252C234.129 270.709 234.438 270.396 234.503 270.291C234.567 270.187 234.825 269.796 234.037 269.273Z" fill="black"/>
<path d="M232.5 253C217.312 253 205 265.312 205 280.5C205 295.688 217.312 308 232.5 308C247.688 308 260 295.688 260 280.5C260 265.312 247.688 253 232.5 253ZM232.5 306.735C218.011 306.735 206.265 294.989 206.265 280.5C206.265 266.011 218.011 254.265 232.5 254.265C246.989 254.265 258.735 266.011 258.735 280.5C258.735 294.989 246.989 306.735 232.5 306.735Z" fill="#A100FF"/>
<path d="M256.472 90.625H259.029V84.2526C257.796 84.2282 256.472 83.7622 256.472 83.7622V90.625ZM260.623 90.625H263.179V84.0074C262.271 84.2526 260.623 84.2526 260.623 84.2526V90.625ZM264.864 90.625H267.391V82.7822C267.084 83.0029 264.864 83.64 264.864 83.64V90.625ZM269.005 82.1695V90.625H271.571V80.699C271.234 81.165 269.005 82.1695 269.005 82.1695ZM273.256 90.625H275.758V78.2485C275.253 78.6648 273.256 79.9642 273.256 79.9642V90.625ZM277.394 77.1454V90.625H279.993V75.0623C279.68 75.3808 277.394 77.1454 277.394 77.1454Z" fill="#3A70D4"/>
<path d="M276.504 67.4646L277.707 68.6899C265.195 84.947 255.69 82.0473 255.69 82.0473C266.558 86.5 281.437 71.9991 281.437 71.9991L282.761 73.1021L284.446 64.6467L276.504 67.4646Z" fill="black"/>
<path d="M262.698 67.3424V65.5045C262.698 65.5038 261.766 66.4227 262.698 67.3424ZM263.509 61.3375C259.191 61.3375 255.69 64.9033 255.69 69.3018C255.69 73.7003 259.191 77.2661 263.509 77.2661C267.828 77.2661 271.329 73.7003 271.329 69.3018C271.329 64.9033 267.828 61.3375 263.509 61.3375ZM264.322 74.6949V75.1853C264.322 75.1853 264.322 75.9209 263.51 75.7979C262.698 75.6757 262.698 75.3694 262.698 75.1853C262.698 75.0012 262.698 74.6949 262.698 74.6949C262.698 74.6949 260.141 74.358 259.9 71.9991C259.9 71.9991 259.75 71.019 260.623 70.896C261.495 70.7738 261.646 71.3865 261.706 71.9991C261.706 71.9991 262.277 72.7958 262.698 72.8569V69.4256C262.698 69.4256 260.623 68.6594 260.623 66.975C260.623 65.2899 261.405 64.1257 262.698 63.7888V63.5436C262.698 63.5436 262.728 62.9004 263.389 62.808C264.051 62.7163 264.322 63.206 264.322 63.5436C264.322 63.8805 264.322 63.911 264.322 63.911C264.322 63.911 266.217 64.0646 266.397 65.9942C266.397 65.9942 266.548 67.25 265.555 67.2194C264.562 67.1889 264.712 66.1164 264.712 66.1164L264.322 65.626V68.0765C264.322 68.0765 266.998 69.026 266.998 71.1397C266.998 73.2534 266.188 74.3885 264.322 74.6949ZM264.322 70.1604V72.9792C265.014 72.7034 265.285 72.0297 265.315 71.3865C265.345 70.7425 264.322 70.1604 264.322 70.1604Z" fill="#A100FF"/>
<path d="M270 48C255.089 48 243 60.3124 243 75.5C243 90.6876 255.089 103 270 103C284.912 103 297 90.6876 297 75.5C297 60.3124 284.912 48 270 48ZM270 101.735C255.774 101.735 244.242 89.9894 244.242 75.5C244.242 61.0106 255.774 49.265 270 49.265C284.226 49.265 295.758 61.0106 295.758 75.5C295.758 89.9894 284.226 101.735 270 101.735Z" fill="#A100FF"/>
<path d="M94.1986 265.761C94.2263 263.583 92.3641 261.83 90.4178 261.802C88.4716 261.774 86.9708 263.018 86.6371 264.517C86.3033 266.015 86.7481 267.156 87.1928 267.798C87.6376 268.438 87.8603 269.042 87.8603 269.042C87.7861 271.266 88.7498 272.21 88.7498 272.21C88.7498 272.21 88.7498 273.115 88.7498 273.793C88.7498 274.472 89.1203 275.453 90.3068 275.49C91.4933 275.527 91.8638 274.133 91.8638 274.133V272.323C92.6423 271.7 92.7533 270.173 92.7533 270.173C92.7533 270.173 92.5028 269.014 93.1981 268.25C93.8926 267.487 94.1986 265.761 94.1986 265.761ZM90.9736 274.019C90.9736 274.019 90.9068 274.608 90.3061 274.585C89.7053 274.562 89.6611 274.11 89.6611 273.906C89.6611 273.702 89.6386 273 89.6386 273C89.6386 273 90.3946 273.272 90.9728 273V274.019H90.9736ZM90.7868 268.477H90.8626V271.871C90.8626 271.871 90.7793 272.182 90.3068 272.21C89.8343 272.238 89.7233 272.068 89.7511 271.871C89.7788 271.673 89.7511 268.477 89.7511 268.477H89.8246C89.4518 268.294 89.1946 267.908 89.1946 267.459C89.1946 266.835 89.6926 266.329 90.3061 266.329C90.9203 266.329 91.4176 266.835 91.4176 267.459C91.4168 267.908 91.1596 268.294 90.7868 268.477ZM92.3078 265.309C92.0633 265.128 92.0408 264.879 91.8631 264.63C91.6853 264.381 91.5961 264.2 91.0846 263.951C91.0846 263.951 90.7291 263.793 90.7508 263.498C90.7733 263.204 91.1063 262.729 91.7513 263.159C92.3963 263.589 92.8186 264.042 93.0856 264.63C93.3533 265.218 92.5523 265.49 92.3078 265.309Z" fill="#3A70D4"/>
<path d="M90.7359 259.54C90.6864 259.344 90.5124 259.2 90.3054 259.2C90.0984 259.2 89.9244 259.344 89.8749 259.54H89.8599V260.67H89.8741C89.9229 260.865 90.0969 261.01 90.3054 261.01C90.5131 261.01 90.6871 260.865 90.7366 260.67H90.7509V259.54H90.7359Z" fill="#66099F"/>
<path d="M95.8281 261.389C95.6819 261.24 95.4591 261.217 95.2889 261.32L95.2776 261.308L94.5696 262.028L94.4909 262.108L94.5021 262.12C94.4016 262.293 94.4234 262.519 94.5696 262.668C94.7159 262.817 94.9386 262.839 95.1089 262.737L95.1201 262.748L95.1989 262.668L95.8281 262.028L95.9069 261.948L95.8956 261.936C95.9961 261.764 95.9744 261.538 95.8281 261.389ZM86.2521 262.108L85.4458 261.288L85.4346 261.299C85.2598 261.195 85.0318 261.217 84.8818 261.369C84.7318 261.522 84.7101 261.754 84.8129 261.932L84.8016 261.943L85.5269 262.681L85.6071 262.763L85.6184 262.751C85.7931 262.856 86.0211 262.834 86.1711 262.681C86.3211 262.528 86.3429 262.296 86.2401 262.119L86.2521 262.108Z" fill="#3A70D4"/>
<path d="M83.8566 269.947C84.4401 268.646 84.1349 267.967 84.0794 267.798C84.0239 267.628 83.8851 267.289 84.4131 266.666C84.9411 266.044 84.4131 265.083 84.4131 265.083C83.3841 266.723 81.7446 265.252 81.0771 264.857C80.4096 264.461 79.0476 263.414 76.9626 264.857C74.8776 266.299 75.2946 268.872 75.4056 269.269C75.5166 269.665 75.6284 270.061 75.6284 270.061C74.8499 270.174 75.0171 270.768 75.2946 271.418C75.5729 272.069 75.9621 271.984 75.9621 271.984C76.1564 273.624 77.8529 274.925 77.8529 274.925C77.8251 276.339 77.1854 276.961 77.1854 276.961L77.0744 287.029L82.1894 287.368L82.4121 276.847C81.5781 276.31 81.6336 275.038 81.6336 275.038C82.8569 274.274 83.5244 271.984 83.5244 271.984C83.9691 272.068 84.3584 271.588 84.5249 270.852C84.6906 270.117 83.8566 269.947 83.8566 269.947Z" fill="#66099F"/>
<path d="M89.1944 284.654C89.1944 284.654 88.8052 283.07 88.4159 281.373C88.0267 279.676 87.2482 279.138 85.9694 278.658C84.6907 278.177 82.1887 276.734 82.1887 276.734L79.9649 286.915H79.4092C79.4092 286.915 78.0412 280.325 77.5072 277.749C77.3774 277.123 77.2964 276.734 77.2964 276.734L76.7407 277.187C76.6297 277.3 73.8494 278.572 72.7372 278.996C71.6249 279.42 71.2919 280.693 71.2919 280.693C71.2919 280.693 71.0137 281.57 70.2914 284.539C69.5684 287.508 72.5152 287.933 72.5152 287.933C72.5152 287.933 83.5799 287.933 86.6377 287.933C89.6947 287.934 89.1944 284.654 89.1944 284.654Z" fill="black"/>
<path d="M73.1812 279.902C72.3749 280.185 72.1807 281.033 72.1807 281.033C72.1807 281.033 71.4299 283.861 71.1802 285.219C70.9297 286.576 72.5144 286.915 72.5144 286.915H79.4092L77.5177 277.753C77.2124 278.233 73.1812 279.902 73.1812 279.902ZM88.2802 285.219C88.0304 283.861 87.2827 281.033 87.2827 281.033C87.2827 281.033 87.0884 280.185 86.2844 279.902C86.2844 279.902 82.2652 278.234 81.9607 277.753L80.0759 286.915H86.9504C86.9497 286.916 88.5299 286.576 88.2802 285.219Z" fill="white"/>
<path d="M83.4118 276.734C83.2453 275.942 82.0776 275.49 82.0776 275.49L82.1886 276.169C82.1886 276.169 82.2441 276.169 82.5223 276.282C82.8006 276.395 82.8561 277.47 82.8561 277.64C82.8561 277.809 81.9388 279.251 81.4101 280.241C80.8821 281.231 80.2701 281.966 79.6311 281.938C78.9913 281.91 78.6028 281.033 78.2968 280.467C77.9908 279.902 76.8793 278.346 76.6288 277.413C76.3783 276.48 77.5183 276.056 77.5183 276.056L77.6293 275.491C75.2661 275.915 76.1833 278.093 76.1833 278.093C76.1833 278.093 77.4898 280.299 78.0741 281.373C78.6576 282.448 79.4083 282.505 79.4083 282.505C79.4083 282.505 79.4361 283.58 79.4083 284.767C79.3806 285.955 78.2961 287.454 76.9618 287.256C75.6276 287.058 75.1828 284.88 75.1828 284.88V282.703C75.8796 282.57 76.4068 281.95 76.4068 281.203C76.4068 280.36 75.7341 279.676 74.9046 279.676C74.0751 279.676 73.4023 280.36 73.4023 281.203C73.4023 281.939 73.9138 282.553 74.5948 282.698L74.5146 284.654C74.9038 288.133 77.4058 287.935 77.4058 287.935C79.6296 287.54 79.9633 285.107 79.9633 285.107L80.0743 282.619C80.8528 282.477 81.2976 281.6 81.2976 281.6C81.2976 281.6 82.7151 279.507 83.0766 278.659C83.4396 277.809 83.5783 277.526 83.4118 276.734Z" fill="#3A70D4"/>
<path d="M83 246C68.0885 246 56 258.312 56 273.5C56 288.688 68.0885 301 83 301C97.9115 301 110 288.688 110 273.5C110 258.312 97.9115 246 83 246ZM83 299.735C68.774 299.735 57.242 287.989 57.242 273.5C57.242 259.011 68.774 247.265 83 247.265C97.226 247.265 108.758 259.011 108.758 273.5C108.758 287.989 97.226 299.735 83 299.735Z" fill="#A100FF"/>
<path d="M41.1289 209.062C37.5723 208.236 37.2843 205.038 37.2843 205.038C34.4961 207.014 31.7155 205.038 31.7155 205.038C30.8172 208.523 27.7632 209.062 27.7632 209.062C29.5239 212.224 27.7632 214.631 27.7632 214.631C30.9249 215.062 31.7155 218.619 31.7155 218.619C34.5183 216.643 37.2843 218.619 37.2843 218.619C37.8228 215.063 41.2367 214.631 41.2367 214.631C39.3323 211.685 41.1289 209.062 41.1289 209.062Z" fill="#3A70D4"/>
<path d="M26.6858 216.141C24.7218 216.141 23.1299 217.733 23.1299 219.697C23.1299 221.66 24.7218 223.252 26.6858 223.252C28.6497 223.252 30.2417 221.66 30.2417 219.697C30.2417 217.733 28.6497 216.141 26.6858 216.141ZM26.74 222.071C25.4613 222.071 24.4239 221.033 24.4239 219.752C24.4239 218.472 25.4605 217.435 26.74 217.435C28.0195 217.435 29.0561 218.473 29.0561 219.752C29.0561 221.032 28.0188 222.071 26.74 222.071Z" fill="#A100FF"/>
<path d="M42.3137 216.141C40.3498 216.141 38.7578 217.733 38.7578 219.697C38.7578 221.66 40.3498 223.252 42.3137 223.252C44.2777 223.252 45.8696 221.66 45.8696 219.697C45.8696 217.733 44.2777 216.141 42.3137 216.141ZM42.3672 222.071C41.0884 222.071 40.0511 221.033 40.0511 219.752C40.0511 218.472 41.0877 217.435 42.3672 217.435C43.6459 217.435 44.6833 218.473 44.6833 219.752C44.6833 221.032 43.6467 222.071 42.3672 222.071Z" fill="#A100FF"/>
<path d="M26.6858 200.405C24.7218 200.405 23.1299 201.997 23.1299 203.961C23.1299 205.925 24.7218 207.517 26.6858 207.517C28.6497 207.517 30.2417 205.925 30.2417 203.961C30.2417 201.997 28.6497 200.405 26.6858 200.405ZM26.74 206.331C25.4613 206.331 24.4239 205.294 24.4239 204.015C24.4239 202.735 25.4605 201.699 26.74 201.699C28.0195 201.699 29.0561 202.735 29.0561 204.015C29.0561 205.294 28.0188 206.331 26.74 206.331Z" fill="#A100FF"/>
<path d="M42.3137 200.405C40.3498 200.405 38.7578 201.997 38.7578 203.961C38.7578 205.925 40.3498 207.517 42.3137 207.517C44.2777 207.517 45.8696 205.925 45.8696 203.961C45.8696 201.997 44.2777 200.405 42.3137 200.405ZM42.3672 206.331C41.0884 206.331 40.0511 205.294 40.0511 204.015C40.0511 202.735 41.0877 201.699 42.3672 201.699C43.6459 201.699 44.6833 202.735 44.6833 204.015C44.6833 205.294 43.6467 206.331 42.3672 206.331Z" fill="#A100FF"/>
<path d="M45.6549 208.273C43.6902 208.273 42.0967 209.865 42.0967 211.829C42.0967 213.793 43.6894 215.384 45.6549 215.384C47.6196 215.384 49.2123 213.792 49.2123 211.829C49.2123 209.866 47.6196 208.273 45.6549 208.273ZM45.7083 214.199C44.4281 214.199 43.3907 213.162 43.3907 211.883C43.3907 210.604 44.4288 209.567 45.7083 209.567C46.9886 209.567 48.026 210.603 48.026 211.883C48.026 213.161 46.9886 214.199 45.7083 214.199Z" fill="#A100FF"/>
<path d="M23.3448 208.273C21.3801 208.273 19.7866 209.865 19.7866 211.829C19.7866 213.793 21.3793 215.384 23.3448 215.384C25.3103 215.384 26.903 213.792 26.903 211.829C26.903 209.866 25.3103 208.273 23.3448 208.273ZM23.3991 214.199C22.1188 214.199 21.0806 213.162 21.0806 211.883C21.0806 210.604 22.1188 209.567 23.3991 209.567C24.6793 209.567 25.7167 210.603 25.7167 211.883C25.7167 213.161 24.6793 214.199 23.3991 214.199Z" fill="#A100FF"/>
<path d="M40.8052 201.805C40.8052 201.805 43.2305 203.045 44.4696 205.793C44.4696 205.793 45.5474 203.907 45.1166 202.667C44.6857 201.428 41.5385 200.619 40.8052 201.805ZM46.2066 209.285C46.2066 209.285 47.0507 211.874 45.9905 214.696C45.9905 214.696 48.085 214.12 48.6541 212.937C49.2232 211.755 47.5625 208.962 46.2066 209.285ZM44.4298 217.816C44.4298 217.816 43.3245 220.305 40.6478 221.693C40.6478 221.693 42.5904 222.666 43.8042 222.168C45.0188 221.67 45.6536 218.483 44.4298 217.816ZM28.253 201.847C27.5235 200.659 24.3907 201.469 23.9614 202.711C23.5321 203.953 24.6054 205.843 24.6054 205.843C25.8383 203.088 28.253 201.847 28.253 201.847ZM22.876 209.341C21.5262 209.017 19.8739 211.816 20.4399 213.001C21.006 214.186 23.0914 214.763 23.0914 214.763C22.0357 211.935 22.876 209.341 22.876 209.341ZM24.6444 217.888C23.426 218.556 24.0585 221.749 25.2669 222.248C26.4754 222.747 28.4088 221.772 28.4088 221.772C25.7444 220.382 24.6444 217.888 24.6444 217.888Z" fill="#A100FF"/>
<path d="M34.5535 199.542C27.7679 199.542 22.2671 205.043 22.2671 211.829C22.2671 218.616 27.7679 224.116 34.5535 224.116C41.3391 224.116 46.8406 218.615 46.8406 211.829C46.8406 205.044 41.3399 199.542 34.5535 199.542ZM34.5535 222.93C28.4225 222.93 23.4526 217.96 23.4526 211.829C23.4526 205.698 28.4225 200.728 34.5535 200.728C40.6845 200.728 45.6543 205.698 45.6543 211.829C45.6543 217.96 40.6845 222.93 34.5535 222.93Z" fill="#A100FF"/>
<path d="M34.4465 219.372C32.4826 219.372 30.8906 220.965 30.8906 222.93C30.8906 224.895 32.4826 226.488 34.4465 226.488C36.4105 226.488 38.0024 224.896 38.0024 222.93C38.0024 220.965 36.4105 219.372 34.4465 219.372ZM34.4465 204.178C36.4105 204.178 38.0024 202.585 38.0024 200.62C38.0024 198.655 36.4105 197.062 34.4465 197.062C32.4826 197.062 30.8906 198.654 30.8906 200.62C30.8906 202.585 32.4826 204.178 34.4465 204.178Z" fill="black"/>
<path d="M34.5 184C19.3124 184 7 196.312 7 211.5C7 226.688 19.3124 239 34.5 239C49.6876 239 62 226.688 62 211.5C62 196.312 49.6876 184 34.5 184ZM34.5 237.735C20.0106 237.735 8.265 225.989 8.265 211.5C8.265 197.011 20.0106 185.265 34.5 185.265C48.9894 185.265 60.735 197.011 60.735 211.5C60.735 225.989 48.9894 237.735 34.5 237.735Z" fill="#A100FF"/>
<path d="M144.494 40.488L141.896 38.037C143.673 36.0218 144.749 33.3893 144.749 30.5078C144.749 27.1545 143.291 24.1373 140.967 22.0388C141.295 23.1833 141.471 24.3908 141.471 25.6388C141.471 32.94 135.467 38.8583 128.06 38.8583C126.904 38.8583 125.782 38.7143 124.712 38.4428C126.749 40.5413 129.586 41.8785 132.739 41.9775C132.737 41.9813 132.734 41.9843 132.734 41.9843C132.734 41.9843 132.871 41.9843 133.114 41.9843H133.115H133.115C134.846 41.9843 141.945 41.9843 143.607 41.9843C145.505 41.985 144.494 40.488 144.494 40.488Z" fill="black"/>
<path d="M139.696 25.6477C139.696 19.3095 134.486 14.1705 128.058 14.1705C121.631 14.1705 116.42 19.3087 116.42 25.6477C116.42 28.527 117.495 31.1587 119.271 33.1732L116.673 35.6227C116.673 35.6227 115.661 37.1197 117.559 37.1197C119.129 37.1197 125.549 37.1197 127.719 37.1197C127.832 37.1227 127.945 37.125 128.058 37.125C128.171 37.125 128.284 37.1227 128.396 37.1197C128.424 37.1197 128.44 37.1197 128.44 37.1197L128.44 37.1182C134.691 36.9195 139.696 31.8607 139.696 25.6477ZM128.048 34.227C123.124 34.227 119.132 30.3075 119.132 25.473C119.132 20.6385 123.124 16.719 128.048 16.719C132.972 16.719 136.964 20.6385 136.964 25.473C136.964 30.3075 132.972 34.227 128.048 34.227Z" fill="#3A70D4"/>
<path d="M129.857 21.9885C129.857 21.9885 124.462 21.9885 123.25 21.9885C122.038 21.9885 121.897 23.3325 121.897 23.3325C121.897 23.3325 121.897 26.259 121.897 27.8925C121.897 29.526 123.32 29.5942 123.32 29.5942C123.32 29.5942 127.467 29.5942 129.295 29.5942C131.123 29.5942 131.123 28.1647 131.123 28.1647C131.123 28.1647 131.123 25.017 131.123 23.6047C131.123 22.1932 129.857 21.9885 129.857 21.9885Z" fill="#A100FF"/>
<path d="M133.584 22.38L132.02 23.0602V28.5052C132.02 28.5052 132.863 28.8967 133.584 29.1855C134.304 29.475 134.392 28.7775 134.392 28.7775C134.392 28.7775 134.392 23.8087 134.392 22.9245C134.392 22.0395 133.584 22.38 133.584 22.38Z" fill="#A100FF"/>
<path d="M129.5 0C114.312 0 102 12.0885 102 27C102 41.9115 114.312 54 129.5 54C144.688 54 157 41.9115 157 27C157 12.0885 144.688 0 129.5 0ZM129.5 52.758C115.011 52.758 103.265 41.226 103.265 27C103.265 12.774 115.011 1.242 129.5 1.242C143.989 1.242 155.735 12.774 155.735 27C155.735 41.226 143.989 52.758 129.5 52.758Z" fill="#A100FF"/>
<path d="M299.335 218.782C299.335 218.782 299.25 218.782 299.109 216.934C298.968 215.086 297.53 215.382 297.53 215.382H294.485C295.359 215.715 295.5 218.043 293.131 218.043C290.762 218.043 289.972 215.382 289.972 215.382H286.814C287.829 216.712 287.011 218.321 284.896 218.043C282.781 217.766 282.189 215.382 282.189 215.382H278.805C279.849 216.213 279.482 218.237 277.113 218.043C274.744 217.849 274.406 215.382 274.406 215.382C274.406 215.382 274.406 215.382 273.278 215.382C272.149 215.382 272.037 216.491 272.037 216.491L271.699 219.854H272.714L272.827 217.71H273.165V218.782H299.335Z" fill="black"/>
<path d="M300.463 231.35L299.448 219.854H273.276L274.517 232.127C274.517 232.127 272.43 232.127 271.922 232.127C271.414 232.127 271.584 231.461 271.584 231.461L272.824 218.782H271.809L270.568 231.461C270.193 232.977 271.809 233.125 271.809 233.125C271.809 233.125 297.191 233.125 298.996 233.125C300.801 233.125 300.463 231.35 300.463 231.35ZM276.322 226.249V225.473C276.322 225.473 276.322 224.918 276.886 224.918C277.45 224.918 278.126 224.918 278.126 224.918C278.126 224.918 278.826 225.007 278.803 225.806C278.78 226.604 278.803 226.582 278.803 226.582C278.803 226.582 278.713 227.247 278.126 227.247C277.54 227.247 276.998 227.247 276.998 227.247C276.998 227.247 276.3 227.291 276.322 226.249ZM279.029 230.131C279.029 230.131 278.939 230.593 278.352 230.593C277.766 230.593 277.224 230.593 277.224 230.593C277.224 230.593 276.683 230.353 276.66 229.798C276.637 229.244 276.66 229.022 276.66 229.022C276.66 229.022 276.705 228.374 277.224 228.374H278.465C278.465 228.374 279.006 228.422 279.028 229.243C279.052 230.064 279.029 230.131 279.029 230.131ZM280.045 226.36C280.045 225.605 280.045 225.584 280.045 225.584C280.045 225.584 280.022 224.918 280.722 224.918C281.422 224.918 281.85 224.918 281.85 224.918C281.85 224.918 282.527 224.874 282.527 225.806V226.693C282.527 226.693 282.369 227.247 281.737 227.247C281.105 227.247 280.722 227.247 280.722 227.247C280.722 227.247 280.045 227.114 280.045 226.36ZM282.865 230.131C282.865 230.131 282.707 230.593 282.188 230.593C281.669 230.593 281.06 230.593 281.06 230.593C281.06 230.593 280.563 230.508 280.496 229.909C280.428 229.31 280.383 228.911 280.383 228.911C280.383 228.911 280.563 228.374 280.947 228.374H282.187C282.187 228.374 282.864 228.489 282.864 229.132C282.864 229.775 282.865 230.131 282.865 230.131ZM283.542 223.144C283.519 222.567 283.542 222.257 283.542 222.257C283.542 222.257 283.451 221.48 284.331 221.48C285.211 221.48 285.347 221.48 285.347 221.48C285.347 221.48 286.001 221.569 286.023 222.368C286.046 223.166 286.023 223.366 286.023 223.366C286.023 223.366 285.933 223.847 285.347 223.847H284.218C284.218 223.846 283.564 223.721 283.542 223.144ZM283.88 226.471C283.88 225.85 283.88 225.473 283.88 225.473C283.88 225.473 283.88 224.918 284.557 224.918C285.234 224.918 285.685 224.918 285.685 224.918C285.685 224.918 286.362 224.985 286.362 225.806C286.362 226.289 286.362 226.433 286.362 226.471C286.362 226.471 286.407 227.247 285.798 227.247C285.189 227.247 284.557 227.247 284.557 227.247C284.557 227.247 283.88 227.092 283.88 226.471ZM286.7 230.02C286.7 230.02 286.565 230.593 285.91 230.593C285.256 230.593 284.895 230.593 284.895 230.593C284.895 230.593 284.218 230.441 284.218 229.798C284.218 229.154 284.218 228.911 284.218 228.911C284.218 228.911 284.263 228.374 284.782 228.374H286.023C286.023 228.374 286.677 228.533 286.699 229.132C286.723 229.731 286.7 230.02 286.7 230.02ZM287.265 223.033C287.265 222.368 287.265 222.257 287.265 222.257C287.265 222.257 287.242 221.48 287.942 221.48C288.641 221.48 289.182 221.48 289.182 221.48C289.182 221.48 289.859 221.636 289.859 222.479C289.859 223.151 289.859 223.244 289.859 223.255C289.859 223.255 289.724 223.847 289.182 223.847H288.054C288.054 223.846 287.265 223.698 287.265 223.033ZM290.085 226.582C290.085 226.582 290.062 227.247 289.295 227.247C288.528 227.247 288.393 227.247 288.393 227.247C288.393 227.247 287.581 227.092 287.603 226.471C287.626 225.85 287.468 224.918 288.167 224.918H289.407C289.407 224.918 290.084 225.007 290.084 225.695C290.085 226.382 290.085 226.582 290.085 226.582ZM291.1 222.922C291.1 222.19 291.1 222.146 291.1 222.146C291.1 222.146 291.077 221.48 291.777 221.48C292.477 221.48 292.792 221.48 292.792 221.48C292.792 221.48 293.582 221.503 293.582 222.368C293.582 223.232 293.582 223.255 293.582 223.255C293.582 223.255 293.469 223.847 293.018 223.847H291.89C291.889 223.846 291.1 223.654 291.1 222.922ZM293.807 226.693C293.807 226.693 293.717 227.247 293.131 227.247C292.544 227.247 292.228 227.247 292.228 227.247C292.228 227.247 291.416 227.203 291.439 226.249V225.362C291.439 225.362 291.462 224.918 291.89 224.918C292.319 224.918 293.244 224.918 293.244 224.918C293.244 224.918 293.762 224.896 293.807 225.806C293.852 226.715 293.807 226.693 293.807 226.693ZM294.936 223.255C294.891 222.678 294.936 222.146 294.936 222.146C294.936 222.146 294.981 221.48 295.499 221.48C296.018 221.48 296.628 221.48 296.628 221.48C296.628 221.48 297.417 221.591 297.417 222.368C297.417 223.144 297.417 223.144 297.417 223.144C297.417 223.144 297.282 223.847 296.853 223.847C296.425 223.847 295.725 223.847 295.725 223.847C295.725 223.847 294.981 223.832 294.936 223.255ZM297.643 226.582C297.643 226.582 297.666 227.247 296.966 227.247C296.266 227.247 295.838 227.247 295.838 227.247C295.838 227.247 295.138 227.048 295.161 226.36C295.184 225.672 295.161 225.695 295.161 225.695C295.161 225.695 295.071 224.918 295.725 224.918C296.379 224.918 297.078 224.918 297.078 224.918C297.078 224.918 297.687 225.162 297.642 225.695C297.598 226.227 297.643 226.582 297.643 226.582Z" fill="#3A70D4"/>
<path d="M278.127 212.941C276.615 212.564 275.397 213.917 275.532 214.827C275.667 215.736 275.826 216.734 277.788 216.934C277.788 216.934 278.126 216.934 278.239 216.601C278.353 216.268 278.081 216.003 277.676 216.047C277.676 216.047 276.48 215.958 276.547 214.938C276.615 213.918 277.698 213.429 278.691 214.272H279.819C279.819 214.272 279.639 213.318 278.127 212.941ZM286.023 212.941C284.512 212.564 283.293 213.917 283.429 214.827C283.564 215.736 283.722 216.734 285.684 216.934C285.684 216.934 286.023 216.934 286.136 216.601C286.249 216.268 285.978 216.003 285.572 216.047C285.572 216.047 284.377 215.958 284.444 214.938C284.512 213.918 285.594 213.429 286.587 214.272H287.715C287.715 214.272 287.535 213.318 286.023 212.941ZM294.259 214.272H295.387C295.387 214.272 295.207 213.318 293.695 212.941C292.183 212.564 290.965 213.917 291.1 214.827C291.235 215.736 291.394 216.734 293.356 216.934C293.356 216.934 293.694 216.934 293.808 216.601C293.921 216.268 293.649 216.003 293.244 216.047C293.244 216.047 292.048 215.958 292.115 214.938C292.183 213.917 293.266 213.429 294.259 214.272Z" fill="#66099F"/>
<path d="M285.5 196C270.312 196 258 208.089 258 223C258 237.912 270.312 250 285.5 250C300.688 250 313 237.912 313 223C313 208.089 300.688 196 285.5 196ZM285.5 248.758C271.011 248.758 259.265 237.226 259.265 223C259.265 208.774 271.011 197.242 285.5 197.242C299.989 197.242 311.735 208.774 311.735 223C311.735 237.226 299.989 248.758 285.5 248.758Z" fill="#A100FF"/>
<path d="M311.929 138.043C311.929 137.9 311.929 137.609 311.929 137.053C311.929 135.43 310.977 135.595 310.977 135.595C310.977 135.595 296.331 135.595 295.994 135.595C295.658 135.595 294.919 135.595 294.762 134.633C294.606 133.671 293.754 133.753 293.754 133.753C293.754 133.753 289.363 133.753 288.377 133.753C287.391 133.753 287.257 134.501 287.257 134.853C287.257 135.205 286.787 135.595 286.025 135.595C285.263 135.595 285.017 136.503 285.017 136.503C285.017 136.503 285.017 137.734 285.017 138.043C285.017 138.351 285.017 138.675 285.577 138.675C286.136 138.675 286.025 138.043 286.025 138.043V136.503C286.025 136.503 310.029 136.503 310.557 136.503C311.085 136.503 310.977 136.723 310.977 136.723V138.043C310.977 138.043 296.331 138.043 296.219 138.043C296.107 138.043 295.755 138.043 295.771 138.373C295.787 138.703 295.994 138.675 295.994 138.675H296.218C296.218 138.675 308.317 138.675 310.445 138.675C312.573 138.675 313.022 140.462 313.022 140.462C313.022 140.462 312.954 141.1 313.134 141.342C313.313 141.584 313.582 141.232 313.582 141.232C313.582 141.232 313.582 140.857 313.582 139.362C313.582 137.866 311.929 138.043 311.929 138.043Z" fill="black"/>
<path d="M311.929 142.305C311.929 142.154 311.929 141.865 311.929 141.343C311.929 139.72 310.977 139.885 310.977 139.885C310.977 139.885 296.331 139.885 295.994 139.885C295.658 139.885 294.919 139.885 294.762 138.923C294.606 137.961 293.754 138.043 293.754 138.043C293.754 138.043 289.363 138.043 288.377 138.043C287.391 138.043 287.257 138.791 287.257 139.143C287.257 139.495 286.787 139.885 286.025 139.885C285.263 139.885 285.017 140.793 285.017 140.793C285.017 140.793 285.017 141.958 285.017 142.305C285.017 142.315 285.017 142.324 285.017 142.333V154.65C285.017 154.65 285.045 156.218 286.473 156.218C287.901 156.218 293.194 156.218 293.194 156.218C293.194 156.218 292.55 155.86 292.522 155.201C292.494 154.541 292.522 153.88 292.522 153.88C292.522 153.88 292.606 153.001 293.53 152.891C293.53 152.891 292.914 152.45 293.082 151.791C293.25 151.131 293.838 149.949 294.426 149.921C295.014 149.893 295.211 149.921 295.211 149.921C295.211 149.921 294.987 149.289 295.435 148.822C295.883 148.354 296.779 147.942 296.779 147.942C296.779 147.942 297.479 147.612 298.235 148.162C298.235 148.162 298.711 147.117 299.803 147.172C300.896 147.226 301.54 147.391 301.708 148.162C301.708 148.162 302.548 147.474 303.388 147.942C304.228 148.409 304.508 148.711 304.508 148.711C304.508 148.711 304.928 149.344 304.732 149.921C304.732 149.921 305.516 149.591 306.188 150.471C306.86 151.351 306.86 151.461 306.86 151.461C306.86 151.461 307.084 152.451 306.524 152.891C306.524 152.891 307.532 153.083 307.532 154.1C307.532 155.117 307.532 155.2 307.532 155.2C307.532 155.2 307.224 156.217 306.748 156.217H312.237C312.237 156.217 313.581 156.024 313.581 154.649C313.581 153.626 313.581 148.222 313.581 145.521C313.581 145.521 313.581 145.202 313.581 143.981C313.581 143.982 314.002 142.305 311.929 142.305ZM297.003 142.305H288.713C288.713 142.305 287.901 142.277 287.901 143.542C287.901 144.808 287.901 154.321 287.901 154.321C287.901 154.321 287.901 155.366 286.809 155.311C285.716 155.256 286.024 153.771 286.024 153.771V142.579C286.044 142.447 286.024 142.332 286.024 142.332V142.304V140.792C286.024 140.792 310.029 140.792 310.556 140.792C311.084 140.792 310.977 141.012 310.977 141.012V142.304C307.356 142.305 297.003 142.305 297.003 142.305ZM312.126 147.002C312.126 147.164 311.87 147.175 311.87 147.175H311.518C311.49 147.329 311.445 147.478 311.387 147.619C311.49 147.681 311.599 147.745 311.68 147.793C311.886 147.915 311.814 148.083 311.814 148.083C311.814 148.083 311.695 148.294 311.617 148.434C311.538 148.574 311.31 148.451 311.31 148.451L310.993 148.263C310.899 148.37 310.797 148.469 310.686 148.558C310.751 148.673 310.822 148.799 310.872 148.889C310.99 149.1 310.847 149.209 310.847 149.209C310.847 149.209 310.641 149.33 310.505 149.411C310.368 149.492 310.231 149.269 310.231 149.269L310.04 148.93C309.917 148.977 309.789 149.014 309.656 149.041C309.656 149.175 309.656 149.324 309.656 149.431C309.656 149.674 309.478 149.694 309.478 149.694C309.478 149.694 309.455 149.694 309.419 149.694C309.407 149.698 309.394 149.7 309.379 149.7C309.214 149.7 308.965 149.7 308.965 149.7C308.965 149.7 308.779 149.68 308.779 149.437C308.779 149.333 308.779 149.188 308.779 149.056C308.638 149.033 308.5 148.998 308.369 148.951L308.176 149.277C308.176 149.277 308.033 149.5 307.889 149.419C307.745 149.338 307.53 149.216 307.53 149.216C307.53 149.216 307.379 149.107 307.503 148.897C307.554 148.81 307.625 148.69 307.691 148.58C307.574 148.489 307.467 148.388 307.369 148.277L307.043 148.46C307.043 148.46 306.805 148.583 306.723 148.443C306.64 148.303 306.515 148.093 306.515 148.093C306.515 148.093 306.44 147.925 306.655 147.804C306.741 147.756 306.856 147.691 306.965 147.629C306.907 147.488 306.862 147.34 306.834 147.187H306.457C306.457 147.187 306.188 147.177 306.188 147.015C306.188 146.853 306.188 146.611 306.188 146.611C306.188 146.611 306.208 146.428 306.457 146.428C306.556 146.428 306.692 146.428 306.819 146.428C306.844 146.26 306.887 146.098 306.946 145.944L306.671 145.789C306.671 145.789 306.444 145.648 306.526 145.508C306.609 145.368 306.733 145.158 306.733 145.158C306.733 145.158 306.844 145.01 307.059 145.132C307.136 145.174 307.237 145.231 307.335 145.287C307.441 145.161 307.561 145.046 307.691 144.944L307.507 144.632C307.507 144.632 307.382 144.4 307.525 144.319C307.668 144.238 307.884 144.116 307.884 144.116C307.884 144.116 308.056 144.043 308.179 144.253C308.231 144.34 308.303 144.462 308.369 144.574C308.505 144.526 308.645 144.49 308.791 144.467V144.132C308.791 144.132 308.802 143.869 308.967 143.869C309.132 143.869 309.381 143.869 309.381 143.869C309.381 143.869 309.567 143.89 309.567 144.132C309.567 144.225 309.567 144.35 309.567 144.469C309.725 144.495 309.877 144.536 310.023 144.591C310.092 144.469 310.17 144.329 310.226 144.231C310.344 144.02 310.508 144.094 310.508 144.094C310.508 144.094 310.713 144.215 310.85 144.296C310.987 144.377 310.867 144.61 310.867 144.61L310.673 144.956C310.795 145.053 310.907 145.162 311.007 145.281C311.108 145.221 311.214 145.158 311.293 145.111C311.498 144.99 311.604 145.138 311.604 145.138C311.604 145.138 311.722 145.348 311.801 145.489C311.88 145.629 311.663 145.77 311.663 145.77L311.395 145.929C311.456 146.083 311.5 146.244 311.526 146.411C311.647 146.411 311.774 146.411 311.868 146.411C312.105 146.411 312.125 146.593 312.125 146.593C312.125 146.593 312.126 146.839 312.126 147.002Z" fill="#3A70D4"/>
<path d="M305.859 153.781C305.656 153.781 305.381 153.781 305.122 153.781C305.066 153.416 304.97 153.063 304.84 152.729L305.414 152.386C305.414 152.386 305.885 152.08 305.714 151.775C305.543 151.469 305.287 151.01 305.287 151.01C305.287 151.01 305.057 150.689 304.614 150.953C304.445 151.054 304.217 151.19 303.999 151.319C303.782 151.061 303.538 150.824 303.272 150.612L303.691 149.864C303.691 149.864 303.95 149.356 303.654 149.18C303.359 149.003 302.914 148.739 302.914 148.739C302.914 148.739 302.56 148.578 302.304 149.037C302.184 149.249 302.016 149.552 301.868 149.816C301.552 149.698 301.222 149.608 300.88 149.552C300.88 149.293 300.88 149.023 300.88 148.822C300.88 148.294 300.476 148.25 300.476 148.25C300.476 148.25 299.939 148.25 299.58 148.25C299.222 148.25 299.199 148.822 299.199 148.822V149.548C298.884 149.598 298.579 149.677 298.286 149.78C298.143 149.537 297.988 149.275 297.877 149.084C297.608 148.627 297.237 148.787 297.237 148.787C297.237 148.787 296.771 149.051 296.461 149.228C296.15 149.404 296.422 149.91 296.422 149.91L296.819 150.586C296.535 150.808 296.277 151.058 296.047 151.333C295.834 151.213 295.617 151.09 295.453 150.997C294.987 150.733 294.747 151.054 294.747 151.054C294.747 151.054 294.478 151.511 294.299 151.816C294.119 152.12 294.613 152.426 294.613 152.426L295.204 152.761C295.075 153.097 294.982 153.451 294.928 153.817C294.654 153.817 294.361 153.817 294.147 153.817C293.609 153.817 293.564 154.213 293.564 154.213C293.564 154.213 293.564 154.741 293.564 155.093C293.564 155.444 294.147 155.467 294.147 155.467H294.963C295.025 155.801 295.122 156.122 295.248 156.429C295.012 156.563 294.761 156.705 294.577 156.809C294.111 157.073 294.274 157.438 294.274 157.438C294.274 157.438 294.543 157.895 294.723 158.2C294.902 158.504 295.418 158.238 295.418 158.238L296.122 157.839C296.333 158.079 296.567 158.299 296.819 158.497C296.677 158.738 296.523 158.999 296.412 159.189C296.143 159.647 296.47 159.882 296.47 159.882C296.47 159.882 296.936 160.146 297.246 160.322C297.556 160.499 297.867 160.014 297.867 160.014L298.285 159.303C298.57 159.404 298.866 159.48 299.172 159.531C299.172 159.818 299.172 160.136 299.172 160.363C299.172 160.891 299.576 160.935 299.576 160.935C299.576 160.935 300.114 160.935 300.472 160.935C300.503 160.935 300.531 160.929 300.557 160.922C300.635 160.922 300.684 160.922 300.684 160.922C300.684 160.922 301.068 160.877 301.068 160.348C301.068 160.115 301.068 159.79 301.068 159.497C301.354 159.44 301.632 159.359 301.898 159.257L302.313 159.998C302.313 159.998 302.609 160.484 302.905 160.307C303.2 160.131 303.645 159.866 303.645 159.866C303.645 159.866 303.957 159.629 303.7 159.171C303.59 158.975 303.436 158.7 303.297 158.451C303.538 158.257 303.76 158.042 303.962 157.808L304.648 158.217C304.648 158.217 305.14 158.485 305.31 158.179C305.481 157.873 305.737 157.415 305.737 157.415C305.737 157.415 305.892 157.049 305.449 156.784C305.275 156.68 305.04 156.54 304.818 156.407C304.943 156.098 305.038 155.773 305.099 155.437H305.859C305.859 155.437 306.414 155.415 306.414 155.062C306.414 154.709 306.414 154.18 306.414 154.18C306.414 154.18 306.371 153.781 305.859 153.781ZM299.971 158.39C297.837 158.39 296.107 156.691 296.107 154.595C296.107 152.5 297.837 150.801 299.971 150.801C302.106 150.801 303.836 152.5 303.836 154.595C303.836 156.691 302.106 158.39 299.971 158.39Z" fill="#A100FF"/>
<path d="M300.011 157.071C301.402 157.05 302.513 155.925 302.491 154.559C302.469 153.192 301.324 152.102 299.932 152.123C298.54 152.145 297.43 153.269 297.451 154.636C297.473 156.002 298.619 157.093 300.011 157.071Z" fill="#A100FF"/>
<path d="M309.213 148.162C309.955 148.162 310.557 147.571 310.557 146.842C310.557 146.113 309.955 145.522 309.213 145.522C308.47 145.522 307.868 146.113 307.868 146.842C307.868 147.571 308.47 148.162 309.213 148.162Z" fill="#A100FF"/>
<path d="M299.5 120C284.312 120 272 132.089 272 147C272 161.912 284.312 174 299.5 174C314.688 174 327 161.912 327 147C327 132.089 314.688 120 299.5 120ZM299.5 172.758C285.011 172.758 273.265 161.226 273.265 147C273.265 132.774 285.011 121.242 299.5 121.242C313.989 121.242 325.735 132.774 325.735 147C325.735 161.226 313.989 172.758 299.5 172.758Z" fill="#A100FF"/>
<path d="M201.239 27.0855H205.406C205.289 25.3852 203.785 24.8752 202.743 24.4785C201.702 24.0817 201.702 23.4585 201.702 23.4585L201.585 22.3252C202.888 21.6735 202.974 20.2845 202.974 20.2845C203.843 19.5757 203.09 18.924 203.09 18.924C203.032 18.102 202.425 16.827 200.428 16.77C198.431 16.713 197.997 18.8107 197.997 18.8107C197.129 19.5472 198.114 20.2845 198.114 20.2845C198.114 21.7012 199.502 22.3252 199.502 22.3252C199.502 22.3252 199.502 23.034 199.502 23.5725C199.502 24.111 198.229 24.7057 196.955 25.1595C195.682 25.6132 195.798 27.0862 195.798 27.0862H199.85V26.1795C199.358 25.2727 199.705 24.9045 200.081 24.7057C200.457 24.507 201.297 24.5077 201.47 25.1595C201.643 25.8112 201.239 26.2927 201.239 26.2927V27.0855Z" fill="black"/>
<path d="M204.248 18.2437C204.248 18.2437 204.913 19.1505 204.364 20.511C204.364 20.511 205.319 20.313 205.406 19.491C205.492 18.669 204.682 18.2722 204.248 18.2437ZM202.627 22.7775C202.627 22.7775 203.119 23.4862 203.669 23.6842C204.219 23.8822 204.595 24.138 204.595 24.138C204.595 24.138 205 22.4377 202.627 22.7775ZM196.843 18.2437C196.41 18.2722 195.602 18.669 195.689 19.491C195.775 20.313 196.728 20.511 196.728 20.511C196.179 19.1505 196.843 18.2437 196.843 18.2437ZM196.497 24.138C196.497 24.138 196.872 23.883 197.42 23.6842C197.969 23.4855 198.459 22.7775 198.459 22.7775C196.093 22.4377 196.497 24.138 196.497 24.138Z" fill="#A100FF"/>
<path d="M195.913 42.615C195.45 42.6525 194.756 42.2752 194.756 42.2752C194.795 42.7665 194.795 43.5975 196.029 43.6357C197.264 43.6732 197.418 42.6157 197.418 42.6157C197.418 42.6157 196.376 42.5767 195.913 42.615ZM218.949 42.615C218.486 42.5775 217.444 42.615 217.444 42.615C217.444 42.615 217.598 43.6732 218.833 43.635C220.067 43.5975 220.067 42.7657 220.106 42.2745C220.107 42.2745 219.413 42.6525 218.949 42.615Z" fill="#3A70D4"/>
<path d="M222.075 29.1255C222.017 28.1055 220.802 28.2188 220.802 28.2188H219.181C219.181 28.2188 219.181 28.1903 219.181 27.4253C219.181 26.6603 218.602 26.745 218.602 26.745C218.602 26.745 218.66 26.3483 218.718 26.0648C218.776 25.7813 218.891 25.158 218.486 25.0448C218.081 24.9315 217.907 25.2713 217.907 25.2713L217.56 26.745C217.56 26.745 217.357 26.7735 216.981 26.745C216.604 26.7165 216.518 27.1988 216.518 27.1988V28.1903H213.276C213.189 27.9068 213.045 27.8783 212.582 27.6518C212.119 27.4253 212.119 26.6318 212.119 26.6318C212.119 26.6318 214.839 26.6318 215.245 26.6318C215.651 26.6318 215.737 26.292 215.737 26.292C215.737 26.292 215.737 22.4663 215.737 21.8715C215.737 21.2768 215.129 21.2768 215.129 21.2768C215.129 21.2768 208.647 21.2768 207.836 21.2768C207.026 21.2768 207.113 21.9855 207.113 21.9855C207.113 21.9855 207.113 25.9245 207.113 26.2928C207.113 26.661 207.605 26.6325 207.605 26.6325H210.73C210.73 27.426 210.151 27.681 209.92 27.7658C209.688 27.8505 209.341 28.191 209.341 28.191C209.341 28.191 194.35 28.191 193.945 28.191C193.54 28.191 192.758 28.4745 192.787 29.2395C192.816 30.0045 193.482 30.1463 193.482 30.1463H221.148C221.149 30.1455 222.133 30.1455 222.075 29.1255ZM211.426 24.7058C211.042 24.7058 210.731 24.4005 210.731 24.024C210.731 23.6475 211.042 23.3423 211.426 23.3423C211.809 23.3423 212.12 23.6475 212.12 24.024C212.12 24.4005 211.808 24.7058 211.426 24.7058Z" fill="#3A70D4"/>
<path d="M215.939 33.8017H199.038C199.009 34.6237 197.678 35.2755 197.678 35.2755V37.7407C198.749 37.7407 199.038 39.0157 199.038 39.0157H215.91C215.91 37.8825 217.213 37.7407 217.213 37.7407V35.2755C215.795 34.9065 215.939 33.8017 215.939 33.8017ZM216.171 36.8302H199.267V36.1552H216.171V36.8302Z" fill="#A100FF"/>
<path d="M194.755 31.2795C194.755 31.2795 194.755 38.799 194.755 40.008C194.755 41.217 196.029 41.5192 196.029 41.5192C196.029 41.5192 217.753 41.5192 218.834 41.5192C219.914 41.5192 220.107 40.3477 220.107 40.3477V31.2795H194.755ZM218.342 37.854C218.342 37.854 217.937 38.9595 216.981 38.9872C216.981 38.9872 216.923 40.149 215.477 40.149C214.03 40.149 199.038 40.149 199.038 40.149C199.038 40.149 197.852 39.837 197.881 39.0157C197.881 39.0157 196.608 38.7607 196.608 37.854C196.608 36.9472 196.608 35.3317 196.608 35.3317C196.608 35.3317 196.405 34.2262 197.881 33.915C197.881 33.915 197.737 32.9235 199.27 32.6115H215.592C215.592 32.6115 216.865 32.7247 216.981 33.8865C216.981 33.8865 218.341 34.0567 218.341 35.3602C218.342 36.6637 218.342 37.854 218.342 37.854Z" fill="black"/>
<path d="M207.5 3C192.312 3 180 15.0885 180 30C180 44.9115 192.312 57 207.5 57C222.688 57 235 44.9115 235 30C235 15.0885 222.688 3 207.5 3ZM207.5 55.758C193.011 55.758 181.265 44.226 181.265 30C181.265 15.774 193.011 4.242 207.5 4.242C221.989 4.242 233.735 15.774 233.735 30C233.735 44.226 221.989 55.758 207.5 55.758Z" fill="#A100FF"/>
<path d="M53.5735 59.1705C48.1178 59.511 47.9253 64.5015 47.9253 64.5015V74.3692C47.9253 79.5112 53.1121 80.04 53.1121 80.04C58.8367 80.04 59.0292 74.5957 59.0292 74.5957V64.6147C58.5678 59.397 53.5735 59.1705 53.5735 59.1705ZM57.4922 74.3692C57.4922 74.3692 57.3769 77.8005 53.8042 78.4522C53.8042 78.4522 53.2045 78.4297 53.2282 77.8852C53.2511 77.3407 53.9195 77.4315 53.9195 77.4315C53.9195 77.4315 56.3632 77.046 56.4556 74.0287V71.9872C56.4556 71.9872 56.4098 71.556 56.8017 71.5335C57.1936 71.511 57.3777 71.6242 57.493 72.2137V74.3692H57.4922ZM58.1836 69.8317H48.8473V64.3875C48.8473 64.3875 48.9627 60.4935 53.3428 60.0772C53.3428 60.0772 57.6458 59.9257 58.1836 64.614V69.8317Z" fill="#3A70D4"/>
<path d="M61.7572 52.365C56.7316 52.6372 56.4551 57.2423 56.4551 57.2423V58.6035L57.2617 59.0573V57.129C58.2533 52.8645 62.1025 53.2725 62.1025 53.2725C65.9983 53.2043 66.598 57.129 66.598 57.129V62.9138H60.1431C60.3272 63.027 60.3738 63.9345 60.3738 63.9345V72.8948C60.6045 73.0988 62.2179 73.1213 62.2179 73.1213C66.9204 72.7583 67.4047 68.244 67.4047 68.244V57.5828C66.8974 52.2293 61.7572 52.365 61.7572 52.365ZM64.1772 70.8525C64.1772 70.8525 62.1025 72.123 61.6411 71.193C61.6411 71.193 61.5258 70.5353 62.2171 70.5128C62.9084 70.4903 64.246 69.651 64.6379 68.358C64.6379 68.358 64.9373 67.3373 64.8686 65.5223C64.8686 65.5223 64.799 64.6148 65.2146 64.6148C65.6302 64.6148 65.8601 64.6598 65.9059 65.6355C65.9525 66.6105 65.9754 69.537 64.1772 70.8525Z" fill="black"/>
<path d="M77.2021 65.1817C76.7178 59.6467 70.9779 58.9432 70.9779 58.9432H68.7878V64.728C68.7878 64.728 72.6607 64.7055 73.168 64.728C73.6752 64.7505 74.09 65.0227 74.09 65.862C74.09 66.7012 73.2833 66.7695 73.2833 66.7695H68.7878C68.8802 70.308 67.2891 71.8732 67.2891 71.8732C68.3493 72.69 70.8625 72.5535 70.8625 72.5535C77.7551 71.715 77.2021 65.1817 77.2021 65.1817Z" fill="#A100FF"/>
<path d="M62.5 39C47.3124 39 35 51.0885 35 66C35 80.9115 47.3124 93 62.5 93C77.6876 93 90 80.9115 90 66C90 51.0885 77.6876 39 62.5 39ZM62.5 91.758C48.0106 91.758 36.265 80.226 36.265 66C36.265 51.774 48.0106 40.242 62.5 40.242C76.9894 40.242 88.735 51.774 88.735 66C88.735 80.226 76.9894 91.758 62.5 91.758Z" fill="#A100FF"/>
<path d="M169.38 289.675C169.38 289.675 167.982 289.675 167.119 289.675C166.257 289.675 166.376 290.464 166.376 290.464C166.376 290.464 166.376 291.428 166.376 292.334C166.376 293.24 167.358 293.269 167.358 293.269C167.358 293.269 168.19 293.269 169.023 293.269C169.856 293.269 169.975 292.568 169.975 292.568C169.975 292.568 169.975 291.223 169.975 290.464C169.975 289.704 169.38 289.675 169.38 289.675ZM168.905 292.1C168.905 292.1 168.881 292.363 168.667 292.363C168.453 292.363 167.715 292.363 167.715 292.363C167.715 292.363 167.388 292.381 167.388 292.1C167.388 291.82 167.388 290.931 167.388 290.931C167.388 290.931 167.288 290.697 167.596 290.697C167.905 290.697 168.666 290.697 168.666 290.697C168.666 290.697 168.904 290.65 168.904 291.048C168.905 291.445 168.905 292.1 168.905 292.1ZM169.38 304.99C169.38 304.99 167.982 304.99 167.119 304.99C166.257 304.99 166.376 305.779 166.376 305.779C166.376 305.779 166.376 306.744 166.376 307.65C166.376 308.556 167.358 308.585 167.358 308.585C167.358 308.585 168.19 308.585 169.023 308.585C169.856 308.585 169.975 307.884 169.975 307.884C169.975 307.884 169.975 306.539 169.975 305.779C169.975 305.02 169.38 304.99 169.38 304.99ZM168.905 307.416C168.905 307.416 168.881 307.679 168.667 307.679C168.453 307.679 167.715 307.679 167.715 307.679C167.715 307.679 167.388 307.696 167.388 307.416C167.388 307.135 167.388 306.247 167.388 306.247C167.388 306.247 167.288 306.013 167.596 306.013C167.905 306.013 168.666 306.013 168.666 306.013C168.666 306.013 168.904 305.966 168.904 306.364C168.905 306.761 168.905 307.416 168.905 307.416Z" fill="black"/>
<path d="M169.38 297.157C169.38 297.157 167.982 297.157 167.119 297.157C166.257 297.157 166.376 297.946 166.376 297.946C166.376 297.946 166.376 298.91 166.376 299.816C166.376 300.722 167.358 300.751 167.358 300.751C167.358 300.751 168.19 300.751 169.023 300.751C169.856 300.751 169.975 300.05 169.975 300.05C169.975 300.05 169.975 298.705 169.975 297.946C169.975 297.186 169.38 297.157 169.38 297.157ZM163.432 285.466C163.432 285.466 162.034 285.466 161.172 285.466C160.309 285.466 160.428 286.255 160.428 286.255C160.428 286.255 160.428 287.219 160.428 288.125C160.428 289.031 161.41 289.06 161.41 289.06C161.41 289.06 162.243 289.06 163.075 289.06C163.908 289.06 164.027 288.359 164.027 288.359C164.027 288.359 164.027 287.014 164.027 286.255C164.027 285.495 163.432 285.466 163.432 285.466ZM163.432 292.48C163.432 292.48 162.034 292.48 161.172 292.48C160.309 292.48 160.428 293.269 160.428 293.269C160.428 293.269 160.428 294.234 160.428 295.14C160.428 296.046 161.41 296.075 161.41 296.075C161.41 296.075 162.243 296.075 163.075 296.075C163.908 296.075 164.027 295.374 164.027 295.374C164.027 295.374 164.027 294.029 164.027 293.269C164.027 292.51 163.432 292.48 163.432 292.48ZM163.432 300.781C163.432 300.781 162.034 300.781 161.172 300.781C160.309 300.781 160.428 301.57 160.428 301.57C160.428 301.57 160.428 302.535 160.428 303.441C160.428 304.347 161.41 304.376 161.41 304.376C161.41 304.376 162.243 304.376 163.075 304.376C163.908 304.376 164.027 303.675 164.027 303.675C164.027 303.675 164.027 302.33 164.027 301.57C164.027 300.811 163.432 300.781 163.432 300.781ZM163.432 308.03C163.432 308.03 162.034 308.03 161.172 308.03C160.309 308.03 160.428 308.819 160.428 308.819C160.428 308.819 160.428 309.784 160.428 310.69C160.428 311.596 161.41 311.625 161.41 311.625C161.41 311.625 162.243 311.625 163.075 311.625C163.908 311.625 164.027 310.924 164.027 310.924C164.027 310.924 164.027 309.579 164.027 308.819C164.027 308.059 163.432 308.03 163.432 308.03Z" fill="#A100FF"/>
<path d="M157.783 293.737C157.783 293.737 157.783 285.817 157.783 284.969C157.783 284.122 157.247 284.15 157.247 284.15C157.239 284.15 157.147 284.15 156.295 284.15C155.284 284.15 155.343 284.968 155.343 284.968C155.343 284.968 155.314 286.489 155.343 286.722C155.373 286.956 155.106 287.073 155.106 287.073C153.47 287.219 151.745 288.271 151.299 288.593C150.853 288.915 150.586 288.593 150.586 288.593C150.586 288.593 150.705 288.739 149.753 287.775C148.801 286.81 147.85 287.658 147.85 287.658C147.85 287.658 146.839 288.652 146.185 289.411C145.531 290.171 146.066 290.932 146.066 290.932C146.066 290.932 146.899 291.574 147.255 291.867C147.612 292.159 147.255 292.568 147.255 292.568C146.572 293.24 146.006 294.848 145.828 295.842C145.649 296.836 144.995 296.66 144.995 296.66C144.995 296.66 144.935 296.66 143.925 296.66C142.913 296.66 142.735 297.712 142.735 297.712C142.735 297.712 142.586 299.174 142.616 300.168C142.646 301.162 143.806 301.337 143.806 301.337C143.806 301.337 144.698 301.337 145.233 301.337C145.769 301.337 145.709 301.805 145.709 301.805C145.828 303.354 147.226 305.225 147.375 305.546C147.523 305.868 147.255 306.13 147.255 306.13C147.255 306.13 146.69 306.656 146.185 307.183C145.679 307.708 146.185 308.586 146.185 308.586C146.185 308.586 146.958 309.287 147.85 310.106C148.743 310.924 149.397 310.457 149.397 310.457L150.348 309.522C150.616 308.996 151.181 309.288 151.181 309.288C152.49 310.369 154.809 310.75 154.987 310.808C155.166 310.867 155.344 311.042 155.344 311.042C155.344 311.042 155.344 312.094 155.344 312.913C155.344 313.731 156.058 313.848 156.058 313.848C156.058 313.848 156.623 313.789 157.128 313.848C157.634 313.906 157.782 313.264 157.782 313.264V304.259C156.473 304.142 152.697 301.833 153.559 298.063C154.422 294.292 157.783 293.737 157.783 293.737Z" fill="#3A70D4"/>
<path d="M156.5 272C141.312 272 129 284.089 129 299C129 313.912 141.312 326 156.5 326C171.688 326 184 313.912 184 299C184 284.089 171.688 272 156.5 272ZM156.5 324.758C142.011 324.758 130.265 313.226 130.265 299C130.265 284.774 142.011 273.242 156.5 273.242C170.989 273.242 182.735 284.774 182.735 299C182.735 313.226 170.989 324.758 156.5 324.758Z" fill="#A100FF"/>
<path d="M250 160C250 209.159 210.372 249 161.5 249C112.628 249 73 209.159 73 160C73 110.841 112.628 71 161.5 71C210.372 71 250 110.841 250 160Z" fill="white" stroke="url(#paint0_linear)" stroke-width="2"/>
<path d="M207.94 151.05C203.498 151.05 199.896 154.618 199.896 159.021C199.896 163.424 203.496 166.991 207.94 166.991C212.384 166.991 215.984 163.424 215.984 159.021C215.982 154.62 212.382 151.05 207.94 151.05ZM182.204 166.991C186.643 166.991 190.243 163.424 190.243 159.021C190.243 154.618 186.643 151.05 182.204 151.05C177.764 151.05 174.164 154.618 174.164 159.021C174.164 163.424 177.764 166.991 182.204 166.991ZM156.47 166.991C160.912 166.991 164.514 163.424 164.514 159.021C164.514 154.618 160.914 151.05 156.47 151.05C152.028 151.05 148.428 154.618 148.428 159.021C148.426 163.424 152.028 166.991 156.47 166.991ZM183.009 178.15C179.899 178.15 177.377 180.648 177.377 183.732C177.377 186.814 179.899 189.314 183.009 189.314C186.119 189.314 188.641 186.816 188.641 183.732C188.641 180.648 186.119 178.15 183.009 178.15ZM162.903 183.73C162.903 180.648 160.383 178.148 157.276 178.148C154.168 178.148 151.648 180.646 151.648 183.73C151.648 186.811 154.168 189.312 157.276 189.312C160.383 189.312 162.903 186.814 162.903 183.73ZM137.977 183.73C137.977 180.648 135.455 178.148 132.345 178.148C129.235 178.148 126.713 180.646 126.713 183.73C126.713 186.811 129.235 189.312 132.345 189.312C135.455 189.312 137.977 186.814 137.977 183.73ZM182.204 139.887C185.314 139.887 187.836 137.389 187.836 134.31C187.836 131.23 185.314 128.732 182.204 128.732C179.094 128.732 176.572 131.23 176.572 134.31C176.572 137.389 179.094 139.887 182.204 139.887ZM156.47 139.887C159.578 139.887 162.097 137.389 162.097 134.31C162.097 131.23 159.578 128.732 156.47 128.732C153.362 128.732 150.843 131.23 150.843 134.31C150.843 137.389 153.362 139.887 156.47 139.887ZM131.539 139.887C134.649 139.887 137.171 137.389 137.171 134.31C137.171 131.23 134.649 128.732 131.539 128.732C128.429 128.732 125.907 131.23 125.907 134.31C125.907 137.389 128.429 139.887 131.539 139.887ZM108.618 205.253C107.064 205.253 105.803 206.502 105.803 208.044C105.803 209.583 107.064 210.832 108.618 210.832C110.172 210.832 111.433 209.583 111.433 208.044C111.433 206.502 110.172 205.253 108.618 205.253ZM134.354 205.253C132.798 205.253 131.537 206.502 131.537 208.044C131.537 209.583 132.798 210.832 134.354 210.832C135.91 210.832 137.171 209.583 137.171 208.044C137.171 206.502 135.91 205.253 134.354 205.253ZM159.285 205.253C157.731 205.253 156.47 206.502 156.47 208.044C156.47 209.583 157.731 210.832 159.285 210.832C160.839 210.832 162.1 209.583 162.1 208.044C162.097 206.502 160.839 205.253 159.285 205.253ZM173.357 188.512C170.691 188.512 168.53 190.654 168.53 193.295C168.53 195.936 170.691 198.077 173.357 198.077C176.023 198.077 178.183 195.936 178.183 193.295C178.183 190.654 176.023 188.512 173.357 188.512ZM147.625 188.512C144.959 188.512 142.799 190.654 142.799 193.295C142.799 195.936 144.959 198.077 147.625 198.077C150.291 198.077 152.451 195.936 152.451 193.295C152.451 190.654 150.291 188.512 147.625 188.512ZM122.692 188.512C120.026 188.512 117.866 190.654 117.866 193.295C117.866 195.936 120.026 198.077 122.692 198.077C125.358 198.077 127.519 195.936 127.519 193.295C127.519 190.654 125.358 188.512 122.692 188.512ZM173.357 130.322C176.023 130.322 178.183 128.181 178.183 125.54C178.183 122.899 176.023 120.757 173.357 120.757C170.691 120.757 168.53 122.899 168.53 125.54C168.53 128.181 170.691 130.322 173.357 130.322ZM147.625 130.322C150.291 130.322 152.451 128.181 152.451 125.54C152.451 122.899 150.291 120.757 147.625 120.757C144.959 120.757 142.799 122.899 142.799 125.54C142.799 128.181 144.959 130.322 147.625 130.322ZM122.692 130.322C125.358 130.322 127.519 128.181 127.519 125.54C127.519 122.899 125.358 120.757 122.692 120.757C120.026 120.757 117.866 122.899 117.866 125.54C117.866 128.181 120.026 130.322 122.692 130.322ZM115.857 197.278C113.859 197.278 112.238 198.883 112.238 200.866C112.238 202.848 113.859 204.453 115.857 204.453C117.854 204.453 119.475 202.848 119.475 200.866C119.475 198.883 117.854 197.278 115.857 197.278ZM140.789 197.278C138.792 197.278 137.171 198.883 137.171 200.866C137.171 202.848 138.792 204.453 140.789 204.453C142.787 204.453 144.407 202.848 144.407 200.866C144.407 198.883 142.79 197.278 140.789 197.278ZM166.521 197.278C164.523 197.278 162.903 198.883 162.903 200.866C162.903 202.848 164.523 204.453 166.521 204.453C168.519 204.453 170.139 202.848 170.139 200.866C170.139 198.883 168.521 197.278 166.521 197.278ZM107.815 114.381C109.369 114.381 110.63 113.132 110.63 111.592C110.63 110.053 109.369 108.804 107.815 108.804C106.261 108.804 105 110.053 105 111.592C105 113.132 106.261 114.381 107.815 114.381ZM133.553 114.381C135.107 114.381 136.368 113.132 136.368 111.592C136.368 110.053 135.107 108.804 133.553 108.804C131.999 108.804 130.738 110.053 130.738 111.592C130.738 113.132 131.999 114.381 133.553 114.381ZM158.479 114.381C160.033 114.381 161.294 113.132 161.294 111.592C161.294 110.053 160.033 108.804 158.479 108.804C156.925 108.804 155.664 110.053 155.664 111.592C155.664 113.132 156.925 114.381 158.479 114.381ZM115.051 121.557C117.049 121.557 118.669 119.951 118.669 117.969C118.669 115.986 117.049 114.381 115.051 114.381C113.053 114.381 111.433 115.986 111.433 117.969C111.433 119.949 113.053 121.557 115.051 121.557ZM139.986 121.557C141.984 121.557 143.604 119.951 143.604 117.969C143.604 115.986 141.984 114.381 139.986 114.381C137.988 114.381 136.368 115.986 136.368 117.969C136.366 119.949 137.986 121.557 139.986 121.557ZM165.718 121.557C167.716 121.557 169.336 119.951 169.336 117.969C169.336 115.986 167.716 114.381 165.718 114.381C163.72 114.381 162.1 115.986 162.1 117.969C162.097 119.949 163.718 121.557 165.718 121.557ZM193.866 166.192C190.09 166.192 187.03 169.226 187.03 172.968C187.03 176.711 190.09 179.744 193.866 179.744C197.642 179.744 200.702 176.711 200.702 172.968C200.702 169.228 197.642 166.192 193.866 166.192ZM168.933 179.747C172.709 179.747 175.769 176.713 175.769 172.971C175.769 169.228 172.709 166.194 168.933 166.194C165.157 166.194 162.097 169.228 162.097 172.971C162.097 176.713 165.159 179.747 168.933 179.747ZM143.201 179.747C146.977 179.747 150.037 176.713 150.037 172.971C150.037 169.228 146.977 166.194 143.201 166.194C139.425 166.194 136.366 169.228 136.366 172.971C136.366 176.713 139.428 179.747 143.201 179.747ZM193.866 151.85C197.642 151.85 200.702 148.816 200.702 145.073C200.702 141.331 197.642 138.297 193.866 138.297C190.09 138.297 187.03 141.331 187.03 145.073C187.03 148.816 190.092 151.85 193.866 151.85ZM168.933 151.85C172.709 151.85 175.769 148.816 175.769 145.073C175.769 141.331 172.709 138.297 168.933 138.297C165.157 138.297 162.097 141.331 162.097 145.073C162.097 148.816 165.159 151.85 168.933 151.85ZM143.201 151.85C146.977 151.85 150.037 148.816 150.037 145.073C150.037 141.331 146.977 138.297 143.201 138.297C139.425 138.297 136.366 141.331 136.366 145.073C136.366 148.816 139.428 151.85 143.201 151.85Z" fill="url(#paint1_linear)"/>
<defs>
<linearGradient id="paint0_linear" x1="72" y1="176.293" x2="251.117" y2="131.763" gradientUnits="userSpaceOnUse">
<stop stop-color="#3A70D4"/>
<stop offset="1" stop-color="#A100FD"/>
</linearGradient>
<linearGradient id="paint1_linear" x1="90.4007" y1="176.079" x2="208.63" y2="130.827" gradientUnits="userSpaceOnUse">
<stop stop-color="#2989CC"/>
<stop offset="0.7168" stop-color="#990AFB"/>
<stop offset="0.7443" stop-color="#9D05FD"/>
<stop offset="1" stop-color="#F29EFF"/>
</linearGradient>
</defs>
</svg>
