<svg width="179" height="180" viewBox="0 0 179 180" fill="none" xmlns="http://www.w3.org/2000/svg">
<path d="M118.472 69.625H121.029V63.2526C119.796 63.2282 118.472 62.7622 118.472 62.7622V69.625ZM122.623 69.625H125.18V63.0074C124.271 63.2526 122.623 63.2526 122.623 63.2526V69.625ZM126.864 69.625H129.391V61.7822C129.084 62.0029 126.864 62.64 126.864 62.64V69.625ZM131.005 61.1695V69.625H133.571V59.699C133.235 60.165 131.005 61.1695 131.005 61.1695ZM135.256 69.625H137.759V57.2485C137.253 57.6648 135.256 58.9642 135.256 58.9642V69.625ZM139.394 56.1454V69.625H141.993V54.0623C141.68 54.3808 139.394 56.1454 139.394 56.1454Z" fill="#3A70D4"/>
<path d="M138.504 46.4646L139.707 47.6899C127.195 63.947 117.69 61.0473 117.69 61.0473C128.558 65.5 143.438 50.9991 143.438 50.9991L144.761 52.1021L146.446 43.6467L138.504 46.4646Z" fill="black"/>
<path d="M124.698 46.3424V44.5045C124.698 44.5038 123.766 45.4227 124.698 46.3424ZM125.51 40.3375C121.191 40.3375 117.69 43.9033 117.69 48.3018C117.69 52.7003 121.191 56.2661 125.51 56.2661C129.828 56.2661 133.329 52.7003 133.329 48.3018C133.329 43.9033 129.828 40.3375 125.51 40.3375ZM126.323 53.6949V54.1853C126.323 54.1853 126.323 54.9209 125.51 54.7979C124.698 54.6757 124.698 54.3694 124.698 54.1853C124.698 54.0012 124.698 53.6949 124.698 53.6949C124.698 53.6949 122.141 53.358 121.901 50.9991C121.901 50.9991 121.75 50.019 122.623 49.896C123.495 49.7738 123.646 50.3865 123.706 50.9991C123.706 50.9991 124.277 51.7958 124.698 51.8569V48.4256C124.698 48.4256 122.623 47.6594 122.623 45.975C122.623 44.2899 123.405 43.1257 124.698 42.7888V42.5436C124.698 42.5436 124.728 41.9004 125.39 41.808C126.051 41.7163 126.322 42.206 126.322 42.5436C126.322 42.8805 126.322 42.911 126.322 42.911C126.322 42.911 128.217 43.0646 128.397 44.9942C128.397 44.9942 128.548 46.25 127.555 46.2194C126.562 46.1889 126.713 45.1164 126.713 45.1164L126.322 44.626V47.0765C126.322 47.0765 128.999 48.026 128.999 50.1397C128.999 52.2534 128.188 53.3885 126.323 53.6949ZM126.323 49.1604V51.9792C127.014 51.7034 127.285 51.0297 127.315 50.3865C127.346 49.7425 126.323 49.1604 126.323 49.1604Z" fill="#A100FF"/>
<path d="M132 27C117.089 27 105 39.3124 105 54.5C105 69.6876 117.089 82 132 82C146.912 82 159 69.6876 159 54.5C159 39.3124 146.912 27 132 27ZM132 80.735C117.774 80.735 106.242 68.9894 106.242 54.5C106.242 40.0106 117.774 28.265 132 28.265C146.226 28.265 157.758 40.0106 157.758 54.5C157.758 68.9894 146.226 80.735 132 80.735Z" fill="#A100FF"/>
<path d="M142.929 66.0427C142.929 65.9002 142.929 65.6092 142.929 65.0527C142.929 63.4305 141.977 63.5955 141.977 63.5955C141.977 63.5955 127.331 63.5955 126.995 63.5955C126.658 63.5955 125.919 63.5955 125.762 62.6332C125.606 61.671 124.754 61.7535 124.754 61.7535C124.754 61.7535 120.363 61.7535 119.377 61.7535C118.391 61.7535 118.257 62.5012 118.257 62.853C118.257 63.2047 117.787 63.5955 117.025 63.5955C116.263 63.5955 116.017 64.503 116.017 64.503C116.017 64.503 116.017 65.7345 116.017 66.0427C116.017 66.351 116.017 66.675 116.577 66.675C117.137 66.675 117.025 66.0427 117.025 66.0427V64.503C117.025 64.503 141.03 64.503 141.557 64.503C142.085 64.503 141.977 64.7227 141.977 64.7227V66.0427C141.977 66.0427 127.331 66.0427 127.219 66.0427C127.107 66.0427 126.755 66.0427 126.771 66.3727C126.787 66.7027 126.995 66.675 126.995 66.675H127.218C127.218 66.675 139.317 66.675 141.445 66.675C143.573 66.675 144.022 68.4622 144.022 68.4622C144.022 68.4622 143.954 69.1005 144.134 69.342C144.313 69.5842 144.582 69.2317 144.582 69.2317C144.582 69.2317 144.582 68.8575 144.582 67.362C144.582 65.8665 142.929 66.0427 142.929 66.0427Z" fill="black"/>
<path d="M142.929 70.305C142.929 70.1542 142.929 69.8655 142.929 69.3427C142.929 67.7205 141.977 67.8855 141.977 67.8855C141.977 67.8855 127.331 67.8855 126.995 67.8855C126.658 67.8855 125.919 67.8855 125.762 66.9232C125.606 65.961 124.754 66.0435 124.754 66.0435C124.754 66.0435 120.363 66.0435 119.377 66.0435C118.391 66.0435 118.257 66.7912 118.257 67.143C118.257 67.4947 117.787 67.8855 117.025 67.8855C116.263 67.8855 116.017 68.793 116.017 68.793C116.017 68.793 116.017 69.9585 116.017 70.305C116.017 70.3147 116.017 70.3237 116.017 70.3327V82.65C116.017 82.65 116.045 84.2175 117.473 84.2175C118.901 84.2175 124.194 84.2175 124.194 84.2175C124.194 84.2175 123.55 83.8598 123.522 83.2005C123.494 82.5405 123.522 81.8805 123.522 81.8805C123.522 81.8805 123.606 81.0008 124.53 80.8905C124.53 80.8905 123.914 80.4502 124.082 79.791C124.25 79.131 124.838 77.949 125.426 77.9212C126.015 77.8935 126.211 77.9212 126.211 77.9212C126.211 77.9212 125.987 77.289 126.435 76.8217C126.883 76.3545 127.779 75.942 127.779 75.942C127.779 75.942 128.48 75.612 129.235 76.1617C129.235 76.1617 129.711 75.117 130.803 75.1717C131.896 75.2265 132.54 75.3915 132.708 76.1617C132.708 76.1617 133.548 75.474 134.388 75.942C135.229 76.4092 135.508 76.7115 135.508 76.7115C135.508 76.7115 135.928 77.3437 135.732 77.9212C135.732 77.9212 136.516 77.5912 137.188 78.471C137.86 79.3507 137.86 79.461 137.86 79.461C137.86 79.461 138.084 80.451 137.524 80.8905C137.524 80.8905 138.532 81.0833 138.532 82.1003C138.532 83.1173 138.532 83.1997 138.532 83.1997C138.532 83.1997 138.225 84.2168 137.748 84.2168H143.237C143.237 84.2168 144.582 84.024 144.582 82.6493C144.582 81.6262 144.582 76.2217 144.582 73.521C144.582 73.521 144.582 73.2022 144.582 71.9812C144.582 71.982 145.002 70.305 142.929 70.305ZM128.003 70.305H119.713C119.713 70.305 118.901 70.2772 118.901 71.5425C118.901 72.8077 118.901 82.3207 118.901 82.3207C118.901 82.3207 118.901 83.3655 117.809 83.3108C116.716 83.256 117.024 81.771 117.024 81.771V70.5787C117.044 70.4467 117.024 70.332 117.024 70.332V70.3042V68.7922C117.024 68.7922 141.029 68.7922 141.557 68.7922C142.084 68.7922 141.977 69.012 141.977 69.012V70.3042C138.356 70.305 128.003 70.305 128.003 70.305ZM143.126 75.0022C143.126 75.1642 142.87 75.1747 142.87 75.1747H142.518C142.49 75.3292 142.445 75.4777 142.387 75.6195C142.49 75.681 142.599 75.7455 142.68 75.7935C142.886 75.915 142.814 76.083 142.814 76.083C142.814 76.083 142.696 76.2937 142.617 76.434C142.538 76.5742 142.311 76.4512 142.311 76.4512L141.993 76.263C141.9 76.3702 141.797 76.4692 141.686 76.5585C141.751 76.6732 141.822 76.7992 141.872 76.8892C141.99 77.1 141.847 77.2087 141.847 77.2087C141.847 77.2087 141.641 77.3302 141.505 77.4112C141.368 77.4922 141.231 77.2695 141.231 77.2695L141.04 76.9297C140.917 76.977 140.789 77.0137 140.656 77.0407C140.656 77.175 140.656 77.3242 140.656 77.4307C140.656 77.6737 140.478 77.694 140.478 77.694C140.478 77.694 140.455 77.694 140.419 77.694C140.407 77.6977 140.394 77.7 140.379 77.7C140.214 77.7 139.965 77.7 139.965 77.7C139.965 77.7 139.779 77.6797 139.779 77.4375C139.779 77.3332 139.779 77.1885 139.779 77.0565C139.638 77.0332 139.5 76.998 139.369 76.9515L139.176 77.277C139.176 77.277 139.033 77.4997 138.889 77.4187C138.745 77.3377 138.53 77.2162 138.53 77.2162C138.53 77.2162 138.379 77.1075 138.503 76.8975C138.555 76.8105 138.626 76.6905 138.691 76.5802C138.574 76.4895 138.467 76.3882 138.369 76.2772L138.043 76.4602C138.043 76.4602 137.805 76.5832 137.723 76.443C137.64 76.3027 137.516 76.0927 137.516 76.0927C137.516 76.0927 137.44 75.9247 137.655 75.804C137.741 75.756 137.856 75.6907 137.966 75.6292C137.907 75.4882 137.862 75.3405 137.834 75.1867H137.457C137.457 75.1867 137.188 75.177 137.188 75.015C137.188 74.853 137.188 74.6107 137.188 74.6107C137.188 74.6107 137.209 74.4285 137.457 74.4285C137.556 74.4285 137.692 74.4285 137.819 74.4285C137.844 74.2605 137.887 74.0985 137.946 73.944L137.671 73.7887C137.671 73.7887 137.444 73.6485 137.526 73.5082C137.609 73.368 137.733 73.158 137.733 73.158C137.733 73.158 137.844 73.0102 138.06 73.1317C138.136 73.1745 138.237 73.2315 138.335 73.287C138.441 73.161 138.561 73.0462 138.691 72.9442L138.507 72.6322C138.507 72.6322 138.382 72.3997 138.525 72.3187C138.668 72.2377 138.884 72.1162 138.884 72.1162C138.884 72.1162 139.056 72.0427 139.179 72.2527C139.231 72.3405 139.303 72.462 139.37 72.5737C139.505 72.5265 139.645 72.4905 139.791 72.4672V72.132C139.791 72.132 139.802 71.8695 139.967 71.8695C140.132 71.8695 140.381 71.8695 140.381 71.8695C140.381 71.8695 140.567 71.8897 140.567 72.132C140.567 72.225 140.567 72.3502 140.567 72.4695C140.725 72.495 140.877 72.5362 141.023 72.591C141.092 72.4695 141.17 72.3292 141.226 72.231C141.344 72.0202 141.508 72.0937 141.508 72.0937C141.508 72.0937 141.713 72.2152 141.85 72.2962C141.987 72.3772 141.867 72.6105 141.867 72.6105L141.673 72.9562C141.795 73.053 141.907 73.1625 142.007 73.281C142.108 73.221 142.214 73.158 142.293 73.1115C142.498 72.99 142.604 73.1377 142.604 73.1377C142.604 73.1377 142.722 73.3485 142.801 73.4887C142.88 73.629 142.663 73.77 142.663 73.77L142.395 73.929C142.456 74.0827 142.5 74.244 142.526 74.4112C142.647 74.4112 142.774 74.4112 142.868 74.4112C143.105 74.4112 143.125 74.5935 143.125 74.5935C143.125 74.5935 143.126 74.8395 143.126 75.0022Z" fill="#3A70D4"/>
<path d="M136.859 81.7808C136.656 81.7808 136.381 81.7808 136.121 81.7808C136.066 81.4155 135.97 81.063 135.84 80.7285L136.414 80.3858C136.414 80.3858 136.885 80.0798 136.713 79.7745C136.542 79.4685 136.286 79.0103 136.286 79.0103C136.286 79.0103 136.057 78.6885 135.613 78.9533C135.445 79.0538 135.217 79.1895 134.999 79.3193C134.782 79.0605 134.538 78.8235 134.272 78.612L134.691 77.8635C134.691 77.8635 134.95 77.3558 134.654 77.1795C134.358 77.0033 133.914 76.7385 133.914 76.7385C133.914 76.7385 133.559 76.578 133.303 77.037C133.184 77.2493 133.016 77.5523 132.868 77.8163C132.552 77.6978 132.222 77.6078 131.88 77.5515C131.88 77.2928 131.88 77.0228 131.88 76.8218C131.88 76.2938 131.476 76.2495 131.476 76.2495C131.476 76.2495 130.938 76.2495 130.58 76.2495C130.222 76.2495 130.199 76.8218 130.199 76.8218V77.5478C129.884 77.598 129.579 77.6768 129.285 77.7795C129.143 77.5373 128.988 77.2748 128.877 77.0843C128.608 76.6268 128.237 76.7873 128.237 76.7873C128.237 76.7873 127.771 77.0513 127.461 77.2275C127.15 77.4038 127.422 77.91 127.422 77.91L127.819 78.5858C127.535 78.8078 127.277 79.0583 127.046 79.3328C126.834 79.2128 126.617 79.0898 126.453 78.9968C125.987 78.7328 125.747 79.0538 125.747 79.0538C125.747 79.0538 125.478 79.5113 125.299 79.8158C125.119 80.1203 125.613 80.4255 125.613 80.4255L126.204 80.7608C126.075 81.0968 125.982 81.4508 125.928 81.8168C125.654 81.8168 125.361 81.8168 125.147 81.8168C124.609 81.8168 124.564 82.2128 124.564 82.2128C124.564 82.2128 124.564 82.7408 124.564 83.0925C124.564 83.4443 125.147 83.4668 125.147 83.4668H125.963C126.025 83.8005 126.122 84.1215 126.248 84.429C126.012 84.5625 125.761 84.705 125.577 84.8093C125.111 85.0733 125.274 85.4378 125.274 85.4378C125.274 85.4378 125.543 85.8953 125.723 86.1998C125.902 86.5043 126.418 86.238 126.418 86.238L127.122 85.839C127.333 86.079 127.567 86.2988 127.819 86.4968C127.677 86.7383 127.523 86.9993 127.412 87.189C127.143 87.6465 127.47 87.882 127.47 87.882C127.47 87.882 127.936 88.146 128.246 88.3223C128.556 88.4985 128.867 88.014 128.867 88.014L129.285 87.303C129.57 87.4035 129.866 87.48 130.172 87.531C130.172 87.8183 130.172 88.1355 130.172 88.3628C130.172 88.8908 130.576 88.935 130.576 88.935C130.576 88.935 131.113 88.935 131.472 88.935C131.503 88.935 131.531 88.929 131.557 88.9215C131.634 88.9215 131.684 88.9215 131.684 88.9215C131.684 88.9215 132.068 88.8773 132.068 88.3478C132.068 88.1153 132.068 87.7898 132.068 87.4973C132.354 87.4395 132.632 87.3593 132.898 87.2565L133.313 87.9983C133.313 87.9983 133.609 88.4843 133.905 88.3073C134.2 88.131 134.645 87.8663 134.645 87.8663C134.645 87.8663 134.957 87.6293 134.7 87.171C134.59 86.9745 134.436 86.7 134.297 86.451C134.538 86.2568 134.76 86.0423 134.962 85.8083L135.648 86.217C135.648 86.217 136.14 86.4848 136.31 86.1788C136.481 85.8728 136.737 85.4145 136.737 85.4145C136.737 85.4145 136.892 85.0485 136.448 84.7838C136.275 84.6803 136.04 84.54 135.817 84.4073C135.943 84.0975 136.038 83.7728 136.099 83.4368H136.859C136.859 83.4368 137.414 83.415 137.414 83.0618C137.414 82.7085 137.414 82.1798 137.414 82.1798C137.414 82.1798 137.371 81.7808 136.859 81.7808ZM130.971 86.3895C128.837 86.3895 127.107 84.6908 127.107 82.5953C127.107 80.4998 128.837 78.801 130.971 78.801C133.106 78.801 134.836 80.4998 134.836 82.5953C134.836 84.6908 133.106 86.3895 130.971 86.3895Z" fill="#A100FF"/>
<path d="M131.011 85.0712C132.402 85.0499 133.513 83.9249 133.491 82.5586C133.469 81.1922 132.324 80.1019 130.932 80.1232C129.54 80.1445 128.43 81.2694 128.451 82.6358C128.473 84.0021 129.619 85.0925 131.011 85.0712Z" fill="#A100FF"/>
<path d="M140.213 76.1617C140.955 76.1617 141.557 75.5707 141.557 74.8417C141.557 74.1127 140.955 73.5217 140.213 73.5217C139.47 73.5217 138.868 74.1127 138.868 74.8417C138.868 75.5707 139.47 76.1617 140.213 76.1617Z" fill="#A100FF"/>
<path d="M130.5 48C115.312 48 103 60.0885 103 75C103 89.9115 115.312 102 130.5 102C145.688 102 158 89.9115 158 75C158 60.0885 145.688 48 130.5 48ZM130.5 100.758C116.011 100.758 104.265 89.226 104.265 75C104.265 60.774 116.011 49.242 130.5 49.242C144.989 49.242 156.735 60.774 156.735 75C156.735 89.226 144.989 100.758 130.5 100.758Z" fill="#A100FF"/>
<path d="M139.335 102.782C139.335 102.782 139.25 102.782 139.109 100.934C138.968 99.086 137.531 99.3815 137.531 99.3815H134.485C135.359 99.7145 135.5 102.043 133.131 102.043C130.762 102.043 129.973 99.3815 129.973 99.3815H126.814C127.829 100.712 127.011 102.321 124.897 102.043C122.781 101.766 122.189 99.3815 122.189 99.3815H118.805C119.849 100.213 119.482 102.237 117.113 102.043C114.744 101.849 114.406 99.3815 114.406 99.3815C114.406 99.3815 114.406 99.3815 113.278 99.3815C112.15 99.3815 112.037 100.491 112.037 100.491L111.699 103.854H112.714L112.827 101.71H113.166V102.782H139.335Z" fill="black"/>
<path d="M140.463 115.35L139.448 103.854H113.276L114.517 116.127C114.517 116.127 112.43 116.127 111.922 116.127C111.414 116.127 111.583 115.461 111.583 115.461L112.824 102.782H111.809L110.568 115.461C110.192 116.977 111.809 117.125 111.809 117.125C111.809 117.125 137.191 117.125 138.996 117.125C140.801 117.125 140.463 115.35 140.463 115.35ZM116.322 110.249V109.473C116.322 109.473 116.322 108.918 116.886 108.918C117.449 108.918 118.126 108.918 118.126 108.918C118.126 108.918 118.826 109.007 118.803 109.806C118.78 110.604 118.803 110.582 118.803 110.582C118.803 110.582 118.713 111.247 118.126 111.247C117.54 111.247 116.998 111.247 116.998 111.247C116.998 111.247 116.3 111.291 116.322 110.249ZM119.029 114.131C119.029 114.131 118.939 114.593 118.352 114.593C117.766 114.593 117.224 114.593 117.224 114.593C117.224 114.593 116.682 114.353 116.66 113.798C116.637 113.244 116.66 113.022 116.66 113.022C116.66 113.022 116.705 112.374 117.224 112.374H118.465C118.465 112.374 119.006 112.422 119.028 113.243C119.052 114.064 119.029 114.131 119.029 114.131ZM120.045 110.36C120.045 109.605 120.045 109.584 120.045 109.584C120.045 109.584 120.022 108.918 120.722 108.918C121.422 108.918 121.85 108.918 121.85 108.918C121.85 108.918 122.527 108.874 122.527 109.806V110.693C122.527 110.693 122.369 111.247 121.737 111.247C121.105 111.247 120.722 111.247 120.722 111.247C120.722 111.247 120.045 111.114 120.045 110.36ZM122.865 114.131C122.865 114.131 122.706 114.593 122.188 114.593C121.669 114.593 121.06 114.593 121.06 114.593C121.06 114.593 120.563 114.508 120.496 113.909C120.428 113.31 120.383 112.911 120.383 112.911C120.383 112.911 120.563 112.374 120.946 112.374H122.187C122.187 112.374 122.864 112.489 122.864 113.132C122.864 113.775 122.865 114.131 122.865 114.131ZM123.541 107.144C123.518 106.567 123.541 106.257 123.541 106.257C123.541 106.257 123.451 105.48 124.331 105.48C125.211 105.48 125.346 105.48 125.346 105.48C125.346 105.48 126.001 105.569 126.023 106.368C126.046 107.166 126.023 107.366 126.023 107.366C126.023 107.366 125.933 107.847 125.346 107.847H124.218C124.218 107.846 123.564 107.721 123.541 107.144ZM123.88 110.471C123.88 109.85 123.88 109.473 123.88 109.473C123.88 109.473 123.88 108.918 124.557 108.918C125.233 108.918 125.685 108.918 125.685 108.918C125.685 108.918 126.362 108.985 126.362 109.806C126.362 110.289 126.362 110.433 126.362 110.471C126.362 110.471 126.407 111.247 125.798 111.247C125.189 111.247 124.557 111.247 124.557 111.247C124.557 111.247 123.88 111.092 123.88 110.471ZM126.7 114.02C126.7 114.02 126.565 114.593 125.91 114.593C125.256 114.593 124.895 114.593 124.895 114.593C124.895 114.593 124.218 114.441 124.218 113.798C124.218 113.154 124.218 112.911 124.218 112.911C124.218 112.911 124.263 112.374 124.782 112.374H126.023C126.023 112.374 126.677 112.533 126.699 113.132C126.723 113.731 126.7 114.02 126.7 114.02ZM127.265 107.033C127.265 106.368 127.265 106.257 127.265 106.257C127.265 106.257 127.242 105.48 127.941 105.48C128.641 105.48 129.182 105.48 129.182 105.48C129.182 105.48 129.859 105.636 129.859 106.479C129.859 107.151 129.859 107.244 129.859 107.255C129.859 107.255 129.724 107.847 129.182 107.847H128.054C128.054 107.846 127.265 107.698 127.265 107.033ZM130.085 110.582C130.085 110.582 130.062 111.247 129.295 111.247C128.528 111.247 128.393 111.247 128.393 111.247C128.393 111.247 127.581 111.092 127.603 110.471C127.626 109.85 127.468 108.918 128.167 108.918H129.407C129.407 108.918 130.084 109.007 130.084 109.695C130.085 110.382 130.085 110.582 130.085 110.582ZM131.1 106.922C131.1 106.19 131.1 106.146 131.1 106.146C131.1 106.146 131.077 105.48 131.777 105.48C132.477 105.48 132.792 105.48 132.792 105.48C132.792 105.48 133.582 105.503 133.582 106.368C133.582 107.232 133.582 107.255 133.582 107.255C133.582 107.255 133.469 107.847 133.018 107.847H131.89C131.889 107.846 131.1 107.654 131.1 106.922ZM133.807 110.693C133.807 110.693 133.717 111.247 133.13 111.247C132.544 111.247 132.228 111.247 132.228 111.247C132.228 111.247 131.416 111.203 131.438 110.249V109.362C131.438 109.362 131.461 108.918 131.89 108.918C132.318 108.918 133.244 108.918 133.244 108.918C133.244 108.918 133.762 108.896 133.807 109.806C133.852 110.715 133.807 110.693 133.807 110.693ZM134.936 107.255C134.89 106.678 134.936 106.146 134.936 106.146C134.936 106.146 134.981 105.48 135.499 105.48C136.018 105.48 136.628 105.48 136.628 105.48C136.628 105.48 137.417 105.591 137.417 106.368C137.417 107.144 137.417 107.144 137.417 107.144C137.417 107.144 137.281 107.847 136.853 107.847C136.424 107.847 135.725 107.847 135.725 107.847C135.725 107.847 134.981 107.832 134.936 107.255ZM137.643 110.582C137.643 110.582 137.666 111.247 136.966 111.247C136.266 111.247 135.838 111.247 135.838 111.247C135.838 111.247 135.138 111.048 135.161 110.36C135.184 109.672 135.161 109.695 135.161 109.695C135.161 109.695 135.071 108.918 135.725 108.918C136.379 108.918 137.078 108.918 137.078 108.918C137.078 108.918 137.687 109.162 137.642 109.695C137.598 110.227 137.643 110.582 137.643 110.582Z" fill="#3A70D4"/>
<path d="M118.127 96.941C116.615 96.5638 115.397 97.9168 115.532 98.8265C115.667 99.7363 115.825 100.734 117.788 100.934C117.788 100.934 118.126 100.934 118.239 100.601C118.352 100.268 118.081 100.003 117.675 100.047C117.675 100.047 116.48 99.9583 116.547 98.9375C116.615 97.9175 117.698 97.4293 118.691 98.2723H119.819C119.819 98.2715 119.639 97.3183 118.127 96.941ZM126.023 96.941C124.512 96.5638 123.293 97.9168 123.428 98.8265C123.564 99.7363 123.722 100.734 125.684 100.934C125.684 100.934 126.022 100.934 126.136 100.601C126.249 100.268 125.977 100.003 125.572 100.047C125.572 100.047 124.376 99.9583 124.444 98.9375C124.512 97.9175 125.594 97.4293 126.587 98.2723H127.715C127.715 98.2715 127.535 97.3183 126.023 96.941ZM134.259 98.2715H135.387C135.387 98.2715 135.207 97.3175 133.695 96.941C132.183 96.5638 130.965 97.9168 131.1 98.8265C131.235 99.7363 131.393 100.734 133.356 100.934C133.356 100.934 133.694 100.934 133.807 100.601C133.92 100.268 133.649 100.003 133.244 100.047C133.244 100.047 132.048 99.9583 132.115 98.9375C132.182 97.9168 133.266 97.4285 134.259 98.2715Z" fill="#66099F"/>
<path d="M125.5 80C110.312 80 98 92.0885 98 107C98 121.912 110.312 134 125.5 134C140.688 134 153 121.912 153 107C153 92.0885 140.688 80 125.5 80ZM125.5 132.758C111.011 132.758 99.265 121.226 99.265 107C99.265 92.774 111.011 81.242 125.5 81.242C139.989 81.242 151.735 92.774 151.735 107C151.735 121.226 139.989 132.758 125.5 132.758Z" fill="#A100FF"/>
<path d="M110.921 115.428C110.921 115.428 102.826 115.428 100.265 115.428C97.7046 115.428 97.6633 118.105 97.6633 118.105C97.6633 118.105 97.6633 134.42 97.6633 137.035C97.6633 139.651 100.018 139.9 100.018 139.9C100.018 139.9 107.7 139.9 110.426 139.9C113.153 139.9 113.338 137.409 113.338 137.409C113.338 137.409 113.338 121.551 113.338 118.604C113.338 115.656 110.921 115.428 110.921 115.428ZM110.302 138.157C108.98 138.157 100.389 138.157 100.389 138.157C100.389 138.157 99.3974 138.157 99.3974 137.161C99.3974 136.165 99.3974 118.106 99.3974 118.106C99.3974 118.106 99.4799 117.276 100.265 117.276C101.05 117.276 101.876 117.276 101.876 117.276L103.487 118.106H107.453L108.94 117.276H110.427C110.427 117.276 111.542 117.235 111.542 118.106C111.542 118.978 111.542 137.285 111.542 137.285C111.542 137.285 111.623 138.157 110.302 138.157Z" fill="#3A70D4"/>
<path d="M104.967 126.873V125.753C104.967 125.752 104.391 126.313 104.967 126.873ZM105.468 123.211C102.8 123.211 100.636 125.386 100.636 128.069C100.636 130.752 102.799 132.926 105.468 132.926C108.136 132.926 110.3 130.752 110.3 128.069C110.3 125.386 108.136 123.211 105.468 123.211ZM105.971 131.357V131.655C105.971 131.655 105.971 132.104 105.469 132.029C104.967 131.954 104.967 131.768 104.967 131.655C104.967 131.543 104.967 131.357 104.967 131.357C104.967 131.357 103.387 131.151 103.238 129.713C103.238 129.713 103.145 129.115 103.684 129.041C104.224 128.966 104.316 129.339 104.353 129.713C104.353 129.713 104.706 130.199 104.967 130.236V128.144C104.967 128.144 103.684 127.677 103.684 126.65C103.684 125.622 104.168 124.913 104.967 124.707V124.557C104.967 124.557 104.985 124.165 105.395 124.109C105.803 124.053 105.971 124.352 105.971 124.557C105.971 124.763 105.971 124.781 105.971 124.781C105.971 124.781 107.142 124.874 107.253 126.051C107.253 126.051 107.346 126.818 106.733 126.799C106.12 126.78 106.213 126.126 106.213 126.126L105.971 125.828V127.322C105.971 127.322 107.626 127.901 107.626 129.19C107.626 130.478 107.123 131.17 105.971 131.357ZM105.971 128.592V130.311C106.398 130.143 106.566 129.732 106.584 129.339C106.603 128.947 105.971 128.592 105.971 128.592Z" fill="#A100FF"/>
<path d="M109.633 111.119C109.414 110.91 107.903 109.5 105.411 109.512C102.853 109.577 101.42 111.237 101.42 111.237C101.42 111.237 101.11 111.59 101.343 111.942C101.575 112.295 102.027 112.124 102.118 111.981C102.118 111.981 103.357 110.635 105.334 110.531C107.31 110.426 108.73 111.602 108.976 111.902C108.976 111.902 109.389 112.359 109.75 112.02C110.111 111.68 109.853 111.327 109.633 111.119ZM105.178 111.237C103.512 111.341 102.582 112.49 102.582 112.49C102.311 112.764 102.44 113.182 102.776 113.313C103.112 113.443 103.434 113 103.434 113C103.9 112.621 104.558 112.229 105.643 112.216C106.728 112.203 107.528 112.79 107.774 113.039C108.02 113.287 108.42 113.417 108.666 113.117C108.911 112.817 108.705 112.53 108.705 112.53C108.032 111.811 106.844 111.132 105.178 111.237ZM107.038 113.273C106.25 112.751 105.295 112.881 105.295 112.881C104.533 112.96 103.99 113.391 103.784 113.586C103.577 113.782 103.46 114.109 103.784 114.37C104.107 114.631 104.404 114.37 104.404 114.37C104.404 114.37 104.572 114.148 104.985 113.978C105.398 113.809 106.173 113.796 106.651 114.252C107.129 114.709 107.439 114.396 107.504 114.291C107.567 114.187 107.825 113.796 107.038 113.273Z" fill="black"/>
<path d="M105.5 97C90.3124 97 78 109.312 78 124.5C78 139.688 90.3124 152 105.5 152C120.688 152 133 139.688 133 124.5C133 109.312 120.688 97 105.5 97ZM105.5 150.735C91.0106 150.735 79.265 138.989 79.265 124.5C79.265 110.011 91.0106 98.265 105.5 98.265C119.989 98.265 131.735 110.011 131.735 124.5C131.735 138.989 119.989 150.735 105.5 150.735Z" fill="#A100FF"/>
<path d="M101.38 123.675C101.38 123.675 99.982 123.675 99.1196 123.675C98.2571 123.675 98.3763 124.464 98.3763 124.464C98.3763 124.464 98.3763 125.428 98.3763 126.334C98.3763 127.24 99.3579 127.269 99.3579 127.269C99.3579 127.269 100.191 127.269 101.023 127.269C101.856 127.269 101.975 126.568 101.975 126.568C101.975 126.568 101.975 125.223 101.975 124.464C101.975 123.704 101.38 123.675 101.38 123.675ZM100.905 126.1C100.905 126.1 100.881 126.363 100.667 126.363C100.453 126.363 99.7154 126.363 99.7154 126.363C99.7154 126.363 99.3885 126.381 99.3885 126.1C99.3885 125.82 99.3885 124.931 99.3885 124.931C99.3885 124.931 99.2876 124.697 99.5962 124.697C99.9056 124.697 100.666 124.697 100.666 124.697C100.666 124.697 100.904 124.65 100.904 125.048C100.905 125.445 100.905 126.1 100.905 126.1ZM101.38 138.99C101.38 138.99 99.982 138.99 99.1196 138.99C98.2571 138.99 98.3763 139.779 98.3763 139.779C98.3763 139.779 98.3763 140.744 98.3763 141.65C98.3763 142.556 99.3579 142.585 99.3579 142.585C99.3579 142.585 100.191 142.585 101.023 142.585C101.856 142.585 101.975 141.884 101.975 141.884C101.975 141.884 101.975 140.539 101.975 139.779C101.975 139.02 101.38 138.99 101.38 138.99ZM100.905 141.416C100.905 141.416 100.881 141.679 100.667 141.679C100.453 141.679 99.7154 141.679 99.7154 141.679C99.7154 141.679 99.3885 141.696 99.3885 141.416C99.3885 141.135 99.3885 140.247 99.3885 140.247C99.3885 140.247 99.2876 140.013 99.5962 140.013C99.9056 140.013 100.666 140.013 100.666 140.013C100.666 140.013 100.904 139.966 100.904 140.364C100.905 140.761 100.905 141.416 100.905 141.416Z" fill="black"/>
<path d="M101.38 131.157C101.38 131.157 99.982 131.157 99.1196 131.157C98.2572 131.157 98.3763 131.946 98.3763 131.946C98.3763 131.946 98.3763 132.91 98.3763 133.816C98.3763 134.722 99.3579 134.751 99.3579 134.751C99.3579 134.751 100.191 134.751 101.023 134.751C101.856 134.751 101.975 134.05 101.975 134.05C101.975 134.05 101.975 132.705 101.975 131.946C101.975 131.186 101.38 131.157 101.38 131.157ZM95.4323 119.466C95.4323 119.466 94.0344 119.466 93.1719 119.466C92.3095 119.466 92.4287 120.255 92.4287 120.255C92.4287 120.255 92.4287 121.219 92.4287 122.125C92.4287 123.031 93.4103 123.06 93.4103 123.06C93.4103 123.06 94.2429 123.06 95.0756 123.06C95.9082 123.06 96.0274 122.359 96.0274 122.359C96.0274 122.359 96.0274 121.014 96.0274 120.255C96.0274 119.495 95.4323 119.466 95.4323 119.466ZM95.4323 126.48C95.4323 126.48 94.0344 126.48 93.1719 126.48C92.3095 126.48 92.4287 127.269 92.4287 127.269C92.4287 127.269 92.4287 128.234 92.4287 129.14C92.4287 130.046 93.4103 130.075 93.4103 130.075C93.4103 130.075 94.2429 130.075 95.0756 130.075C95.9082 130.075 96.0274 129.374 96.0274 129.374C96.0274 129.374 96.0274 128.029 96.0274 127.269C96.0274 126.51 95.4323 126.48 95.4323 126.48ZM95.4323 134.781C95.4323 134.781 94.0344 134.781 93.1719 134.781C92.3095 134.781 92.4287 135.57 92.4287 135.57C92.4287 135.57 92.4287 136.535 92.4287 137.441C92.4287 138.347 93.4103 138.376 93.4103 138.376C93.4103 138.376 94.2429 138.376 95.0756 138.376C95.9082 138.376 96.0274 137.675 96.0274 137.675C96.0274 137.675 96.0274 136.33 96.0274 135.57C96.0274 134.811 95.4323 134.781 95.4323 134.781ZM95.4323 142.03C95.4323 142.03 94.0344 142.03 93.1719 142.03C92.3095 142.03 92.4287 142.819 92.4287 142.819C92.4287 142.819 92.4287 143.784 92.4287 144.69C92.4287 145.596 93.4103 145.625 93.4103 145.625C93.4103 145.625 94.2429 145.625 95.0756 145.625C95.9082 145.625 96.0274 144.924 96.0274 144.924C96.0274 144.924 96.0274 143.579 96.0274 142.819C96.0274 142.059 95.4323 142.03 95.4323 142.03Z" fill="#A100FF"/>
<path d="M89.7826 127.737C89.7826 127.737 89.7826 119.817 89.7826 118.969C89.7826 118.122 89.2471 118.15 89.2471 118.15C89.2395 118.15 89.1471 118.15 88.2953 118.15C87.2839 118.15 87.3435 118.968 87.3435 118.968C87.3435 118.968 87.3137 120.489 87.3435 120.722C87.3733 120.956 87.106 121.073 87.106 121.073C85.4705 121.219 83.7456 122.271 83.2995 122.593C82.8534 122.915 82.586 122.593 82.586 122.593C82.586 122.593 82.7052 122.739 81.7534 121.775C80.8016 120.81 79.8505 121.658 79.8505 121.658C79.8505 121.658 78.8391 122.652 78.1853 123.411C77.5314 124.171 78.0661 124.932 78.0661 124.932C78.0661 124.932 78.8987 125.574 79.2555 125.867C79.6122 126.159 79.2555 126.568 79.2555 126.568C78.5718 127.24 78.0065 128.848 77.8278 129.842C77.649 130.836 76.9951 130.66 76.9951 130.66C76.9951 130.66 76.9355 130.66 75.9249 130.66C74.9135 130.66 74.7355 131.712 74.7355 131.712C74.7355 131.712 74.5866 133.174 74.6164 134.168C74.6462 135.162 75.8057 135.337 75.8057 135.337C75.8057 135.337 76.698 135.337 77.2335 135.337C77.7689 135.337 77.7094 135.805 77.7094 135.805C77.8285 137.354 79.2257 139.225 79.3746 139.546C79.5236 139.868 79.2555 140.13 79.2555 140.13C79.2555 140.13 78.6902 140.656 78.1853 141.183C77.6796 141.708 78.1853 142.586 78.1853 142.586C78.1853 142.586 78.9583 143.287 79.8505 144.106C80.7428 144.924 81.3966 144.457 81.3966 144.457L82.3485 143.522C82.6158 142.996 83.1811 143.288 83.1811 143.288C84.4896 144.369 86.8088 144.75 86.9876 144.808C87.1663 144.867 87.3443 145.042 87.3443 145.042C87.3443 145.042 87.3443 146.094 87.3443 146.913C87.3443 147.731 88.0578 147.848 88.0578 147.848C88.0578 147.848 88.623 147.789 89.128 147.848C89.6337 147.906 89.7819 147.264 89.7819 147.264V138.259C88.4733 138.142 84.6966 135.833 85.5591 132.063C86.4223 128.292 89.7826 127.737 89.7826 127.737Z" fill="#3A70D4"/>
<path d="M88.5 106C73.3124 106 61 118.089 61 133C61 147.912 73.3124 160 88.5 160C103.688 160 116 147.912 116 133C116 118.089 103.688 106 88.5 106ZM88.5 158.758C74.0106 158.758 62.265 147.226 62.265 133C62.265 118.774 74.0106 107.242 88.5 107.242C102.989 107.242 114.735 118.774 114.735 133C114.735 147.226 102.989 158.758 88.5 158.758Z" fill="#A100FF"/>
<path d="M100.238 44.0855H104.405C104.289 42.3852 102.785 41.8752 101.743 41.4785C100.701 41.0817 100.701 40.4585 100.701 40.4585L100.585 39.3252C101.888 38.6735 101.974 37.2845 101.974 37.2845C102.843 36.5757 102.09 35.924 102.09 35.924C102.032 35.102 101.425 33.827 99.428 33.77C97.4312 33.713 96.9973 35.8107 96.9973 35.8107C96.1287 36.5472 97.1134 37.2845 97.1134 37.2845C97.1134 38.7012 98.5021 39.3252 98.5021 39.3252C98.5021 39.3252 98.5021 40.034 98.5021 40.5725C98.5021 41.111 97.2287 41.7057 95.9553 42.1595C94.6819 42.6132 94.7981 44.0862 94.7981 44.0862H98.8497V43.1795C98.3578 42.2727 98.7053 41.9045 99.0812 41.7057C99.457 41.507 100.297 41.5077 100.47 42.1595C100.643 42.8112 100.238 43.2927 100.238 43.2927V44.0855Z" fill="black"/>
<path d="M103.248 35.2437C103.248 35.2437 103.914 36.1505 103.364 37.511C103.364 37.511 104.319 37.313 104.406 36.491C104.493 35.669 103.682 35.2722 103.248 35.2437ZM101.627 39.7775C101.627 39.7775 102.119 40.4862 102.669 40.6842C103.219 40.8822 103.595 41.138 103.595 41.138C103.595 41.138 104.001 39.4377 101.627 39.7775ZM95.8431 35.2437C95.41 35.2722 94.6018 35.669 94.6889 36.491C94.7752 37.313 95.7278 37.511 95.7278 37.511C95.1793 36.1505 95.8431 35.2437 95.8431 35.2437ZM95.4971 41.138C95.4971 41.138 95.8721 40.883 96.4206 40.6842C96.9691 40.4855 97.4595 39.7775 97.4595 39.7775C95.093 39.4377 95.4971 41.138 95.4971 41.138Z" fill="#A100FF"/>
<path d="M94.9134 59.615C94.4505 59.6525 93.7561 59.2752 93.7561 59.2752C93.7951 59.7665 93.7951 60.5975 95.0295 60.6357C96.2639 60.6732 96.4183 59.6157 96.4183 59.6157C96.4183 59.6157 95.3763 59.5767 94.9134 59.615ZM117.949 59.615C117.486 59.5775 116.444 59.615 116.444 59.615C116.444 59.615 116.599 60.6732 117.833 60.635C119.068 60.5975 119.068 59.7657 119.107 59.2745C119.107 59.2745 118.413 59.6525 117.949 59.615Z" fill="#3A70D4"/>
<path d="M121.075 46.1255C121.017 45.1055 119.802 45.2188 119.802 45.2188H118.181C118.181 45.2188 118.181 45.1903 118.181 44.4253C118.181 43.6603 117.602 43.745 117.602 43.745C117.602 43.745 117.66 43.3483 117.718 43.0648C117.776 42.7813 117.891 42.158 117.486 42.0448C117.081 41.9315 116.907 42.2713 116.907 42.2713L116.56 43.745C116.56 43.745 116.357 43.7735 115.981 43.745C115.604 43.7165 115.518 44.1988 115.518 44.1988V45.1903H112.277C112.189 44.9068 112.045 44.8783 111.582 44.6518C111.119 44.4253 111.119 43.6318 111.119 43.6318C111.119 43.6318 113.839 43.6318 114.245 43.6318C114.651 43.6318 114.737 43.292 114.737 43.292C114.737 43.292 114.737 39.4662 114.737 38.8715C114.737 38.2767 114.129 38.2767 114.129 38.2767C114.129 38.2767 107.647 38.2767 106.836 38.2767C106.026 38.2767 106.113 38.9855 106.113 38.9855C106.113 38.9855 106.113 42.9245 106.113 43.2928C106.113 43.661 106.605 43.6325 106.605 43.6325H109.731C109.731 44.426 109.151 44.681 108.92 44.7658C108.689 44.8505 108.341 45.191 108.341 45.191C108.341 45.191 93.3497 45.191 92.9448 45.191C92.54 45.191 91.7585 45.4745 91.7875 46.2395C91.8166 47.0045 92.4819 47.1463 92.4819 47.1463H120.148C120.149 47.1455 121.133 47.1455 121.075 46.1255ZM110.426 41.7058C110.042 41.7058 109.731 41.4005 109.731 41.024C109.731 40.6475 110.042 40.3423 110.426 40.3423C110.809 40.3423 111.12 40.6475 111.12 41.024C111.12 41.4005 110.808 41.7058 110.426 41.7058Z" fill="#3A70D4"/>
<path d="M114.94 50.8017H98.0386C98.0096 51.6237 96.6781 52.2755 96.6781 52.2755V54.7407C97.7491 54.7407 98.0386 56.0157 98.0386 56.0157H114.911C114.911 54.8825 116.213 54.7407 116.213 54.7407V52.2755C114.795 51.9065 114.94 50.8017 114.94 50.8017ZM115.171 53.8302H98.267V53.1552H115.171V53.8302Z" fill="#A100FF"/>
<path d="M93.7554 48.2795C93.7554 48.2795 93.7554 55.799 93.7554 57.008C93.7554 58.217 95.0288 58.5192 95.0288 58.5192C95.0288 58.5192 116.753 58.5192 117.834 58.5192C118.914 58.5192 119.107 57.3477 119.107 57.3477V48.2795H93.7554ZM117.342 54.854C117.342 54.854 116.937 55.9595 115.981 55.9872C115.981 55.9872 115.923 57.149 114.477 57.149C113.03 57.149 98.0385 57.149 98.0385 57.149C98.0385 57.149 96.8522 56.837 96.8812 56.0157C96.8812 56.0157 95.6078 55.7607 95.6078 54.854C95.6078 53.9472 95.6078 52.3317 95.6078 52.3317C95.6078 52.3317 95.4054 51.2262 96.8812 50.915C96.8812 50.915 96.7368 49.9235 98.27 49.6115H114.592C114.592 49.6115 115.865 49.7247 115.981 50.8865C115.981 50.8865 117.341 51.0567 117.341 52.3602C117.342 53.6637 117.342 54.854 117.342 54.854Z" fill="black"/>
<path d="M106.5 20C91.3124 20 79 32.0885 79 47C79 61.9115 91.3124 74 106.5 74C121.688 74 134 61.9115 134 47C134 32.0885 121.688 20 106.5 20ZM106.5 72.758C92.0106 72.758 80.265 61.226 80.265 47C80.265 32.774 92.0106 21.242 106.5 21.242C120.989 21.242 132.735 32.774 132.735 47C132.735 61.226 120.989 72.758 106.5 72.758Z" fill="#A100FF"/>
<path d="M72.1982 108.761C72.226 106.583 70.3637 104.83 68.4175 104.802C66.4712 104.774 64.9705 106.018 64.6367 107.517C64.303 109.015 64.7477 110.156 65.1925 110.798C65.6372 111.438 65.86 112.042 65.86 112.042C65.7857 114.266 66.7495 115.21 66.7495 115.21C66.7495 115.21 66.7495 116.115 66.7495 116.793C66.7495 117.472 67.12 118.453 68.3065 118.49C69.493 118.527 69.8635 117.133 69.8635 117.133V115.323C70.642 114.7 70.753 113.173 70.753 113.173C70.753 113.173 70.5025 112.014 71.1977 111.25C71.8922 110.487 72.1982 108.761 72.1982 108.761ZM68.9732 117.019C68.9732 117.019 68.9065 117.608 68.3057 117.585C67.705 117.562 67.6607 117.11 67.6607 116.906C67.6607 116.702 67.6382 116 67.6382 116C67.6382 116 68.3942 116.272 68.9725 116V117.019H68.9732ZM68.7865 111.477H68.8622V114.871C68.8622 114.871 68.779 115.182 68.3065 115.21C67.834 115.238 67.723 115.068 67.7507 114.871C67.7785 114.673 67.7507 111.477 67.7507 111.477H67.8242C67.4515 111.294 67.1942 110.908 67.1942 110.459C67.1942 109.835 67.6922 109.329 68.3057 109.329C68.92 109.329 69.4172 109.835 69.4172 110.459C69.4165 110.908 69.1592 111.294 68.7865 111.477ZM70.3075 108.309C70.063 108.128 70.0405 107.879 69.8627 107.63C69.685 107.381 69.5957 107.2 69.0842 106.951C69.0842 106.951 68.7287 106.793 68.7505 106.498C68.773 106.204 69.106 105.729 69.751 106.159C70.396 106.589 70.8182 107.042 71.0852 107.63C71.353 108.218 70.552 108.49 70.3075 108.309Z" fill="#3A70D4"/>
<path d="M68.7355 102.54C68.686 102.344 68.512 102.2 68.305 102.2C68.098 102.2 67.924 102.344 67.8745 102.54H67.8595V103.67H67.8737C67.9225 103.865 68.0965 104.01 68.305 104.01C68.5128 104.01 68.6868 103.865 68.7363 103.67H68.7505V102.54H68.7355Z" fill="#66099F"/>
<path d="M73.8279 104.389C73.6816 104.24 73.4589 104.217 73.2886 104.32L73.2774 104.308L72.5694 105.028L72.4906 105.108L72.5019 105.12C72.4014 105.293 72.4231 105.519 72.5694 105.668C72.7156 105.817 72.9384 105.839 73.1086 105.737L73.1199 105.748L73.1986 105.668L73.8279 105.028L73.9066 104.948L73.8954 104.936C73.9959 104.764 73.9741 104.538 73.8279 104.389ZM64.2519 105.108L63.4456 104.288L63.4344 104.299C63.2596 104.195 63.0316 104.217 62.8816 104.369C62.7316 104.522 62.7099 104.754 62.8126 104.932L62.8014 104.943L63.5266 105.681L63.6069 105.763L63.6181 105.751C63.7929 105.856 64.0209 105.834 64.1709 105.681C64.3209 105.528 64.3426 105.296 64.2399 105.119L64.2519 105.108Z" fill="#3A70D4"/>
<path d="M61.8564 112.947C62.4399 111.646 62.1346 110.967 62.0791 110.798C62.0236 110.628 61.8849 110.289 62.4129 109.666C62.9409 109.044 62.4129 108.083 62.4129 108.083C61.3839 109.723 59.7444 108.252 59.0769 107.857C58.4094 107.461 57.0474 106.414 54.9624 107.857C52.8774 109.299 53.2944 111.872 53.4054 112.269C53.5164 112.665 53.6281 113.061 53.6281 113.061C52.8496 113.174 53.0169 113.768 53.2944 114.418C53.5726 115.069 53.9619 114.984 53.9619 114.984C54.1561 116.624 55.8526 117.925 55.8526 117.925C55.8249 119.339 55.1851 119.961 55.1851 119.961L55.0741 130.029L60.1891 130.368L60.4119 119.847C59.5779 119.31 59.6334 118.038 59.6334 118.038C60.8566 117.274 61.5241 114.984 61.5241 114.984C61.9689 115.068 62.3581 114.588 62.5246 113.852C62.6904 113.117 61.8564 112.947 61.8564 112.947Z" fill="#66099F"/>
<path d="M67.1942 127.654C67.1942 127.654 66.8049 126.07 66.4157 124.373C66.0264 122.676 65.2479 122.138 63.9692 121.658C62.6904 121.177 60.1884 119.734 60.1884 119.734L57.9647 129.915H57.4089C57.4089 129.915 56.0409 123.325 55.5069 120.749C55.3772 120.123 55.2962 119.734 55.2962 119.734L54.7404 120.187C54.6294 120.3 51.8492 121.572 50.7369 121.996C49.6247 122.42 49.2917 123.693 49.2917 123.693C49.2917 123.693 49.0134 124.57 48.2912 127.539C47.5682 130.508 50.5149 130.933 50.5149 130.933C50.5149 130.933 61.5797 130.933 64.6374 130.933C67.6944 130.934 67.1942 127.654 67.1942 127.654Z" fill="black"/>
<path d="M51.1809 122.902C50.3747 123.185 50.1804 124.033 50.1804 124.033C50.1804 124.033 49.4297 126.861 49.1799 128.219C48.9294 129.576 50.5142 129.915 50.5142 129.915H57.4089L55.5174 120.753C55.2122 121.233 51.1809 122.902 51.1809 122.902ZM66.2799 128.219C66.0302 126.861 65.2824 124.033 65.2824 124.033C65.2824 124.033 65.0882 123.185 64.2842 122.902C64.2842 122.902 60.2649 121.234 59.9604 120.753L58.0757 129.915H64.9502C64.9494 129.916 66.5297 129.576 66.2799 128.219Z" fill="white"/>
<path d="M61.4117 119.734C61.2452 118.942 60.0775 118.49 60.0775 118.49L60.1885 119.169C60.1885 119.169 60.244 119.169 60.5222 119.282C60.8005 119.395 60.856 120.47 60.856 120.64C60.856 120.809 59.9387 122.251 59.41 123.241C58.882 124.231 58.27 124.966 57.631 124.938C56.9912 124.91 56.6027 124.033 56.2967 123.467C55.9907 122.902 54.8792 121.346 54.6287 120.413C54.3782 119.48 55.5182 119.056 55.5182 119.056L55.6292 118.491C53.266 118.915 54.1832 121.093 54.1832 121.093C54.1832 121.093 55.4897 123.299 56.074 124.373C56.6575 125.448 57.4082 125.505 57.4082 125.505C57.4082 125.505 57.436 126.58 57.4082 127.767C57.3805 128.955 56.296 130.454 54.9617 130.256C53.6275 130.058 53.1827 127.88 53.1827 127.88V125.703C53.8795 125.57 54.4067 124.95 54.4067 124.203C54.4067 123.36 53.734 122.676 52.9045 122.676C52.075 122.676 51.4022 123.36 51.4022 124.203C51.4022 124.939 51.9137 125.553 52.5947 125.698L52.5145 127.654C52.9037 131.133 55.4057 130.935 55.4057 130.935C57.6295 130.54 57.9632 128.107 57.9632 128.107L58.0742 125.619C58.8527 125.477 59.2975 124.6 59.2975 124.6C59.2975 124.6 60.715 122.507 61.0765 121.659C61.4395 120.809 61.5782 120.526 61.4117 119.734Z" fill="#3A70D4"/>
<path d="M61 89C46.0885 89 34 101.312 34 116.5C34 131.688 46.0885 144 61 144C75.9115 144 88 131.688 88 116.5C88 101.312 75.9115 89 61 89ZM61 142.735C46.774 142.735 35.242 130.989 35.242 116.5C35.242 102.011 46.774 90.265 61 90.265C75.226 90.265 86.758 102.011 86.758 116.5C86.758 130.989 75.226 142.735 61 142.735Z" fill="#A100FF"/>
<path d="M58.1291 99.0624C54.5724 98.2359 54.2844 95.0382 54.2844 95.0382C51.4962 97.0144 48.7157 95.0382 48.7157 95.0382C47.8173 98.5231 44.7633 99.0624 44.7633 99.0624C46.5241 102.224 44.7633 104.631 44.7633 104.631C47.925 105.062 48.7157 108.619 48.7157 108.619C51.5184 106.643 54.2844 108.619 54.2844 108.619C54.823 105.063 58.2368 104.631 58.2368 104.631C56.3324 101.685 58.1291 99.0624 58.1291 99.0624Z" fill="#3A70D4"/>
<path d="M43.6862 106.141C41.7222 106.141 40.1302 107.733 40.1302 109.697C40.1302 111.66 41.7222 113.252 43.6862 113.252C45.6501 113.252 47.2421 111.66 47.2421 109.697C47.2421 107.733 45.6501 106.141 43.6862 106.141ZM43.7404 112.071C42.4616 112.071 41.4243 111.033 41.4243 109.752C41.4243 108.472 42.4609 107.435 43.7404 107.435C45.0199 107.435 46.0565 108.473 46.0565 109.752C46.0565 111.032 45.0191 112.071 43.7404 112.071Z" fill="#A100FF"/>
<path d="M59.314 106.141C57.35 106.141 55.7581 107.733 55.7581 109.697C55.7581 111.66 57.35 113.252 59.314 113.252C61.2779 113.252 62.8699 111.66 62.8699 109.697C62.8699 107.733 61.2779 106.141 59.314 106.141ZM59.3674 112.071C58.0887 112.071 57.0513 111.033 57.0513 109.752C57.0513 108.472 58.0879 107.435 59.3674 107.435C60.6462 107.435 61.6835 108.473 61.6835 109.752C61.6835 111.032 60.6469 112.071 59.3674 112.071Z" fill="#A100FF"/>
<path d="M43.6862 90.4053C41.7222 90.4053 40.1302 91.9972 40.1302 93.9612C40.1302 95.9251 41.7222 97.5171 43.6862 97.5171C45.6501 97.5171 47.2421 95.9251 47.2421 93.9612C47.2421 91.9972 45.6501 90.4053 43.6862 90.4053ZM43.7404 96.3307C42.4616 96.3307 41.4243 95.2942 41.4243 94.0146C41.4243 92.7351 42.4609 91.6985 43.7404 91.6985C45.0199 91.6985 46.0565 92.7351 46.0565 94.0146C46.0565 95.2942 45.0191 96.3307 43.7404 96.3307Z" fill="#A100FF"/>
<path d="M59.314 90.4053C57.35 90.4053 55.7581 91.9972 55.7581 93.9612C55.7581 95.9251 57.35 97.5171 59.314 97.5171C61.2779 97.5171 62.8699 95.9251 62.8699 93.9612C62.8699 91.9972 61.2779 90.4053 59.314 90.4053ZM59.3674 96.3307C58.0887 96.3307 57.0513 95.2942 57.0513 94.0146C57.0513 92.7351 58.0879 91.6985 59.3674 91.6985C60.6462 91.6985 61.6835 92.7351 61.6835 94.0146C61.6835 95.2942 60.6469 96.3307 59.3674 96.3307Z" fill="#A100FF"/>
<path d="M62.6551 98.2733C60.6904 98.2733 59.0969 99.8653 59.0969 101.829C59.0969 103.793 60.6896 105.384 62.6551 105.384C64.6198 105.384 66.2126 103.792 66.2126 101.829C66.2126 99.866 64.6198 98.2733 62.6551 98.2733ZM62.7086 104.199C61.4283 104.199 60.391 103.162 60.391 101.883C60.391 100.604 61.4291 99.5666 62.7086 99.5666C63.9889 99.5666 65.0262 100.603 65.0262 101.883C65.0262 103.161 63.9889 104.199 62.7086 104.199Z" fill="#A100FF"/>
<path d="M40.3449 98.2733C38.3802 98.2733 36.7867 99.8653 36.7867 101.829C36.7867 103.793 38.3795 105.384 40.3449 105.384C42.3104 105.384 43.9031 103.792 43.9031 101.829C43.9031 99.866 42.3104 98.2733 40.3449 98.2733ZM40.3992 104.199C39.1189 104.199 38.0808 103.162 38.0808 101.883C38.0808 100.604 39.1189 99.5666 40.3992 99.5666C41.6795 99.5666 42.7168 100.603 42.7168 101.883C42.7168 103.161 41.6795 104.199 40.3992 104.199Z" fill="#A100FF"/>
<path d="M57.8051 91.8047C57.8051 91.8047 60.2304 93.0445 61.4694 95.793C61.4694 95.793 62.5473 93.9069 62.1165 92.6671C61.6856 91.4281 58.5384 90.6191 57.8051 91.8047ZM63.2065 99.2847C63.2065 99.2847 64.0506 101.874 62.9903 104.696C62.9903 104.696 65.0849 104.12 65.654 102.937C66.2231 101.755 64.5624 98.9616 63.2065 99.2847ZM61.4297 107.816C61.4297 107.816 60.3244 110.305 57.6477 111.693C57.6477 111.693 59.5903 112.666 60.8041 112.168C62.0187 111.67 62.6535 108.483 61.4297 107.816ZM45.2528 91.8467C44.5233 90.6589 41.3906 91.4686 40.9613 92.7107C40.532 93.9528 41.6053 95.8426 41.6053 95.8426C42.8382 93.088 45.2528 91.8467 45.2528 91.8467ZM39.8758 99.3412C38.526 99.0173 36.8737 101.816 37.4398 103.001C38.0058 104.186 40.0912 104.763 40.0912 104.763C39.0356 101.935 39.8758 99.3412 39.8758 99.3412ZM41.6442 107.888C40.4258 108.556 41.0583 111.749 42.2668 112.248C43.4753 112.747 45.4087 111.772 45.4087 111.772C42.7442 110.382 41.6442 107.888 41.6442 107.888Z" fill="#A100FF"/>
<path d="M51.5535 89.5421C44.7679 89.5421 39.2671 95.0428 39.2671 101.829C39.2671 108.616 44.7679 114.116 51.5535 114.116C58.3391 114.116 63.8406 108.615 63.8406 101.829C63.8406 95.0436 58.3399 89.5421 51.5535 89.5421ZM51.5535 112.93C45.4225 112.93 40.4526 107.96 40.4526 101.829C40.4526 95.6982 45.4225 90.7284 51.5535 90.7284C57.6845 90.7284 62.6543 95.6982 62.6543 101.829C62.6543 107.96 57.6845 112.93 51.5535 112.93Z" fill="#A100FF"/>
<path d="M51.4465 109.372C49.4826 109.372 47.8906 110.965 47.8906 112.93C47.8906 114.895 49.4826 116.488 51.4465 116.488C53.4105 116.488 55.0024 114.896 55.0024 112.93C55.0024 110.965 53.4105 109.372 51.4465 109.372ZM51.4465 94.1781C53.4105 94.1781 55.0024 92.5854 55.0024 90.6199C55.0024 88.6552 53.4105 87.0617 51.4465 87.0617C49.4826 87.0617 47.8906 88.6544 47.8906 90.6199C47.8906 92.5854 49.4826 94.1781 51.4465 94.1781Z" fill="black"/>
<path d="M51.5 74C36.3124 74 24 86.3124 24 101.5C24 116.688 36.3124 129 51.5 129C66.6876 129 79 116.688 79 101.5C79 86.3124 66.6876 74 51.5 74ZM51.5 127.735C37.0106 127.735 25.265 115.989 25.265 101.5C25.265 87.0106 37.0106 75.265 51.5 75.265C65.9894 75.265 77.735 87.0106 77.735 101.5C77.735 115.989 65.9894 127.735 51.5 127.735Z" fill="#A100FF"/>
<path d="M52.1294 53.0625H35.5807V81.8C35.5807 81.8 50.2417 81.8 52.0192 81.8C53.7959 81.8 53.9077 79.9896 53.9077 79.9896C53.9077 79.9896 53.9077 57.0225 53.9077 54.9859C53.9077 52.9494 52.1294 53.0625 52.1294 53.0625ZM50.6857 78.9713C49.6117 78.9713 38.4682 78.9713 38.4682 78.9713C38.4682 78.9713 37.7647 78.9339 37.7647 78.0661C37.7647 77.1983 37.7647 73.3139 37.7647 73.3139C37.7647 73.3139 37.6904 72.3713 38.3572 72.3713H51.0187C51.0187 72.3713 51.7222 72.3339 51.7222 73.427C51.7222 74.5201 51.7222 78.2922 51.7222 78.2922C51.7222 78.2922 51.7597 78.9713 50.6857 78.9713ZM44.6879 69.4678C40.7617 69.4678 37.5794 66.2266 37.5794 62.2276C37.5794 58.2287 40.7624 54.9875 44.6879 54.9875C48.6142 54.9875 51.7964 58.2287 51.7964 62.2276C51.7964 66.2266 48.6142 69.4678 44.6879 69.4678Z" fill="#3A70D4"/>
<path d="M48.4642 74.3329C48.3975 73.6317 47.7975 73.7447 47.7975 73.7447H42.0225C42.0225 73.7447 41.0227 73.5637 41.0227 74.3329C41.0227 75.1022 41.6895 75.0342 41.6895 75.0342C41.6895 75.0342 47.4427 75.0342 47.5762 75.0342C47.709 75.0342 48.531 75.0342 48.4642 74.3329Z" fill="#9D00FF"/>
<path d="M49.4639 77.0478C49.3972 76.3466 48.7972 76.4596 48.7972 76.4596H47.0932C46.9889 76.4444 46.9087 76.4596 46.9087 76.4596H43.0214C43.0214 76.4596 42.7919 76.4184 42.5527 76.4596H41.1329C41.1329 76.4596 40.1332 76.2786 40.1332 77.0478C40.1332 77.8171 40.7999 77.7491 40.7999 77.7491C40.7999 77.7491 41.5964 77.7491 42.6029 77.7491C42.6547 77.7522 42.6884 77.7491 42.6884 77.7491C42.6884 77.7491 44.9647 77.7491 46.6867 77.7491C47.7022 77.7491 48.5257 77.7491 48.5752 77.7491C48.7087 77.7499 49.5307 77.7499 49.4639 77.0478Z" fill="#A100FF"/>
<path d="M44.688 56.4572C41.559 56.4572 39.0225 59.0407 39.0225 62.2276C39.0225 65.4145 41.559 67.998 44.688 67.998C47.817 67.998 50.3535 65.4145 50.3535 62.2276C50.3542 59.0407 47.817 56.4572 44.688 56.4572ZM48.048 65.1686C48.048 65.1686 48.0202 65.8698 47.3535 65.8698C46.6867 65.8698 46.6867 65.3718 46.6867 64.9417C46.6867 64.5116 46.6867 62.7921 46.6867 62.7921H42.8272V65.0555C42.8272 65.0555 42.8272 65.8698 42.1327 65.8698C41.4382 65.8698 41.4382 65.2366 41.4382 64.9417C41.4382 64.6468 41.4382 59.1713 41.4382 59.1713C41.4382 59.1713 41.466 58.4922 42.021 58.4922C42.576 58.4922 42.8265 58.8092 42.8265 59.5104C42.8265 60.2117 42.8265 61.5187 42.8265 61.5187H46.686V59.2843C46.686 59.2843 46.6582 58.4922 47.3527 58.4922C48.0472 58.4922 48.0472 59.1484 48.0472 59.3974C48.0472 59.6464 48.048 65.1686 48.048 65.1686Z" fill="#A100FF"/>
<path d="M30.6937 56.4574C30.6937 56.4574 30.6937 74.3713 30.6937 78.1801C30.6937 81.9888 34.359 81.8009 34.359 81.8009V53.0634C30.4342 53.0634 30.6937 56.4574 30.6937 56.4574ZM57.0165 63.3591C56.4615 63.1704 55.128 62.567 55.128 62.567V78.2932C55.128 78.2932 56.424 77.6141 57.5715 77.3879C58.719 77.1618 58.9042 75.3514 58.9042 75.3514C58.9042 75.3514 58.9042 67.9218 58.9042 65.7348C58.905 63.5478 57.5722 63.5478 57.0165 63.3591Z" fill="black"/>
<path d="M45 40C30.0885 40 18 52.3124 18 67.5C18 82.6876 30.0885 95 45 95C59.9115 95 72 82.6876 72 67.5C72 52.3124 59.9115 40 45 40ZM45 93.735C30.774 93.735 19.242 81.9894 19.242 67.5C19.242 53.0106 30.774 41.265 45 41.265C59.226 41.265 70.758 53.0106 70.758 67.5C70.758 81.9894 59.226 93.735 45 93.735Z" fill="#A100FF"/>
<path d="M57.5732 43.1705C52.1175 43.511 51.925 48.5015 51.925 48.5015V58.3692C51.925 63.5112 57.1119 64.04 57.1119 64.04C62.8364 64.04 63.0289 58.5957 63.0289 58.5957V48.6147C62.5676 43.397 57.5732 43.1705 57.5732 43.1705ZM61.492 58.3692C61.492 58.3692 61.3767 61.8005 57.8039 62.4522C57.8039 62.4522 57.2043 62.4297 57.228 61.8852C57.2509 61.3407 57.9193 61.4315 57.9193 61.4315C57.9193 61.4315 60.363 61.046 60.4554 58.0287V55.9872C60.4554 55.9872 60.4096 55.556 60.8014 55.5335C61.1933 55.511 61.3774 55.6242 61.4928 56.2137V58.3692H61.492ZM62.1833 53.8317H52.8471V48.3875C52.8471 48.3875 52.9624 44.4935 57.3426 44.0772C57.3426 44.0772 61.6455 43.9257 62.1833 48.614V53.8317Z" fill="#3A70D4"/>
<path d="M65.7569 36.365C60.7312 36.6373 60.4547 41.2423 60.4547 41.2423V42.6035L61.2614 43.0573V41.129C62.2529 36.8645 66.1021 37.2725 66.1021 37.2725C69.998 37.2043 70.5976 41.129 70.5976 41.129V46.9138H64.1428C64.3269 47.027 64.3735 47.9345 64.3735 47.9345V56.8948C64.6042 57.0988 66.2175 57.1213 66.2175 57.1213C70.92 56.7583 71.4043 52.244 71.4043 52.244V41.5828C70.8971 36.2293 65.7569 36.365 65.7569 36.365ZM68.1769 54.8525C68.1769 54.8525 66.1021 56.123 65.6408 55.193C65.6408 55.193 65.5254 54.5353 66.2167 54.5128C66.908 54.4903 68.2456 53.651 68.6375 52.358C68.6375 52.358 68.9369 51.3373 68.8682 49.5223C68.8682 49.5223 68.7987 48.6148 69.2142 48.6148C69.6298 48.6148 69.8597 48.6598 69.9055 49.6355C69.9521 50.6105 69.9751 53.537 68.1769 54.8525Z" fill="black"/>
<path d="M81.2018 49.1817C80.7175 43.6467 74.9776 42.9432 74.9776 42.9432H72.7876V48.728C72.7876 48.728 76.6605 48.7055 77.1677 48.728C77.6749 48.7505 78.0897 49.0227 78.0897 49.862C78.0897 50.7012 77.2831 50.7695 77.2831 50.7695H72.7876C72.88 54.308 71.2888 55.8732 71.2888 55.8732C72.3491 56.69 74.8623 56.5535 74.8623 56.5535C81.7549 55.715 81.2018 49.1817 81.2018 49.1817Z" fill="#A100FF"/>
<path d="M66.5 23C51.3124 23 39 35.0885 39 50C39 64.9115 51.3124 77 66.5 77C81.6876 77 94 64.9115 94 50C94 35.0885 81.6876 23 66.5 23ZM66.5 75.758C52.0106 75.758 40.265 64.226 40.265 50C40.265 35.774 52.0106 24.242 66.5 24.242C80.9894 24.242 92.735 35.774 92.735 50C92.735 64.226 80.9894 75.758 66.5 75.758Z" fill="#A100FF"/>
<path d="M94.4936 50.488L91.8964 48.037C93.6732 46.0218 94.7495 43.3893 94.7495 40.5078C94.7495 37.1545 93.2912 34.1373 90.9675 32.0387C91.2952 33.1833 91.4709 34.3908 91.4709 35.6388C91.4709 42.94 85.4667 48.8583 78.06 48.8583C76.9043 48.8583 75.7821 48.7143 74.7119 48.4428C76.7492 50.5413 79.5855 51.8785 82.7389 51.9775C82.7366 51.9813 82.7343 51.9843 82.7343 51.9843C82.7343 51.9843 82.871 51.9843 83.1139 51.9843H83.1147H83.1155C84.8464 51.9843 91.9452 51.9843 93.6075 51.9843C95.505 51.985 94.4936 50.488 94.4936 50.488Z" fill="black"/>
<path d="M89.6964 35.6477C89.6964 29.3095 84.486 24.1705 78.0586 24.1705C71.6312 24.1705 66.42 29.3087 66.42 35.6477C66.42 38.527 67.4955 41.1587 69.2708 43.1732L66.6736 45.6227C66.6736 45.6227 65.6614 47.1197 67.5589 47.1197C69.1287 47.1197 75.5492 47.1197 77.7194 47.1197C77.8317 47.1227 77.9448 47.125 78.0578 47.125C78.1709 47.125 78.2839 47.1227 78.3962 47.1197C78.4245 47.1197 78.4405 47.1197 78.4405 47.1197L78.4398 47.1182C84.6907 46.9195 89.6964 41.8607 89.6964 35.6477ZM78.0479 44.227C73.1239 44.227 69.1318 40.3075 69.1318 35.473C69.1318 30.6385 73.1239 26.719 78.0479 26.719C82.9719 26.719 86.964 30.6385 86.964 35.473C86.964 40.3075 82.9719 44.227 78.0479 44.227Z" fill="#3A70D4"/>
<path d="M79.8576 31.9884C79.8576 31.9884 74.4622 31.9884 73.2499 31.9884C72.0376 31.9884 71.8971 33.3325 71.8971 33.3325C71.8971 33.3325 71.8971 36.259 71.8971 37.8925C71.8971 39.526 73.3202 39.5942 73.3202 39.5942C73.3202 39.5942 77.4674 39.5942 79.2954 39.5942C81.1233 39.5942 81.1233 38.1647 81.1233 38.1647C81.1233 38.1647 81.1233 35.017 81.1233 33.6047C81.1233 32.1932 79.8576 31.9884 79.8576 31.9884Z" fill="#A100FF"/>
<path d="M83.5838 32.38L82.0201 33.0602V38.5052C82.0201 38.5052 82.8635 38.8967 83.5838 39.1855C84.3042 39.475 84.392 38.7775 84.392 38.7775C84.392 38.7775 84.392 33.8087 84.392 32.9245C84.392 32.0395 83.5838 32.38 83.5838 32.38Z" fill="#A100FF"/>
<path d="M79.5 10C64.3124 10 52 22.0885 52 37C52 51.9115 64.3124 64 79.5 64C94.6876 64 107 51.9115 107 37C107 22.0885 94.6876 10 79.5 10ZM79.5 62.758C65.0106 62.758 53.265 51.226 53.265 37C53.265 22.774 65.0106 11.242 79.5 11.242C93.9894 11.242 105.735 22.774 105.735 37C105.735 51.226 93.9894 62.758 79.5 62.758Z" fill="#A100FF"/>
<path d="M178 90C178 139.159 138.372 179 89.5 179C40.628 179 1 139.159 1 90C1 40.8414 40.628 1 89.5 1C138.372 1 178 40.8414 178 90Z" fill="white" stroke="url(#paint0_linear)" stroke-width="2"/>
<path d="M135.94 81.0502C131.498 81.0502 127.896 84.6177 127.896 89.0209C127.896 93.424 131.496 96.9915 135.94 96.9915C140.384 96.9915 143.984 93.424 143.984 89.0209C143.982 84.62 140.382 81.0502 135.94 81.0502ZM110.204 96.9915C114.643 96.9915 118.243 93.424 118.243 89.0209C118.243 84.6177 114.643 81.0502 110.204 81.0502C105.764 81.0502 102.164 84.6177 102.164 89.0209C102.164 93.424 105.764 96.9915 110.204 96.9915ZM84.47 96.9915C88.9119 96.9915 92.514 93.424 92.514 89.0209C92.514 84.6177 88.9142 81.0502 84.47 81.0502C80.0281 81.0502 76.4283 84.6177 76.4283 89.0209C76.426 93.424 80.0281 96.9915 84.47 96.9915ZM111.009 108.15C107.899 108.15 105.377 110.648 105.377 113.732C105.377 116.814 107.899 119.314 111.009 119.314C114.119 119.314 116.641 116.816 116.641 113.732C116.641 110.648 114.119 108.15 111.009 108.15ZM90.9029 113.73C90.9029 110.648 88.3833 108.148 85.2755 108.148C82.1678 108.148 79.6482 110.646 79.6482 113.73C79.6482 116.811 82.1678 119.312 85.2755 119.312C88.3833 119.312 90.9029 116.814 90.9029 113.73ZM65.9769 113.73C65.9769 110.648 63.455 108.148 60.3449 108.148C57.2349 108.148 54.713 110.646 54.713 113.73C54.713 116.811 57.2349 119.312 60.3449 119.312C63.455 119.312 65.9769 116.814 65.9769 113.73ZM110.204 69.8868C113.314 69.8868 115.836 67.3889 115.836 64.3097C115.836 61.2304 113.314 58.7325 110.204 58.7325C107.094 58.7325 104.572 61.2304 104.572 64.3097C104.572 67.3889 107.094 69.8868 110.204 69.8868ZM84.47 69.8868C87.5778 69.8868 90.0974 67.3889 90.0974 64.3097C90.0974 61.2304 87.5778 58.7325 84.47 58.7325C81.3623 58.7325 78.8427 61.2304 78.8427 64.3097C78.8427 67.3889 81.3623 69.8868 84.47 69.8868ZM59.5394 69.8868C62.6494 69.8868 65.1713 67.3889 65.1713 64.3097C65.1713 61.2304 62.6494 58.7325 59.5394 58.7325C56.4294 58.7325 53.9075 61.2304 53.9075 64.3097C53.9075 67.3889 56.4294 69.8868 59.5394 69.8868ZM36.6181 135.253C35.0642 135.253 33.8033 136.502 33.8033 138.044C33.8033 139.583 35.0642 140.832 36.6181 140.832C38.1719 140.832 39.4329 139.583 39.4329 138.044C39.4329 136.502 38.1719 135.253 36.6181 135.253ZM62.3542 135.253C60.7981 135.253 59.5371 136.502 59.5371 138.044C59.5371 139.583 60.7981 140.832 62.3542 140.832C63.9104 140.832 65.1713 139.583 65.1713 138.044C65.1713 136.502 63.9104 135.253 62.3542 135.253ZM87.2848 135.253C85.731 135.253 84.47 136.502 84.47 138.044C84.47 139.583 85.731 140.832 87.2848 140.832C88.8387 140.832 90.0996 139.583 90.0996 138.044C90.0974 136.502 88.8387 135.253 87.2848 135.253ZM101.357 118.512C98.6906 118.512 96.5302 120.654 96.5302 123.295C96.5302 125.936 98.6906 128.077 101.357 128.077C104.023 128.077 106.183 125.936 106.183 123.295C106.183 120.654 104.023 118.512 101.357 118.512ZM75.6251 118.512C72.959 118.512 70.7987 120.654 70.7987 123.295C70.7987 125.936 72.959 128.077 75.6251 128.077C78.2911 128.077 80.4515 125.936 80.4515 123.295C80.4515 120.654 78.2911 118.512 75.6251 118.512ZM50.6922 118.512C48.0261 118.512 45.8658 120.654 45.8658 123.295C45.8658 125.936 48.0261 128.077 50.6922 128.077C53.3582 128.077 55.5186 125.936 55.5186 123.295C55.5186 120.654 53.3582 118.512 50.6922 118.512ZM101.357 60.3221C104.023 60.3221 106.183 58.1807 106.183 55.5397C106.183 52.8987 104.023 50.7573 101.357 50.7573C98.6906 50.7573 96.5302 52.8987 96.5302 55.5397C96.5302 58.1807 98.6906 60.3221 101.357 60.3221ZM75.6251 60.3221C78.2911 60.3221 80.4515 58.1807 80.4515 55.5397C80.4515 52.8987 78.2911 50.7573 75.6251 50.7573C72.959 50.7573 70.7987 52.8987 70.7987 55.5397C70.7987 58.1807 72.959 60.3221 75.6251 60.3221ZM50.6922 60.3221C53.3582 60.3221 55.5186 58.1807 55.5186 55.5397C55.5186 52.8987 53.3582 50.7573 50.6922 50.7573C48.0261 50.7573 45.8658 52.8987 45.8658 55.5397C45.8658 58.1807 48.0261 60.3221 50.6922 60.3221ZM43.8565 127.278C41.8587 127.278 40.2384 128.883 40.2384 130.866C40.2384 132.848 41.8587 134.453 43.8565 134.453C45.8543 134.453 47.4746 132.848 47.4746 130.866C47.4746 128.883 45.8543 127.278 43.8565 127.278ZM68.7894 127.278C66.7916 127.278 65.1713 128.883 65.1713 130.866C65.1713 132.848 66.7916 134.453 68.7894 134.453C70.7872 134.453 72.4075 132.848 72.4075 130.866C72.4075 128.883 70.7895 127.278 68.7894 127.278ZM94.521 127.278C92.5231 127.278 90.9029 128.883 90.9029 130.866C90.9029 132.848 92.5231 134.453 94.521 134.453C96.5188 134.453 98.139 132.848 98.139 130.866C98.139 128.883 96.5211 127.278 94.521 127.278ZM35.8148 44.3808C37.3687 44.3808 38.6296 43.1319 38.6296 41.5922C38.6296 40.0526 37.3687 38.8036 35.8148 38.8036C34.2609 38.8036 33 40.0526 33 41.5922C33 43.1319 34.2609 44.3808 35.8148 44.3808ZM61.5533 44.3808C63.1071 44.3808 64.3681 43.1319 64.3681 41.5922C64.3681 40.0526 63.1071 38.8036 61.5533 38.8036C59.9994 38.8036 58.7384 40.0526 58.7384 41.5922C58.7384 43.1319 59.9994 44.3808 61.5533 44.3808ZM86.4793 44.3808C88.0332 44.3808 89.2941 43.1319 89.2941 41.5922C89.2941 40.0526 88.0332 38.8036 86.4793 38.8036C84.9254 38.8036 83.6645 40.0526 83.6645 41.5922C83.6645 43.1319 84.9254 44.3808 86.4793 44.3808ZM43.051 51.5567C45.0488 51.5567 46.669 49.9512 46.669 47.9687C46.669 45.9863 45.0488 44.3808 43.051 44.3808C41.0531 44.3808 39.4329 45.9863 39.4329 47.9687C39.4329 49.9489 41.0531 51.5567 43.051 51.5567ZM67.9861 51.5567C69.984 51.5567 71.6042 49.9512 71.6042 47.9687C71.6042 45.9863 69.984 44.3808 67.9861 44.3808C65.9883 44.3808 64.3681 45.9863 64.3681 47.9687C64.3658 49.9489 65.986 51.5567 67.9861 51.5567ZM93.7177 51.5567C95.7156 51.5567 97.3358 49.9512 97.3358 47.9687C97.3358 45.9863 95.7156 44.3808 93.7177 44.3808C91.7199 44.3808 90.0996 45.9863 90.0996 47.9687C90.0974 49.9489 91.7176 51.5567 93.7177 51.5567ZM121.866 96.1922C118.09 96.1922 115.03 99.226 115.03 102.968C115.03 106.711 118.09 109.744 121.866 109.744C125.642 109.744 128.702 106.711 128.702 102.968C128.702 99.2283 125.642 96.1922 121.866 96.1922ZM96.933 109.747C100.709 109.747 103.769 106.713 103.769 102.971C103.769 99.2283 100.709 96.1944 96.933 96.1944C93.157 96.1944 90.0974 99.2283 90.0974 102.971C90.0974 106.713 93.1593 109.747 96.933 109.747ZM71.2014 109.747C74.9774 109.747 78.0371 106.713 78.0371 102.971C78.0371 99.2283 74.9774 96.1944 71.2014 96.1944C67.4255 96.1944 64.3658 99.2283 64.3658 102.971C64.3658 106.713 67.4278 109.747 71.2014 109.747ZM121.866 81.8496C125.642 81.8496 128.702 78.8157 128.702 75.0734C128.702 71.3311 125.642 68.2972 121.866 68.2972C118.09 68.2972 115.03 71.3311 115.03 75.0734C115.03 78.8157 118.092 81.8496 121.866 81.8496ZM96.933 81.8496C100.709 81.8496 103.769 78.8157 103.769 75.0734C103.769 71.3311 100.709 68.2972 96.933 68.2972C93.157 68.2972 90.0974 71.3311 90.0974 75.0734C90.0974 78.8157 93.1593 81.8496 96.933 81.8496ZM71.2014 81.8496C74.9774 81.8496 78.0371 78.8157 78.0371 75.0734C78.0371 71.3311 74.9774 68.2972 71.2014 68.2972C67.4255 68.2972 64.3658 71.3311 64.3658 75.0734C64.3658 78.8157 67.4278 81.8496 71.2014 81.8496Z" fill="url(#paint1_linear)"/>
<defs>
<linearGradient id="paint0_linear" x1="2.58683e-07" y1="106.293" x2="179.117" y2="61.7627" gradientUnits="userSpaceOnUse">
<stop stop-color="#3A70D4"/>
<stop offset="1" stop-color="#A100FD"/>
</linearGradient>
<linearGradient id="paint1_linear" x1="18.4007" y1="106.079" x2="136.63" y2="60.827" gradientUnits="userSpaceOnUse">
<stop stop-color="#2989CC"/>
<stop offset="0.7168" stop-color="#990AFB"/>
<stop offset="0.7443" stop-color="#9D05FD"/>
<stop offset="1" stop-color="#F29EFF"/>
</linearGradient>
</defs>
</svg>
