<svg width="24" height="22" viewBox="0 0 24 22" fill="none" xmlns="http://www.w3.org/2000/svg">
<path d="M21.2869 0H2.71446C1.2174 0 0 1.19007 0 2.65573V19.3472C0 20.8112 1.2174 22 2.71446 22H21.2868C22.7839 22 24 20.8112 24 19.3472V2.65573C24.0001 1.19007 22.784 0 21.2869 0ZM15.5197 3.94958C16.9674 3.94958 18.1415 5.09778 18.1415 6.5134C18.1415 7.92902 16.9673 9.07722 15.5197 9.07722C14.0715 9.07722 12.8978 7.92902 12.8978 6.5134C12.8978 5.09778 14.0715 3.94958 15.5197 3.94958ZM20.4356 19.5463H11.9998H3.93981C3.2157 19.5463 2.89322 19.034 3.21964 18.402L7.71918 9.68702C8.04521 9.05506 8.66656 8.99865 9.10658 9.56093L13.631 15.3428C14.0711 15.9052 14.8402 15.953 15.3492 15.4492L16.456 14.3532C16.9647 13.8494 17.7141 13.9117 18.1292 14.4916L20.9953 18.4951C21.4097 19.0758 21.1597 19.5463 20.4356 19.5463Z" fill="#A100FD"/>
</svg>
