<svg width="30" height="30" viewBox="0 0 30 30" fill="none" xmlns="http://www.w3.org/2000/svg">
<rect width="30" height="30" fill="white"/>
<path fill-rule="evenodd" clip-rule="evenodd" d="M9.28589 5.7143C9.28589 5.3198 9.60568 5 10.0002 5C10.3946 5 10.7144 5.3198 10.7144 5.7143V7.14286H9.28589V5.7143ZM19.2855 5.7143C19.2855 5.3198 19.6053 5 19.9998 5C20.3943 5 20.7141 5.3198 20.714 5.7143V7.14286H19.2855V5.7143ZM22.8571 7.14294H20.7143V10.0001C20.7143 10.3946 20.3945 10.7144 20 10.7144C19.6055 10.7144 19.2857 10.3946 19.2857 10.0001V7.14294H10.7143V10.0001C10.7143 10.3946 10.3945 10.7144 9.99997 10.7144C9.60547 10.7144 9.28567 10.3946 9.28567 10.0001V7.14294H7.14286C5.95939 7.14294 5 8.10233 5 9.2858V22.8572C5 24.0407 5.95939 25.0001 7.14286 25.0001H22.8571C24.0406 25.0001 25 24.0407 25 22.8572V9.2858C25 8.10233 24.0406 7.14294 22.8571 7.14294ZM23.5714 22.8572C23.5714 23.2517 23.2516 23.5715 22.8571 23.5715H7.14286C6.74835 23.5715 6.42856 23.2517 6.42856 22.8572V13.5715H23.5714V22.8572ZM9.28567 20.7145H10.7142C11.1087 20.7145 11.4285 21.0343 11.4285 21.4288C11.4285 21.8233 11.1087 22.1431 10.7142 22.1431H9.28567C8.89117 22.1431 8.57137 21.8233 8.57137 21.4288C8.57137 21.0343 8.89117 20.7145 9.28567 20.7145ZM15.7142 20.7145H14.2857C13.8912 20.7145 13.5714 21.0343 13.5714 21.4288C13.5714 21.8233 13.8912 22.1431 14.2857 22.1431H15.7142C16.1087 22.1431 16.4285 21.8233 16.4285 21.4288C16.4285 21.0343 16.1087 20.7145 15.7142 20.7145ZM19.2857 20.7145H20.7142C21.1087 20.7145 21.4285 21.0343 21.4285 21.4288C21.4285 21.8233 21.1087 22.1431 20.7142 22.1431H19.2857C18.8912 22.1431 18.5714 21.8233 18.5714 21.4288C18.5714 21.0343 18.8912 20.7145 19.2857 20.7145ZM10.7142 15H9.28567C8.89117 15 8.57137 15.3198 8.57137 15.7143C8.57137 16.1088 8.89117 16.4286 9.28567 16.4286H10.7142C11.1087 16.4286 11.4285 16.1088 11.4285 15.7143C11.4285 15.3198 11.1087 15 10.7142 15ZM14.2857 15H15.7142C16.1087 15 16.4285 15.3198 16.4285 15.7143C16.4285 16.1088 16.1087 16.4286 15.7142 16.4286H14.2857C13.8912 16.4286 13.5714 16.1088 13.5714 15.7143C13.5714 15.3198 13.8912 15 14.2857 15ZM20.7142 15H19.2857C18.8912 15 18.5714 15.3198 18.5714 15.7143C18.5714 16.1088 18.8912 16.4286 19.2857 16.4286H20.7142C21.1087 16.4286 21.4285 16.1088 21.4285 15.7143C21.4285 15.3198 21.1087 15 20.7142 15ZM9.28567 17.8573H10.7142C11.1087 17.8573 11.4285 18.1771 11.4285 18.5716C11.4285 18.9661 11.1087 19.2859 10.7142 19.2859H9.28567C8.89117 19.2859 8.57137 18.9661 8.57137 18.5716C8.57137 18.1771 8.89117 17.8573 9.28567 17.8573ZM15.7142 17.8573H14.2857C13.8912 17.8573 13.5714 18.1771 13.5714 18.5716C13.5714 18.9661 13.8912 19.2859 14.2857 19.2859H15.7142C16.1087 19.2859 16.4285 18.9661 16.4285 18.5716C16.4285 18.1771 16.1087 17.8573 15.7142 17.8573ZM19.2857 17.8573H20.7142C21.1087 17.8573 21.4285 18.1771 21.4285 18.5716C21.4285 18.9661 21.1087 19.2859 20.7142 19.2859H19.2857C18.8912 19.2859 18.5714 18.9661 18.5714 18.5716C18.5714 18.1771 18.8912 17.8573 19.2857 17.8573Z" fill="#A100FD"/>
</svg>
