<svg width="16" height="13" viewBox="0 0 16 13" fill="none" xmlns="http://www.w3.org/2000/svg">
<path fill-rule="evenodd" clip-rule="evenodd" d="M0.999977 11.4863L1.51367 12L6.53605 6.97762L6.58531 7.02687L7.099 6.51318L1.9621 1.37628L1.44841 1.88997L6.02236 6.46392L0.999977 11.4863Z" fill="#A100FD"/>
<path d="M1.51367 12L1.16011 12.3536L1.51367 12.7071L1.86722 12.3536L1.51367 12ZM0.999977 11.4863L0.646424 11.1328L0.292871 11.4863L0.646424 11.8399L0.999977 11.4863ZM6.53605 6.97762L6.88961 6.62406L6.53605 6.27051L6.1825 6.62406L6.53605 6.97762ZM6.58531 7.02687L6.23176 7.38043L6.58531 7.73398L6.93886 7.38042L6.58531 7.02687ZM7.099 6.51318L7.45255 6.86673L7.80611 6.51318L7.45255 6.15963L7.099 6.51318ZM1.9621 1.37628L2.31565 1.02272L1.9621 0.669171L1.60854 1.02272L1.9621 1.37628ZM1.44841 1.88997L1.09485 1.53641L0.741298 1.88997L1.09485 2.24352L1.44841 1.88997ZM6.02236 6.46392L6.37592 6.81748L6.72947 6.46392L6.37592 6.11037L6.02236 6.46392ZM1.86722 11.6464L1.35353 11.1328L0.646424 11.8399L1.16011 12.3536L1.86722 11.6464ZM6.1825 6.62406L1.16011 11.6464L1.86722 12.3536L6.88961 7.33117L6.1825 6.62406ZM6.93886 6.67332L6.88961 6.62406L6.1825 7.33117L6.23176 7.38043L6.93886 6.67332ZM6.74545 6.15963L6.23176 6.67332L6.93886 7.38042L7.45255 6.86673L6.74545 6.15963ZM1.60854 1.72983L6.74545 6.86673L7.45255 6.15963L2.31565 1.02272L1.60854 1.72983ZM1.80196 2.24352L2.31565 1.72983L1.60854 1.02272L1.09485 1.53641L1.80196 2.24352ZM6.37592 6.11037L1.80196 1.53641L1.09485 2.24352L5.66881 6.81748L6.37592 6.11037ZM1.35353 11.8399L6.37592 6.81748L5.66881 6.11037L0.646424 11.1328L1.35353 11.8399Z" fill="#A100FD"/>
<path fill-rule="evenodd" clip-rule="evenodd" d="M8.53819 11.4863L9.05188 12L14.0743 6.97762L14.1235 7.02687L14.6372 6.51318L9.5003 1.37628L8.98661 1.88997L13.5606 6.46392L8.53819 11.4863Z" fill="#A100FD"/>
<path d="M9.05188 12L8.69832 12.3536L9.05188 12.7071L9.40543 12.3536L9.05188 12ZM8.53819 11.4863L8.18463 11.1328L7.83108 11.4863L8.18463 11.8399L8.53819 11.4863ZM14.0743 6.97762L14.4278 6.62406L14.0743 6.27051L13.7207 6.62406L14.0743 6.97762ZM14.1235 7.02687L13.77 7.38043L14.1235 7.73398L14.4771 7.38042L14.1235 7.02687ZM14.6372 6.51318L14.9908 6.86673L15.3443 6.51318L14.9908 6.15963L14.6372 6.51318ZM9.5003 1.37628L9.85386 1.02272L9.5003 0.669171L9.14675 1.02272L9.5003 1.37628ZM8.98661 1.88997L8.63306 1.53641L8.27951 1.88997L8.63306 2.24352L8.98661 1.88997ZM13.5606 6.46392L13.9141 6.81748L14.2677 6.46392L13.9141 6.11037L13.5606 6.46392ZM9.40543 11.6464L8.89174 11.1328L8.18463 11.8399L8.69832 12.3536L9.40543 11.6464ZM13.7207 6.62406L8.69832 11.6464L9.40543 12.3536L14.4278 7.33117L13.7207 6.62406ZM14.4771 6.67332L14.4278 6.62406L13.7207 7.33117L13.77 7.38043L14.4771 6.67332ZM14.2837 6.15963L13.77 6.67332L14.4771 7.38042L14.9908 6.86673L14.2837 6.15963ZM9.14675 1.72983L14.2837 6.86673L14.9908 6.15963L9.85386 1.02272L9.14675 1.72983ZM9.34017 2.24352L9.85386 1.72983L9.14675 1.02272L8.63306 1.53641L9.34017 2.24352ZM13.9141 6.11037L9.34017 1.53641L8.63306 2.24352L13.207 6.81748L13.9141 6.11037ZM8.89174 11.8399L13.9141 6.81748L13.207 6.11037L8.18463 11.1328L8.89174 11.8399Z" fill="#A100FD"/>
</svg>
