<svg width="48" height="48" viewBox="0 0 48 48" fill="none" xmlns="http://www.w3.org/2000/svg">
<circle cx="24" cy="24" r="24" fill="#C4C4C4"/>
<path fill-rule="evenodd" clip-rule="evenodd" d="M27.4475 21.8673C26.3238 22.9912 24.9485 23.5609 23.3602 23.5609C21.7723 23.5609 20.3972 22.991 19.2733 21.8675C18.1494 20.7438 17.5796 19.3687 17.5796 17.7803C17.5796 16.1922 18.1494 14.8171 19.2731 13.6934C20.3969 12.5696 21.7718 12 23.3602 12C24.9483 12 26.3234 12.5696 27.4473 13.6932C28.5712 14.8172 29.1409 16.1924 29.1409 17.7803C29.1409 19.3687 28.5712 20.7436 27.4475 21.8673ZM33.2803 28.9382C33.3768 29.4768 33.4424 29.987 33.4748 30.4546C33.5068 30.9117 33.5231 31.3886 33.5233 31.8722C33.5233 33.1256 33.1251 34.14 32.3395 34.8874C31.5637 35.6257 30.5378 36 29.2897 36H17.7336C16.4855 36 15.4592 35.6255 14.6836 34.8874C13.8983 34.1394 13.5 33.1252 13.5 31.8724C13.5 31.391 13.5161 30.9144 13.548 30.4552C13.5804 29.9864 13.6459 29.4761 13.7424 28.9382C13.8398 28.3954 13.9653 27.8826 14.1152 27.4136C14.2705 26.9286 14.4814 26.4501 14.742 25.9914C15.0123 25.5156 15.3303 25.1012 15.6868 24.7599C16.0602 24.4026 16.517 24.1157 17.0447 23.9068C17.5708 23.6984 18.1538 23.5928 18.7778 23.5928C19.0228 23.5928 19.2599 23.6933 19.717 23.9912C20.0028 24.1774 20.3324 24.3898 20.6966 24.6226C21.0106 24.8229 21.4365 25.0106 21.962 25.1803C22.4758 25.3464 22.9968 25.4306 23.5111 25.4306C24.0255 25.4306 24.5466 25.3464 25.0598 25.1803C25.5859 25.0104 26.0118 24.8227 26.3262 24.6224C26.6938 24.3874 27.0233 24.175 27.3049 23.9914C27.7625 23.6935 27.9994 23.593 28.2444 23.593C28.8682 23.593 29.4514 23.6984 29.9777 23.9066C30.5057 24.1159 30.9624 24.4028 31.3354 24.7597C31.6921 25.1008 32.0099 25.5154 32.2806 25.9914C32.5413 26.4501 32.7523 26.9288 32.9073 27.4134C33.0575 27.8824 33.1829 28.3954 33.2803 28.9382Z" fill="#3A70D4"/>
</svg>
