<svg width="22" height="22" viewBox="0 0 22 22" fill="none" xmlns="http://www.w3.org/2000/svg">
<path fill-rule="evenodd" clip-rule="evenodd" d="M22 11C22 17.0751 17.0751 22 11 22C4.92487 22 0 17.0751 0 11C0 4.92487 4.92487 0 11 0C17.0751 0 22 4.92487 22 11ZM8.00006 7C7.44777 7 7.00006 7.44772 7.00006 8C7.00006 8.55228 7.44777 9 8.00006 9H8.01006C8.56234 9 9.01006 8.55228 9.01006 8C9.01006 7.44772 8.56234 7 8.01006 7H8.00006ZM6.40006 12.2C6.84049 11.8697 7.46474 11.9576 7.79692 12.3958L7.80156 12.4018C7.80751 12.4093 7.81883 12.4234 7.83537 12.4431C7.86852 12.4826 7.92225 12.5442 7.99548 12.6206C8.14278 12.7743 8.36413 12.9828 8.65073 13.1913C9.22779 13.6109 10.0256 14 11.0001 14C11.9745 14 12.7723 13.6109 13.3494 13.1913C13.636 12.9828 13.8573 12.7743 14.0046 12.6206C14.0779 12.5442 14.1316 12.4826 14.1647 12.4431C14.1813 12.4234 14.1926 12.4093 14.1986 12.4018L14.2032 12.3958C14.5354 11.9576 15.1596 11.8697 15.6001 12.2C16.0419 12.5314 16.1314 13.1582 15.8001 13.6L15.0001 13C15.8001 13.6 15.7998 13.6003 15.7996 13.6006L15.799 13.6013L15.7979 13.6029L15.7952 13.6065L15.7879 13.6159L15.7666 13.6432C15.7494 13.6649 15.7261 13.6938 15.6967 13.7288C15.6381 13.7987 15.5551 13.8933 15.4486 14.0044C15.2365 14.2257 14.9266 14.5172 14.5257 14.8087C13.7278 15.3891 12.5256 16 11.0001 16C9.47453 16 8.27233 15.3891 7.47439 14.8087C7.07349 14.5172 6.76358 14.2257 6.55151 14.0044C6.44506 13.8933 6.36207 13.7987 6.30342 13.7288C6.27407 13.6938 6.25071 13.6649 6.23347 13.6432L6.21217 13.6159L6.20496 13.6065L6.20222 13.6029L6.20107 13.6013L6.20055 13.6006C6.2003 13.6003 6.20006 13.6 7.00006 13L6.20006 13.6C5.86869 13.1582 5.95823 12.5314 6.40006 12.2ZM13.0001 8C13.0001 7.44772 13.4478 7 14.0001 7H14.0101C14.5623 7 15.0101 7.44772 15.0101 8C15.0101 8.55228 14.5623 9 14.0101 9H14.0001C13.4478 9 13.0001 8.55228 13.0001 8Z" fill="#A100FD"/>
</svg>
