<svg width="22" height="18" viewBox="0 0 22 18" fill="none" xmlns="http://www.w3.org/2000/svg">
<path fill-rule="evenodd" clip-rule="evenodd" d="M6.24 0H6.23947C5.68134 0.000296295 5.13437 0.156283 4.66004 0.450419C4.18617 0.744269 3.80358 1.16436 3.5552 1.66354L3.55447 1.665L0.114829 8.5343C0.0415047 8.67338 0 8.83184 0 9V15C0 15.7956 0.31607 16.5587 0.87868 17.1213C1.44129 17.6839 2.20435 18 3 18H19C19.7957 18 20.5587 17.6839 21.1213 17.1213C21.6839 16.5587 22 15.7957 22 15V9C22 8.98726 21.9998 8.97453 21.9993 8.96183C21.9935 8.80786 21.9529 8.6628 21.8852 8.53428L18.4455 1.665L18.4449 1.66368C18.1965 1.16444 17.8139 0.744298 17.34 0.450419C16.8656 0.156282 16.3187 0.000296295 15.7605 0H15.76H6.24ZM19.3809 8L16.6558 2.55773L16.6545 2.555C16.5717 2.38839 16.4441 2.24818 16.2859 2.15014C16.1279 2.05213 15.9456 2.00013 15.7597 2H6.24034C6.05436 2.00013 5.87211 2.05213 5.71405 2.15014C5.55594 2.24819 5.42832 2.38839 5.34553 2.555L4.45 2.11L5.34417 2.55773L2.61908 8H7C7.33435 8 7.64658 8.1671 7.83205 8.4453L9.53518 11H12.4648L14.1679 8.4453C14.3534 8.1671 14.6656 8 15 8H19.3809ZM2 10V15C2 15.2652 2.10536 15.5196 2.29289 15.7071C2.48043 15.8946 2.73478 16 3 16H19C19.2652 16 19.5196 15.8946 19.7071 15.7071C19.8946 15.5196 20 15.2652 20 15V10H15.5352L13.8321 12.5547C13.6466 12.8329 13.3344 13 13 13H9C8.66565 13 8.35342 12.8329 8.16795 12.5547L6.46482 10H2Z" fill="#A100FD"/>
</svg>
