<svg width="14" height="14" viewBox="0 0 14 14" fill="none" xmlns="http://www.w3.org/2000/svg">
<g clip-path="url(#clip0)">
<path d="M9.33325 12.25V11.0833C9.33325 10.4645 9.08742 9.871 8.64984 9.43342C8.21225 8.99583 7.61876 8.75 6.99992 8.75H2.91659C2.29775 8.75 1.70425 8.99583 1.26667 9.43342C0.829085 9.871 0.583252 10.4645 0.583252 11.0833V12.25" stroke="white" stroke-width="1.5" stroke-linecap="round" stroke-linejoin="round"/>
<path d="M4.95833 6.41667C6.247 6.41667 7.29167 5.372 7.29167 4.08333C7.29167 2.79467 6.247 1.75 4.95833 1.75C3.66967 1.75 2.625 2.79467 2.625 4.08333C2.625 5.372 3.66967 6.41667 4.95833 6.41667Z" stroke="white" stroke-width="1.5" stroke-linecap="round" stroke-linejoin="round"/>
<path d="M11.6667 4.6665V8.1665" stroke="white" stroke-width="1.5" stroke-linecap="round" stroke-linejoin="round"/>
<path d="M13.4167 6.4165H9.91675" stroke="white" stroke-width="1.5" stroke-linecap="round" stroke-linejoin="round"/>
</g>
<defs>
<clipPath id="clip0">
<rect width="14" height="14" fill="white"/>
</clipPath>
</defs>
</svg>
