<svg width="19" height="23" viewBox="0 0 19 23" fill="none" xmlns="http://www.w3.org/2000/svg">
<path fill-rule="evenodd" clip-rule="evenodd" d="M13.0625 7.09766C12.4929 7.09766 12.0312 6.63596 12.0312 6.06641V0.566406H2.32031C1.04092 0.566406 0 1.60728 0 2.88672V20.2461C0 21.5255 1.04092 22.5664 2.32031 22.5664H16.2422C17.5216 22.5664 18.5625 21.5255 18.5625 20.2461V7.09766H13.0625ZM12.5091 13.8421L8.62237 17.3809L8.61443 17.388L8.59921 17.4013C8.32679 17.6349 7.99262 17.7555 7.65278 17.7555C7.44575 17.7555 7.23663 17.7108 7.03798 17.6195C6.51337 17.3781 6.1875 16.8696 6.1875 16.2921V8.9032C6.1875 8.32579 6.51337 7.81717 7.03798 7.5759C7.56271 7.33463 8.16088 7.41825 8.59921 7.79401C8.60707 7.80071 8.61472 7.8075 8.62237 7.81446L12.5091 11.3533C12.8608 11.6705 13.0625 12.1238 13.0625 12.5977C13.0625 13.0715 12.8608 13.5248 12.5091 13.8421ZM8.25 14.9307L10.8123 12.5977L8.25 10.2648V14.9307ZM14.0937 4.82032V0.781684C14.0937 0.590259 14.3251 0.494438 14.4605 0.629747L18.4991 4.66838C18.6344 4.80373 18.5386 5.03516 18.3472 5.03516H14.3086C14.1899 5.03516 14.0937 4.93895 14.0937 4.82032Z" fill="#A100FD"/>
</svg>
