<svg width="38" height="58" viewBox="0 0 38 58" fill="none" xmlns="http://www.w3.org/2000/svg">
<rect width="38" height="58" fill="white"/>
<path fill-rule="evenodd" clip-rule="evenodd" d="M6.5 23.875C6.5 23.1232 7.11829 22.5 7.89815 22.5H19.713C20.4928 22.5 21.1111 23.1232 21.1111 23.875V34.5C21.1111 35.2517 20.4928 35.875 19.713 35.875H7.89815C7.11829 35.875 6.5 35.2517 6.5 34.5V23.875ZM7.89815 21C6.30523 21 5 22.2795 5 23.875V34.5C5 36.0955 6.30523 37.375 7.89815 37.375H19.713C21.3059 37.375 22.6111 36.0955 22.6111 34.5V23.875C22.6111 22.2795 21.3059 21 19.713 21H7.89815ZM33.3519 23.875C33.3519 23.6198 33.2221 23.3821 33.0074 23.2441C32.7927 23.1061 32.5225 23.0867 32.2904 23.1927L25.3089 26.3802C25.0418 26.5022 24.8704 26.7688 24.8704 27.0625V31.3125C24.8704 31.6062 25.0418 31.8728 25.3089 31.9948L32.2904 35.1823C32.5225 35.2883 32.7927 35.2689 33.0074 35.1309C33.2221 34.9929 33.3519 34.7552 33.3519 34.5V23.875ZM26.3704 30.8305V27.5445L31.8519 25.0419V33.3331L26.3704 30.8305ZM11.6574 27.375C12.0716 27.375 12.4074 27.7108 12.4074 28.125V29.7188C12.4074 30.133 12.0716 30.4688 11.6574 30.4688C11.2432 30.4688 10.9074 30.133 10.9074 29.7188V28.125C10.9074 27.7108 11.2432 27.375 11.6574 27.375ZM17.2408 28.125C17.2408 27.7108 16.905 27.375 16.4908 27.375C16.0765 27.375 15.7408 27.7108 15.7408 28.125V29.7188C15.7408 30.133 16.0765 30.4688 16.4908 30.4688C16.905 30.4688 17.2408 30.133 17.2408 29.7188V28.125Z" fill="#A100FD"/>
</svg>
