<svg width="30" height="30" viewBox="0 0 30 30" fill="none" xmlns="http://www.w3.org/2000/svg">
<rect width="30" height="30" fill="white"/>
<path fill-rule="evenodd" clip-rule="evenodd" d="M9.28589 5.7143C9.28589 5.3198 9.60568 5 10.0002 5C10.3946 5 10.7144 5.3198 10.7144 5.7143V7.14286H9.28589V5.7143ZM19.2855 5.7143C19.2855 5.3198 19.6053 5 19.9998 5C20.3943 5 20.7141 5.3198 20.714 5.7143V7.14286H19.2855V5.7143ZM22.8571 7.14294H20.7143V10.0001C20.7143 10.3946 20.3945 10.7144 20 10.7144C19.6055 10.7144 19.2857 10.3946 19.2857 10.0001V7.14294H10.7143V10.0001C10.7143 10.3946 10.3945 10.7144 9.99997 10.7144C9.60547 10.7144 9.28567 10.3946 9.28567 10.0001V7.14294H7.14286C5.95939 7.14294 5 8.10233 5 9.2858V22.8572C5 24.0407 5.95939 25.0001 7.14286 25.0001H22.8571C24.0406 25.0001 25 24.0407 25 22.8572V9.2858C25 8.10233 24.0406 7.14294 22.8571 7.14294ZM23.5714 22.8572C23.5714 23.2517 23.2516 23.5715 22.8571 23.5715H7.14286C6.74835 23.5715 6.42856 23.2517 6.42856 22.8572V13.5715H23.5714V22.8572ZM9.33333 15C8.78105 15 8.33333 15.4477 8.33333 16V20.6667C8.33333 21.219 8.78105 21.6667 9.33333 21.6667H10.6667C11.219 21.6667 11.6667 21.219 11.6667 20.6667V16C11.6667 15.4477 11.219 15 10.6667 15H9.33333ZM13.3333 16C13.3333 15.4477 13.781 15 14.3333 15H15.6667C16.219 15 16.6667 15.4477 16.6667 16V20.6667C16.6667 21.219 16.219 21.6667 15.6667 21.6667H14.3333C13.781 21.6667 13.3333 21.219 13.3333 20.6667V16ZM19.3333 15C18.781 15 18.3333 15.4477 18.3333 16V20.6667C18.3333 21.219 18.781 21.6667 19.3333 21.6667H20.6667C21.219 21.6667 21.6667 21.219 21.6667 20.6667V16C21.6667 15.4477 21.219 15 20.6667 15H19.3333Z" fill="#A100FD"/>
</svg>
