<svg width="44" height="12" viewBox="0 0 44 12" fill="none" xmlns="http://www.w3.org/2000/svg">
<path d="M0.897313 9.06C0.721313 9.06 0.573313 9.012 0.453313 8.916C0.341313 8.82 0.285313 8.676 0.285313 8.484V3.612C0.285313 3.42 0.341313 3.276 0.453313 3.18C0.573313 3.076 0.721313 3.024 0.897313 3.024C1.07331 3.024 1.21731 3.076 1.32931 3.18C1.44131 3.276 1.49731 3.42 1.49731 3.612V8.484C1.49731 8.676 1.44131 8.82 1.32931 8.916C1.21731 9.012 1.07331 9.06 0.897313 9.06ZM0.897313 1.848C0.665313 1.848 0.481313 1.784 0.345313 1.656C0.209313 1.528 0.141313 1.36 0.141313 1.152C0.141313 0.944 0.209313 0.78 0.345313 0.659999C0.481313 0.532 0.665313 0.468 0.897313 0.468C1.12131 0.468 1.30131 0.532 1.43731 0.659999C1.58131 0.78 1.65331 0.944 1.65331 1.152C1.65331 1.36 1.58531 1.528 1.44931 1.656C1.31331 1.784 1.12931 1.848 0.897313 1.848ZM6.34756 3C7.74756 3 8.44756 3.788 8.44756 5.364V8.484C8.44756 8.668 8.39156 8.812 8.27956 8.916C8.17556 9.012 8.02756 9.06 7.83556 9.06C7.65156 9.06 7.50356 9.008 7.39156 8.904C7.28756 8.8 7.23556 8.66 7.23556 8.484V5.424C7.23556 4.928 7.13556 4.564 6.93556 4.332C6.74356 4.1 6.43956 3.984 6.02356 3.984C5.53556 3.984 5.14356 4.136 4.84756 4.44C4.55156 4.744 4.40356 5.152 4.40356 5.664V8.484C4.40356 8.66 4.34756 8.8 4.23556 8.904C4.13156 9.008 3.98756 9.06 3.80356 9.06C3.61956 9.06 3.47156 9.008 3.35956 8.904C3.24756 8.8 3.19156 8.66 3.19156 8.484V3.6C3.19156 3.432 3.24756 3.296 3.35956 3.192C3.47956 3.08 3.62756 3.024 3.80356 3.024C3.97956 3.024 4.11956 3.076 4.22356 3.18C4.32756 3.284 4.37956 3.42 4.37956 3.588V4.08C4.57156 3.728 4.83956 3.46 5.18356 3.276C5.52756 3.092 5.91556 3 6.34756 3ZM12.9736 8.136C13.1496 8.152 13.2736 8.2 13.3456 8.28C13.4256 8.352 13.4656 8.456 13.4656 8.592C13.4656 8.752 13.4016 8.876 13.2736 8.964C13.1536 9.044 12.9736 9.076 12.7336 9.06L12.4096 9.036C11.7616 8.988 11.2776 8.792 10.9576 8.448C10.6376 8.096 10.4776 7.58 10.4776 6.9V4.08H9.75763C9.40563 4.08 9.22962 3.924 9.22962 3.612C9.22962 3.468 9.27363 3.356 9.36163 3.276C9.45763 3.188 9.58963 3.144 9.75763 3.144H10.4776V1.908C10.4776 1.724 10.5296 1.58 10.6336 1.476C10.7456 1.372 10.8936 1.32 11.0776 1.32C11.2616 1.32 11.4096 1.372 11.5216 1.476C11.6336 1.58 11.6896 1.724 11.6896 1.908V3.144H12.8776C13.0456 3.144 13.1736 3.188 13.2616 3.276C13.3576 3.356 13.4056 3.468 13.4056 3.612C13.4056 3.764 13.3576 3.88 13.2616 3.96C13.1736 4.04 13.0456 4.08 12.8776 4.08H11.6896V6.984C11.6896 7.36 11.7656 7.636 11.9176 7.812C12.0776 7.988 12.3176 8.088 12.6376 8.112L12.9736 8.136ZM18.9201 7.524C19.0321 7.524 19.1241 7.568 19.1961 7.656C19.2681 7.744 19.3041 7.856 19.3041 7.992C19.3041 8.224 19.1601 8.42 18.8721 8.58C18.5921 8.74 18.2841 8.864 17.9481 8.952C17.6201 9.04 17.3041 9.084 17.0001 9.084C16.0721 9.084 15.3401 8.816 14.8041 8.28C14.2681 7.736 14.0001 6.996 14.0001 6.06C14.0001 5.46 14.1161 4.928 14.3481 4.464C14.5881 4 14.9201 3.64 15.3441 3.384C15.7761 3.128 16.2641 3 16.8081 3C17.5921 3 18.2121 3.252 18.6681 3.756C19.1241 4.26 19.3521 4.94 19.3521 5.796C19.3521 6.116 19.2081 6.276 18.9201 6.276H15.2121C15.2921 7.516 15.8881 8.136 17.0001 8.136C17.2961 8.136 17.5521 8.096 17.7681 8.016C17.9841 7.936 18.2121 7.832 18.4521 7.704C18.4761 7.688 18.5401 7.656 18.6441 7.608C18.7561 7.552 18.8481 7.524 18.9201 7.524ZM16.8321 3.888C16.3681 3.888 15.9961 4.036 15.7161 4.332C15.4361 4.628 15.2681 5.044 15.2121 5.58H18.3081C18.2841 5.036 18.1441 4.62 17.8881 4.332C17.6401 4.036 17.2881 3.888 16.8321 3.888ZM21.2997 9.06C21.1237 9.06 20.9757 9.012 20.8557 8.916C20.7437 8.82 20.6877 8.676 20.6877 8.484V1.068C20.6877 0.875999 20.7437 0.731999 20.8557 0.636C20.9757 0.532 21.1237 0.48 21.2997 0.48C21.4757 0.48 21.6197 0.532 21.7317 0.636C21.8437 0.731999 21.8997 0.875999 21.8997 1.068V8.484C21.8997 8.676 21.8437 8.82 21.7317 8.916C21.6197 9.012 21.4757 9.06 21.2997 9.06ZM27.7579 3.384C27.8059 3.264 27.8739 3.176 27.9619 3.12C28.0579 3.064 28.1579 3.036 28.2619 3.036C28.4139 3.036 28.5459 3.088 28.6579 3.192C28.7779 3.296 28.8379 3.42 28.8379 3.564C28.8379 3.644 28.8219 3.72 28.7899 3.792L25.4539 10.872C25.4059 10.984 25.3339 11.068 25.2379 11.124C25.1499 11.188 25.0539 11.22 24.9499 11.22C24.8059 11.22 24.6739 11.172 24.5539 11.076C24.4419 10.98 24.3859 10.86 24.3859 10.716C24.3859 10.652 24.4059 10.572 24.4459 10.476L25.2739 8.712L22.9579 3.792C22.9259 3.728 22.9099 3.656 22.9099 3.576C22.9099 3.424 22.9739 3.296 23.1019 3.192C23.2299 3.088 23.3739 3.036 23.5339 3.036C23.7739 3.036 23.9459 3.148 24.0499 3.372L25.9099 7.5L27.7579 3.384Z" fill="#3A70D4"/>
<path d="M36.5723 8.232C36.6443 8.336 36.6803 8.448 36.6803 8.568C36.6803 8.712 36.6203 8.836 36.5003 8.94C36.3883 9.036 36.2563 9.084 36.1043 9.084C35.8803 9.084 35.7003 8.984 35.5643 8.784L33.9563 6.288C33.7723 6 33.5763 5.8 33.3683 5.688C33.1603 5.568 32.8883 5.508 32.5523 5.508H31.1963V8.436C31.1963 8.628 31.1403 8.78 31.0283 8.892C30.9243 9.004 30.7763 9.06 30.5843 9.06C30.4003 9.06 30.2523 9.004 30.1403 8.892C30.0283 8.78 29.9723 8.628 29.9723 8.436V1.14C29.9723 0.956 30.0243 0.812 30.1283 0.707999C30.2403 0.595999 30.3923 0.539999 30.5843 0.539999H33.5723C34.5083 0.539999 35.2203 0.747999 35.7083 1.164C36.2043 1.58 36.4523 2.188 36.4523 2.988C36.4523 3.652 36.2643 4.192 35.8883 4.608C35.5123 5.016 34.9763 5.276 34.2803 5.388C34.4883 5.444 34.6763 5.544 34.8443 5.688C35.0123 5.832 35.1763 6.032 35.3363 6.288L36.5723 8.232ZM33.4283 4.512C34.0523 4.512 34.5123 4.392 34.8083 4.152C35.1123 3.904 35.2643 3.524 35.2643 3.012C35.2643 2.5 35.1163 2.128 34.8203 1.896C34.5243 1.656 34.0603 1.536 33.4283 1.536H31.1843V4.512H33.4283ZM43.022 8.088C43.142 8.208 43.202 8.348 43.202 8.508C43.202 8.66 43.146 8.792 43.034 8.904C42.93 9.008 42.802 9.06 42.65 9.06C42.498 9.06 42.358 8.992 42.23 8.856L40.394 6.792L38.57 8.856C38.442 8.992 38.302 9.06 38.15 9.06C37.998 9.06 37.866 9.004 37.754 8.892C37.65 8.78 37.598 8.648 37.598 8.496C37.598 8.344 37.654 8.208 37.766 8.088L39.662 6L37.862 3.996C37.742 3.86 37.682 3.724 37.682 3.588C37.682 3.436 37.738 3.308 37.85 3.204C37.962 3.092 38.09 3.036 38.234 3.036C38.386 3.036 38.526 3.104 38.654 3.24L40.394 5.208L42.134 3.24C42.262 3.104 42.406 3.036 42.566 3.036C42.71 3.036 42.838 3.092 42.95 3.204C43.062 3.308 43.118 3.436 43.118 3.588C43.118 3.74 43.058 3.876 42.938 3.996L41.138 6L43.022 8.088Z" fill="#A100FF"/>
</svg>
