<svg width="50" height="12" viewBox="0 0 50 12" fill="none" xmlns="http://www.w3.org/2000/svg">
<path d="M0.793797 9.06C0.617797 9.06 0.469797 9.012 0.349797 8.916C0.237797 8.82 0.181797 8.676 0.181797 8.484V3.612C0.181797 3.42 0.237797 3.276 0.349797 3.18C0.469797 3.076 0.617797 3.024 0.793797 3.024C0.969797 3.024 1.1138 3.076 1.2258 3.18C1.3378 3.276 1.3938 3.42 1.3938 3.612V8.484C1.3938 8.676 1.3378 8.82 1.2258 8.916C1.1138 9.012 0.969797 9.06 0.793797 9.06ZM0.793797 1.848C0.561797 1.848 0.377797 1.784 0.241797 1.656C0.105797 1.528 0.0377969 1.36 0.0377969 1.152C0.0377969 0.944 0.105797 0.78 0.241797 0.659999C0.377797 0.532 0.561797 0.468 0.793797 0.468C1.0178 0.468 1.1978 0.532 1.3338 0.659999C1.4778 0.78 1.5498 0.944 1.5498 1.152C1.5498 1.36 1.4818 1.528 1.3458 1.656C1.2098 1.784 1.0258 1.848 0.793797 1.848ZM6.24405 3C7.64405 3 8.34405 3.788 8.34405 5.364V8.484C8.34405 8.668 8.28805 8.812 8.17605 8.916C8.07205 9.012 7.92405 9.06 7.73205 9.06C7.54805 9.06 7.40005 9.008 7.28805 8.904C7.18405 8.8 7.13205 8.66 7.13205 8.484V5.424C7.13205 4.928 7.03205 4.564 6.83205 4.332C6.64005 4.1 6.33605 3.984 5.92005 3.984C5.43205 3.984 5.04005 4.136 4.74405 4.44C4.44805 4.744 4.30005 5.152 4.30005 5.664V8.484C4.30005 8.66 4.24405 8.8 4.13205 8.904C4.02805 9.008 3.88405 9.06 3.70005 9.06C3.51605 9.06 3.36805 9.008 3.25605 8.904C3.14405 8.8 3.08805 8.66 3.08805 8.484V3.6C3.08805 3.432 3.14405 3.296 3.25605 3.192C3.37605 3.08 3.52405 3.024 3.70005 3.024C3.87605 3.024 4.01605 3.076 4.12005 3.18C4.22405 3.284 4.27605 3.42 4.27605 3.588V4.08C4.46805 3.728 4.73605 3.46 5.08005 3.276C5.42405 3.092 5.81205 3 6.24405 3ZM12.8701 8.136C13.0461 8.152 13.1701 8.2 13.2421 8.28C13.3221 8.352 13.3621 8.456 13.3621 8.592C13.3621 8.752 13.2981 8.876 13.1701 8.964C13.0501 9.044 12.8701 9.076 12.6301 9.06L12.3061 9.036C11.6581 8.988 11.1741 8.792 10.8541 8.448C10.5341 8.096 10.3741 7.58 10.3741 6.9V4.08H9.65411C9.30211 4.08 9.12611 3.924 9.12611 3.612C9.12611 3.468 9.17011 3.356 9.25811 3.276C9.35411 3.188 9.48611 3.144 9.65411 3.144H10.3741V1.908C10.3741 1.724 10.4261 1.58 10.5301 1.476C10.6421 1.372 10.7901 1.32 10.9741 1.32C11.1581 1.32 11.3061 1.372 11.4181 1.476C11.5301 1.58 11.5861 1.724 11.5861 1.908V3.144H12.7741C12.9421 3.144 13.0701 3.188 13.1581 3.276C13.2541 3.356 13.3021 3.468 13.3021 3.612C13.3021 3.764 13.2541 3.88 13.1581 3.96C13.0701 4.04 12.9421 4.08 12.7741 4.08H11.5861V6.984C11.5861 7.36 11.6621 7.636 11.8141 7.812C11.9741 7.988 12.2141 8.088 12.5341 8.112L12.8701 8.136ZM18.8166 7.524C18.9286 7.524 19.0206 7.568 19.0926 7.656C19.1646 7.744 19.2006 7.856 19.2006 7.992C19.2006 8.224 19.0566 8.42 18.7686 8.58C18.4886 8.74 18.1806 8.864 17.8446 8.952C17.5166 9.04 17.2006 9.084 16.8966 9.084C15.9686 9.084 15.2366 8.816 14.7006 8.28C14.1646 7.736 13.8966 6.996 13.8966 6.06C13.8966 5.46 14.0126 4.928 14.2446 4.464C14.4846 4 14.8166 3.64 15.2406 3.384C15.6726 3.128 16.1606 3 16.7046 3C17.4886 3 18.1086 3.252 18.5646 3.756C19.0206 4.26 19.2486 4.94 19.2486 5.796C19.2486 6.116 19.1046 6.276 18.8166 6.276H15.1086C15.1886 7.516 15.7846 8.136 16.8966 8.136C17.1926 8.136 17.4486 8.096 17.6646 8.016C17.8806 7.936 18.1086 7.832 18.3486 7.704C18.3726 7.688 18.4366 7.656 18.5406 7.608C18.6526 7.552 18.7446 7.524 18.8166 7.524ZM16.7286 3.888C16.2646 3.888 15.8926 4.036 15.6126 4.332C15.3326 4.628 15.1646 5.044 15.1086 5.58H18.2046C18.1806 5.036 18.0406 4.62 17.7846 4.332C17.5366 4.036 17.1846 3.888 16.7286 3.888ZM21.1961 9.06C21.0201 9.06 20.8721 9.012 20.7521 8.916C20.6401 8.82 20.5841 8.676 20.5841 8.484V1.068C20.5841 0.875999 20.6401 0.731999 20.7521 0.636C20.8721 0.532 21.0201 0.48 21.1961 0.48C21.3721 0.48 21.5161 0.532 21.6281 0.636C21.7401 0.731999 21.7961 0.875999 21.7961 1.068V8.484C21.7961 8.676 21.7401 8.82 21.6281 8.916C21.5161 9.012 21.3721 9.06 21.1961 9.06ZM27.6544 3.384C27.7024 3.264 27.7704 3.176 27.8584 3.12C27.9544 3.064 28.0544 3.036 28.1584 3.036C28.3104 3.036 28.4424 3.088 28.5544 3.192C28.6744 3.296 28.7344 3.42 28.7344 3.564C28.7344 3.644 28.7184 3.72 28.6864 3.792L25.3504 10.872C25.3024 10.984 25.2304 11.068 25.1344 11.124C25.0464 11.188 24.9504 11.22 24.8464 11.22C24.7024 11.22 24.5704 11.172 24.4504 11.076C24.3384 10.98 24.2824 10.86 24.2824 10.716C24.2824 10.652 24.3024 10.572 24.3424 10.476L25.1704 8.712L22.8544 3.792C22.8224 3.728 22.8064 3.656 22.8064 3.576C22.8064 3.424 22.8704 3.296 22.9984 3.192C23.1264 3.088 23.2704 3.036 23.4304 3.036C23.6704 3.036 23.8424 3.148 23.9464 3.372L25.8064 7.5L27.6544 3.384Z" fill="#3A70D4"/>
<path d="M36.4688 8.232C36.5408 8.336 36.5768 8.448 36.5768 8.568C36.5768 8.712 36.5168 8.836 36.3968 8.94C36.2848 9.036 36.1528 9.084 36.0008 9.084C35.7768 9.084 35.5968 8.984 35.4608 8.784L33.8528 6.288C33.6688 6 33.4728 5.8 33.2648 5.688C33.0568 5.568 32.7848 5.508 32.4488 5.508H31.0928V8.436C31.0928 8.628 31.0368 8.78 30.9248 8.892C30.8208 9.004 30.6728 9.06 30.4808 9.06C30.2968 9.06 30.1488 9.004 30.0368 8.892C29.9248 8.78 29.8688 8.628 29.8688 8.436V1.14C29.8688 0.956 29.9208 0.812 30.0248 0.707999C30.1368 0.595999 30.2888 0.539999 30.4808 0.539999H33.4688C34.4048 0.539999 35.1168 0.747999 35.6048 1.164C36.1008 1.58 36.3488 2.188 36.3488 2.988C36.3488 3.652 36.1608 4.192 35.7848 4.608C35.4088 5.016 34.8728 5.276 34.1768 5.388C34.3848 5.444 34.5728 5.544 34.7408 5.688C34.9088 5.832 35.0728 6.032 35.2328 6.288L36.4688 8.232ZM33.3248 4.512C33.9488 4.512 34.4088 4.392 34.7048 4.152C35.0088 3.904 35.1608 3.524 35.1608 3.012C35.1608 2.5 35.0128 2.128 34.7168 1.896C34.4208 1.656 33.9568 1.536 33.3248 1.536H31.0808V4.512H33.3248ZM42.5939 7.524C42.7059 7.524 42.7979 7.568 42.8699 7.656C42.9419 7.744 42.9779 7.856 42.9779 7.992C42.9779 8.224 42.8339 8.42 42.5459 8.58C42.2659 8.74 41.9579 8.864 41.6219 8.952C41.2939 9.04 40.9779 9.084 40.6739 9.084C39.7459 9.084 39.0139 8.816 38.4779 8.28C37.9419 7.736 37.6739 6.996 37.6739 6.06C37.6739 5.46 37.7899 4.928 38.0219 4.464C38.2619 4 38.5939 3.64 39.0179 3.384C39.4499 3.128 39.9379 3 40.4819 3C41.2659 3 41.8859 3.252 42.3419 3.756C42.7979 4.26 43.0259 4.94 43.0259 5.796C43.0259 6.116 42.8819 6.276 42.5939 6.276H38.8859C38.9659 7.516 39.5619 8.136 40.6739 8.136C40.9699 8.136 41.2259 8.096 41.4419 8.016C41.6579 7.936 41.8859 7.832 42.1259 7.704C42.1499 7.688 42.2139 7.656 42.3179 7.608C42.4299 7.552 42.5219 7.524 42.5939 7.524ZM40.5059 3.888C40.0419 3.888 39.6699 4.036 39.3899 4.332C39.1099 4.628 38.9419 5.044 38.8859 5.58H41.9819C41.9579 5.036 41.8179 4.62 41.5619 4.332C41.3139 4.036 40.9619 3.888 40.5059 3.888ZM49.2095 3.024C49.3935 3.024 49.5375 3.08 49.6415 3.192C49.7535 3.296 49.8095 3.436 49.8095 3.612V8.532C49.8095 9.428 49.5695 10.104 49.0895 10.56C48.6175 11.016 47.9175 11.244 46.9895 11.244C46.1255 11.244 45.4055 11.08 44.8295 10.752C44.5335 10.584 44.3855 10.384 44.3855 10.152C44.3855 10.016 44.4215 9.904 44.4935 9.816C44.5735 9.728 44.6695 9.684 44.7815 9.684C44.8855 9.684 45.0495 9.744 45.2735 9.864C45.5615 10 45.8295 10.104 46.0775 10.176C46.3255 10.256 46.6215 10.296 46.9655 10.296C48.0695 10.296 48.6215 9.74 48.6215 8.628V7.704C48.4535 8.056 48.1975 8.332 47.8535 8.532C47.5095 8.724 47.1095 8.82 46.6535 8.82C46.1415 8.82 45.6855 8.7 45.2855 8.46C44.8855 8.22 44.5735 7.88 44.3495 7.44C44.1335 7 44.0255 6.492 44.0255 5.916C44.0255 5.34 44.1375 4.832 44.3615 4.392C44.5855 3.952 44.8935 3.612 45.2855 3.372C45.6855 3.124 46.1415 3 46.6535 3C47.1015 3 47.4935 3.096 47.8295 3.288C48.1735 3.48 48.4335 3.752 48.6095 4.104V3.6C48.6095 3.424 48.6615 3.284 48.7655 3.18C48.8775 3.076 49.0255 3.024 49.2095 3.024ZM46.9415 7.86C47.4615 7.86 47.8695 7.688 48.1655 7.344C48.4615 7 48.6095 6.524 48.6095 5.916C48.6095 5.316 48.4615 4.844 48.1655 4.5C47.8775 4.148 47.4695 3.972 46.9415 3.972C46.4135 3.972 45.9975 4.144 45.6935 4.488C45.3975 4.832 45.2495 5.308 45.2495 5.916C45.2495 6.524 45.4015 7 45.7055 7.344C46.0095 7.688 46.4215 7.86 46.9415 7.86Z" fill="#A100FF"/>
</svg>
