<svg width="75" height="12" viewBox="0 0 75 12" fill="none" xmlns="http://www.w3.org/2000/svg">
<path d="M1.67466 9.06C1.49866 9.06 1.35066 9.012 1.23066 8.916C1.11866 8.82 1.06266 8.676 1.06266 8.484V3.612C1.06266 3.42 1.11866 3.276 1.23066 3.18C1.35066 3.076 1.49866 3.024 1.67466 3.024C1.85066 3.024 1.99466 3.076 2.10666 3.18C2.21866 3.276 2.27466 3.42 2.27466 3.612V8.484C2.27466 8.676 2.21866 8.82 2.10666 8.916C1.99466 9.012 1.85066 9.06 1.67466 9.06ZM1.67466 1.848C1.44266 1.848 1.25866 1.784 1.12266 1.656C0.986656 1.528 0.918656 1.36 0.918656 1.152C0.918656 0.944 0.986656 0.78 1.12266 0.659999C1.25866 0.532 1.44266 0.468 1.67466 0.468C1.89866 0.468 2.07866 0.532 2.21466 0.659999C2.35866 0.78 2.43066 0.944 2.43066 1.152C2.43066 1.36 2.36266 1.528 2.22666 1.656C2.09066 1.784 1.90666 1.848 1.67466 1.848ZM7.12491 3C8.52491 3 9.22491 3.788 9.22491 5.364V8.484C9.22491 8.668 9.16891 8.812 9.05691 8.916C8.95291 9.012 8.80491 9.06 8.61291 9.06C8.42891 9.06 8.28091 9.008 8.16891 8.904C8.06491 8.8 8.01291 8.66 8.01291 8.484V5.424C8.01291 4.928 7.91291 4.564 7.71291 4.332C7.52091 4.1 7.21691 3.984 6.80091 3.984C6.31291 3.984 5.92091 4.136 5.62491 4.44C5.32891 4.744 5.18091 5.152 5.18091 5.664V8.484C5.18091 8.66 5.12491 8.8 5.01291 8.904C4.90891 9.008 4.76491 9.06 4.58091 9.06C4.39691 9.06 4.24891 9.008 4.13691 8.904C4.02491 8.8 3.96891 8.66 3.96891 8.484V3.6C3.96891 3.432 4.02491 3.296 4.13691 3.192C4.25691 3.08 4.40491 3.024 4.58091 3.024C4.75691 3.024 4.89691 3.076 5.00091 3.18C5.10491 3.284 5.15691 3.42 5.15691 3.588V4.08C5.34891 3.728 5.61691 3.46 5.96091 3.276C6.30491 3.092 6.69291 3 7.12491 3ZM13.751 8.136C13.927 8.152 14.051 8.2 14.123 8.28C14.203 8.352 14.243 8.456 14.243 8.592C14.243 8.752 14.179 8.876 14.051 8.964C13.931 9.044 13.751 9.076 13.511 9.06L13.187 9.036C12.539 8.988 12.055 8.792 11.735 8.448C11.415 8.096 11.255 7.58 11.255 6.9V4.08H10.535C10.183 4.08 10.007 3.924 10.007 3.612C10.007 3.468 10.051 3.356 10.139 3.276C10.235 3.188 10.367 3.144 10.535 3.144H11.255V1.908C11.255 1.724 11.307 1.58 11.411 1.476C11.523 1.372 11.671 1.32 11.855 1.32C12.039 1.32 12.187 1.372 12.299 1.476C12.411 1.58 12.467 1.724 12.467 1.908V3.144H13.655C13.823 3.144 13.951 3.188 14.039 3.276C14.135 3.356 14.183 3.468 14.183 3.612C14.183 3.764 14.135 3.88 14.039 3.96C13.951 4.04 13.823 4.08 13.655 4.08H12.467V6.984C12.467 7.36 12.543 7.636 12.695 7.812C12.855 7.988 13.095 8.088 13.415 8.112L13.751 8.136ZM19.6974 7.524C19.8094 7.524 19.9014 7.568 19.9734 7.656C20.0454 7.744 20.0814 7.856 20.0814 7.992C20.0814 8.224 19.9374 8.42 19.6494 8.58C19.3694 8.74 19.0614 8.864 18.7254 8.952C18.3974 9.04 18.0814 9.084 17.7774 9.084C16.8494 9.084 16.1174 8.816 15.5814 8.28C15.0454 7.736 14.7774 6.996 14.7774 6.06C14.7774 5.46 14.8934 4.928 15.1254 4.464C15.3654 4 15.6974 3.64 16.1214 3.384C16.5534 3.128 17.0414 3 17.5854 3C18.3694 3 18.9894 3.252 19.4454 3.756C19.9014 4.26 20.1294 4.94 20.1294 5.796C20.1294 6.116 19.9854 6.276 19.6974 6.276H15.9894C16.0694 7.516 16.6654 8.136 17.7774 8.136C18.0734 8.136 18.3294 8.096 18.5454 8.016C18.7614 7.936 18.9894 7.832 19.2294 7.704C19.2534 7.688 19.3174 7.656 19.4214 7.608C19.5334 7.552 19.6254 7.524 19.6974 7.524ZM17.6094 3.888C17.1454 3.888 16.7734 4.036 16.4934 4.332C16.2134 4.628 16.0454 5.044 15.9894 5.58H19.0854C19.0614 5.036 18.9214 4.62 18.6654 4.332C18.4174 4.036 18.0654 3.888 17.6094 3.888ZM22.077 9.06C21.901 9.06 21.753 9.012 21.633 8.916C21.521 8.82 21.465 8.676 21.465 8.484V1.068C21.465 0.875999 21.521 0.731999 21.633 0.636C21.753 0.532 21.901 0.48 22.077 0.48C22.253 0.48 22.397 0.532 22.509 0.636C22.621 0.731999 22.677 0.875999 22.677 1.068V8.484C22.677 8.676 22.621 8.82 22.509 8.916C22.397 9.012 22.253 9.06 22.077 9.06ZM28.5353 3.384C28.5833 3.264 28.6513 3.176 28.7393 3.12C28.8353 3.064 28.9353 3.036 29.0393 3.036C29.1913 3.036 29.3233 3.088 29.4353 3.192C29.5553 3.296 29.6153 3.42 29.6153 3.564C29.6153 3.644 29.5993 3.72 29.5673 3.792L26.2313 10.872C26.1833 10.984 26.1113 11.068 26.0153 11.124C25.9273 11.188 25.8313 11.22 25.7273 11.22C25.5833 11.22 25.4513 11.172 25.3313 11.076C25.2193 10.98 25.1633 10.86 25.1633 10.716C25.1633 10.652 25.1833 10.572 25.2233 10.476L26.0513 8.712L23.7353 3.792C23.7033 3.728 23.6873 3.656 23.6873 3.576C23.6873 3.424 23.7513 3.296 23.8793 3.192C24.0073 3.088 24.1513 3.036 24.3113 3.036C24.5513 3.036 24.7233 3.148 24.8273 3.372L26.6873 7.5L28.5353 3.384Z" fill="#3A70D4"/>
<path d="M34.4336 9.096C33.6256 9.096 32.9216 8.924 32.3216 8.58C31.7216 8.228 31.2616 7.728 30.9416 7.08C30.6216 6.424 30.4616 5.652 30.4616 4.764C30.4616 3.884 30.6216 3.12 30.9416 2.472C31.2616 1.816 31.7216 1.316 32.3216 0.972C32.9216 0.619999 33.6256 0.443999 34.4336 0.443999C34.9616 0.443999 35.4616 0.527999 35.9336 0.696C36.4056 0.855999 36.8176 1.092 37.1696 1.404C37.3216 1.524 37.3976 1.684 37.3976 1.884C37.3976 2.028 37.3576 2.152 37.2776 2.256C37.1976 2.352 37.1016 2.4 36.9896 2.4C36.8536 2.4 36.7216 2.348 36.5936 2.244C36.2096 1.956 35.8576 1.756 35.5376 1.644C35.2256 1.524 34.8696 1.464 34.4696 1.464C33.5896 1.464 32.9136 1.748 32.4416 2.316C31.9696 2.884 31.7336 3.7 31.7336 4.764C31.7336 5.836 31.9696 6.656 32.4416 7.224C32.9136 7.792 33.5896 8.076 34.4696 8.076C34.8536 8.076 35.2016 8.016 35.5136 7.896C35.8336 7.776 36.1936 7.576 36.5936 7.296C36.7536 7.192 36.8856 7.14 36.9896 7.14C37.1016 7.14 37.1976 7.192 37.2776 7.296C37.3576 7.392 37.3976 7.512 37.3976 7.656C37.3976 7.856 37.3216 8.016 37.1696 8.136C36.8176 8.448 36.4056 8.688 35.9336 8.856C35.4616 9.016 34.9616 9.096 34.4336 9.096ZM41.1535 9.084C40.5775 9.084 40.0695 8.96 39.6295 8.712C39.1975 8.464 38.8615 8.112 38.6215 7.656C38.3895 7.192 38.2735 6.656 38.2735 6.048C38.2735 5.432 38.3895 4.896 38.6215 4.44C38.8615 3.976 39.1975 3.62 39.6295 3.372C40.0695 3.124 40.5775 3 41.1535 3C41.7295 3 42.2335 3.124 42.6655 3.372C43.1055 3.62 43.4415 3.976 43.6735 4.44C43.9135 4.896 44.0335 5.432 44.0335 6.048C44.0335 6.656 43.9135 7.192 43.6735 7.656C43.4415 8.112 43.1055 8.464 42.6655 8.712C42.2335 8.96 41.7295 9.084 41.1535 9.084ZM41.1535 8.124C41.6895 8.124 42.0975 7.948 42.3775 7.596C42.6655 7.244 42.8095 6.728 42.8095 6.048C42.8095 5.376 42.6655 4.864 42.3775 4.512C42.0895 4.152 41.6815 3.972 41.1535 3.972C40.6255 3.972 40.2175 4.152 39.9295 4.512C39.6415 4.864 39.4975 5.376 39.4975 6.048C39.4975 6.728 39.6375 7.244 39.9175 7.596C40.2055 7.948 40.6175 8.124 41.1535 8.124ZM48.539 3C49.939 3 50.639 3.788 50.639 5.364V8.484C50.639 8.668 50.583 8.812 50.471 8.916C50.367 9.012 50.219 9.06 50.027 9.06C49.843 9.06 49.695 9.008 49.583 8.904C49.479 8.8 49.427 8.66 49.427 8.484V5.424C49.427 4.928 49.327 4.564 49.127 4.332C48.935 4.1 48.631 3.984 48.215 3.984C47.727 3.984 47.335 4.136 47.039 4.44C46.743 4.744 46.595 5.152 46.595 5.664V8.484C46.595 8.66 46.539 8.8 46.427 8.904C46.323 9.008 46.179 9.06 45.995 9.06C45.811 9.06 45.663 9.008 45.551 8.904C45.439 8.8 45.383 8.66 45.383 8.484V3.6C45.383 3.432 45.439 3.296 45.551 3.192C45.671 3.08 45.819 3.024 45.995 3.024C46.171 3.024 46.311 3.076 46.415 3.18C46.519 3.284 46.571 3.42 46.571 3.588V4.08C46.763 3.728 47.031 3.46 47.375 3.276C47.719 3.092 48.107 3 48.539 3ZM55.453 3C56.853 3 57.553 3.788 57.553 5.364V8.484C57.553 8.668 57.497 8.812 57.385 8.916C57.281 9.012 57.133 9.06 56.941 9.06C56.757 9.06 56.609 9.008 56.497 8.904C56.393 8.8 56.341 8.66 56.341 8.484V5.424C56.341 4.928 56.241 4.564 56.041 4.332C55.849 4.1 55.545 3.984 55.129 3.984C54.641 3.984 54.249 4.136 53.953 4.44C53.657 4.744 53.509 5.152 53.509 5.664V8.484C53.509 8.66 53.453 8.8 53.341 8.904C53.237 9.008 53.093 9.06 52.909 9.06C52.725 9.06 52.577 9.008 52.465 8.904C52.353 8.8 52.297 8.66 52.297 8.484V3.6C52.297 3.432 52.353 3.296 52.465 3.192C52.585 3.08 52.733 3.024 52.909 3.024C53.085 3.024 53.225 3.076 53.329 3.18C53.433 3.284 53.485 3.42 53.485 3.588V4.08C53.677 3.728 53.945 3.46 54.289 3.276C54.633 3.092 55.021 3 55.453 3ZM63.7951 7.524C63.9071 7.524 63.9991 7.568 64.0711 7.656C64.1431 7.744 64.1791 7.856 64.1791 7.992C64.1791 8.224 64.0351 8.42 63.7471 8.58C63.4671 8.74 63.1591 8.864 62.8231 8.952C62.4951 9.04 62.1791 9.084 61.8751 9.084C60.9471 9.084 60.2151 8.816 59.6791 8.28C59.1431 7.736 58.8751 6.996 58.8751 6.06C58.8751 5.46 58.9911 4.928 59.2231 4.464C59.4631 4 59.7951 3.64 60.2191 3.384C60.6511 3.128 61.1391 3 61.6831 3C62.4671 3 63.0871 3.252 63.5431 3.756C63.9991 4.26 64.2271 4.94 64.2271 5.796C64.2271 6.116 64.0831 6.276 63.7951 6.276H60.0871C60.1671 7.516 60.7631 8.136 61.8751 8.136C62.1711 8.136 62.4271 8.096 62.6431 8.016C62.8591 7.936 63.0871 7.832 63.3271 7.704C63.3511 7.688 63.4151 7.656 63.5191 7.608C63.6311 7.552 63.7231 7.524 63.7951 7.524ZM61.7071 3.888C61.2431 3.888 60.8711 4.036 60.5911 4.332C60.3111 4.628 60.1431 5.044 60.0871 5.58H63.1831C63.1591 5.036 63.0191 4.62 62.7631 4.332C62.5151 4.036 62.1631 3.888 61.7071 3.888ZM68.0707 9.084C67.5027 9.084 67.0027 8.96 66.5707 8.712C66.1467 8.464 65.8147 8.112 65.5747 7.656C65.3427 7.2 65.2267 6.672 65.2267 6.072C65.2267 5.464 65.3467 4.928 65.5867 4.464C65.8347 4 66.1787 3.64 66.6187 3.384C67.0587 3.128 67.5627 3 68.1307 3C68.4347 3 68.7387 3.044 69.0427 3.132C69.3547 3.22 69.6307 3.34 69.8707 3.492C70.1267 3.668 70.2547 3.872 70.2547 4.104C70.2547 4.24 70.2187 4.356 70.1467 4.452C70.0747 4.54 69.9827 4.584 69.8707 4.584C69.7987 4.584 69.7267 4.568 69.6547 4.536C69.5827 4.496 69.4907 4.44 69.3787 4.368C69.1787 4.24 68.9907 4.144 68.8147 4.08C68.6467 4.008 68.4427 3.972 68.2027 3.972C67.6587 3.972 67.2347 4.156 66.9307 4.524C66.6347 4.892 66.4867 5.404 66.4867 6.06C66.4867 6.716 66.6347 7.224 66.9307 7.584C67.2267 7.936 67.6467 8.112 68.1907 8.112C68.4307 8.112 68.6427 8.076 68.8267 8.004C69.0107 7.932 69.1987 7.836 69.3907 7.716C69.4787 7.66 69.5667 7.612 69.6547 7.572C69.7427 7.532 69.8227 7.512 69.8947 7.512C70.0067 7.512 70.0987 7.56 70.1707 7.656C70.2427 7.744 70.2787 7.856 70.2787 7.992C70.2787 8.104 70.2467 8.208 70.1827 8.304C70.1267 8.392 70.0267 8.484 69.8827 8.58C69.6427 8.74 69.3627 8.864 69.0427 8.952C68.7227 9.04 68.3987 9.084 68.0707 9.084ZM74.2549 8.136C74.4309 8.152 74.5549 8.2 74.6269 8.28C74.7069 8.352 74.7469 8.456 74.7469 8.592C74.7469 8.752 74.6829 8.876 74.5549 8.964C74.4349 9.044 74.2549 9.076 74.0149 9.06L73.6909 9.036C73.0429 8.988 72.5589 8.792 72.2389 8.448C71.9189 8.096 71.7589 7.58 71.7589 6.9V4.08H71.0389C70.6869 4.08 70.5109 3.924 70.5109 3.612C70.5109 3.468 70.5549 3.356 70.6429 3.276C70.7389 3.188 70.8709 3.144 71.0389 3.144H71.7589V1.908C71.7589 1.724 71.8109 1.58 71.9149 1.476C72.0269 1.372 72.1749 1.32 72.3589 1.32C72.5429 1.32 72.6909 1.372 72.8029 1.476C72.9149 1.58 72.9709 1.724 72.9709 1.908V3.144H74.1589C74.3269 3.144 74.4549 3.188 74.5429 3.276C74.6389 3.356 74.6869 3.468 74.6869 3.612C74.6869 3.764 74.6389 3.88 74.5429 3.96C74.4549 4.04 74.3269 4.08 74.1589 4.08H72.9709V6.984C72.9709 7.36 73.0469 7.636 73.1989 7.812C73.3589 7.988 73.5989 8.088 73.9189 8.112L74.2549 8.136Z" fill="#A100FF"/>
</svg>
