<svg width="55" height="12" viewBox="0 0 55 12" fill="none" xmlns="http://www.w3.org/2000/svg">
<path d="M0.836766 9.06C0.660766 9.06 0.512766 9.012 0.392766 8.916C0.280766 8.82 0.224766 8.676 0.224766 8.484V3.612C0.224766 3.42 0.280766 3.276 0.392766 3.18C0.512766 3.076 0.660766 3.024 0.836766 3.024C1.01277 3.024 1.15677 3.076 1.26877 3.18C1.38077 3.276 1.43677 3.42 1.43677 3.612V8.484C1.43677 8.676 1.38077 8.82 1.26877 8.916C1.15677 9.012 1.01277 9.06 0.836766 9.06ZM0.836766 1.848C0.604766 1.848 0.420766 1.784 0.284766 1.656C0.148766 1.528 0.0807656 1.36 0.0807656 1.152C0.0807656 0.944 0.148766 0.78 0.284766 0.659999C0.420766 0.532 0.604766 0.468 0.836766 0.468C1.06077 0.468 1.24077 0.532 1.37677 0.659999C1.52077 0.78 1.59277 0.944 1.59277 1.152C1.59277 1.36 1.52477 1.528 1.38877 1.656C1.25277 1.784 1.06877 1.848 0.836766 1.848ZM6.28702 3C7.68702 3 8.38702 3.788 8.38702 5.364V8.484C8.38702 8.668 8.33102 8.812 8.21902 8.916C8.11502 9.012 7.96702 9.06 7.77502 9.06C7.59102 9.06 7.44302 9.008 7.33102 8.904C7.22702 8.8 7.17502 8.66 7.17502 8.484V5.424C7.17502 4.928 7.07502 4.564 6.87502 4.332C6.68302 4.1 6.37902 3.984 5.96302 3.984C5.47502 3.984 5.08302 4.136 4.78702 4.44C4.49102 4.744 4.34302 5.152 4.34302 5.664V8.484C4.34302 8.66 4.28702 8.8 4.17502 8.904C4.07102 9.008 3.92702 9.06 3.74302 9.06C3.55902 9.06 3.41102 9.008 3.29902 8.904C3.18702 8.8 3.13102 8.66 3.13102 8.484V3.6C3.13102 3.432 3.18702 3.296 3.29902 3.192C3.41902 3.08 3.56702 3.024 3.74302 3.024C3.91902 3.024 4.05902 3.076 4.16302 3.18C4.26702 3.284 4.31902 3.42 4.31902 3.588V4.08C4.51102 3.728 4.77902 3.46 5.12302 3.276C5.46702 3.092 5.85502 3 6.28702 3ZM12.9131 8.136C13.0891 8.152 13.2131 8.2 13.2851 8.28C13.3651 8.352 13.4051 8.456 13.4051 8.592C13.4051 8.752 13.3411 8.876 13.2131 8.964C13.0931 9.044 12.9131 9.076 12.6731 9.06L12.3491 9.036C11.7011 8.988 11.2171 8.792 10.8971 8.448C10.5771 8.096 10.4171 7.58 10.4171 6.9V4.08H9.69708C9.34508 4.08 9.16908 3.924 9.16908 3.612C9.16908 3.468 9.21308 3.356 9.30108 3.276C9.39708 3.188 9.52908 3.144 9.69708 3.144H10.4171V1.908C10.4171 1.724 10.4691 1.58 10.5731 1.476C10.6851 1.372 10.8331 1.32 11.0171 1.32C11.2011 1.32 11.3491 1.372 11.4611 1.476C11.5731 1.58 11.6291 1.724 11.6291 1.908V3.144H12.8171C12.9851 3.144 13.1131 3.188 13.2011 3.276C13.2971 3.356 13.3451 3.468 13.3451 3.612C13.3451 3.764 13.2971 3.88 13.2011 3.96C13.1131 4.04 12.9851 4.08 12.8171 4.08H11.6291V6.984C11.6291 7.36 11.7051 7.636 11.8571 7.812C12.0171 7.988 12.2571 8.088 12.5771 8.112L12.9131 8.136ZM18.8595 7.524C18.9715 7.524 19.0635 7.568 19.1355 7.656C19.2075 7.744 19.2435 7.856 19.2435 7.992C19.2435 8.224 19.0995 8.42 18.8115 8.58C18.5315 8.74 18.2235 8.864 17.8875 8.952C17.5595 9.04 17.2435 9.084 16.9395 9.084C16.0115 9.084 15.2795 8.816 14.7435 8.28C14.2075 7.736 13.9395 6.996 13.9395 6.06C13.9395 5.46 14.0555 4.928 14.2875 4.464C14.5275 4 14.8595 3.64 15.2835 3.384C15.7155 3.128 16.2035 3 16.7475 3C17.5315 3 18.1515 3.252 18.6075 3.756C19.0635 4.26 19.2915 4.94 19.2915 5.796C19.2915 6.116 19.1475 6.276 18.8595 6.276H15.1515C15.2315 7.516 15.8275 8.136 16.9395 8.136C17.2355 8.136 17.4915 8.096 17.7075 8.016C17.9235 7.936 18.1515 7.832 18.3915 7.704C18.4155 7.688 18.4795 7.656 18.5835 7.608C18.6955 7.552 18.7875 7.524 18.8595 7.524ZM16.7715 3.888C16.3075 3.888 15.9355 4.036 15.6555 4.332C15.3755 4.628 15.2075 5.044 15.1515 5.58H18.2475C18.2235 5.036 18.0835 4.62 17.8275 4.332C17.5795 4.036 17.2275 3.888 16.7715 3.888ZM21.2391 9.06C21.0631 9.06 20.9151 9.012 20.7951 8.916C20.6831 8.82 20.6271 8.676 20.6271 8.484V1.068C20.6271 0.875999 20.6831 0.731999 20.7951 0.636C20.9151 0.532 21.0631 0.48 21.2391 0.48C21.4151 0.48 21.5591 0.532 21.6711 0.636C21.7831 0.731999 21.8391 0.875999 21.8391 1.068V8.484C21.8391 8.676 21.7831 8.82 21.6711 8.916C21.5591 9.012 21.4151 9.06 21.2391 9.06ZM27.6974 3.384C27.7454 3.264 27.8134 3.176 27.9014 3.12C27.9974 3.064 28.0974 3.036 28.2014 3.036C28.3534 3.036 28.4854 3.088 28.5974 3.192C28.7174 3.296 28.7774 3.42 28.7774 3.564C28.7774 3.644 28.7614 3.72 28.7294 3.792L25.3934 10.872C25.3454 10.984 25.2734 11.068 25.1774 11.124C25.0894 11.188 24.9934 11.22 24.8894 11.22C24.7454 11.22 24.6134 11.172 24.4934 11.076C24.3814 10.98 24.3254 10.86 24.3254 10.716C24.3254 10.652 24.3454 10.572 24.3854 10.476L25.2134 8.712L22.8974 3.792C22.8654 3.728 22.8494 3.656 22.8494 3.576C22.8494 3.424 22.9134 3.296 23.0414 3.192C23.1694 3.088 23.3134 3.036 23.4734 3.036C23.7134 3.036 23.8854 3.148 23.9894 3.372L25.8494 7.5L27.6974 3.384Z" fill="#3A70D4"/>
<path d="M33.5957 9.096C32.7877 9.096 32.0837 8.924 31.4837 8.58C30.8837 8.228 30.4237 7.728 30.1037 7.08C29.7837 6.424 29.6237 5.652 29.6237 4.764C29.6237 3.884 29.7837 3.12 30.1037 2.472C30.4237 1.816 30.8837 1.316 31.4837 0.972C32.0837 0.619999 32.7877 0.443999 33.5957 0.443999C34.1237 0.443999 34.6237 0.527999 35.0957 0.696C35.5677 0.855999 35.9797 1.092 36.3317 1.404C36.4837 1.524 36.5597 1.684 36.5597 1.884C36.5597 2.028 36.5197 2.152 36.4397 2.256C36.3597 2.352 36.2637 2.4 36.1517 2.4C36.0157 2.4 35.8837 2.348 35.7557 2.244C35.3717 1.956 35.0197 1.756 34.6997 1.644C34.3877 1.524 34.0317 1.464 33.6317 1.464C32.7517 1.464 32.0757 1.748 31.6037 2.316C31.1317 2.884 30.8957 3.7 30.8957 4.764C30.8957 5.836 31.1317 6.656 31.6037 7.224C32.0757 7.792 32.7517 8.076 33.6317 8.076C34.0157 8.076 34.3637 8.016 34.6757 7.896C34.9957 7.776 35.3557 7.576 35.7557 7.296C35.9157 7.192 36.0477 7.14 36.1517 7.14C36.2637 7.14 36.3597 7.192 36.4397 7.296C36.5197 7.392 36.5597 7.512 36.5597 7.656C36.5597 7.856 36.4837 8.016 36.3317 8.136C35.9797 8.448 35.5677 8.688 35.0957 8.856C34.6237 9.016 34.1237 9.096 33.5957 9.096ZM41.0568 3C42.4488 3 43.1448 3.788 43.1448 5.364V8.484C43.1448 8.66 43.0888 8.8 42.9768 8.904C42.8648 9.008 42.7168 9.06 42.5328 9.06C42.3488 9.06 42.2008 9.008 42.0888 8.904C41.9848 8.8 41.9328 8.66 41.9328 8.484V5.376C41.9328 4.896 41.8328 4.544 41.6328 4.32C41.4408 4.096 41.1368 3.984 40.7208 3.984C40.2328 3.984 39.8408 4.136 39.5448 4.44C39.2488 4.744 39.1008 5.152 39.1008 5.664V8.484C39.1008 8.66 39.0448 8.8 38.9328 8.904C38.8288 9.008 38.6848 9.06 38.5008 9.06C38.3168 9.06 38.1688 9.008 38.0568 8.904C37.9448 8.8 37.8888 8.66 37.8888 8.484V1.056C37.8888 0.88 37.9448 0.74 38.0568 0.636C38.1768 0.532 38.3288 0.48 38.5128 0.48C38.6888 0.48 38.8288 0.532 38.9328 0.636C39.0448 0.731999 39.1008 0.863999 39.1008 1.032V4.032C39.3008 3.696 39.5688 3.44 39.9048 3.264C40.2408 3.088 40.6248 3 41.0568 3ZM47.2629 3C48.0389 3 48.6149 3.196 48.9909 3.588C49.3749 3.98 49.5669 4.576 49.5669 5.376V8.484C49.5669 8.668 49.5149 8.812 49.4109 8.916C49.3069 9.012 49.1629 9.06 48.9789 9.06C48.8029 9.06 48.6629 9.008 48.5589 8.904C48.4549 8.8 48.4029 8.66 48.4029 8.484V8.04C48.2509 8.376 48.0229 8.636 47.7189 8.82C47.4229 8.996 47.0749 9.084 46.6749 9.084C46.2909 9.084 45.9389 9.008 45.6189 8.856C45.3069 8.696 45.0589 8.48 44.8749 8.208C44.6909 7.936 44.5989 7.628 44.5989 7.284C44.5909 6.852 44.6989 6.516 44.9229 6.276C45.1469 6.028 45.5109 5.852 46.0149 5.748C46.5189 5.636 47.2189 5.58 48.1149 5.58H48.3909V5.232C48.3909 4.784 48.2989 4.46 48.1149 4.26C47.9309 4.06 47.6349 3.96 47.2269 3.96C46.9469 3.96 46.6829 3.996 46.4349 4.068C46.1869 4.14 45.9149 4.244 45.6189 4.38C45.4029 4.5 45.2509 4.56 45.1629 4.56C45.0429 4.56 44.9429 4.516 44.8629 4.428C44.7909 4.34 44.7549 4.228 44.7549 4.092C44.7549 3.972 44.7869 3.868 44.8509 3.78C44.9229 3.684 45.0349 3.592 45.1869 3.504C45.4669 3.352 45.7949 3.232 46.1709 3.144C46.5469 3.048 46.9109 3 47.2629 3ZM46.8909 8.184C47.3309 8.184 47.6909 8.036 47.9709 7.74C48.2509 7.436 48.3909 7.048 48.3909 6.576V6.264H48.1749C47.5509 6.264 47.0709 6.292 46.7349 6.348C46.3989 6.404 46.1589 6.5 46.0149 6.636C45.8709 6.764 45.7989 6.952 45.7989 7.2C45.7989 7.488 45.9029 7.724 46.1109 7.908C46.3189 8.092 46.5789 8.184 46.8909 8.184ZM54.0928 8.136C54.2688 8.152 54.3928 8.2 54.4648 8.28C54.5448 8.352 54.5848 8.456 54.5848 8.592C54.5848 8.752 54.5208 8.876 54.3928 8.964C54.2728 9.044 54.0928 9.076 53.8528 9.06L53.5288 9.036C52.8808 8.988 52.3968 8.792 52.0768 8.448C51.7568 8.096 51.5968 7.58 51.5968 6.9V4.08H50.8768C50.5248 4.08 50.3488 3.924 50.3488 3.612C50.3488 3.468 50.3928 3.356 50.4808 3.276C50.5768 3.188 50.7088 3.144 50.8768 3.144H51.5968V1.908C51.5968 1.724 51.6488 1.58 51.7528 1.476C51.8648 1.372 52.0128 1.32 52.1968 1.32C52.3808 1.32 52.5288 1.372 52.6408 1.476C52.7528 1.58 52.8088 1.724 52.8088 1.908V3.144H53.9968C54.1648 3.144 54.2928 3.188 54.3808 3.276C54.4768 3.356 54.5248 3.468 54.5248 3.612C54.5248 3.764 54.4768 3.88 54.3808 3.96C54.2928 4.04 54.1648 4.08 53.9968 4.08H52.8088V6.984C52.8088 7.36 52.8848 7.636 53.0368 7.812C53.1968 7.988 53.4368 8.088 53.7568 8.112L54.0928 8.136Z" fill="#A100FF"/>
</svg>
