<svg width="45" height="12" viewBox="0 0 45 12" fill="none" xmlns="http://www.w3.org/2000/svg">
<path d="M1.55161 9.06C1.37561 9.06 1.22761 9.012 1.10761 8.916C0.995609 8.82 0.939609 8.676 0.939609 8.484V3.612C0.939609 3.42 0.995609 3.276 1.10761 3.18C1.22761 3.076 1.37561 3.024 1.55161 3.024C1.72761 3.024 1.87161 3.076 1.98361 3.18C2.09561 3.276 2.15161 3.42 2.15161 3.612V8.484C2.15161 8.676 2.09561 8.82 1.98361 8.916C1.87161 9.012 1.72761 9.06 1.55161 9.06ZM1.55161 1.848C1.31961 1.848 1.13561 1.784 0.999609 1.656C0.863609 1.528 0.795609 1.36 0.795609 1.152C0.795609 0.944 0.863609 0.78 0.999609 0.659999C1.13561 0.532 1.31961 0.468 1.55161 0.468C1.77561 0.468 1.95561 0.532 2.09161 0.659999C2.23561 0.78 2.30761 0.944 2.30761 1.152C2.30761 1.36 2.23961 1.528 2.10361 1.656C1.96761 1.784 1.78361 1.848 1.55161 1.848ZM7.00186 3C8.40186 3 9.10186 3.788 9.10186 5.364V8.484C9.10186 8.668 9.04586 8.812 8.93386 8.916C8.82986 9.012 8.68186 9.06 8.48986 9.06C8.30586 9.06 8.15786 9.008 8.04586 8.904C7.94186 8.8 7.88986 8.66 7.88986 8.484V5.424C7.88986 4.928 7.78986 4.564 7.58986 4.332C7.39786 4.1 7.09386 3.984 6.67786 3.984C6.18986 3.984 5.79786 4.136 5.50186 4.44C5.20586 4.744 5.05786 5.152 5.05786 5.664V8.484C5.05786 8.66 5.00186 8.8 4.88986 8.904C4.78586 9.008 4.64186 9.06 4.45786 9.06C4.27386 9.06 4.12586 9.008 4.01386 8.904C3.90186 8.8 3.84586 8.66 3.84586 8.484V3.6C3.84586 3.432 3.90186 3.296 4.01386 3.192C4.13386 3.08 4.28186 3.024 4.45786 3.024C4.63386 3.024 4.77386 3.076 4.87786 3.18C4.98186 3.284 5.03386 3.42 5.03386 3.588V4.08C5.22586 3.728 5.49386 3.46 5.83786 3.276C6.18186 3.092 6.56986 3 7.00186 3ZM13.6279 8.136C13.8039 8.152 13.9279 8.2 13.9999 8.28C14.0799 8.352 14.1199 8.456 14.1199 8.592C14.1199 8.752 14.0559 8.876 13.9279 8.964C13.8079 9.044 13.6279 9.076 13.3879 9.06L13.0639 9.036C12.4159 8.988 11.9319 8.792 11.6119 8.448C11.2919 8.096 11.1319 7.58 11.1319 6.9V4.08H10.4119C10.0599 4.08 9.88392 3.924 9.88392 3.612C9.88392 3.468 9.92792 3.356 10.0159 3.276C10.1119 3.188 10.2439 3.144 10.4119 3.144H11.1319V1.908C11.1319 1.724 11.1839 1.58 11.2879 1.476C11.3999 1.372 11.5479 1.32 11.7319 1.32C11.9159 1.32 12.0639 1.372 12.1759 1.476C12.2879 1.58 12.3439 1.724 12.3439 1.908V3.144H13.5319C13.6999 3.144 13.8279 3.188 13.9159 3.276C14.0119 3.356 14.0599 3.468 14.0599 3.612C14.0599 3.764 14.0119 3.88 13.9159 3.96C13.8279 4.04 13.6999 4.08 13.5319 4.08H12.3439V6.984C12.3439 7.36 12.4199 7.636 12.5719 7.812C12.7319 7.988 12.9719 8.088 13.2919 8.112L13.6279 8.136ZM19.5744 7.524C19.6864 7.524 19.7784 7.568 19.8504 7.656C19.9224 7.744 19.9584 7.856 19.9584 7.992C19.9584 8.224 19.8144 8.42 19.5264 8.58C19.2464 8.74 18.9384 8.864 18.6024 8.952C18.2744 9.04 17.9584 9.084 17.6544 9.084C16.7264 9.084 15.9944 8.816 15.4584 8.28C14.9224 7.736 14.6544 6.996 14.6544 6.06C14.6544 5.46 14.7704 4.928 15.0024 4.464C15.2424 4 15.5744 3.64 15.9984 3.384C16.4304 3.128 16.9184 3 17.4624 3C18.2464 3 18.8664 3.252 19.3224 3.756C19.7784 4.26 20.0064 4.94 20.0064 5.796C20.0064 6.116 19.8624 6.276 19.5744 6.276H15.8664C15.9464 7.516 16.5424 8.136 17.6544 8.136C17.9504 8.136 18.2064 8.096 18.4224 8.016C18.6384 7.936 18.8664 7.832 19.1064 7.704C19.1304 7.688 19.1944 7.656 19.2984 7.608C19.4104 7.552 19.5024 7.524 19.5744 7.524ZM17.4864 3.888C17.0224 3.888 16.6504 4.036 16.3704 4.332C16.0904 4.628 15.9224 5.044 15.8664 5.58H18.9624C18.9384 5.036 18.7984 4.62 18.5424 4.332C18.2944 4.036 17.9424 3.888 17.4864 3.888ZM21.954 9.06C21.778 9.06 21.63 9.012 21.51 8.916C21.398 8.82 21.342 8.676 21.342 8.484V1.068C21.342 0.875999 21.398 0.731999 21.51 0.636C21.63 0.532 21.778 0.48 21.954 0.48C22.13 0.48 22.274 0.532 22.386 0.636C22.498 0.731999 22.554 0.875999 22.554 1.068V8.484C22.554 8.676 22.498 8.82 22.386 8.916C22.274 9.012 22.13 9.06 21.954 9.06ZM28.4122 3.384C28.4602 3.264 28.5282 3.176 28.6162 3.12C28.7122 3.064 28.8122 3.036 28.9162 3.036C29.0682 3.036 29.2002 3.088 29.3122 3.192C29.4322 3.296 29.4922 3.42 29.4922 3.564C29.4922 3.644 29.4762 3.72 29.4442 3.792L26.1082 10.872C26.0602 10.984 25.9882 11.068 25.8922 11.124C25.8042 11.188 25.7082 11.22 25.6042 11.22C25.4602 11.22 25.3282 11.172 25.2082 11.076C25.0962 10.98 25.0402 10.86 25.0402 10.716C25.0402 10.652 25.0602 10.572 25.1002 10.476L25.9282 8.712L23.6122 3.792C23.5802 3.728 23.5642 3.656 23.5642 3.576C23.5642 3.424 23.6282 3.296 23.7562 3.192C23.8842 3.088 24.0282 3.036 24.1882 3.036C24.4282 3.036 24.6002 3.148 24.7042 3.372L26.5642 7.5L28.4122 3.384Z" fill="#3A70D4"/>
<path d="M31.2386 9C31.0466 9 30.8946 8.948 30.7826 8.844C30.6786 8.732 30.6266 8.584 30.6266 8.4V1.14C30.6266 0.956 30.6786 0.812 30.7826 0.707999C30.8946 0.595999 31.0466 0.539999 31.2386 0.539999H33.5906C34.9586 0.539999 36.0186 0.908 36.7706 1.644C37.5226 2.38 37.8986 3.42 37.8986 4.764C37.8986 6.108 37.5226 7.152 36.7706 7.896C36.0186 8.632 34.9586 9 33.5906 9H31.2386ZM33.5186 7.968C35.5986 7.968 36.6386 6.9 36.6386 4.764C36.6386 2.636 35.5986 1.572 33.5186 1.572H31.8626V7.968H33.5186ZM44.3677 8.088C44.4877 8.208 44.5477 8.348 44.5477 8.508C44.5477 8.66 44.4917 8.792 44.3797 8.904C44.2757 9.008 44.1477 9.06 43.9957 9.06C43.8437 9.06 43.7037 8.992 43.5757 8.856L41.7397 6.792L39.9157 8.856C39.7877 8.992 39.6477 9.06 39.4957 9.06C39.3437 9.06 39.2117 9.004 39.0997 8.892C38.9957 8.78 38.9437 8.648 38.9437 8.496C38.9437 8.344 38.9997 8.208 39.1117 8.088L41.0077 6L39.2077 3.996C39.0877 3.86 39.0277 3.724 39.0277 3.588C39.0277 3.436 39.0837 3.308 39.1957 3.204C39.3077 3.092 39.4357 3.036 39.5797 3.036C39.7317 3.036 39.8717 3.104 39.9997 3.24L41.7397 5.208L43.4797 3.24C43.6077 3.104 43.7517 3.036 43.9117 3.036C44.0557 3.036 44.1837 3.092 44.2957 3.204C44.4077 3.308 44.4637 3.436 44.4637 3.588C44.4637 3.74 44.4037 3.876 44.2837 3.996L42.4837 6L44.3677 8.088Z" fill="#A100FF"/>
</svg>
