<svg width="63" height="12" viewBox="0 0 63 12" fill="none" xmlns="http://www.w3.org/2000/svg">
<path d="M1.452 9.06C1.276 9.06 1.128 9.012 1.008 8.916C0.896 8.82 0.84 8.676 0.84 8.484V3.612C0.84 3.42 0.896 3.276 1.008 3.18C1.128 3.076 1.276 3.024 1.452 3.024C1.628 3.024 1.772 3.076 1.884 3.18C1.996 3.276 2.052 3.42 2.052 3.612V8.484C2.052 8.676 1.996 8.82 1.884 8.916C1.772 9.012 1.628 9.06 1.452 9.06ZM1.452 1.848C1.22 1.848 1.036 1.784 0.9 1.656C0.764 1.528 0.696 1.36 0.696 1.152C0.696 0.944 0.764 0.78 0.9 0.659999C1.036 0.532 1.22 0.468 1.452 0.468C1.676 0.468 1.856 0.532 1.992 0.659999C2.136 0.78 2.208 0.944 2.208 1.152C2.208 1.36 2.14 1.528 2.004 1.656C1.868 1.784 1.684 1.848 1.452 1.848ZM6.90225 3C8.30225 3 9.00225 3.788 9.00225 5.364V8.484C9.00225 8.668 8.94625 8.812 8.83425 8.916C8.73025 9.012 8.58225 9.06 8.39025 9.06C8.20625 9.06 8.05825 9.008 7.94625 8.904C7.84225 8.8 7.79025 8.66 7.79025 8.484V5.424C7.79025 4.928 7.69025 4.564 7.49025 4.332C7.29825 4.1 6.99425 3.984 6.57825 3.984C6.09025 3.984 5.69825 4.136 5.40225 4.44C5.10625 4.744 4.95825 5.152 4.95825 5.664V8.484C4.95825 8.66 4.90225 8.8 4.79025 8.904C4.68625 9.008 4.54225 9.06 4.35825 9.06C4.17425 9.06 4.02625 9.008 3.91425 8.904C3.80225 8.8 3.74625 8.66 3.74625 8.484V3.6C3.74625 3.432 3.80225 3.296 3.91425 3.192C4.03425 3.08 4.18225 3.024 4.35825 3.024C4.53425 3.024 4.67425 3.076 4.77825 3.18C4.88225 3.284 4.93425 3.42 4.93425 3.588V4.08C5.12625 3.728 5.39425 3.46 5.73825 3.276C6.08225 3.092 6.47025 3 6.90225 3ZM13.5283 8.136C13.7043 8.152 13.8283 8.2 13.9003 8.28C13.9803 8.352 14.0203 8.456 14.0203 8.592C14.0203 8.752 13.9563 8.876 13.8283 8.964C13.7083 9.044 13.5283 9.076 13.2883 9.06L12.9643 9.036C12.3163 8.988 11.8323 8.792 11.5123 8.448C11.1923 8.096 11.0323 7.58 11.0323 6.9V4.08H10.3123C9.96031 4.08 9.78431 3.924 9.78431 3.612C9.78431 3.468 9.82831 3.356 9.91631 3.276C10.0123 3.188 10.1443 3.144 10.3123 3.144H11.0323V1.908C11.0323 1.724 11.0843 1.58 11.1883 1.476C11.3003 1.372 11.4483 1.32 11.6323 1.32C11.8163 1.32 11.9643 1.372 12.0763 1.476C12.1883 1.58 12.2443 1.724 12.2443 1.908V3.144H13.4323C13.6003 3.144 13.7283 3.188 13.8163 3.276C13.9123 3.356 13.9603 3.468 13.9603 3.612C13.9603 3.764 13.9123 3.88 13.8163 3.96C13.7283 4.04 13.6003 4.08 13.4323 4.08H12.2443V6.984C12.2443 7.36 12.3203 7.636 12.4723 7.812C12.6323 7.988 12.8723 8.088 13.1923 8.112L13.5283 8.136ZM19.4748 7.524C19.5868 7.524 19.6788 7.568 19.7508 7.656C19.8228 7.744 19.8588 7.856 19.8588 7.992C19.8588 8.224 19.7148 8.42 19.4268 8.58C19.1468 8.74 18.8388 8.864 18.5028 8.952C18.1748 9.04 17.8588 9.084 17.5548 9.084C16.6268 9.084 15.8948 8.816 15.3588 8.28C14.8228 7.736 14.5548 6.996 14.5548 6.06C14.5548 5.46 14.6708 4.928 14.9028 4.464C15.1428 4 15.4748 3.64 15.8988 3.384C16.3308 3.128 16.8188 3 17.3628 3C18.1468 3 18.7668 3.252 19.2228 3.756C19.6788 4.26 19.9068 4.94 19.9068 5.796C19.9068 6.116 19.7628 6.276 19.4748 6.276H15.7668C15.8468 7.516 16.4428 8.136 17.5548 8.136C17.8508 8.136 18.1068 8.096 18.3228 8.016C18.5388 7.936 18.7668 7.832 19.0068 7.704C19.0308 7.688 19.0948 7.656 19.1988 7.608C19.3108 7.552 19.4028 7.524 19.4748 7.524ZM17.3868 3.888C16.9228 3.888 16.5508 4.036 16.2708 4.332C15.9908 4.628 15.8228 5.044 15.7668 5.58H18.8628C18.8388 5.036 18.6988 4.62 18.4428 4.332C18.1948 4.036 17.8428 3.888 17.3868 3.888ZM21.8543 9.06C21.6783 9.06 21.5303 9.012 21.4103 8.916C21.2983 8.82 21.2423 8.676 21.2423 8.484V1.068C21.2423 0.875999 21.2983 0.731999 21.4103 0.636C21.5303 0.532 21.6783 0.48 21.8543 0.48C22.0303 0.48 22.1743 0.532 22.2863 0.636C22.3983 0.731999 22.4543 0.875999 22.4543 1.068V8.484C22.4543 8.676 22.3983 8.82 22.2863 8.916C22.1743 9.012 22.0303 9.06 21.8543 9.06ZM28.3126 3.384C28.3606 3.264 28.4286 3.176 28.5166 3.12C28.6126 3.064 28.7126 3.036 28.8166 3.036C28.9686 3.036 29.1006 3.088 29.2126 3.192C29.3326 3.296 29.3926 3.42 29.3926 3.564C29.3926 3.644 29.3766 3.72 29.3446 3.792L26.0086 10.872C25.9606 10.984 25.8886 11.068 25.7926 11.124C25.7046 11.188 25.6086 11.22 25.5046 11.22C25.3606 11.22 25.2286 11.172 25.1086 11.076C24.9966 10.98 24.9406 10.86 24.9406 10.716C24.9406 10.652 24.9606 10.572 25.0006 10.476L25.8286 8.712L23.5126 3.792C23.4806 3.728 23.4646 3.656 23.4646 3.576C23.4646 3.424 23.5286 3.296 23.6566 3.192C23.7846 3.088 23.9286 3.036 24.0886 3.036C24.3286 3.036 24.5006 3.148 24.6046 3.372L26.4646 7.5L28.3126 3.384Z" fill="#3A70D4"/>
<path d="M38.039 0.48C38.215 0.48 38.359 0.539999 38.471 0.659999C38.583 0.771999 38.639 0.919999 38.639 1.104V8.472C38.639 8.656 38.587 8.8 38.483 8.904C38.387 9.008 38.251 9.06 38.075 9.06C37.907 9.06 37.775 9.008 37.679 8.904C37.583 8.8 37.535 8.656 37.535 8.472V2.892L35.183 7.368C35.031 7.648 34.835 7.788 34.595 7.788C34.355 7.788 34.159 7.648 34.007 7.368L31.643 2.94V8.472C31.643 8.656 31.595 8.8 31.499 8.904C31.403 9.008 31.267 9.06 31.091 9.06C30.923 9.06 30.787 9.008 30.683 8.904C30.587 8.792 30.539 8.648 30.539 8.472V1.104C30.539 0.919999 30.595 0.771999 30.707 0.659999C30.819 0.539999 30.963 0.48 31.139 0.48C31.387 0.48 31.587 0.624 31.739 0.912L34.607 6.396L37.451 0.912C37.603 0.624 37.799 0.48 38.039 0.48ZM42.9328 3C43.7088 3 44.2848 3.196 44.6608 3.588C45.0448 3.98 45.2368 4.576 45.2368 5.376V8.484C45.2368 8.668 45.1848 8.812 45.0808 8.916C44.9768 9.012 44.8328 9.06 44.6488 9.06C44.4728 9.06 44.3328 9.008 44.2288 8.904C44.1248 8.8 44.0728 8.66 44.0728 8.484V8.04C43.9208 8.376 43.6928 8.636 43.3888 8.82C43.0928 8.996 42.7448 9.084 42.3448 9.084C41.9608 9.084 41.6088 9.008 41.2888 8.856C40.9768 8.696 40.7288 8.48 40.5448 8.208C40.3608 7.936 40.2688 7.628 40.2688 7.284C40.2608 6.852 40.3688 6.516 40.5928 6.276C40.8168 6.028 41.1808 5.852 41.6848 5.748C42.1888 5.636 42.8888 5.58 43.7848 5.58H44.0608V5.232C44.0608 4.784 43.9688 4.46 43.7848 4.26C43.6008 4.06 43.3048 3.96 42.8968 3.96C42.6168 3.96 42.3528 3.996 42.1048 4.068C41.8568 4.14 41.5848 4.244 41.2888 4.38C41.0728 4.5 40.9208 4.56 40.8328 4.56C40.7128 4.56 40.6128 4.516 40.5328 4.428C40.4608 4.34 40.4248 4.228 40.4248 4.092C40.4248 3.972 40.4568 3.868 40.5208 3.78C40.5928 3.684 40.7048 3.592 40.8568 3.504C41.1368 3.352 41.4648 3.232 41.8408 3.144C42.2168 3.048 42.5808 3 42.9328 3ZM42.5608 8.184C43.0008 8.184 43.3608 8.036 43.6408 7.74C43.9208 7.436 44.0608 7.048 44.0608 6.576V6.264H43.8448C43.2208 6.264 42.7408 6.292 42.4048 6.348C42.0688 6.404 41.8288 6.5 41.6848 6.636C41.5408 6.764 41.4688 6.952 41.4688 7.2C41.4688 7.488 41.5728 7.724 41.7808 7.908C41.9888 8.092 42.2488 8.184 42.5608 8.184ZM49.7627 8.136C49.9387 8.152 50.0627 8.2 50.1347 8.28C50.2147 8.352 50.2547 8.456 50.2547 8.592C50.2547 8.752 50.1907 8.876 50.0627 8.964C49.9427 9.044 49.7627 9.076 49.5227 9.06L49.1987 9.036C48.5507 8.988 48.0667 8.792 47.7467 8.448C47.4267 8.096 47.2667 7.58 47.2667 6.9V4.08H46.5467C46.1947 4.08 46.0187 3.924 46.0187 3.612C46.0187 3.468 46.0627 3.356 46.1507 3.276C46.2467 3.188 46.3787 3.144 46.5467 3.144H47.2667V1.908C47.2667 1.724 47.3187 1.58 47.4227 1.476C47.5347 1.372 47.6827 1.32 47.8667 1.32C48.0507 1.32 48.1987 1.372 48.3107 1.476C48.4227 1.58 48.4787 1.724 48.4787 1.908V3.144H49.6667C49.8347 3.144 49.9627 3.188 50.0507 3.276C50.1467 3.356 50.1947 3.468 50.1947 3.612C50.1947 3.764 50.1467 3.88 50.0507 3.96C49.9627 4.04 49.8347 4.08 49.6667 4.08H48.4787V6.984C48.4787 7.36 48.5547 7.636 48.7067 7.812C48.8667 7.988 49.1067 8.088 49.4267 8.112L49.7627 8.136ZM53.6332 9.084C53.0652 9.084 52.5652 8.96 52.1332 8.712C51.7092 8.464 51.3772 8.112 51.1372 7.656C50.9052 7.2 50.7892 6.672 50.7892 6.072C50.7892 5.464 50.9092 4.928 51.1492 4.464C51.3972 4 51.7412 3.64 52.1812 3.384C52.6212 3.128 53.1252 3 53.6932 3C53.9972 3 54.3012 3.044 54.6052 3.132C54.9172 3.22 55.1932 3.34 55.4332 3.492C55.6892 3.668 55.8172 3.872 55.8172 4.104C55.8172 4.24 55.7812 4.356 55.7092 4.452C55.6372 4.54 55.5452 4.584 55.4332 4.584C55.3612 4.584 55.2892 4.568 55.2172 4.536C55.1452 4.496 55.0532 4.44 54.9412 4.368C54.7412 4.24 54.5532 4.144 54.3772 4.08C54.2092 4.008 54.0052 3.972 53.7652 3.972C53.2212 3.972 52.7972 4.156 52.4932 4.524C52.1972 4.892 52.0492 5.404 52.0492 6.06C52.0492 6.716 52.1972 7.224 52.4932 7.584C52.7892 7.936 53.2092 8.112 53.7532 8.112C53.9932 8.112 54.2052 8.076 54.3892 8.004C54.5732 7.932 54.7612 7.836 54.9532 7.716C55.0412 7.66 55.1292 7.612 55.2172 7.572C55.3052 7.532 55.3852 7.512 55.4572 7.512C55.5692 7.512 55.6612 7.56 55.7332 7.656C55.8052 7.744 55.8412 7.856 55.8412 7.992C55.8412 8.104 55.8092 8.208 55.7452 8.304C55.6892 8.392 55.5892 8.484 55.4452 8.58C55.2052 8.74 54.9252 8.864 54.6052 8.952C54.2852 9.04 53.9612 9.084 53.6332 9.084ZM60.0939 3C61.4859 3 62.1819 3.788 62.1819 5.364V8.484C62.1819 8.66 62.1259 8.8 62.0139 8.904C61.9019 9.008 61.7539 9.06 61.5699 9.06C61.3859 9.06 61.2379 9.008 61.1259 8.904C61.0219 8.8 60.9699 8.66 60.9699 8.484V5.376C60.9699 4.896 60.8699 4.544 60.6699 4.32C60.4779 4.096 60.1739 3.984 59.7579 3.984C59.2699 3.984 58.8779 4.136 58.5819 4.44C58.2859 4.744 58.1379 5.152 58.1379 5.664V8.484C58.1379 8.66 58.0819 8.8 57.9699 8.904C57.8659 9.008 57.7219 9.06 57.5379 9.06C57.3539 9.06 57.2059 9.008 57.0939 8.904C56.9819 8.8 56.9259 8.66 56.9259 8.484V1.056C56.9259 0.88 56.9819 0.74 57.0939 0.636C57.2139 0.532 57.3659 0.48 57.5499 0.48C57.7259 0.48 57.8659 0.532 57.9699 0.636C58.0819 0.731999 58.1379 0.863999 58.1379 1.032V4.032C58.3379 3.696 58.6059 3.44 58.9419 3.264C59.2779 3.088 59.6619 3 60.0939 3Z" fill="#A100FF"/>
</svg>
