<svg width="49" height="12" viewBox="0 0 49 12" fill="none" xmlns="http://www.w3.org/2000/svg">
<path d="M1.7352 9.06C1.5592 9.06 1.4112 9.012 1.2912 8.916C1.1792 8.82 1.1232 8.676 1.1232 8.484V3.612C1.1232 3.42 1.1792 3.276 1.2912 3.18C1.4112 3.076 1.5592 3.024 1.7352 3.024C1.9112 3.024 2.0552 3.076 2.1672 3.18C2.2792 3.276 2.3352 3.42 2.3352 3.612V8.484C2.3352 8.676 2.2792 8.82 2.1672 8.916C2.0552 9.012 1.9112 9.06 1.7352 9.06ZM1.7352 1.848C1.5032 1.848 1.3192 1.784 1.1832 1.656C1.0472 1.528 0.979203 1.36 0.979203 1.152C0.979203 0.944 1.0472 0.78 1.1832 0.659999C1.3192 0.532 1.5032 0.468 1.7352 0.468C1.9592 0.468 2.1392 0.532 2.2752 0.659999C2.4192 0.78 2.4912 0.944 2.4912 1.152C2.4912 1.36 2.4232 1.528 2.2872 1.656C2.1512 1.784 1.9672 1.848 1.7352 1.848ZM7.18545 3C8.58545 3 9.28545 3.788 9.28545 5.364V8.484C9.28545 8.668 9.22945 8.812 9.11745 8.916C9.01345 9.012 8.86545 9.06 8.67345 9.06C8.48945 9.06 8.34145 9.008 8.22945 8.904C8.12545 8.8 8.07345 8.66 8.07345 8.484V5.424C8.07345 4.928 7.97345 4.564 7.77345 4.332C7.58145 4.1 7.27745 3.984 6.86145 3.984C6.37345 3.984 5.98145 4.136 5.68545 4.44C5.38945 4.744 5.24145 5.152 5.24145 5.664V8.484C5.24145 8.66 5.18545 8.8 5.07345 8.904C4.96945 9.008 4.82545 9.06 4.64145 9.06C4.45745 9.06 4.30945 9.008 4.19745 8.904C4.08545 8.8 4.02945 8.66 4.02945 8.484V3.6C4.02945 3.432 4.08545 3.296 4.19745 3.192C4.31745 3.08 4.46545 3.024 4.64145 3.024C4.81745 3.024 4.95745 3.076 5.06145 3.18C5.16545 3.284 5.21745 3.42 5.21745 3.588V4.08C5.40945 3.728 5.67745 3.46 6.02145 3.276C6.36545 3.092 6.75345 3 7.18545 3ZM13.8115 8.136C13.9875 8.152 14.1115 8.2 14.1835 8.28C14.2635 8.352 14.3035 8.456 14.3035 8.592C14.3035 8.752 14.2395 8.876 14.1115 8.964C13.9915 9.044 13.8115 9.076 13.5715 9.06L13.2475 9.036C12.5995 8.988 12.1155 8.792 11.7955 8.448C11.4755 8.096 11.3155 7.58 11.3155 6.9V4.08H10.5955C10.2435 4.08 10.0675 3.924 10.0675 3.612C10.0675 3.468 10.1115 3.356 10.1995 3.276C10.2955 3.188 10.4275 3.144 10.5955 3.144H11.3155V1.908C11.3155 1.724 11.3675 1.58 11.4715 1.476C11.5835 1.372 11.7315 1.32 11.9155 1.32C12.0995 1.32 12.2475 1.372 12.3595 1.476C12.4715 1.58 12.5275 1.724 12.5275 1.908V3.144H13.7155C13.8835 3.144 14.0115 3.188 14.0995 3.276C14.1955 3.356 14.2435 3.468 14.2435 3.612C14.2435 3.764 14.1955 3.88 14.0995 3.96C14.0115 4.04 13.8835 4.08 13.7155 4.08H12.5275V6.984C12.5275 7.36 12.6035 7.636 12.7555 7.812C12.9155 7.988 13.1555 8.088 13.4755 8.112L13.8115 8.136ZM19.758 7.524C19.87 7.524 19.962 7.568 20.034 7.656C20.106 7.744 20.142 7.856 20.142 7.992C20.142 8.224 19.998 8.42 19.71 8.58C19.43 8.74 19.122 8.864 18.786 8.952C18.458 9.04 18.142 9.084 17.838 9.084C16.91 9.084 16.178 8.816 15.642 8.28C15.106 7.736 14.838 6.996 14.838 6.06C14.838 5.46 14.954 4.928 15.186 4.464C15.426 4 15.758 3.64 16.182 3.384C16.614 3.128 17.102 3 17.646 3C18.43 3 19.05 3.252 19.506 3.756C19.962 4.26 20.19 4.94 20.19 5.796C20.19 6.116 20.046 6.276 19.758 6.276H16.05C16.13 7.516 16.726 8.136 17.838 8.136C18.134 8.136 18.39 8.096 18.606 8.016C18.822 7.936 19.05 7.832 19.29 7.704C19.314 7.688 19.378 7.656 19.482 7.608C19.594 7.552 19.686 7.524 19.758 7.524ZM17.67 3.888C17.206 3.888 16.834 4.036 16.554 4.332C16.274 4.628 16.106 5.044 16.05 5.58H19.146C19.122 5.036 18.982 4.62 18.726 4.332C18.478 4.036 18.126 3.888 17.67 3.888ZM22.1375 9.06C21.9615 9.06 21.8135 9.012 21.6935 8.916C21.5815 8.82 21.5255 8.676 21.5255 8.484V1.068C21.5255 0.875999 21.5815 0.731999 21.6935 0.636C21.8135 0.532 21.9615 0.48 22.1375 0.48C22.3135 0.48 22.4575 0.532 22.5695 0.636C22.6815 0.731999 22.7375 0.875999 22.7375 1.068V8.484C22.7375 8.676 22.6815 8.82 22.5695 8.916C22.4575 9.012 22.3135 9.06 22.1375 9.06ZM28.5958 3.384C28.6438 3.264 28.7118 3.176 28.7998 3.12C28.8958 3.064 28.9958 3.036 29.0998 3.036C29.2518 3.036 29.3838 3.088 29.4958 3.192C29.6158 3.296 29.6758 3.42 29.6758 3.564C29.6758 3.644 29.6598 3.72 29.6278 3.792L26.2918 10.872C26.2438 10.984 26.1718 11.068 26.0758 11.124C25.9878 11.188 25.8918 11.22 25.7878 11.22C25.6438 11.22 25.5118 11.172 25.3918 11.076C25.2798 10.98 25.2238 10.86 25.2238 10.716C25.2238 10.652 25.2438 10.572 25.2838 10.476L26.1118 8.712L23.7958 3.792C23.7638 3.728 23.7478 3.656 23.7478 3.576C23.7478 3.424 23.8118 3.296 23.9398 3.192C24.0678 3.088 24.2118 3.036 24.3718 3.036C24.6118 3.036 24.7838 3.148 24.8878 3.372L26.7478 7.5L28.5958 3.384Z" fill="#3A70D4"/>
<path d="M38.2742 8.28C38.3142 8.376 38.3342 8.456 38.3342 8.52C38.3342 8.672 38.2702 8.8 38.1422 8.904C38.0222 9.008 37.8862 9.06 37.7342 9.06C37.6302 9.06 37.5302 9.032 37.4342 8.976C37.3462 8.912 37.2782 8.824 37.2302 8.712L36.4382 6.912H32.0462L31.2542 8.712C31.2062 8.824 31.1342 8.912 31.0382 8.976C30.9422 9.032 30.8422 9.06 30.7382 9.06C30.5782 9.06 30.4342 9.008 30.3062 8.904C30.1862 8.8 30.1262 8.672 30.1262 8.52C30.1262 8.456 30.1462 8.376 30.1862 8.28L33.5702 0.875999C33.6262 0.748 33.7142 0.648 33.8342 0.576C33.9622 0.504 34.0942 0.468 34.2302 0.468C34.3662 0.468 34.4942 0.504 34.6142 0.576C34.7422 0.648 34.8342 0.748 34.8902 0.875999L38.2742 8.28ZM32.4902 5.928H36.0062L34.2422 1.956L32.4902 5.928ZM42.5507 3.024C42.9347 3 43.1267 3.164 43.1267 3.516C43.1267 3.692 43.0827 3.824 42.9947 3.912C42.9067 4 42.7547 4.052 42.5387 4.068L42.1787 4.104C41.6747 4.152 41.2987 4.328 41.0507 4.632C40.8107 4.936 40.6907 5.304 40.6907 5.736V8.484C40.6907 8.676 40.6347 8.82 40.5227 8.916C40.4107 9.012 40.2667 9.06 40.0907 9.06C39.9147 9.06 39.7667 9.012 39.6467 8.916C39.5347 8.82 39.4787 8.676 39.4787 8.484V3.6C39.4787 3.416 39.5347 3.276 39.6467 3.18C39.7667 3.076 39.9147 3.024 40.0907 3.024C40.2507 3.024 40.3827 3.076 40.4867 3.18C40.5987 3.276 40.6547 3.412 40.6547 3.588V4.164C40.8147 3.812 41.0467 3.544 41.3507 3.36C41.6547 3.176 41.9987 3.068 42.3827 3.036L42.5507 3.024ZM46.264 9.084C45.696 9.084 45.196 8.96 44.764 8.712C44.34 8.464 44.008 8.112 43.768 7.656C43.536 7.2 43.42 6.672 43.42 6.072C43.42 5.464 43.54 4.928 43.78 4.464C44.028 4 44.372 3.64 44.812 3.384C45.252 3.128 45.756 3 46.324 3C46.628 3 46.932 3.044 47.236 3.132C47.548 3.22 47.824 3.34 48.064 3.492C48.32 3.668 48.448 3.872 48.448 4.104C48.448 4.24 48.412 4.356 48.34 4.452C48.268 4.54 48.176 4.584 48.064 4.584C47.992 4.584 47.92 4.568 47.848 4.536C47.776 4.496 47.684 4.44 47.572 4.368C47.372 4.24 47.184 4.144 47.008 4.08C46.84 4.008 46.636 3.972 46.396 3.972C45.852 3.972 45.428 4.156 45.124 4.524C44.828 4.892 44.68 5.404 44.68 6.06C44.68 6.716 44.828 7.224 45.124 7.584C45.42 7.936 45.84 8.112 46.384 8.112C46.624 8.112 46.836 8.076 47.02 8.004C47.204 7.932 47.392 7.836 47.584 7.716C47.672 7.66 47.76 7.612 47.848 7.572C47.936 7.532 48.016 7.512 48.088 7.512C48.2 7.512 48.292 7.56 48.364 7.656C48.436 7.744 48.472 7.856 48.472 7.992C48.472 8.104 48.44 8.208 48.376 8.304C48.32 8.392 48.22 8.484 48.076 8.58C47.836 8.74 47.556 8.864 47.236 8.952C46.916 9.04 46.592 9.084 46.264 9.084Z" fill="#A100FF"/>
</svg>
