<svg width="50" height="12" viewBox="0 0 50 12" fill="none" xmlns="http://www.w3.org/2000/svg">
<path d="M1.50864 9.06C1.33264 9.06 1.18464 9.012 1.06464 8.916C0.952641 8.82 0.896641 8.676 0.896641 8.484V3.612C0.896641 3.42 0.952641 3.276 1.06464 3.18C1.18464 3.076 1.33264 3.024 1.50864 3.024C1.68464 3.024 1.82864 3.076 1.94064 3.18C2.05264 3.276 2.10864 3.42 2.10864 3.612V8.484C2.10864 8.676 2.05264 8.82 1.94064 8.916C1.82864 9.012 1.68464 9.06 1.50864 9.06ZM1.50864 1.848C1.27664 1.848 1.09264 1.784 0.956641 1.656C0.820641 1.528 0.752641 1.36 0.752641 1.152C0.752641 0.944 0.820641 0.78 0.956641 0.659999C1.09264 0.532 1.27664 0.468 1.50864 0.468C1.73264 0.468 1.91264 0.532 2.04864 0.659999C2.19264 0.78 2.26464 0.944 2.26464 1.152C2.26464 1.36 2.19664 1.528 2.06064 1.656C1.92464 1.784 1.74064 1.848 1.50864 1.848ZM6.95889 3C8.35889 3 9.05889 3.788 9.05889 5.364V8.484C9.05889 8.668 9.00289 8.812 8.89089 8.916C8.78689 9.012 8.63889 9.06 8.44689 9.06C8.26289 9.06 8.11489 9.008 8.00289 8.904C7.89889 8.8 7.84689 8.66 7.84689 8.484V5.424C7.84689 4.928 7.74689 4.564 7.54689 4.332C7.35489 4.1 7.05089 3.984 6.63489 3.984C6.14689 3.984 5.75489 4.136 5.45889 4.44C5.16289 4.744 5.01489 5.152 5.01489 5.664V8.484C5.01489 8.66 4.95889 8.8 4.84689 8.904C4.74289 9.008 4.59889 9.06 4.41489 9.06C4.23089 9.06 4.08289 9.008 3.97089 8.904C3.85889 8.8 3.80289 8.66 3.80289 8.484V3.6C3.80289 3.432 3.85889 3.296 3.97089 3.192C4.09089 3.08 4.23889 3.024 4.41489 3.024C4.59089 3.024 4.73089 3.076 4.83489 3.18C4.93889 3.284 4.99089 3.42 4.99089 3.588V4.08C5.18289 3.728 5.45089 3.46 5.79489 3.276C6.13889 3.092 6.52689 3 6.95889 3ZM13.585 8.136C13.761 8.152 13.885 8.2 13.957 8.28C14.037 8.352 14.077 8.456 14.077 8.592C14.077 8.752 14.013 8.876 13.885 8.964C13.765 9.044 13.585 9.076 13.345 9.06L13.021 9.036C12.373 8.988 11.889 8.792 11.569 8.448C11.249 8.096 11.089 7.58 11.089 6.9V4.08H10.369C10.017 4.08 9.84095 3.924 9.84095 3.612C9.84095 3.468 9.88495 3.356 9.97295 3.276C10.069 3.188 10.201 3.144 10.369 3.144H11.089V1.908C11.089 1.724 11.141 1.58 11.245 1.476C11.357 1.372 11.505 1.32 11.689 1.32C11.873 1.32 12.021 1.372 12.133 1.476C12.245 1.58 12.301 1.724 12.301 1.908V3.144H13.489C13.657 3.144 13.785 3.188 13.873 3.276C13.969 3.356 14.017 3.468 14.017 3.612C14.017 3.764 13.969 3.88 13.873 3.96C13.785 4.04 13.657 4.08 13.489 4.08H12.301V6.984C12.301 7.36 12.377 7.636 12.529 7.812C12.689 7.988 12.929 8.088 13.249 8.112L13.585 8.136ZM19.5314 7.524C19.6434 7.524 19.7354 7.568 19.8074 7.656C19.8794 7.744 19.9154 7.856 19.9154 7.992C19.9154 8.224 19.7714 8.42 19.4834 8.58C19.2034 8.74 18.8954 8.864 18.5594 8.952C18.2314 9.04 17.9154 9.084 17.6114 9.084C16.6834 9.084 15.9514 8.816 15.4154 8.28C14.8794 7.736 14.6114 6.996 14.6114 6.06C14.6114 5.46 14.7274 4.928 14.9594 4.464C15.1994 4 15.5314 3.64 15.9554 3.384C16.3874 3.128 16.8754 3 17.4194 3C18.2034 3 18.8234 3.252 19.2794 3.756C19.7354 4.26 19.9634 4.94 19.9634 5.796C19.9634 6.116 19.8194 6.276 19.5314 6.276H15.8234C15.9034 7.516 16.4994 8.136 17.6114 8.136C17.9074 8.136 18.1634 8.096 18.3794 8.016C18.5954 7.936 18.8234 7.832 19.0634 7.704C19.0874 7.688 19.1514 7.656 19.2554 7.608C19.3674 7.552 19.4594 7.524 19.5314 7.524ZM17.4434 3.888C16.9794 3.888 16.6074 4.036 16.3274 4.332C16.0474 4.628 15.8794 5.044 15.8234 5.58H18.9194C18.8954 5.036 18.7554 4.62 18.4994 4.332C18.2514 4.036 17.8994 3.888 17.4434 3.888ZM21.911 9.06C21.735 9.06 21.587 9.012 21.467 8.916C21.355 8.82 21.299 8.676 21.299 8.484V1.068C21.299 0.875999 21.355 0.731999 21.467 0.636C21.587 0.532 21.735 0.48 21.911 0.48C22.087 0.48 22.231 0.532 22.343 0.636C22.455 0.731999 22.511 0.875999 22.511 1.068V8.484C22.511 8.676 22.455 8.82 22.343 8.916C22.231 9.012 22.087 9.06 21.911 9.06ZM28.3692 3.384C28.4172 3.264 28.4852 3.176 28.5732 3.12C28.6692 3.064 28.7692 3.036 28.8732 3.036C29.0252 3.036 29.1572 3.088 29.2692 3.192C29.3892 3.296 29.4492 3.42 29.4492 3.564C29.4492 3.644 29.4332 3.72 29.4012 3.792L26.0652 10.872C26.0172 10.984 25.9452 11.068 25.8492 11.124C25.7612 11.188 25.6652 11.22 25.5612 11.22C25.4172 11.22 25.2852 11.172 25.1652 11.076C25.0532 10.98 24.9972 10.86 24.9972 10.716C24.9972 10.652 25.0172 10.572 25.0572 10.476L25.8852 8.712L23.5692 3.792C23.5372 3.728 23.5212 3.656 23.5212 3.576C23.5212 3.424 23.5852 3.296 23.7132 3.192C23.8412 3.088 23.9852 3.036 24.1452 3.036C24.3852 3.036 24.5572 3.148 24.6612 3.372L26.5212 7.5L28.3692 3.384Z" fill="#3A70D4"/>
<path d="M31.1956 9.06C31.0116 9.06 30.8636 9.004 30.7516 8.892C30.6396 8.78 30.5836 8.628 30.5836 8.436V1.14C30.5836 0.956 30.6356 0.812 30.7396 0.707999C30.8516 0.595999 31.0036 0.539999 31.1956 0.539999H34.0876C34.9836 0.539999 35.6796 0.76 36.1756 1.2C36.6716 1.64 36.9196 2.264 36.9196 3.072C36.9196 3.872 36.6716 4.496 36.1756 4.944C35.6796 5.392 34.9836 5.616 34.0876 5.616H31.8196V8.436C31.8196 8.628 31.7636 8.78 31.6516 8.892C31.5476 9.004 31.3956 9.06 31.1956 9.06ZM33.9556 4.62C35.1396 4.62 35.7316 4.104 35.7316 3.072C35.7316 2.048 35.1396 1.536 33.9556 1.536H31.8196V4.62H33.9556ZM40.5871 3C41.3631 3 41.9391 3.196 42.3151 3.588C42.6991 3.98 42.8911 4.576 42.8911 5.376V8.484C42.8911 8.668 42.8391 8.812 42.7351 8.916C42.6311 9.012 42.4871 9.06 42.3031 9.06C42.1271 9.06 41.9871 9.008 41.8831 8.904C41.7791 8.8 41.7271 8.66 41.7271 8.484V8.04C41.5751 8.376 41.3471 8.636 41.0431 8.82C40.7471 8.996 40.3991 9.084 39.9991 9.084C39.6151 9.084 39.2631 9.008 38.9431 8.856C38.6311 8.696 38.3831 8.48 38.1991 8.208C38.0151 7.936 37.9231 7.628 37.9231 7.284C37.9151 6.852 38.0231 6.516 38.2471 6.276C38.4711 6.028 38.8351 5.852 39.3391 5.748C39.8431 5.636 40.5431 5.58 41.4391 5.58H41.7151V5.232C41.7151 4.784 41.6231 4.46 41.4391 4.26C41.2551 4.06 40.9591 3.96 40.5511 3.96C40.2711 3.96 40.0071 3.996 39.7591 4.068C39.5111 4.14 39.2391 4.244 38.9431 4.38C38.7271 4.5 38.5751 4.56 38.4871 4.56C38.3671 4.56 38.2671 4.516 38.1871 4.428C38.1151 4.34 38.0791 4.228 38.0791 4.092C38.0791 3.972 38.1111 3.868 38.1751 3.78C38.2471 3.684 38.3591 3.592 38.5111 3.504C38.7911 3.352 39.1191 3.232 39.4951 3.144C39.8711 3.048 40.2351 3 40.5871 3ZM40.2151 8.184C40.6551 8.184 41.0151 8.036 41.2951 7.74C41.5751 7.436 41.7151 7.048 41.7151 6.576V6.264H41.4991C40.8751 6.264 40.3951 6.292 40.0591 6.348C39.7231 6.404 39.4831 6.5 39.3391 6.636C39.1951 6.764 39.1231 6.952 39.1231 7.2C39.1231 7.488 39.2271 7.724 39.4351 7.908C39.6431 8.092 39.9031 8.184 40.2151 8.184ZM48.713 3.384C48.761 3.264 48.829 3.176 48.917 3.12C49.013 3.064 49.113 3.036 49.217 3.036C49.369 3.036 49.501 3.088 49.613 3.192C49.733 3.296 49.793 3.42 49.793 3.564C49.793 3.644 49.777 3.72 49.745 3.792L46.409 10.872C46.361 10.984 46.289 11.068 46.193 11.124C46.105 11.188 46.009 11.22 45.905 11.22C45.761 11.22 45.629 11.172 45.509 11.076C45.397 10.98 45.341 10.86 45.341 10.716C45.341 10.652 45.361 10.572 45.401 10.476L46.229 8.712L43.913 3.792C43.881 3.728 43.865 3.656 43.865 3.576C43.865 3.424 43.929 3.296 44.057 3.192C44.185 3.088 44.329 3.036 44.489 3.036C44.729 3.036 44.901 3.148 45.005 3.372L46.865 7.5L48.713 3.384Z" fill="#A100FF"/>
</svg>
