<svg width="62" height="12" viewBox="0 0 62 12" fill="none" xmlns="http://www.w3.org/2000/svg">
<path d="M0.840672 9.06C0.664672 9.06 0.516672 9.012 0.396672 8.916C0.284672 8.82 0.228672 8.676 0.228672 8.484V3.612C0.228672 3.42 0.284672 3.276 0.396672 3.18C0.516672 3.076 0.664672 3.024 0.840672 3.024C1.01667 3.024 1.16067 3.076 1.27267 3.18C1.38467 3.276 1.44067 3.42 1.44067 3.612V8.484C1.44067 8.676 1.38467 8.82 1.27267 8.916C1.16067 9.012 1.01667 9.06 0.840672 9.06ZM0.840672 1.848C0.608672 1.848 0.424672 1.784 0.288672 1.656C0.152672 1.528 0.0846719 1.36 0.0846719 1.152C0.0846719 0.944 0.152672 0.78 0.288672 0.659999C0.424672 0.532 0.608672 0.468 0.840672 0.468C1.06467 0.468 1.24467 0.532 1.38067 0.659999C1.52467 0.78 1.59667 0.944 1.59667 1.152C1.59667 1.36 1.52867 1.528 1.39267 1.656C1.25667 1.784 1.07267 1.848 0.840672 1.848ZM6.29092 3C7.69092 3 8.39092 3.788 8.39092 5.364V8.484C8.39092 8.668 8.33492 8.812 8.22292 8.916C8.11892 9.012 7.97092 9.06 7.77892 9.06C7.59492 9.06 7.44692 9.008 7.33492 8.904C7.23092 8.8 7.17892 8.66 7.17892 8.484V5.424C7.17892 4.928 7.07892 4.564 6.87892 4.332C6.68692 4.1 6.38292 3.984 5.96692 3.984C5.47892 3.984 5.08692 4.136 4.79092 4.44C4.49492 4.744 4.34692 5.152 4.34692 5.664V8.484C4.34692 8.66 4.29092 8.8 4.17892 8.904C4.07492 9.008 3.93092 9.06 3.74692 9.06C3.56292 9.06 3.41492 9.008 3.30292 8.904C3.19092 8.8 3.13492 8.66 3.13492 8.484V3.6C3.13492 3.432 3.19092 3.296 3.30292 3.192C3.42292 3.08 3.57092 3.024 3.74692 3.024C3.92292 3.024 4.06292 3.076 4.16692 3.18C4.27092 3.284 4.32292 3.42 4.32292 3.588V4.08C4.51492 3.728 4.78292 3.46 5.12692 3.276C5.47092 3.092 5.85892 3 6.29092 3ZM12.917 8.136C13.093 8.152 13.217 8.2 13.289 8.28C13.369 8.352 13.409 8.456 13.409 8.592C13.409 8.752 13.345 8.876 13.217 8.964C13.097 9.044 12.917 9.076 12.677 9.06L12.353 9.036C11.705 8.988 11.221 8.792 10.901 8.448C10.581 8.096 10.421 7.58 10.421 6.9V4.08H9.70098C9.34898 4.08 9.17298 3.924 9.17298 3.612C9.17298 3.468 9.21698 3.356 9.30498 3.276C9.40098 3.188 9.53298 3.144 9.70098 3.144H10.421V1.908C10.421 1.724 10.473 1.58 10.577 1.476C10.689 1.372 10.837 1.32 11.021 1.32C11.205 1.32 11.353 1.372 11.465 1.476C11.577 1.58 11.633 1.724 11.633 1.908V3.144H12.821C12.989 3.144 13.117 3.188 13.205 3.276C13.301 3.356 13.349 3.468 13.349 3.612C13.349 3.764 13.301 3.88 13.205 3.96C13.117 4.04 12.989 4.08 12.821 4.08H11.633V6.984C11.633 7.36 11.709 7.636 11.861 7.812C12.021 7.988 12.261 8.088 12.581 8.112L12.917 8.136ZM18.8635 7.524C18.9755 7.524 19.0675 7.568 19.1395 7.656C19.2115 7.744 19.2475 7.856 19.2475 7.992C19.2475 8.224 19.1035 8.42 18.8155 8.58C18.5355 8.74 18.2275 8.864 17.8915 8.952C17.5635 9.04 17.2475 9.084 16.9435 9.084C16.0155 9.084 15.2835 8.816 14.7475 8.28C14.2115 7.736 13.9435 6.996 13.9435 6.06C13.9435 5.46 14.0595 4.928 14.2915 4.464C14.5315 4 14.8635 3.64 15.2875 3.384C15.7195 3.128 16.2075 3 16.7515 3C17.5355 3 18.1555 3.252 18.6115 3.756C19.0675 4.26 19.2955 4.94 19.2955 5.796C19.2955 6.116 19.1515 6.276 18.8635 6.276H15.1555C15.2355 7.516 15.8315 8.136 16.9435 8.136C17.2395 8.136 17.4955 8.096 17.7115 8.016C17.9275 7.936 18.1555 7.832 18.3955 7.704C18.4195 7.688 18.4835 7.656 18.5875 7.608C18.6995 7.552 18.7915 7.524 18.8635 7.524ZM16.7755 3.888C16.3115 3.888 15.9395 4.036 15.6595 4.332C15.3795 4.628 15.2115 5.044 15.1555 5.58H18.2515C18.2275 5.036 18.0875 4.62 17.8315 4.332C17.5835 4.036 17.2315 3.888 16.7755 3.888ZM21.243 9.06C21.067 9.06 20.919 9.012 20.799 8.916C20.687 8.82 20.631 8.676 20.631 8.484V1.068C20.631 0.875999 20.687 0.731999 20.799 0.636C20.919 0.532 21.067 0.48 21.243 0.48C21.419 0.48 21.563 0.532 21.675 0.636C21.787 0.731999 21.843 0.875999 21.843 1.068V8.484C21.843 8.676 21.787 8.82 21.675 8.916C21.563 9.012 21.419 9.06 21.243 9.06ZM27.7013 3.384C27.7493 3.264 27.8173 3.176 27.9053 3.12C28.0013 3.064 28.1013 3.036 28.2053 3.036C28.3573 3.036 28.4893 3.088 28.6013 3.192C28.7213 3.296 28.7813 3.42 28.7813 3.564C28.7813 3.644 28.7653 3.72 28.7333 3.792L25.3973 10.872C25.3493 10.984 25.2773 11.068 25.1813 11.124C25.0933 11.188 24.9973 11.22 24.8933 11.22C24.7493 11.22 24.6173 11.172 24.4973 11.076C24.3853 10.98 24.3293 10.86 24.3293 10.716C24.3293 10.652 24.3493 10.572 24.3893 10.476L25.2173 8.712L22.9013 3.792C22.8693 3.728 22.8533 3.656 22.8533 3.576C22.8533 3.424 22.9173 3.296 23.0453 3.192C23.1733 3.088 23.3173 3.036 23.4773 3.036C23.7173 3.036 23.8893 3.148 23.9933 3.372L25.8533 7.5L27.7013 3.384Z" fill="#3A70D4"/>
<path d="M32.7116 9.096C32.1036 9.096 31.5236 9.012 30.9716 8.844C30.4276 8.676 29.9916 8.444 29.6636 8.148C29.5116 8.02 29.4356 7.856 29.4356 7.656C29.4356 7.512 29.4756 7.392 29.5556 7.296C29.6356 7.192 29.7316 7.14 29.8436 7.14C29.9556 7.14 30.0916 7.192 30.2516 7.296C30.9636 7.824 31.7756 8.088 32.6876 8.088C33.3276 8.088 33.8196 7.968 34.1636 7.728C34.5076 7.488 34.6796 7.144 34.6796 6.696C34.6796 6.344 34.5196 6.08 34.1996 5.904C33.8796 5.728 33.3676 5.56 32.6636 5.4C31.9916 5.256 31.4396 5.092 31.0076 4.908C30.5756 4.724 30.2356 4.476 29.9876 4.164C29.7476 3.844 29.6276 3.44 29.6276 2.952C29.6276 2.464 29.7596 2.032 30.0236 1.656C30.2956 1.272 30.6716 0.976 31.1516 0.767999C31.6316 0.551999 32.1796 0.443999 32.7956 0.443999C33.3636 0.443999 33.8876 0.523999 34.3676 0.684C34.8476 0.844 35.2556 1.08 35.5916 1.392C35.7516 1.528 35.8316 1.692 35.8316 1.884C35.8316 2.02 35.7876 2.14 35.6996 2.244C35.6196 2.348 35.5236 2.4 35.4116 2.4C35.3076 2.4 35.1756 2.348 35.0156 2.244C34.6476 1.964 34.2996 1.764 33.9716 1.644C33.6516 1.516 33.2636 1.452 32.8076 1.452C32.1916 1.452 31.7116 1.58 31.3676 1.836C31.0236 2.084 30.8516 2.432 30.8516 2.88C30.8516 3.264 31.0036 3.556 31.3076 3.756C31.6116 3.948 32.0996 4.124 32.7716 4.284C33.4756 4.444 34.0436 4.612 34.4756 4.788C34.9156 4.956 35.2636 5.192 35.5196 5.496C35.7836 5.792 35.9156 6.176 35.9156 6.648C35.9156 7.128 35.7796 7.556 35.5076 7.932C35.2436 8.3 34.8676 8.588 34.3796 8.796C33.8996 8.996 33.3436 9.096 32.7116 9.096ZM39.8031 9.084C39.2351 9.084 38.7351 8.96 38.3031 8.712C37.8791 8.464 37.5471 8.112 37.3071 7.656C37.0751 7.2 36.9591 6.672 36.9591 6.072C36.9591 5.464 37.0791 4.928 37.3191 4.464C37.5671 4 37.9111 3.64 38.3511 3.384C38.7911 3.128 39.2951 3 39.8631 3C40.1671 3 40.4711 3.044 40.7751 3.132C41.0871 3.22 41.3631 3.34 41.6031 3.492C41.8591 3.668 41.9871 3.872 41.9871 4.104C41.9871 4.24 41.9511 4.356 41.8791 4.452C41.8071 4.54 41.7151 4.584 41.6031 4.584C41.5311 4.584 41.4591 4.568 41.3871 4.536C41.3151 4.496 41.2231 4.44 41.1111 4.368C40.9111 4.24 40.7231 4.144 40.5471 4.08C40.3791 4.008 40.1751 3.972 39.9351 3.972C39.3911 3.972 38.9671 4.156 38.6631 4.524C38.3671 4.892 38.2191 5.404 38.2191 6.06C38.2191 6.716 38.3671 7.224 38.6631 7.584C38.9591 7.936 39.3791 8.112 39.9231 8.112C40.1631 8.112 40.3751 8.076 40.5591 8.004C40.7431 7.932 40.9311 7.836 41.1231 7.716C41.2111 7.66 41.2991 7.612 41.3871 7.572C41.4751 7.532 41.5551 7.512 41.6271 7.512C41.7391 7.512 41.8311 7.56 41.9031 7.656C41.9751 7.744 42.0111 7.856 42.0111 7.992C42.0111 8.104 41.9791 8.208 41.9151 8.304C41.8591 8.392 41.7591 8.484 41.6151 8.58C41.3751 8.74 41.0951 8.864 40.7751 8.952C40.4551 9.04 40.1311 9.084 39.8031 9.084ZM46.2639 3C47.6559 3 48.3519 3.788 48.3519 5.364V8.484C48.3519 8.66 48.2959 8.8 48.1839 8.904C48.0719 9.008 47.9239 9.06 47.7399 9.06C47.5559 9.06 47.4079 9.008 47.2959 8.904C47.1919 8.8 47.1399 8.66 47.1399 8.484V5.376C47.1399 4.896 47.0399 4.544 46.8399 4.32C46.6479 4.096 46.3439 3.984 45.9279 3.984C45.4399 3.984 45.0479 4.136 44.7519 4.44C44.4559 4.744 44.3079 5.152 44.3079 5.664V8.484C44.3079 8.66 44.2519 8.8 44.1399 8.904C44.0359 9.008 43.8919 9.06 43.7079 9.06C43.5239 9.06 43.3759 9.008 43.2639 8.904C43.1519 8.8 43.0959 8.66 43.0959 8.484V1.056C43.0959 0.88 43.1519 0.74 43.2639 0.636C43.3839 0.532 43.5359 0.48 43.7199 0.48C43.8959 0.48 44.0359 0.532 44.1399 0.636C44.2519 0.731999 44.3079 0.863999 44.3079 1.032V4.032C44.5079 3.696 44.7759 3.44 45.1119 3.264C45.4479 3.088 45.8319 3 46.2639 3ZM54.5939 7.524C54.7059 7.524 54.7979 7.568 54.8699 7.656C54.9419 7.744 54.9779 7.856 54.9779 7.992C54.9779 8.224 54.8339 8.42 54.5459 8.58C54.2659 8.74 53.9579 8.864 53.6219 8.952C53.2939 9.04 52.9779 9.084 52.6739 9.084C51.7459 9.084 51.0139 8.816 50.4779 8.28C49.9419 7.736 49.6739 6.996 49.6739 6.06C49.6739 5.46 49.7899 4.928 50.0219 4.464C50.2619 4 50.5939 3.64 51.0179 3.384C51.4499 3.128 51.9379 3 52.4819 3C53.2659 3 53.8859 3.252 54.3419 3.756C54.7979 4.26 55.0259 4.94 55.0259 5.796C55.0259 6.116 54.8819 6.276 54.5939 6.276H50.8859C50.9659 7.516 51.5619 8.136 52.6739 8.136C52.9699 8.136 53.2259 8.096 53.4419 8.016C53.6579 7.936 53.8859 7.832 54.1259 7.704C54.1499 7.688 54.2139 7.656 54.3179 7.608C54.4299 7.552 54.5219 7.524 54.5939 7.524ZM52.5059 3.888C52.0419 3.888 51.6699 4.036 51.3899 4.332C51.1099 4.628 50.9419 5.044 50.8859 5.58H53.9819C53.9579 5.036 53.8179 4.62 53.5619 4.332C53.3139 4.036 52.9619 3.888 52.5059 3.888ZM61.1495 0.48C61.3335 0.48 61.4815 0.532 61.5935 0.636C61.7055 0.74 61.7615 0.88 61.7615 1.056V8.472C61.7615 8.656 61.7055 8.8 61.5935 8.904C61.4895 9.008 61.3455 9.06 61.1615 9.06C60.9775 9.06 60.8295 9.008 60.7175 8.904C60.6135 8.8 60.5615 8.656 60.5615 8.472V7.992C60.3855 8.344 60.1295 8.616 59.7935 8.808C59.4575 8.992 59.0695 9.084 58.6295 9.084C58.1255 9.084 57.6735 8.956 57.2735 8.7C56.8815 8.444 56.5735 8.084 56.3495 7.62C56.1335 7.156 56.0255 6.624 56.0255 6.024C56.0255 5.416 56.1335 4.884 56.3495 4.428C56.5735 3.972 56.8815 3.62 57.2735 3.372C57.6655 3.124 58.1175 3 58.6295 3C59.0695 3 59.4535 3.096 59.7815 3.288C60.1175 3.472 60.3735 3.736 60.5495 4.08V1.032C60.5495 0.863999 60.6015 0.731999 60.7055 0.636C60.8175 0.532 60.9655 0.48 61.1495 0.48ZM58.9175 8.124C59.4375 8.124 59.8415 7.944 60.1295 7.584C60.4175 7.224 60.5615 6.712 60.5615 6.048C60.5615 5.384 60.4175 4.872 60.1295 4.512C59.8495 4.152 59.4455 3.972 58.9175 3.972C58.3895 3.972 57.9775 4.152 57.6815 4.512C57.3935 4.864 57.2495 5.368 57.2495 6.024C57.2495 6.68 57.3975 7.196 57.6935 7.572C57.9895 7.94 58.3975 8.124 58.9175 8.124Z" fill="#A100FF"/>
</svg>
