<svg width="40" height="12" viewBox="0 0 40 12" fill="none" xmlns="http://www.w3.org/2000/svg">
<path d="M1.62388 9.06C1.44788 9.06 1.29988 9.012 1.17988 8.916C1.06788 8.82 1.01188 8.676 1.01188 8.484V3.612C1.01188 3.42 1.06788 3.276 1.17988 3.18C1.29988 3.076 1.44788 3.024 1.62388 3.024C1.79988 3.024 1.94388 3.076 2.05588 3.18C2.16788 3.276 2.22388 3.42 2.22388 3.612V8.484C2.22388 8.676 2.16788 8.82 2.05588 8.916C1.94388 9.012 1.79988 9.06 1.62388 9.06ZM1.62388 1.848C1.39188 1.848 1.20788 1.784 1.07188 1.656C0.935875 1.528 0.867875 1.36 0.867875 1.152C0.867875 0.944 0.935875 0.78 1.07188 0.659999C1.20788 0.532 1.39188 0.468 1.62388 0.468C1.84788 0.468 2.02788 0.532 2.16388 0.659999C2.30788 0.78 2.37988 0.944 2.37988 1.152C2.37988 1.36 2.31188 1.528 2.17588 1.656C2.03988 1.784 1.85588 1.848 1.62388 1.848ZM7.07413 3C8.47413 3 9.17413 3.788 9.17413 5.364V8.484C9.17413 8.668 9.11813 8.812 9.00613 8.916C8.90213 9.012 8.75413 9.06 8.56213 9.06C8.37813 9.06 8.23013 9.008 8.11813 8.904C8.01413 8.8 7.96213 8.66 7.96213 8.484V5.424C7.96213 4.928 7.86213 4.564 7.66213 4.332C7.47013 4.1 7.16613 3.984 6.75013 3.984C6.26213 3.984 5.87013 4.136 5.57413 4.44C5.27813 4.744 5.13013 5.152 5.13013 5.664V8.484C5.13013 8.66 5.07413 8.8 4.96213 8.904C4.85813 9.008 4.71413 9.06 4.53013 9.06C4.34613 9.06 4.19813 9.008 4.08613 8.904C3.97413 8.8 3.91813 8.66 3.91813 8.484V3.6C3.91813 3.432 3.97413 3.296 4.08613 3.192C4.20613 3.08 4.35413 3.024 4.53013 3.024C4.70613 3.024 4.84613 3.076 4.95013 3.18C5.05413 3.284 5.10613 3.42 5.10613 3.588V4.08C5.29813 3.728 5.56613 3.46 5.91013 3.276C6.25413 3.092 6.64213 3 7.07413 3ZM13.7002 8.136C13.8762 8.152 14.0002 8.2 14.0722 8.28C14.1522 8.352 14.1922 8.456 14.1922 8.592C14.1922 8.752 14.1282 8.876 14.0002 8.964C13.8802 9.044 13.7002 9.076 13.4602 9.06L13.1362 9.036C12.4882 8.988 12.0042 8.792 11.6842 8.448C11.3642 8.096 11.2042 7.58 11.2042 6.9V4.08H10.4842C10.1322 4.08 9.95619 3.924 9.95619 3.612C9.95619 3.468 10.0002 3.356 10.0882 3.276C10.1842 3.188 10.3162 3.144 10.4842 3.144H11.2042V1.908C11.2042 1.724 11.2562 1.58 11.3602 1.476C11.4722 1.372 11.6202 1.32 11.8042 1.32C11.9882 1.32 12.1362 1.372 12.2482 1.476C12.3602 1.58 12.4162 1.724 12.4162 1.908V3.144H13.6042C13.7722 3.144 13.9002 3.188 13.9882 3.276C14.0842 3.356 14.1322 3.468 14.1322 3.612C14.1322 3.764 14.0842 3.88 13.9882 3.96C13.9002 4.04 13.7722 4.08 13.6042 4.08H12.4162V6.984C12.4162 7.36 12.4922 7.636 12.6442 7.812C12.8042 7.988 13.0442 8.088 13.3642 8.112L13.7002 8.136ZM19.6467 7.524C19.7587 7.524 19.8507 7.568 19.9227 7.656C19.9947 7.744 20.0307 7.856 20.0307 7.992C20.0307 8.224 19.8867 8.42 19.5987 8.58C19.3187 8.74 19.0107 8.864 18.6747 8.952C18.3467 9.04 18.0307 9.084 17.7267 9.084C16.7987 9.084 16.0667 8.816 15.5307 8.28C14.9947 7.736 14.7267 6.996 14.7267 6.06C14.7267 5.46 14.8427 4.928 15.0747 4.464C15.3147 4 15.6467 3.64 16.0707 3.384C16.5027 3.128 16.9907 3 17.5347 3C18.3187 3 18.9387 3.252 19.3947 3.756C19.8507 4.26 20.0787 4.94 20.0787 5.796C20.0787 6.116 19.9347 6.276 19.6467 6.276H15.9387C16.0187 7.516 16.6147 8.136 17.7267 8.136C18.0227 8.136 18.2787 8.096 18.4947 8.016C18.7107 7.936 18.9387 7.832 19.1787 7.704C19.2027 7.688 19.2667 7.656 19.3707 7.608C19.4827 7.552 19.5747 7.524 19.6467 7.524ZM17.5587 3.888C17.0947 3.888 16.7227 4.036 16.4427 4.332C16.1627 4.628 15.9947 5.044 15.9387 5.58H19.0347C19.0107 5.036 18.8707 4.62 18.6147 4.332C18.3667 4.036 18.0147 3.888 17.5587 3.888ZM22.0262 9.06C21.8502 9.06 21.7022 9.012 21.5822 8.916C21.4702 8.82 21.4142 8.676 21.4142 8.484V1.068C21.4142 0.875999 21.4702 0.731999 21.5822 0.636C21.7022 0.532 21.8502 0.48 22.0262 0.48C22.2022 0.48 22.3462 0.532 22.4582 0.636C22.5702 0.731999 22.6262 0.875999 22.6262 1.068V8.484C22.6262 8.676 22.5702 8.82 22.4582 8.916C22.3462 9.012 22.2022 9.06 22.0262 9.06ZM28.4845 3.384C28.5325 3.264 28.6005 3.176 28.6885 3.12C28.7845 3.064 28.8845 3.036 28.9885 3.036C29.1405 3.036 29.2725 3.088 29.3845 3.192C29.5045 3.296 29.5645 3.42 29.5645 3.564C29.5645 3.644 29.5485 3.72 29.5165 3.792L26.1805 10.872C26.1325 10.984 26.0605 11.068 25.9645 11.124C25.8765 11.188 25.7805 11.22 25.6765 11.22C25.5325 11.22 25.4005 11.172 25.2805 11.076C25.1685 10.98 25.1125 10.86 25.1125 10.716C25.1125 10.652 25.1325 10.572 25.1725 10.476L26.0005 8.712L23.6845 3.792C23.6525 3.728 23.6365 3.656 23.6365 3.576C23.6365 3.424 23.7005 3.296 23.8285 3.192C23.9565 3.088 24.1005 3.036 24.2605 3.036C24.5005 3.036 24.6725 3.148 24.7765 3.372L26.6365 7.5L28.4845 3.384Z" fill="#3A70D4"/>
<path d="M31.3108 9.06C31.1268 9.06 30.9788 9.004 30.8668 8.892C30.7548 8.772 30.6988 8.62 30.6988 8.436V1.14C30.6988 0.956 30.7508 0.812 30.8548 0.707999C30.9668 0.595999 31.1188 0.539999 31.3108 0.539999H35.6068C35.9908 0.539999 36.1828 0.707999 36.1828 1.044C36.1828 1.38 35.9908 1.548 35.6068 1.548H31.9228V4.2H35.3668C35.7508 4.2 35.9428 4.368 35.9428 4.704C35.9428 5.04 35.7508 5.208 35.3668 5.208H31.9228V8.436C31.9228 8.628 31.8668 8.78 31.7548 8.892C31.6508 9.004 31.5028 9.06 31.3108 9.06ZM38.3739 9.06C38.1979 9.06 38.0499 9.012 37.9299 8.916C37.8179 8.82 37.7619 8.676 37.7619 8.484V3.612C37.7619 3.42 37.8179 3.276 37.9299 3.18C38.0499 3.076 38.1979 3.024 38.3739 3.024C38.5499 3.024 38.6939 3.076 38.8059 3.18C38.9179 3.276 38.9739 3.42 38.9739 3.612V8.484C38.9739 8.676 38.9179 8.82 38.8059 8.916C38.6939 9.012 38.5499 9.06 38.3739 9.06ZM38.3739 1.848C38.1419 1.848 37.9579 1.784 37.8219 1.656C37.6859 1.528 37.6179 1.36 37.6179 1.152C37.6179 0.944 37.6859 0.78 37.8219 0.659999C37.9579 0.532 38.1419 0.468 38.3739 0.468C38.5979 0.468 38.7779 0.532 38.9139 0.659999C39.0579 0.78 39.1299 0.944 39.1299 1.152C39.1299 1.36 39.0619 1.528 38.9259 1.656C38.7899 1.784 38.6059 1.848 38.3739 1.848Z" fill="#A100FF"/>
</svg>
