<svg width="56" height="12" viewBox="0 0 56 12" fill="none" xmlns="http://www.w3.org/2000/svg">
<path d="M1.55552 9.06C1.37952 9.06 1.23152 9.012 1.11152 8.916C0.999516 8.82 0.943516 8.676 0.943516 8.484V3.612C0.943516 3.42 0.999516 3.276 1.11152 3.18C1.23152 3.076 1.37952 3.024 1.55552 3.024C1.73152 3.024 1.87552 3.076 1.98752 3.18C2.09952 3.276 2.15552 3.42 2.15552 3.612V8.484C2.15552 8.676 2.09952 8.82 1.98752 8.916C1.87552 9.012 1.73152 9.06 1.55552 9.06ZM1.55552 1.848C1.32352 1.848 1.13952 1.784 1.00352 1.656C0.867516 1.528 0.799516 1.36 0.799516 1.152C0.799516 0.944 0.867516 0.78 1.00352 0.659999C1.13952 0.532 1.32352 0.468 1.55552 0.468C1.77952 0.468 1.95952 0.532 2.09552 0.659999C2.23952 0.78 2.31152 0.944 2.31152 1.152C2.31152 1.36 2.24352 1.528 2.10752 1.656C1.97152 1.784 1.78752 1.848 1.55552 1.848ZM7.00577 3C8.40577 3 9.10577 3.788 9.10577 5.364V8.484C9.10577 8.668 9.04977 8.812 8.93777 8.916C8.83377 9.012 8.68577 9.06 8.49377 9.06C8.30977 9.06 8.16177 9.008 8.04977 8.904C7.94577 8.8 7.89377 8.66 7.89377 8.484V5.424C7.89377 4.928 7.79377 4.564 7.59377 4.332C7.40177 4.1 7.09777 3.984 6.68177 3.984C6.19377 3.984 5.80177 4.136 5.50577 4.44C5.20977 4.744 5.06177 5.152 5.06177 5.664V8.484C5.06177 8.66 5.00577 8.8 4.89377 8.904C4.78977 9.008 4.64577 9.06 4.46177 9.06C4.27777 9.06 4.12977 9.008 4.01777 8.904C3.90577 8.8 3.84977 8.66 3.84977 8.484V3.6C3.84977 3.432 3.90577 3.296 4.01777 3.192C4.13777 3.08 4.28577 3.024 4.46177 3.024C4.63777 3.024 4.77777 3.076 4.88177 3.18C4.98577 3.284 5.03777 3.42 5.03777 3.588V4.08C5.22977 3.728 5.49777 3.46 5.84177 3.276C6.18577 3.092 6.57377 3 7.00577 3ZM13.6318 8.136C13.8078 8.152 13.9318 8.2 14.0038 8.28C14.0838 8.352 14.1238 8.456 14.1238 8.592C14.1238 8.752 14.0598 8.876 13.9318 8.964C13.8118 9.044 13.6318 9.076 13.3918 9.06L13.0678 9.036C12.4198 8.988 11.9358 8.792 11.6158 8.448C11.2958 8.096 11.1358 7.58 11.1358 6.9V4.08H10.4158C10.0638 4.08 9.88783 3.924 9.88783 3.612C9.88783 3.468 9.93183 3.356 10.0198 3.276C10.1158 3.188 10.2478 3.144 10.4158 3.144H11.1358V1.908C11.1358 1.724 11.1878 1.58 11.2918 1.476C11.4038 1.372 11.5518 1.32 11.7358 1.32C11.9198 1.32 12.0678 1.372 12.1798 1.476C12.2918 1.58 12.3478 1.724 12.3478 1.908V3.144H13.5358C13.7038 3.144 13.8318 3.188 13.9198 3.276C14.0158 3.356 14.0638 3.468 14.0638 3.612C14.0638 3.764 14.0158 3.88 13.9198 3.96C13.8318 4.04 13.7038 4.08 13.5358 4.08H12.3478V6.984C12.3478 7.36 12.4238 7.636 12.5758 7.812C12.7358 7.988 12.9758 8.088 13.2958 8.112L13.6318 8.136ZM19.5783 7.524C19.6903 7.524 19.7823 7.568 19.8543 7.656C19.9263 7.744 19.9623 7.856 19.9623 7.992C19.9623 8.224 19.8183 8.42 19.5303 8.58C19.2503 8.74 18.9423 8.864 18.6063 8.952C18.2783 9.04 17.9623 9.084 17.6583 9.084C16.7303 9.084 15.9983 8.816 15.4623 8.28C14.9263 7.736 14.6583 6.996 14.6583 6.06C14.6583 5.46 14.7743 4.928 15.0063 4.464C15.2463 4 15.5783 3.64 16.0023 3.384C16.4343 3.128 16.9223 3 17.4663 3C18.2503 3 18.8703 3.252 19.3263 3.756C19.7823 4.26 20.0103 4.94 20.0103 5.796C20.0103 6.116 19.8663 6.276 19.5783 6.276H15.8703C15.9503 7.516 16.5463 8.136 17.6583 8.136C17.9543 8.136 18.2103 8.096 18.4263 8.016C18.6423 7.936 18.8703 7.832 19.1103 7.704C19.1343 7.688 19.1983 7.656 19.3023 7.608C19.4143 7.552 19.5063 7.524 19.5783 7.524ZM17.4903 3.888C17.0263 3.888 16.6543 4.036 16.3743 4.332C16.0943 4.628 15.9263 5.044 15.8703 5.58H18.9663C18.9423 5.036 18.8023 4.62 18.5463 4.332C18.2983 4.036 17.9463 3.888 17.4903 3.888ZM21.9579 9.06C21.7819 9.06 21.6339 9.012 21.5139 8.916C21.4019 8.82 21.3459 8.676 21.3459 8.484V1.068C21.3459 0.875999 21.4019 0.731999 21.5139 0.636C21.6339 0.532 21.7819 0.48 21.9579 0.48C22.1339 0.48 22.2779 0.532 22.3899 0.636C22.5019 0.731999 22.5579 0.875999 22.5579 1.068V8.484C22.5579 8.676 22.5019 8.82 22.3899 8.916C22.2779 9.012 22.1339 9.06 21.9579 9.06ZM28.4161 3.384C28.4641 3.264 28.5321 3.176 28.6201 3.12C28.7161 3.064 28.8161 3.036 28.9201 3.036C29.0721 3.036 29.2041 3.088 29.3161 3.192C29.4361 3.296 29.4961 3.42 29.4961 3.564C29.4961 3.644 29.4801 3.72 29.4481 3.792L26.1121 10.872C26.0641 10.984 25.9921 11.068 25.8961 11.124C25.8081 11.188 25.7121 11.22 25.6081 11.22C25.4641 11.22 25.3321 11.172 25.2121 11.076C25.1001 10.98 25.0441 10.86 25.0441 10.716C25.0441 10.652 25.0641 10.572 25.1041 10.476L25.9321 8.712L23.6161 3.792C23.5841 3.728 23.5681 3.656 23.5681 3.576C23.5681 3.424 23.6321 3.296 23.7601 3.192C23.8881 3.088 24.0321 3.036 24.1921 3.036C24.4321 3.036 24.6041 3.148 24.7081 3.372L26.5681 7.5L28.4161 3.384Z" fill="#3A70D4"/>
<path d="M36.9905 0.48C37.1665 0.48 37.3065 0.539999 37.4105 0.659999C37.5225 0.771999 37.5785 0.919999 37.5785 1.104V8.436C37.5785 8.62 37.5225 8.772 37.4105 8.892C37.2985 9.004 37.1545 9.06 36.9785 9.06C36.7705 9.06 36.6105 8.98 36.4985 8.82L31.7945 2.616V8.436C31.7945 8.62 31.7385 8.772 31.6265 8.892C31.5225 9.004 31.3825 9.06 31.2065 9.06C31.0305 9.06 30.8905 9.004 30.7865 8.892C30.6825 8.78 30.6305 8.628 30.6305 8.436V1.104C30.6305 0.919999 30.6865 0.771999 30.7985 0.659999C30.9105 0.539999 31.0545 0.48 31.2305 0.48C31.4385 0.48 31.5985 0.559999 31.7105 0.719999L36.4145 6.936V1.104C36.4145 0.919999 36.4665 0.771999 36.5705 0.659999C36.6745 0.539999 36.8145 0.48 36.9905 0.48ZM41.9485 9.084C41.3725 9.084 40.8645 8.96 40.4245 8.712C39.9925 8.464 39.6565 8.112 39.4165 7.656C39.1845 7.192 39.0685 6.656 39.0685 6.048C39.0685 5.432 39.1845 4.896 39.4165 4.44C39.6565 3.976 39.9925 3.62 40.4245 3.372C40.8645 3.124 41.3725 3 41.9485 3C42.5245 3 43.0285 3.124 43.4605 3.372C43.9005 3.62 44.2365 3.976 44.4685 4.44C44.7085 4.896 44.8285 5.432 44.8285 6.048C44.8285 6.656 44.7085 7.192 44.4685 7.656C44.2365 8.112 43.9005 8.464 43.4605 8.712C43.0285 8.96 42.5245 9.084 41.9485 9.084ZM41.9485 8.124C42.4845 8.124 42.8925 7.948 43.1725 7.596C43.4605 7.244 43.6045 6.728 43.6045 6.048C43.6045 5.376 43.4605 4.864 43.1725 4.512C42.8845 4.152 42.4765 3.972 41.9485 3.972C41.4205 3.972 41.0125 4.152 40.7245 4.512C40.4365 4.864 40.2925 5.376 40.2925 6.048C40.2925 6.728 40.4325 7.244 40.7125 7.596C41.0005 7.948 41.4125 8.124 41.9485 8.124ZM49.0225 8.136C49.1985 8.152 49.3225 8.2 49.3945 8.28C49.4745 8.352 49.5145 8.456 49.5145 8.592C49.5145 8.752 49.4505 8.876 49.3225 8.964C49.2025 9.044 49.0225 9.076 48.7825 9.06L48.4585 9.036C47.8105 8.988 47.3265 8.792 47.0065 8.448C46.6865 8.096 46.5265 7.58 46.5265 6.9V4.08H45.8065C45.4545 4.08 45.2785 3.924 45.2785 3.612C45.2785 3.468 45.3225 3.356 45.4105 3.276C45.5065 3.188 45.6385 3.144 45.8065 3.144H46.5265V1.908C46.5265 1.724 46.5785 1.58 46.6825 1.476C46.7945 1.372 46.9425 1.32 47.1265 1.32C47.3105 1.32 47.4585 1.372 47.5705 1.476C47.6825 1.58 47.7385 1.724 47.7385 1.908V3.144H48.9265C49.0945 3.144 49.2225 3.188 49.3105 3.276C49.4065 3.356 49.4545 3.468 49.4545 3.612C49.4545 3.764 49.4065 3.88 49.3105 3.96C49.2225 4.04 49.0945 4.08 48.9265 4.08H47.7385V6.984C47.7385 7.36 47.8145 7.636 47.9665 7.812C48.1265 7.988 48.3665 8.088 48.6865 8.112L49.0225 8.136ZM54.9689 7.524C55.0809 7.524 55.1729 7.568 55.2449 7.656C55.3169 7.744 55.3529 7.856 55.3529 7.992C55.3529 8.224 55.2089 8.42 54.9209 8.58C54.6409 8.74 54.3329 8.864 53.9969 8.952C53.6689 9.04 53.3529 9.084 53.0489 9.084C52.1209 9.084 51.3889 8.816 50.8529 8.28C50.3169 7.736 50.0489 6.996 50.0489 6.06C50.0489 5.46 50.1649 4.928 50.3969 4.464C50.6369 4 50.9689 3.64 51.3929 3.384C51.8249 3.128 52.3129 3 52.8569 3C53.6409 3 54.2609 3.252 54.7169 3.756C55.1729 4.26 55.4009 4.94 55.4009 5.796C55.4009 6.116 55.2569 6.276 54.9689 6.276H51.2609C51.3409 7.516 51.9369 8.136 53.0489 8.136C53.3449 8.136 53.6009 8.096 53.8169 8.016C54.0329 7.936 54.2609 7.832 54.5009 7.704C54.5249 7.688 54.5889 7.656 54.6929 7.608C54.8049 7.552 54.8969 7.524 54.9689 7.524ZM52.8809 3.888C52.4169 3.888 52.0449 4.036 51.7649 4.332C51.4849 4.628 51.3169 5.044 51.2609 5.58H54.3569C54.3329 5.036 54.1929 4.62 53.9369 4.332C53.6889 4.036 53.3369 3.888 52.8809 3.888Z" fill="#A100FF"/>
</svg>
