<svg width="46" height="47" viewBox="0 0 46 47" fill="none" xmlns="http://www.w3.org/2000/svg">
<path d="M34.9866 0.66243H8.32471V46.1199C8.32471 46.1199 31.9452 46.1199 34.809 46.1199C37.6715 46.1199 37.8516 43.2562 37.8516 43.2562C37.8516 43.2562 37.8516 6.92643 37.8516 3.70501C37.8516 0.483596 34.9866 0.66243 34.9866 0.66243ZM32.6606 41.6455C30.9302 41.6455 12.9768 41.6455 12.9768 41.6455C12.9768 41.6455 11.8434 41.5863 11.8434 40.2136C11.8434 38.8409 11.8434 32.6966 11.8434 32.6966C11.8434 32.6966 11.7237 31.2055 12.798 31.2055H33.1971C33.1971 31.2055 34.3305 31.1463 34.3305 32.8754C34.3305 34.6045 34.3305 40.5713 34.3305 40.5713C34.3305 40.5713 34.3909 41.6455 32.6606 41.6455ZM22.9975 26.6126C16.6719 26.6126 11.5449 21.4856 11.5449 15.16C11.5449 8.83439 16.6731 3.70743 22.9975 3.70743C29.3231 3.70743 34.4501 8.83439 34.4501 15.16C34.4501 21.4856 29.3231 26.6126 22.9975 26.6126Z" fill="white"/>
<path d="M29.0814 34.3084C28.9738 33.1991 28.0072 33.378 28.0072 33.378H18.703C18.703 33.378 17.0923 33.0916 17.0923 34.3084C17.0923 35.5252 18.1665 35.4176 18.1665 35.4176C18.1665 35.4176 27.4356 35.4176 27.6507 35.4176C27.8646 35.4176 29.1889 35.4176 29.0814 34.3084Z" fill="white"/>
<path d="M30.692 38.6029C30.5845 37.4937 29.6178 37.6725 29.6178 37.6725H26.8725C26.7046 37.6484 26.5753 37.6725 26.5753 37.6725H20.3125C20.3125 37.6725 19.9427 37.6073 19.5573 37.6725H17.2699C17.2699 37.6725 15.6592 37.3861 15.6592 38.6029C15.6592 39.8197 16.7334 39.7122 16.7334 39.7122C16.7334 39.7122 18.0166 39.7122 19.6382 39.7122C19.7216 39.717 19.776 39.7122 19.776 39.7122C19.776 39.7122 23.4433 39.7122 26.2176 39.7122C27.8537 39.7122 29.1804 39.7122 29.2602 39.7122C29.4753 39.7134 30.7996 39.7134 30.692 38.6029Z" fill="white"/>
<path d="M22.9974 6.03223C17.9562 6.03223 13.8696 10.1188 13.8696 15.16C13.8696 20.2011 17.9562 24.2877 22.9974 24.2877C28.0385 24.2877 32.1251 20.2011 32.1251 15.16C32.1263 10.1188 28.0385 6.03223 22.9974 6.03223ZM28.4107 19.8121C28.4107 19.8121 28.366 20.9213 27.2918 20.9213C26.2176 20.9213 26.2176 20.1335 26.2176 19.4532C26.2176 18.7729 26.2176 16.0529 26.2176 16.0529H19.9995V19.6332C19.9995 19.6332 19.9995 20.9213 18.8806 20.9213C17.7617 20.9213 17.7617 19.9196 17.7617 19.4532C17.7617 18.9868 17.7617 10.3254 17.7617 10.3254C17.7617 10.3254 17.8064 9.25123 18.7005 9.25123C19.5947 9.25123 19.9983 9.75269 19.9983 10.8619C19.9983 11.9712 19.9983 14.0386 19.9983 14.0386H26.2164V10.5043C26.2164 10.5043 26.1717 9.25123 27.2906 9.25123C28.4095 9.25123 28.4095 10.2892 28.4095 10.6831C28.4095 11.077 28.4107 19.8121 28.4107 19.8121Z" fill="white"/>
<path d="M0.451015 6.03134C0.451015 6.03134 0.451015 34.368 0.451015 40.3927C0.451015 46.4175 6.35614 46.1202 6.35614 46.1202V0.66272C0.0329313 0.66272 0.451015 6.03134 0.451015 6.03134ZM42.8599 16.9486C41.9657 16.6502 39.8173 15.6956 39.8173 15.6956V40.5716C39.8173 40.5716 41.9053 39.4973 43.754 39.1397C45.6028 38.782 45.9012 35.9183 45.9012 35.9183C45.9012 35.9183 45.9012 24.166 45.9012 20.7066C45.9025 17.2471 43.7552 17.2471 42.8599 16.9486Z" fill="white"/>
</svg>
