<svg width="47" height="47" viewBox="0 0 47 47" fill="none" xmlns="http://www.w3.org/2000/svg">
<path d="M1.70508 46.425H5.82429V36.3451C3.83779 36.3064 1.70508 35.5693 1.70508 35.5693V46.425ZM8.392 46.425H12.5112V35.9572C11.0479 36.3451 8.392 36.3451 8.392 36.3451V46.425ZM15.2251 46.425H19.296V34.019C18.8018 34.3682 15.2251 35.376 15.2251 35.376V46.425ZM21.8963 33.05V46.425H26.0312V30.7239C25.4887 31.461 21.8963 33.05 21.8963 33.05ZM28.7452 46.425H32.7774V26.8476C31.963 27.5061 28.7452 29.5615 28.7452 29.5615V46.425ZM35.4128 25.1027V46.425H39.5996V21.8076C39.0957 22.3115 35.4128 25.1027 35.4128 25.1027Z" fill="white"/>
<path d="M33.9785 9.78957L35.9167 11.7277C15.758 37.4435 0.444824 32.8567 0.444824 32.8567C17.9548 39.9 41.9269 16.9622 41.9269 16.9622L44.0596 18.7071L46.7735 5.33203L33.9785 9.78957Z" fill="white"/>
<path d="M11.7355 9.59624V6.68899C11.7355 6.68778 10.2335 8.14141 11.7355 9.59624ZM13.0429 0.0975342C6.08532 0.0975342 0.444824 5.73803 0.444824 12.6956C0.444824 19.6532 6.08532 25.2937 13.0429 25.2937C20.0005 25.2937 25.641 19.6532 25.641 12.6956C25.641 5.73803 20.0005 0.0975342 13.0429 0.0975342ZM14.3527 21.2265V22.0022C14.3527 22.0022 14.3527 23.1658 13.0441 22.9713C11.7355 22.778 11.7355 22.2934 11.7355 22.0022C11.7355 21.711 11.7355 21.2265 11.7355 21.2265C11.7355 21.2265 7.61628 20.6936 7.22841 16.9622C7.22841 16.9622 6.98553 15.412 8.39203 15.2174C9.79732 15.0241 10.0402 15.9932 10.1369 16.9622C10.1369 16.9622 11.0576 18.2225 11.7355 18.3192V12.8914C11.7355 12.8914 8.39203 11.6794 8.39203 9.01503C8.39203 6.34945 9.65232 4.50795 11.7355 3.97508V3.5872C11.7355 3.5872 11.7838 2.56978 12.8496 2.42358C13.9153 2.27858 14.3515 3.05312 14.3515 3.5872C14.3515 4.12007 14.3515 4.16841 14.3515 4.16841C14.3515 4.16841 17.405 4.41128 17.695 7.46353C17.695 7.46353 17.9379 9.45004 16.338 9.4017C14.7382 9.35337 14.9811 7.65687 14.9811 7.65687L14.3515 6.88112V10.7575C14.3515 10.7575 18.6641 12.2594 18.6641 15.6029C18.6641 18.9463 17.3579 20.7419 14.3527 21.2265ZM14.3527 14.0538V18.5125C15.4668 18.0763 15.903 17.0106 15.9514 15.9932C16.0009 14.9745 14.3527 14.0538 14.3527 14.0538Z" fill="white"/>
</svg>
