<svg width="49" height="33" viewBox="0 0 49 33" fill="none" xmlns="http://www.w3.org/2000/svg">
<path d="M46.384 9.70429C46.384 9.70429 46.2499 9.70429 46.0276 6.72696C45.804 3.74962 43.53 4.22571 43.53 4.22571H38.7123C40.0947 4.76221 40.3182 8.51408 36.5712 8.51408C32.8241 8.51408 31.5747 4.22571 31.5747 4.22571H26.5782C28.1841 6.36929 26.89 8.96116 23.5453 8.51408C20.1995 8.067 19.263 4.22571 19.263 4.22571H13.9101C15.5607 5.56575 14.9807 8.82704 11.2336 8.51408C7.48657 8.20112 6.95128 4.22571 6.95128 4.22571C6.95128 4.22571 6.95128 4.22571 5.16657 4.22571C3.38186 4.22571 3.20424 6.01283 3.20424 6.01283L2.66895 11.4322H4.27482L4.45365 7.97758H4.98895V9.70429H46.384Z" fill="white"/>
<path d="M48.1688 29.9535L46.5629 11.4309H5.16421L7.12654 31.2041C7.12654 31.2041 3.82537 31.2041 3.02183 31.2041C2.21829 31.2041 2.48654 30.1323 2.48654 30.1323L4.44887 9.70422H2.843L0.880666 30.1323C0.286166 32.5744 2.843 32.8124 2.843 32.8124C2.843 32.8124 42.9923 32.8124 45.8476 32.8124C48.7029 32.8124 48.1688 29.9535 48.1688 29.9535ZM9.98183 21.7344V20.4838C9.98183 20.4838 9.98183 19.5908 10.8736 19.5908C11.7653 19.5908 12.8359 19.5908 12.8359 19.5908C12.8359 19.5908 13.9427 19.7334 13.9065 21.0203C13.8702 22.3071 13.9065 22.2709 13.9065 22.2709C13.9065 22.2709 13.7639 23.3427 12.8359 23.3427C11.9079 23.3427 11.0512 23.3427 11.0512 23.3427C11.0512 23.3427 9.94679 23.414 9.98183 21.7344ZM14.2642 27.9887C14.2642 27.9887 14.1216 28.7331 13.1936 28.7331C12.2656 28.7331 11.4089 28.7331 11.4089 28.7331C11.4089 28.7331 10.5522 28.3464 10.5171 27.4522C10.4809 26.5593 10.5171 26.2016 10.5171 26.2016C10.5171 26.2016 10.5884 25.1588 11.4089 25.1588H13.3712C13.3712 25.1588 14.2279 25.2361 14.263 26.5581C14.3004 27.8812 14.2642 27.9887 14.2642 27.9887ZM15.8712 21.9132C15.8712 20.6976 15.8712 20.6626 15.8712 20.6626C15.8712 20.6626 15.835 19.5908 16.9418 19.5908C18.0487 19.5908 18.7265 19.5908 18.7265 19.5908C18.7265 19.5908 19.7971 19.5195 19.7971 21.0203V22.4497C19.7971 22.4497 19.547 23.3427 18.5477 23.3427C17.5484 23.3427 16.9418 23.3427 16.9418 23.3427C16.9418 23.3427 15.8712 23.1276 15.8712 21.9132ZM20.3312 27.9887C20.3312 27.9887 20.0811 28.7331 19.2606 28.7331C18.4402 28.7331 17.4759 28.7331 17.4759 28.7331C17.4759 28.7331 16.6905 28.5965 16.5842 27.6311C16.4766 26.6668 16.4053 26.0228 16.4053 26.0228C16.4053 26.0228 16.6905 25.1588 17.2971 25.1588H19.2594C19.2594 25.1588 20.33 25.3437 20.33 26.3792C20.33 27.4148 20.3312 27.9887 20.3312 27.9887ZM21.4018 16.7319C21.3655 15.8027 21.4018 15.3024 21.4018 15.3024C21.4018 15.3024 21.2592 14.0518 22.6512 14.0518C24.0432 14.0518 24.2571 14.0518 24.2571 14.0518C24.2571 14.0518 25.2926 14.1944 25.3277 15.4813C25.3639 16.7681 25.3277 17.0896 25.3277 17.0896C25.3277 17.0896 25.1851 17.8641 24.2571 17.8641H22.4724C22.4724 17.8629 21.438 17.6611 21.4018 16.7319ZM21.9371 22.0921C21.9371 21.0916 21.9371 20.4838 21.9371 20.4838C21.9371 20.4838 21.9371 19.5908 23.0077 19.5908C24.0782 19.5908 24.7924 19.5908 24.7924 19.5908C24.7924 19.5908 25.863 19.6984 25.863 21.0203C25.863 21.7984 25.863 22.0316 25.863 22.0921C25.863 22.0921 25.9342 23.3427 24.9712 23.3427C24.0082 23.3427 23.0089 23.3427 23.0089 23.3427C23.0089 23.3427 21.9371 23.0926 21.9371 22.0921ZM26.3982 27.8099C26.3982 27.8099 26.1844 28.7331 25.1488 28.7331C24.1133 28.7331 23.543 28.7331 23.543 28.7331C23.543 28.7331 22.4724 28.489 22.4724 27.4522C22.4724 26.4155 22.4724 26.0228 22.4724 26.0228C22.4724 26.0228 22.5437 25.1588 23.3641 25.1588H25.3265C25.3265 25.1588 26.362 25.415 26.397 26.3792C26.4345 27.3447 26.3982 27.8099 26.3982 27.8099ZM27.2912 16.5531C27.2912 15.4813 27.2912 15.3024 27.2912 15.3024C27.2912 15.3024 27.255 14.0518 28.3618 14.0518C29.4686 14.0518 30.3241 14.0518 30.3241 14.0518C30.3241 14.0518 31.3947 14.3019 31.3947 15.6601C31.3947 16.744 31.3947 16.8938 31.3947 16.9107C31.3947 16.9107 31.1808 17.8641 30.3241 17.8641H28.5394C28.5394 17.8629 27.2912 17.6249 27.2912 16.5531ZM31.7524 22.2709C31.7524 22.2709 31.7161 23.3427 30.503 23.3427C29.2898 23.3427 29.0759 23.3427 29.0759 23.3427C29.0759 23.3427 27.7915 23.0926 27.8265 22.0921C27.8627 21.0916 27.6126 19.5908 28.7182 19.5908H30.6806C30.6806 19.5908 31.7512 19.7334 31.7512 20.8414C31.7524 21.9495 31.7524 22.2709 31.7524 22.2709ZM33.3582 16.3742C33.3582 15.1949 33.3582 15.1236 33.3582 15.1236C33.3582 15.1236 33.322 14.0518 34.4288 14.0518C35.5357 14.0518 36.0347 14.0518 36.0347 14.0518C36.0347 14.0518 37.2841 14.0881 37.2841 15.4813C37.2841 16.8745 37.2841 16.9107 37.2841 16.9107C37.2841 16.9107 37.1053 17.8641 36.3924 17.8641H34.6077C34.6065 17.8629 33.3582 17.5536 33.3582 16.3742ZM37.6406 22.4497C37.6406 22.4497 37.498 23.3427 36.57 23.3427C35.642 23.3427 35.143 23.3427 35.143 23.3427C35.143 23.3427 33.8585 23.2714 33.8935 21.7344V20.3049C33.8935 20.3049 33.9298 19.5908 34.6077 19.5908C35.2855 19.5908 36.7488 19.5908 36.7488 19.5908C36.7488 19.5908 37.5693 19.5546 37.6406 21.0203C37.7119 22.4848 37.6406 22.4497 37.6406 22.4497ZM39.4253 16.9107C39.354 15.9815 39.4253 15.1236 39.4253 15.1236C39.4253 15.1236 39.4966 14.0518 40.317 14.0518C41.1375 14.0518 42.1017 14.0518 42.1017 14.0518C42.1017 14.0518 43.35 14.2306 43.35 15.4813C43.35 16.7319 43.35 16.7319 43.35 16.7319C43.35 16.7319 43.1361 17.8641 42.4582 17.8641C41.7803 17.8641 40.6735 17.8641 40.6735 17.8641C40.6735 17.8641 39.4966 17.8399 39.4253 16.9107ZM43.7076 22.2709C43.7076 22.2709 43.7439 23.3427 42.637 23.3427C41.5302 23.3427 40.8523 23.3427 40.8523 23.3427C40.8523 23.3427 39.7455 23.0213 39.7817 21.9132C39.818 20.8052 39.7817 20.8414 39.7817 20.8414C39.7817 20.8414 39.6392 19.5908 40.6735 19.5908C41.7078 19.5908 42.8147 19.5908 42.8147 19.5908C42.8147 19.5908 43.7777 19.9835 43.7064 20.8414C43.6363 21.6994 43.7076 22.2709 43.7076 22.2709Z" fill="white"/>
<path d="M12.8373 0.293799C10.446 -0.313993 8.51867 1.86584 8.73255 3.33155C8.94642 4.79726 9.19655 6.40434 12.3008 6.72697C12.3008 6.72697 12.836 6.72697 13.0149 6.19047C13.1937 5.65397 12.7648 5.22622 12.1231 5.29751C12.1231 5.29751 10.2321 5.15492 10.3384 3.51038C10.446 1.86705 12.1582 1.08042 13.729 2.43859H15.5137C15.5137 2.43738 15.2285 0.901591 12.8373 0.293799ZM25.3278 0.293799C22.9365 -0.313993 21.0092 1.86584 21.2231 3.33155C21.437 4.79726 21.6871 6.40434 24.7913 6.72697C24.7913 6.72697 25.3266 6.72697 25.5054 6.19047C25.6842 5.65397 25.2553 5.22622 24.6137 5.29751C24.6137 5.29751 22.7226 5.15492 22.829 3.51038C22.9365 1.86705 24.6487 1.08042 26.2195 2.43859H28.0042C28.0042 2.43738 27.7191 0.901591 25.3278 0.293799ZM38.3548 2.43738H40.1395C40.1395 2.43738 39.8544 0.900382 37.4631 0.293799C35.0718 -0.313993 33.1445 1.86584 33.3584 3.33155C33.5722 4.79726 33.8224 6.40434 36.9266 6.72697C36.9266 6.72697 37.4619 6.72697 37.6407 6.19047C37.8195 5.65397 37.3906 5.22622 36.749 5.29751C36.749 5.29751 34.8579 5.15492 34.9642 3.51038C35.0706 1.86584 36.784 1.07921 38.3548 2.43738Z" fill="white"/>
</svg>
