<svg width="46" height="44" viewBox="0 0 46 44" fill="none" xmlns="http://www.w3.org/2000/svg">
<path d="M43.1606 7.06883C43.1606 6.83924 43.1606 6.37041 43.1606 5.47382C43.1606 2.8602 41.6551 3.12603 41.6551 3.12603C41.6551 3.12603 18.4865 3.12603 17.9548 3.12603C17.4231 3.12603 16.2535 3.12603 16.0058 1.57574C15.7581 0.0254482 14.4108 0.158365 14.4108 0.158365C14.4108 0.158365 7.46526 0.158365 5.9053 0.158365C4.34535 0.158365 4.13389 1.36307 4.13389 1.92978C4.13389 2.49649 3.38955 3.12603 2.18485 3.12603C0.980137 3.12603 0.589844 4.58812 0.589844 4.58812C0.589844 4.58812 0.589844 6.5722 0.589844 7.06883C0.589844 7.56545 0.589844 8.08745 1.47555 8.08745C2.36126 8.08745 2.18485 7.06883 2.18485 7.06883V4.58812C2.18485 4.58812 40.1555 4.58812 40.9905 4.58812C41.8254 4.58812 41.6551 4.94216 41.6551 4.94216V7.06883C41.6551 7.06883 18.4865 7.06883 18.3101 7.06883C18.1324 7.06883 17.5754 7.06883 17.6008 7.60049C17.6261 8.13216 17.9548 8.08745 17.9548 8.08745H18.3088C18.3088 8.08745 37.4464 8.08745 40.8129 8.08745C44.1793 8.08745 44.8886 10.9669 44.8886 10.9669C44.8886 10.9669 44.7822 11.9952 45.0662 12.3843C45.3501 12.7746 45.7755 12.2067 45.7755 12.2067C45.7755 12.2067 45.7755 11.6037 45.7755 9.19428C45.7755 6.78487 43.1606 7.06883 43.1606 7.06883Z" fill="white"/>
<path d="M43.1606 13.9357C43.1606 13.6929 43.1606 13.2277 43.1606 12.3854C43.1606 9.77182 41.6551 10.0377 41.6551 10.0377C41.6551 10.0377 18.4865 10.0377 17.9548 10.0377C17.4231 10.0377 16.2535 10.0377 16.0058 8.48736C15.7581 6.93707 14.4108 7.06999 14.4108 7.06999C14.4108 7.06999 7.46526 7.06999 5.9053 7.06999C4.34535 7.06999 4.13389 8.2747 4.13389 8.8414C4.13389 9.40811 3.38955 10.0377 2.18485 10.0377C0.980137 10.0377 0.589844 11.4997 0.589844 11.4997C0.589844 11.4997 0.589844 13.3775 0.589844 13.9357C0.589844 13.9514 0.589844 13.9659 0.589844 13.9804V33.8249C0.589844 33.8249 0.634554 36.3503 2.89293 36.3503C5.15251 36.3503 13.5251 36.3503 13.5251 36.3503C13.5251 36.3503 12.5064 35.774 12.4617 34.7118C12.417 33.6485 12.4617 32.5852 12.4617 32.5852C12.4617 32.5852 12.5946 31.1678 14.0567 30.9902C14.0567 30.9902 13.0816 30.2809 13.3474 29.2187C13.6133 28.1554 14.5437 26.2511 15.4741 26.2064C16.4045 26.1617 16.7151 26.2064 16.7151 26.2064C16.7151 26.2064 16.361 25.1877 17.0691 24.435C17.7784 23.6822 19.1958 23.0176 19.1958 23.0176C19.1958 23.0176 20.3038 22.4859 21.4988 23.3716C21.4988 23.3716 22.2516 21.6884 23.9796 21.7766C25.7075 21.8648 26.7261 22.1307 26.9919 23.3716C26.9919 23.3716 28.3211 22.2636 29.6503 23.0176C30.9794 23.7704 31.4217 24.2573 31.4217 24.2573C31.4217 24.2573 32.0863 25.276 31.7757 26.2064C31.7757 26.2064 33.0167 25.6747 34.0788 27.0921C35.1421 28.5095 35.1421 28.6871 35.1421 28.6871C35.1421 28.6871 35.4962 30.2821 34.6105 30.9902C34.6105 30.9902 36.2055 31.3007 36.2055 32.9392C36.2055 34.5777 36.2055 34.7106 36.2055 34.7106C36.2055 34.7106 35.7185 36.3491 34.9645 36.3491H43.6476C43.6476 36.3491 45.7743 36.0386 45.7743 33.8237C45.7743 32.1755 45.7743 23.4683 45.7743 19.1171C45.7743 19.1171 45.7743 18.6035 45.7743 16.6364C45.7743 16.6376 46.4389 13.9357 43.1606 13.9357ZM19.5498 13.9357H6.43697C6.43697 13.9357 5.15251 13.891 5.15251 15.9295C5.15251 17.9679 5.15251 33.2945 5.15251 33.2945C5.15251 33.2945 5.15251 34.9777 3.4246 34.8895C1.69668 34.8013 2.18364 32.4087 2.18364 32.4087V14.3768C2.21505 14.1641 2.18364 13.9792 2.18364 13.9792V13.9345V11.4985C2.18364 11.4985 40.1543 11.4985 40.9893 11.4985C41.8242 11.4985 41.6539 11.8526 41.6539 11.8526V13.9345C35.9263 13.9357 19.5498 13.9357 19.5498 13.9357ZM43.4724 21.5035C43.4724 21.7645 43.0664 21.7814 43.0664 21.7814H42.5106C42.4659 22.0304 42.3946 22.2696 42.3027 22.498C42.4659 22.5971 42.6386 22.701 42.7667 22.7783C43.0918 22.9741 42.9782 23.2447 42.9782 23.2447C42.9782 23.2447 42.7909 23.5843 42.6664 23.8102C42.542 24.0362 42.1819 23.838 42.1819 23.838L41.6792 23.5347C41.5318 23.7075 41.3699 23.867 41.1947 24.0108C41.2962 24.1957 41.4086 24.3987 41.4883 24.5437C41.6756 24.8832 41.4484 25.0585 41.4484 25.0585C41.4484 25.0585 41.1234 25.2542 40.9071 25.3847C40.6908 25.5152 40.4745 25.1563 40.4745 25.1563L40.1724 24.609C39.9779 24.6851 39.7749 24.7443 39.5646 24.7878C39.5646 25.0041 39.5646 25.2445 39.5646 25.4161C39.5646 25.8076 39.2831 25.8402 39.2831 25.8402C39.2831 25.8402 39.2469 25.8402 39.1901 25.8402C39.1707 25.8463 39.1502 25.8499 39.1272 25.8499C38.865 25.8499 38.4723 25.8499 38.4723 25.8499C38.4723 25.8499 38.1775 25.8173 38.1775 25.427C38.1775 25.259 38.1775 25.0258 38.1775 24.8132C37.9539 24.7757 37.7364 24.7189 37.5286 24.644L37.2241 25.1684C37.2241 25.1684 36.9969 25.5273 36.7698 25.3968C36.5426 25.2663 36.2019 25.0705 36.2019 25.0705C36.2019 25.0705 35.9626 24.8953 36.1596 24.557C36.2405 24.4168 36.3529 24.2235 36.4568 24.0459C36.2719 23.8997 36.1016 23.7365 35.9469 23.5577L35.4321 23.8525C35.4321 23.8525 35.0551 24.0507 34.9246 23.8247C34.7941 23.5988 34.5972 23.2605 34.5972 23.2605C34.5972 23.2605 34.4776 22.9898 34.8183 22.7952C34.9536 22.7179 35.1361 22.6128 35.3089 22.5137C35.2171 22.2865 35.1458 22.0485 35.1011 21.8008H34.5041C34.5041 21.8008 34.0788 21.7851 34.0788 21.5241C34.0788 21.2631 34.0788 20.8728 34.0788 20.8728C34.0788 20.8728 34.1114 20.5792 34.5041 20.5792C34.6612 20.5792 34.8763 20.5792 35.0769 20.5792C35.1168 20.3085 35.1844 20.0475 35.2787 19.7986L34.8437 19.5485C34.8437 19.5485 34.4836 19.3225 34.6141 19.0965C34.7446 18.8706 34.9416 18.5322 34.9416 18.5322C34.9416 18.5322 35.1168 18.2942 35.4575 18.4899C35.5784 18.5588 35.7379 18.6507 35.8937 18.7401C36.0617 18.5371 36.2502 18.3522 36.4568 18.1879L36.1656 17.6852C36.1656 17.6852 35.9674 17.3106 36.1934 17.1801C36.4206 17.0496 36.7613 16.8539 36.7613 16.8539C36.7613 16.8539 37.0332 16.7354 37.2289 17.0738C37.3111 17.2152 37.4247 17.4109 37.5298 17.5909C37.7437 17.5148 37.966 17.4568 38.1968 17.4194V16.8792C38.1968 16.8792 38.2137 16.4563 38.4747 16.4563C38.7357 16.4563 39.1296 16.4563 39.1296 16.4563C39.1296 16.4563 39.4245 16.4889 39.4245 16.8792C39.4245 17.0291 39.4245 17.2309 39.4245 17.423C39.6746 17.4641 39.9151 17.5305 40.1459 17.6187C40.2546 17.423 40.3778 17.197 40.4661 17.0387C40.6534 16.6992 40.9119 16.8176 40.9119 16.8176C40.9119 16.8176 41.237 17.0134 41.4533 17.1439C41.6696 17.2744 41.4799 17.6502 41.4799 17.6502L41.1729 18.2072C41.3663 18.3631 41.5439 18.5395 41.7022 18.7304C41.8617 18.6337 42.0296 18.5322 42.1541 18.4573C42.4791 18.2616 42.6459 18.4996 42.6459 18.4996C42.6459 18.4996 42.8332 18.8392 42.9576 19.0651C43.0821 19.2911 42.7389 19.5182 42.7389 19.5182L42.316 19.7744C42.4115 20.0221 42.4816 20.2819 42.5226 20.5514C42.7136 20.5514 42.9153 20.5514 43.064 20.5514C43.4386 20.5514 43.47 20.845 43.47 20.845C43.47 20.845 43.4724 21.2413 43.4724 21.5035Z" fill="white"/>
<path d="M33.558 32.4245C33.2378 32.4245 32.8028 32.4245 32.3919 32.4245C32.3037 31.8361 32.1527 31.2682 31.9461 30.7292L32.8547 30.177C32.8547 30.177 33.5991 29.684 33.3284 29.1922C33.0577 28.6992 32.6529 27.9609 32.6529 27.9609C32.6529 27.9609 32.2904 27.4426 31.5884 27.8691C31.3214 28.031 30.9613 28.2497 30.6169 28.4588C30.2725 28.0419 29.8871 27.6601 29.4666 27.3193L30.1287 26.1134C30.1287 26.1134 30.5384 25.2954 30.0707 25.0114C29.6031 24.7274 28.8999 24.3009 28.8999 24.3009C28.8999 24.3009 28.3392 24.0423 27.9344 24.7818C27.7459 25.1238 27.4789 25.6119 27.2457 26.0373C26.7454 25.8464 26.2234 25.7014 25.6821 25.6107C25.6821 25.1939 25.6821 24.7589 25.6821 24.435C25.6821 23.5844 25.0441 23.5131 25.0441 23.5131C25.0441 23.5131 24.1934 23.5131 23.6267 23.5131C23.06 23.5131 23.0237 24.435 23.0237 24.435V25.6047C22.5247 25.6856 22.0426 25.8125 21.5786 25.9781C21.3538 25.5878 21.1085 25.1649 20.9321 24.8579C20.5068 24.1209 19.9195 24.3794 19.9195 24.3794C19.9195 24.3794 19.1824 24.8048 18.6919 25.0887C18.2013 25.3727 18.6302 26.1883 18.6302 26.1883L19.2586 27.277C18.8103 27.6347 18.4019 28.0383 18.0369 28.4805C17.701 28.2872 17.3579 28.089 17.0981 27.9392C16.361 27.5139 15.9816 28.031 15.9816 28.031C15.9816 28.031 15.5562 28.7681 15.2723 29.2587C14.9883 29.7493 15.7689 30.2411 15.7689 30.2411L16.7042 30.7812C16.4999 31.3225 16.3525 31.8929 16.2679 32.4825C15.8342 32.4825 15.3702 32.4825 15.0318 32.4825C14.1812 32.4825 14.1099 33.1205 14.1099 33.1205C14.1099 33.1205 14.1099 33.9712 14.1099 34.5379C14.1099 35.1046 15.0318 35.1409 15.0318 35.1409H16.3223C16.4214 35.6786 16.5749 36.1957 16.7742 36.6912C16.4009 36.9062 16.0033 37.1358 15.7121 37.3038C14.975 37.7291 15.2336 38.3164 15.2336 38.3164C15.2336 38.3164 15.6589 39.0535 15.9429 39.544C16.2269 40.0346 17.0425 39.6057 17.0425 39.6057L18.1566 38.9628C18.4901 39.3495 18.8598 39.7035 19.2586 40.0225C19.0338 40.4116 18.7909 40.8321 18.6145 41.1378C18.1892 41.8749 18.7064 42.2543 18.7064 42.2543C18.7064 42.2543 19.4434 42.6797 19.934 42.9636C20.4246 43.2476 20.9164 42.467 20.9164 42.467L21.5774 41.3215C22.0281 41.4834 22.4969 41.6067 22.9814 41.6888C22.9814 42.1516 22.9814 42.6627 22.9814 43.0289C22.9814 43.8795 23.6194 43.9508 23.6194 43.9508C23.6194 43.9508 24.4701 43.9508 25.0368 43.9508C25.0864 43.9508 25.1311 43.9412 25.1722 43.9291C25.2942 43.9291 25.3727 43.9291 25.3727 43.9291C25.3727 43.9291 25.9805 43.8578 25.9805 43.0047C25.9805 42.6301 25.9805 42.1057 25.9805 41.6345C26.4324 41.5414 26.8723 41.4121 27.2928 41.2466L27.9489 42.4416C27.9489 42.4416 28.4177 43.2246 28.8854 42.9395C29.353 42.6555 30.0562 42.229 30.0562 42.229C30.0562 42.229 30.5492 41.8471 30.1432 41.1088C29.9692 40.7923 29.7264 40.35 29.5064 39.9488C29.8871 39.6359 30.2387 39.2903 30.5577 38.9133L31.6428 39.5718C31.6428 39.5718 32.4209 40.0032 32.6904 39.5102C32.9611 39.0172 33.3659 38.2789 33.3659 38.2789C33.3659 38.2789 33.6112 37.6892 32.9091 37.2627C32.6348 37.096 32.2627 36.87 31.911 36.6561C32.1092 36.1571 32.2602 35.6339 32.3569 35.0925H33.558C33.558 35.0925 34.4364 35.0575 34.4364 34.4884C34.4364 33.9192 34.4364 33.0674 34.4364 33.0674C34.4364 33.0674 34.3688 32.4245 33.558 32.4245ZM24.2454 39.8497C20.8693 39.8497 18.1324 37.1129 18.1324 33.7368C18.1324 30.3607 20.8693 27.6238 24.2454 27.6238C27.6214 27.6238 30.3583 30.3607 30.3583 33.7368C30.3583 37.1129 27.6214 39.8497 24.2454 39.8497Z" fill="white"/>
<path d="M24.3075 37.7247C26.5089 37.6903 28.2656 35.8779 28.2312 33.6766C28.1969 31.4752 26.3845 29.7185 24.1832 29.7529C21.9818 29.7872 20.2251 31.5996 20.2595 33.801C20.2938 36.0023 22.1062 37.759 24.3075 37.7247Z" fill="white"/>
<path d="M38.864 23.3716C40.0385 23.3716 40.9906 22.4195 40.9906 21.245C40.9906 20.0704 40.0385 19.1183 38.864 19.1183C37.6894 19.1183 36.7373 20.0704 36.7373 21.245C36.7373 22.4195 37.6894 23.3716 38.864 23.3716Z" fill="white"/>
</svg>
