<svg width="46" height="46" viewBox="0 0 46 46" fill="none" xmlns="http://www.w3.org/2000/svg">
<path d="M45.217 43.2306L41.1087 39.2818C43.9193 36.035 45.6218 31.7938 45.6218 27.1513C45.6218 21.7489 43.3151 16.8878 39.6394 13.5068C40.1577 15.3508 40.4356 17.2962 40.4356 19.3068C40.4356 31.07 30.9381 40.6049 19.2221 40.6049C17.3939 40.6049 15.6189 40.3729 13.926 39.9355C17.1486 43.3164 21.6352 45.4709 26.6232 45.6304C26.6196 45.6364 26.6159 45.6413 26.6159 45.6413C26.6159 45.6413 26.8322 45.6413 27.2165 45.6413H27.2177H27.2189C29.957 45.6413 41.186 45.6413 43.8154 45.6413C46.8169 45.6425 45.217 43.2306 45.217 43.2306Z" fill="white"/>
<path d="M37.6287 19.3213C37.6287 9.1097 29.3867 0.8302 19.2197 0.8302C9.05283 0.8302 0.809577 9.10849 0.809577 19.3213C0.809577 23.9601 2.51091 28.2002 5.31908 31.4457L1.21074 35.3922C1.21074 35.3922 -0.3903 37.804 2.6112 37.804C5.09433 37.804 15.2504 37.804 18.6832 37.804C18.8609 37.8088 19.0397 37.8124 19.2185 37.8124C19.3974 37.8124 19.5762 37.8088 19.7538 37.804C19.7985 37.804 19.8239 37.804 19.8239 37.804L19.8227 37.8016C29.7105 37.4814 37.6287 29.3312 37.6287 19.3213ZM19.2028 33.1434C11.4139 33.1434 5.09916 26.8287 5.09916 19.0398C5.09916 11.2509 11.4139 4.93612 19.2028 4.93612C26.9917 4.93612 33.3065 11.2509 33.3065 19.0398C33.3065 26.8287 26.9917 33.1434 19.2028 33.1434Z" fill="white"/>
<path d="M22.0654 13.4258C22.0654 13.4258 13.531 13.4258 11.6133 13.4258C9.69572 13.4258 9.47339 15.5911 9.47339 15.5911C9.47339 15.5911 9.47339 20.306 9.47339 22.9378C9.47339 25.5695 11.7245 25.6795 11.7245 25.6795C11.7245 25.6795 18.2846 25.6795 21.1761 25.6795C24.0676 25.6795 24.0676 23.3764 24.0676 23.3764C24.0676 23.3764 24.0676 18.305 24.0676 16.0297C24.0676 13.7557 22.0654 13.4258 22.0654 13.4258Z" fill="white"/>
<path d="M27.9598 14.0566L25.4863 15.1526V23.9251C25.4863 23.9251 26.8203 24.5558 27.9598 25.0211C29.0992 25.4875 29.2382 24.3637 29.2382 24.3637C29.2382 24.3637 29.2382 16.3585 29.2382 14.9339C29.2382 13.508 27.9598 14.0566 27.9598 14.0566Z" fill="white"/>
</svg>
