<svg width="47" height="44" viewBox="0 0 47 44" fill="none" xmlns="http://www.w3.org/2000/svg">
<path d="M13.5955 16.8044H20.1869C20.0033 14.0651 17.6228 13.2434 15.9759 12.6042C14.3277 11.965 14.3277 10.9609 14.3277 10.9609L14.1441 9.13507C16.2043 8.08502 16.3408 5.84719 16.3408 5.84719C17.7147 4.70532 16.5245 3.65528 16.5245 3.65528C16.4326 2.33094 15.472 0.276777 12.3134 0.184944C9.15485 0.0931103 8.46851 3.47282 8.46851 3.47282C7.09464 4.6594 8.65218 5.84719 8.65218 5.84719C8.65218 8.12973 10.8489 9.13507 10.8489 9.13507C10.8489 9.13507 10.8489 10.2769 10.8489 11.1445C10.8489 12.0121 8.83464 12.9703 6.82035 13.7014C4.80606 14.4324 4.98972 16.8056 4.98972 16.8056H11.3987V15.3447C10.6206 13.8838 11.1703 13.2905 11.7648 12.9703C12.3593 12.6501 13.6873 12.6513 13.9616 13.7014C14.2359 14.7514 13.5955 15.5271 13.5955 15.5271V16.8044Z" fill="white"/>
<path d="M18.3563 2.55933C18.3563 2.55933 19.4088 4.0202 18.54 6.21212C18.54 6.21212 20.0504 5.89312 20.1881 4.56879C20.3247 3.24445 19.0426 2.60524 18.3563 2.55933ZM15.7922 9.86371C15.7922 9.86371 16.5704 11.0056 17.4404 11.3246C18.3104 11.6436 18.9049 12.0556 18.9049 12.0556C18.9049 12.0556 19.5465 9.31633 15.7922 9.86371ZM6.64273 2.55933C5.9576 2.60524 4.67918 3.24445 4.81693 4.56879C4.95348 5.89312 6.46027 6.21212 6.46027 6.21212C5.59268 4.0202 6.64273 2.55933 6.64273 2.55933ZM6.09535 12.0556C6.09535 12.0556 6.68864 11.6448 7.55623 11.3246C8.42381 11.0044 9.19956 9.86371 9.19956 9.86371C5.45614 9.31633 6.09535 12.0556 6.09535 12.0556Z" fill="white"/>
<path d="M5.17218 41.8241C4.43993 41.8845 3.34155 41.2767 3.34155 41.2767C3.40318 42.0682 3.40318 43.407 5.35584 43.4686C7.30851 43.5291 7.55259 41.8253 7.55259 41.8253C7.55259 41.8253 5.90443 41.7625 5.17218 41.8241ZM41.6107 41.8241C40.8784 41.7637 39.2303 41.8241 39.2303 41.8241C39.2303 41.8241 39.4743 43.529 41.427 43.4674C43.3797 43.407 43.3797 42.067 43.4413 41.2755C43.4425 41.2755 42.3441 41.8845 41.6107 41.8241Z" fill="white"/>
<path d="M46.5551 20.091C46.4632 18.4477 44.5408 18.6301 44.5408 18.6301H41.9767C41.9767 18.6301 41.9767 18.5842 41.9767 17.3517C41.9767 16.1192 41.0608 16.2558 41.0608 16.2558C41.0608 16.2558 41.1526 15.6166 41.2444 15.1598C41.3363 14.7031 41.5187 13.6989 40.8783 13.5165C40.2379 13.334 39.9624 13.8814 39.9624 13.8814L39.4126 16.2558C39.4126 16.2558 39.0924 16.3017 38.4967 16.2558C37.901 16.2098 37.7644 16.9868 37.7644 16.9868V18.5842H32.6375C32.4997 18.1275 32.2714 18.0816 31.5391 17.7166C30.8069 17.3517 30.8069 16.0733 30.8069 16.0733C30.8069 16.0733 35.1097 16.0733 35.7514 16.0733C36.393 16.0733 36.5295 15.5259 36.5295 15.5259C36.5295 15.5259 36.5295 9.36222 36.5295 8.40401C36.5295 7.4458 35.5677 7.4458 35.5677 7.4458C35.5677 7.4458 25.3138 7.4458 24.0317 7.4458C22.7497 7.4458 22.8874 8.58768 22.8874 8.58768C22.8874 8.58768 22.8874 14.9338 22.8874 15.5271C22.8874 16.1204 23.6656 16.0745 23.6656 16.0745H28.6101C28.6101 17.3529 27.6942 17.7638 27.3281 17.9003C26.9619 18.0368 26.4122 18.5854 26.4122 18.5854C26.4122 18.5854 2.69861 18.5854 2.05819 18.5854C1.41777 18.5854 0.181646 19.0422 0.227563 20.2747C0.273479 21.5072 1.32594 21.7356 1.32594 21.7356H45.0894C45.0906 21.7343 46.6469 21.7343 46.5551 20.091ZM29.7097 12.9703C29.1031 12.9703 28.6113 12.4785 28.6113 11.8719C28.6113 11.2653 29.1031 10.7736 29.7097 10.7736C30.3163 10.7736 30.8081 11.2653 30.8081 11.8719C30.8081 12.4785 30.3151 12.9703 29.7097 12.9703Z" fill="white"/>
<path d="M36.8498 27.625H10.1154C10.0695 28.9493 7.96338 29.9994 7.96338 29.9994V33.9712C9.65746 33.9712 10.1154 36.0253 10.1154 36.0253H36.8039C36.8039 34.1995 38.8641 33.9712 38.8641 33.9712V29.9994C36.6214 29.4049 36.8498 27.625 36.8498 27.625ZM37.2159 32.5042H10.4767V31.4167H37.2159V32.5042Z" fill="white"/>
<path d="M3.34033 23.5613C3.34033 23.5613 3.34033 35.676 3.34033 37.6239C3.34033 39.5717 5.35462 40.0587 5.35462 40.0587C5.35462 40.0587 39.7184 40.0587 41.4282 40.0587C43.1368 40.0587 43.4425 38.1712 43.4425 38.1712V23.5613H3.34033ZM40.6501 34.1535C40.6501 34.1535 40.0096 35.9346 38.498 35.9793C38.498 35.9793 38.4062 37.851 36.1176 37.851C33.829 37.851 10.1155 37.851 10.1155 37.851C10.1155 37.851 8.23892 37.3484 8.28483 36.0252C8.28483 36.0252 6.27054 35.6144 6.27054 34.1535C6.27054 32.6927 6.27054 30.0899 6.27054 30.0899C6.27054 30.0899 5.95033 28.3088 8.28483 27.8074C8.28483 27.8074 8.05646 26.2099 10.4816 25.7073H36.3001C36.3001 25.7073 38.3143 25.8897 38.4968 27.7614C38.4968 27.7614 40.6488 28.0357 40.6488 30.1358C40.6501 32.2359 40.6501 34.1535 40.6501 34.1535Z" fill="white"/>
</svg>
