<svg width="47" height="48" viewBox="0 0 47 48" fill="none" xmlns="http://www.w3.org/2000/svg">
<path d="M33.9855 19.6442C28.3595 18.3368 27.9039 13.2787 27.9039 13.2787C23.4935 16.4046 19.0952 13.2787 19.0952 13.2787C17.6742 18.7911 12.8433 19.6442 12.8433 19.6442C15.6285 24.6455 12.8433 28.4529 12.8433 28.4529C17.8446 29.1344 19.0952 34.7617 19.0952 34.7617C23.5286 31.6357 27.9039 34.7617 27.9039 34.7617C28.7558 29.1357 34.1558 28.4529 34.1558 28.4529C31.1435 23.7924 33.9855 19.6442 33.9855 19.6442Z" fill="white"/>
<path d="M11.1399 30.8406C8.0333 30.8406 5.51514 33.3587 5.51514 36.4654C5.51514 39.572 8.0333 42.0902 11.1399 42.0902C14.2466 42.0902 16.7647 39.572 16.7647 36.4654C16.7647 33.3587 14.2466 30.8406 11.1399 30.8406ZM11.2257 40.2209C9.20297 40.2209 7.56205 38.5787 7.56205 36.5536C7.56205 34.5284 9.20176 32.8875 11.2257 32.8875C13.2497 32.8875 14.8894 34.5296 14.8894 36.5536C14.8894 38.5775 13.2485 40.2209 11.2257 40.2209Z" fill="white"/>
<path d="M35.8597 30.8406C32.753 30.8406 30.2349 33.3587 30.2349 36.4654C30.2349 39.572 32.753 42.0902 35.8597 42.0902C38.9663 42.0902 41.4845 39.572 41.4845 36.4654C41.4845 33.3587 38.9663 30.8406 35.8597 30.8406ZM35.9442 40.2209C33.9215 40.2209 32.2806 38.5787 32.2806 36.5536C32.2806 34.5284 33.9203 32.8875 35.9442 32.8875C37.967 32.8875 39.6079 34.5296 39.6079 36.5536C39.6079 38.5775 37.9682 40.2209 35.9442 40.2209Z" fill="white"/>
<path d="M11.1399 5.95007C8.0333 5.95007 5.51514 8.46824 5.51514 11.5749C5.51514 14.6815 8.0333 17.1997 11.1399 17.1997C14.2466 17.1997 16.7647 14.6815 16.7647 11.5749C16.7647 8.46824 14.2466 5.95007 11.1399 5.95007ZM11.2257 15.3231C9.20297 15.3231 7.56205 13.6834 7.56205 11.6594C7.56205 9.63549 9.20176 7.99578 11.2257 7.99578C13.2497 7.99578 14.8894 9.63549 14.8894 11.6594C14.8894 13.6834 13.2485 15.3231 11.2257 15.3231Z" fill="white"/>
<path d="M35.8597 5.95007C32.753 5.95007 30.2349 8.46824 30.2349 11.5749C30.2349 14.6815 32.753 17.1997 35.8597 17.1997C38.9663 17.1997 41.4845 14.6815 41.4845 11.5749C41.4845 8.46824 38.9663 5.95007 35.8597 5.95007ZM35.9442 15.3231C33.9215 15.3231 32.2806 13.6834 32.2806 11.6594C32.2806 9.63549 33.9203 7.99578 35.9442 7.99578C37.967 7.99578 39.6079 9.63549 39.6079 11.6594C39.6079 13.6834 37.9682 15.3231 35.9442 15.3231Z" fill="white"/>
<path d="M41.145 18.396C38.0372 18.396 35.5166 20.9142 35.5166 24.0208C35.5166 27.1274 38.036 29.6444 41.145 29.6444C44.2528 29.6444 46.7722 27.1262 46.7722 24.0208C46.7722 20.9154 44.2528 18.396 41.145 18.396ZM41.2296 27.769C39.2044 27.769 37.5635 26.1293 37.5635 24.1054C37.5635 22.0826 39.2056 20.4417 41.2296 20.4417C43.2548 20.4417 44.8957 22.0814 44.8957 24.1054C44.8957 26.1281 43.2548 27.769 41.2296 27.769Z" fill="white"/>
<path d="M5.85449 18.396C2.74666 18.396 0.226074 20.9142 0.226074 24.0208C0.226074 27.1274 2.74545 29.6444 5.85449 29.6444C8.96353 29.6444 11.4829 27.1262 11.4829 24.0208C11.4829 20.9154 8.96353 18.396 5.85449 18.396ZM5.94028 27.769C3.91511 27.769 2.27299 26.1293 2.27299 24.1054C2.27299 22.0826 3.91511 20.4417 5.94028 20.4417C7.96544 20.4417 9.60636 22.0814 9.60636 24.1054C9.60636 26.1281 7.96544 27.769 5.94028 27.769Z" fill="white"/>
<path d="M33.4735 8.16385C33.4735 8.16385 37.3099 10.125 39.2698 14.4726C39.2698 14.4726 40.9748 11.4892 40.2933 9.52806C39.6118 7.56814 34.6335 6.28852 33.4735 8.16385ZM42.0176 19.9959C42.0176 19.9959 43.3528 24.0921 41.6756 28.5557C41.6756 28.5557 44.9889 27.6446 45.8891 25.7729C46.7893 23.9036 44.1624 19.4847 42.0176 19.9959ZM39.207 33.4905C39.207 33.4905 37.4586 37.4285 33.2246 39.6228C33.2246 39.6228 36.2973 41.1622 38.2174 40.3744C40.1386 39.5866 41.1428 34.5454 39.207 33.4905ZM13.6181 8.23031C12.4642 6.35135 7.5088 7.63218 6.82972 9.59693C6.15064 11.5617 7.84835 14.5511 7.84835 14.5511C9.7986 10.1939 13.6181 8.23031 13.6181 8.23031ZM5.11268 20.0853C2.97755 19.5729 0.363929 24.0003 1.2593 25.8744C2.15468 27.7485 5.45343 28.662 5.45343 28.662C3.78351 24.1888 5.11268 20.0853 5.11268 20.0853ZM7.90997 33.6041C5.98268 34.6614 6.98318 39.7122 8.89476 40.5013C10.8063 41.2903 13.8646 39.7485 13.8646 39.7485C9.64997 37.5493 7.90997 33.6041 7.90997 33.6041Z" fill="white"/>
<path d="M23.5843 4.58472C12.8506 4.58472 4.14941 13.2859 4.14941 24.0208C4.14941 34.7556 12.8506 43.4556 23.5843 43.4556C34.3179 43.4556 43.0203 34.7544 43.0203 24.0208C43.0203 13.2871 34.3191 4.58472 23.5843 4.58472ZM23.5843 41.5803C13.8862 41.5803 6.02475 33.7188 6.02475 24.0208C6.02475 14.3227 13.8862 6.46126 23.5843 6.46126C33.2823 6.46126 41.1437 14.3227 41.1437 24.0208C41.1437 33.7188 33.2823 41.5803 23.5843 41.5803Z" fill="white"/>
<path d="M23.4153 35.9518C20.3087 35.9518 17.7905 38.4712 17.7905 41.5803C17.7905 44.6881 20.3087 47.2087 23.4153 47.2087C26.5219 47.2087 29.0401 44.6893 29.0401 41.5803C29.0401 38.4712 26.5219 35.9518 23.4153 35.9518ZM23.4153 11.9181C26.5219 11.9181 29.0401 9.39871 29.0401 6.28967C29.0401 3.18184 26.5219 0.661255 23.4153 0.661255C20.3087 0.661255 17.7905 3.18063 17.7905 6.28967C17.7905 9.39871 20.3087 11.9181 23.4153 11.9181Z" fill="white"/>
</svg>
