<svg width="47" height="46" viewBox="0 0 47 46" fill="none" xmlns="http://www.w3.org/2000/svg">
<path d="M9.37949 11.4968C0.749569 12.0454 0.445068 20.0857 0.445068 20.0857V35.9837C0.445068 44.268 8.64966 45.1199 8.64966 45.1199C17.7049 45.1199 18.0094 36.3486 18.0094 36.3486V20.2681C17.2796 11.8617 9.37949 11.4968 9.37949 11.4968ZM15.5782 35.9837C15.5782 35.9837 15.3958 41.5118 9.74441 42.5619C9.74441 42.5619 8.79587 42.5256 8.83332 41.6484C8.86957 40.7711 9.92687 40.9173 9.92687 40.9173C9.92687 40.9173 13.7923 40.2962 13.9385 35.4351V32.146C13.9385 32.146 13.866 31.4512 14.4859 31.415C15.1058 31.3787 15.397 31.5612 15.5795 32.5109V35.9837H15.5782ZM16.6718 28.6733H1.90353V19.902C1.90353 19.902 2.08599 13.6283 9.01457 12.9577C9.01457 12.9577 15.8211 12.7136 16.6718 20.2669V28.6733Z" fill="white"/>
<path d="M22.3245 0.532492C14.3749 0.971117 13.9375 8.39029 13.9375 8.39029V10.5834L15.2135 11.3145V8.20783C16.7819 1.33724 22.8707 1.99458 22.8707 1.99458C29.0332 1.88462 29.9818 8.20783 29.9818 8.20783V17.5277H19.7713C20.0625 17.7102 20.1363 19.1723 20.1363 19.1723V33.6082C20.5012 33.9369 23.0532 33.9731 23.0532 33.9731C30.4917 33.3883 31.2578 26.1153 31.2578 26.1153V8.93887C30.4554 0.313785 22.3245 0.532492 22.3245 0.532492ZM26.1525 30.3179C26.1525 30.3179 22.8707 32.3648 22.1409 30.8665C22.1409 30.8665 21.9584 29.8068 23.052 29.7705C24.1455 29.7343 26.2613 28.3822 26.8812 26.299C26.8812 26.299 27.3548 24.6545 27.2461 21.7303C27.2461 21.7303 27.1361 20.2682 27.7935 20.2682C28.4508 20.2682 28.8145 20.3407 28.887 21.9128C28.9607 23.4836 28.997 28.1985 26.1525 30.3179Z" fill="white"/>
<path d="M46.7555 21.1816C45.9894 12.2642 36.91 11.1307 36.91 11.1307H33.4457V20.4506C33.4457 20.4506 39.572 20.4144 40.3743 20.4506C41.1766 20.4869 41.8327 20.9255 41.8327 22.2776C41.8327 23.6297 40.5567 23.7397 40.5567 23.7397H33.4457C33.5919 29.4406 31.075 31.9624 31.075 31.9624C32.7521 33.2783 36.7275 33.0584 36.7275 33.0584C47.6303 31.7074 46.7555 21.1816 46.7555 21.1816Z" fill="white"/>
</svg>
