<svg width="43" height="47" viewBox="0 0 43 47" fill="none" xmlns="http://www.w3.org/2000/svg">
<path d="M39.5416 11.2584C39.5863 7.81345 36.586 5.04033 33.4504 4.99562C30.3148 4.95091 27.8969 6.91928 27.3592 9.29003C26.8215 11.6608 27.538 13.4648 28.2546 14.4798C28.9711 15.4936 29.33 16.4482 29.33 16.4482C29.2104 19.9669 30.7631 21.4592 30.7631 21.4592C30.7631 21.4592 30.7631 22.891 30.7631 23.964C30.7631 25.0382 31.36 26.5885 33.2716 26.6477C35.1831 26.7069 35.7801 24.5005 35.7801 24.5005V21.638C37.0343 20.6532 37.2131 18.2377 37.2131 18.2377C37.2131 18.2377 36.8096 16.4035 37.9297 15.1952C39.0486 13.988 39.5416 11.2584 39.5416 11.2584ZM34.3458 24.3217C34.3458 24.3217 34.2382 25.2521 33.2704 25.2159C32.3025 25.1796 32.2312 24.4643 32.2312 24.1417C32.2312 23.819 32.1949 22.7098 32.1949 22.7098C32.1949 22.7098 33.4129 23.1387 34.3446 22.7098V24.3217H34.3458ZM34.0449 15.554H34.1669V20.9227C34.1669 20.9227 34.0328 21.4144 33.2716 21.4592C32.5103 21.5039 32.3315 21.2356 32.3762 20.9227C32.4209 20.6097 32.3762 15.554 32.3762 15.554H32.4946C31.8941 15.2652 31.4796 14.6538 31.4796 13.9445C31.4796 12.9573 32.2819 12.1574 33.2704 12.1574C34.26 12.1574 35.0611 12.9573 35.0611 13.9445C35.0599 14.6538 34.6454 15.2652 34.0449 15.554ZM36.4954 10.5431C36.1015 10.2567 36.0652 9.86278 35.7789 9.46887C35.4925 9.07495 35.3487 8.78858 34.5246 8.39466C34.5246 8.39466 33.9519 8.14454 33.9869 7.67933C34.0231 7.21412 34.5596 6.46254 35.5988 7.14283C36.638 7.82312 37.3183 8.53845 37.7484 9.46887C38.1798 10.3993 36.8893 10.8295 36.4954 10.5431Z" fill="white"/>
<path d="M33.9626 1.41771C33.8829 1.10838 33.6025 0.880005 33.269 0.880005C32.9355 0.880005 32.6552 1.10838 32.5754 1.41771H32.5513V3.20484H32.5742C32.6528 3.51417 32.9331 3.74255 33.269 3.74255C33.6037 3.74255 33.8841 3.51417 33.9638 3.20484H33.9868V1.41771H33.9626Z" fill="white"/>
<path d="M42.1672 4.34193C41.9316 4.10631 41.5727 4.07127 41.2984 4.23318L41.2803 4.21506L40.1396 5.35331L40.0127 5.48018L40.0309 5.49831C39.8689 5.7726 39.904 6.13026 40.1396 6.36589C40.3752 6.60151 40.7341 6.63656 41.0084 6.47464L41.0265 6.49276L41.1534 6.36589L42.1672 5.35331L42.2941 5.22643L42.2759 5.20831C42.4379 4.93522 42.4028 4.57756 42.1672 4.34193ZM26.7392 5.48018L25.4402 4.18243L25.4221 4.20056C25.1406 4.03501 24.7732 4.07006 24.5316 4.31172C24.2899 4.55339 24.2549 4.92072 24.4204 5.20106L24.4023 5.21918L25.5707 6.38643L25.7 6.51572L25.7182 6.4976C25.9997 6.66314 26.367 6.6281 26.6087 6.38643C26.8504 6.14476 26.8854 5.77743 26.7199 5.4971L26.7392 5.48018Z" fill="white"/>
<path d="M22.8799 17.8801C23.82 15.8223 23.3282 14.7481 23.2388 14.4798C23.1494 14.2116 22.9259 13.6751 23.7765 12.6903C24.6272 11.7055 23.7765 10.1854 23.7765 10.1854C22.1187 12.7797 19.4773 10.4537 18.4018 9.82776C17.3264 9.20184 15.1321 7.54642 11.7729 9.82776C8.41377 12.1091 9.0856 16.18 9.26443 16.8071C9.44327 17.433 9.62331 18.0601 9.62331 18.0601C8.36906 18.239 8.63852 19.179 9.0856 20.2073C9.53389 21.2368 10.161 21.1015 10.161 21.1015C10.474 23.6958 13.2072 25.7536 13.2072 25.7536C13.1625 27.9902 12.1318 28.975 12.1318 28.975L11.953 44.9008L20.1938 45.4373L20.5527 28.795C19.209 27.9455 19.2984 25.9324 19.2984 25.9324C21.2692 24.7241 22.3446 21.1015 22.3446 21.1015C23.0612 21.2356 23.6883 20.4756 23.9566 19.312C24.2236 18.1483 22.8799 17.8801 22.8799 17.8801Z" fill="white"/>
<path d="M31.4796 41.1429C31.4796 41.1429 30.8525 38.638 30.2254 35.9531C29.5982 33.2694 28.344 32.4187 26.2838 31.6587C24.2236 30.8986 20.1926 28.6161 20.1926 28.6161L16.6099 44.7208H15.7145C15.7145 44.7208 13.5105 34.2953 12.6502 30.2208C12.4411 29.2311 12.3106 28.6161 12.3106 28.6161L11.4152 29.3314C11.2364 29.5103 6.75712 31.5233 4.96517 32.194C3.17321 32.8646 2.63671 34.8777 2.63671 34.8777C2.63671 34.8777 2.18842 36.2648 1.02479 40.9616C-0.140041 45.6584 4.6075 46.3303 4.6075 46.3303C4.6075 46.3303 22.434 46.3303 27.3604 46.3303C32.2856 46.3315 31.4796 41.1429 31.4796 41.1429Z" fill="white"/>
<path d="M5.68067 33.6271C4.38171 34.0741 4.06875 35.4166 4.06875 35.4166C4.06875 35.4166 2.85921 39.8898 2.45683 42.037C2.05325 44.1843 4.60646 44.7208 4.60646 44.7208H15.7147L12.6672 30.2268C12.1755 30.9868 5.68067 33.6271 5.68067 33.6271ZM30.0068 42.037C29.6045 39.8898 28.3997 35.4166 28.3997 35.4166C28.3997 35.4166 28.0868 34.0741 26.7915 33.6271C26.7915 33.6271 20.316 30.9881 19.8254 30.2268L16.7889 44.7208H27.8645C27.8632 44.722 30.4092 44.1843 30.0068 42.037Z" fill="white"/>
<path d="M22.1635 28.6161C21.8953 27.363 20.0139 26.6477 20.0139 26.6477L20.1927 27.7219C20.1927 27.7219 20.2821 27.7219 20.7304 27.9008C21.1787 28.0796 21.2681 29.7797 21.2681 30.048C21.2681 30.3162 19.7904 32.5975 18.9385 34.1635C18.0878 35.7295 17.1018 36.892 16.0723 36.8473C15.0416 36.8025 14.4157 35.4154 13.9227 34.5212C13.4297 33.627 11.6389 31.1657 11.2354 29.6903C10.8318 28.2137 12.6684 27.5431 12.6684 27.5431L12.8473 26.6489C9.03982 27.3195 10.5176 30.7645 10.5176 30.7645C10.5176 30.7645 12.6225 34.2542 13.5638 35.9543C14.5039 37.6544 15.7134 37.7438 15.7134 37.7438C15.7134 37.7438 15.7581 39.444 15.7134 41.3229C15.6687 43.2019 13.9215 45.5726 11.7719 45.2597C9.62223 44.9467 8.90569 41.5018 8.90569 41.5018V38.058C10.0282 37.8478 10.8777 36.8666 10.8777 35.6848C10.8777 34.3508 9.79382 33.2694 8.4574 33.2694C7.12098 33.2694 6.03711 34.3508 6.03711 35.6848C6.03711 36.8485 6.86119 37.82 7.95836 38.0496L7.82907 41.1441C8.45619 46.6468 12.4872 46.3339 12.4872 46.3339C16.0699 45.708 16.6076 41.8606 16.6076 41.8606L16.7864 37.9239C18.0407 37.7003 18.7572 36.3132 18.7572 36.3132C18.7572 36.3132 21.041 33.0023 21.6234 31.6611C22.2082 30.3162 22.4318 29.8691 22.1635 28.6161Z" fill="#A100FD"/>
</svg>
