<svg width="25" height="49" viewBox="0 0 25 49" fill="none" xmlns="http://www.w3.org/2000/svg">
<path d="M21.0754 10.1499C21.0754 10.1499 8.26943 10.1499 4.2191 10.1499C0.168765 10.1499 0.103516 14.3851 0.103516 14.3851C0.103516 14.3851 0.103516 40.1915 0.103516 44.3288C0.103516 48.4661 3.8276 48.8601 3.8276 48.8601C3.8276 48.8601 15.9798 48.8601 20.2924 48.8601C24.6049 48.8601 24.8985 44.9197 24.8985 44.9197C24.8985 44.9197 24.8985 19.8347 24.8985 15.1729C24.8985 10.5112 21.0754 10.1499 21.0754 10.1499ZM20.0954 46.1026C18.005 46.1026 4.41485 46.1026 4.41485 46.1026C4.41485 46.1026 2.84643 46.1026 2.84643 44.527C2.84643 42.9513 2.84643 14.3863 2.84643 14.3863C2.84643 14.3863 2.97693 13.0729 4.2191 13.0729C5.46127 13.0729 6.76747 13.0729 6.76747 13.0729L9.31585 14.3863H15.5883L17.9409 13.0729H20.2936C20.2936 13.0729 22.0577 13.0076 22.0577 14.3863C22.0577 15.765 22.0577 44.7239 22.0577 44.7239C22.0577 44.7239 22.1858 46.1026 20.0954 46.1026Z" fill="white"/>
<path d="M11.6564 28.2543V26.4817C11.6564 26.4805 10.7453 27.3674 11.6564 28.2543ZM12.4491 22.4615C8.22838 22.4615 4.80518 25.9017 4.80518 30.1453C4.80518 34.389 8.22717 37.8291 12.4491 37.8291C16.6698 37.8291 20.0918 34.389 20.0918 30.1453C20.0918 25.9017 16.6698 22.4615 12.4491 22.4615ZM13.2442 35.346V35.8185C13.2442 35.8185 13.2442 36.5278 12.4503 36.4093C11.6564 36.2909 11.6564 35.9961 11.6564 35.8185C11.6564 35.6408 11.6564 35.346 11.6564 35.346C11.6564 35.346 9.15759 35.021 8.92197 32.7457C8.92197 32.7457 8.77455 31.7995 9.62763 31.6823C10.4807 31.5651 10.6269 32.1548 10.6861 32.7457C10.6861 32.7457 11.2444 33.5142 11.6564 33.5734V30.2638C11.6564 30.2638 9.62763 29.5255 9.62763 27.9003C9.62763 26.275 10.3925 25.1525 11.6564 24.8275V24.5906C11.6564 24.5906 11.6854 23.9695 12.3331 23.8813C12.9795 23.7931 13.2442 24.2656 13.2442 24.5906C13.2442 24.9157 13.2442 24.9447 13.2442 24.9447C13.2442 24.9447 15.0965 25.0921 15.273 26.9541C15.273 26.9541 15.4204 28.1661 14.4501 28.1359C13.4798 28.1069 13.6272 27.0725 13.6272 27.0725L13.2454 26.6001V28.9636C13.2454 28.9636 15.8626 29.8795 15.8626 31.918C15.8626 33.9564 15.0675 35.05 13.2442 35.346ZM13.2442 30.973V33.6918C13.9208 33.426 14.1855 32.7759 14.2145 32.1548C14.2447 31.5337 13.2442 30.973 13.2442 30.973Z" fill="white"/>
<path d="M19.0379 3.33362C18.6911 3.00254 16.301 0.771958 12.3582 0.792499C8.3127 0.895208 6.04587 3.51971 6.04587 3.51971C6.04587 3.51971 5.55529 4.07796 5.92383 4.635C6.29116 5.19325 7.0065 4.92379 7.14908 4.69662C7.14908 4.69662 9.11021 2.56875 12.2362 2.40321C15.3621 2.23767 17.6084 4.09729 17.9975 4.57217C17.9975 4.57217 18.6512 5.29475 19.2227 4.75825C19.7931 4.22175 19.3847 3.6635 19.0379 3.33362ZM11.9897 3.51971C9.35429 3.68525 7.88375 5.50258 7.88375 5.50258C7.45479 5.93637 7.659 6.59733 8.19066 6.80396C8.72233 7.01058 9.23225 6.30854 9.23225 6.30854C9.96812 5.70921 11.0097 5.08933 12.7255 5.06879C14.4414 5.04825 15.7077 5.97746 16.0968 6.37017C16.4859 6.76288 17.1178 6.9695 17.5069 6.49463C17.8948 6.01975 17.5685 5.56542 17.5685 5.56542C16.504 4.42838 14.625 3.35417 11.9897 3.51971ZM14.932 6.74112C13.6862 5.91462 12.1745 6.12125 12.1745 6.12125C10.9698 6.24571 10.1107 6.92721 9.78446 7.23654C9.457 7.54588 9.27333 8.06304 9.78446 8.47629C10.2956 8.88954 10.7656 8.47629 10.7656 8.47629C10.7656 8.47629 11.0315 8.12467 11.6852 7.85642C12.3389 7.58817 13.5641 7.56763 14.3205 8.29021C15.077 9.01279 15.5663 8.51738 15.669 8.35183C15.7693 8.1875 16.1777 7.56763 14.932 6.74112Z" fill="white"/>
</svg>
