<svg width="44" height="49" viewBox="0 0 44 49" fill="none" xmlns="http://www.w3.org/2000/svg">
<path d="M42.8738 9.47559C42.8738 9.47559 40.6625 9.47559 39.2983 9.47559C37.9341 9.47559 38.1226 10.7468 38.1226 10.7468C38.1226 10.7468 38.1226 12.3007 38.1226 13.7603C38.1226 15.22 39.6753 15.2671 39.6753 15.2671C39.6753 15.2671 40.9924 15.2671 42.3095 15.2671C43.6266 15.2671 43.8151 14.1373 43.8151 14.1373C43.8151 14.1373 43.8151 11.9708 43.8151 10.7468C43.8151 9.52271 42.8738 9.47559 42.8738 9.47559ZM42.1222 13.3833C42.1222 13.3833 42.0847 13.8075 41.7464 13.8075C41.4081 13.8075 40.2408 13.8075 40.2408 13.8075C40.2408 13.8075 39.7236 13.8353 39.7236 13.3833C39.7236 12.9314 39.7236 11.4995 39.7236 11.4995C39.7236 11.4995 39.5641 11.1225 40.0523 11.1225C40.5417 11.1225 41.7452 11.1225 41.7452 11.1225C41.7452 11.1225 42.121 11.0476 42.121 11.688C42.1222 12.3285 42.1222 13.3833 42.1222 13.3833ZM42.8738 34.151C42.8738 34.151 40.6625 34.151 39.2983 34.151C37.9341 34.151 38.1226 35.4221 38.1226 35.4221C38.1226 35.4221 38.1226 36.976 38.1226 38.4357C38.1226 39.8954 39.6753 39.9425 39.6753 39.9425C39.6753 39.9425 40.9924 39.9425 42.3095 39.9425C43.6266 39.9425 43.8151 38.8127 43.8151 38.8127C43.8151 38.8127 43.8151 36.6462 43.8151 35.4221C43.8151 34.1981 42.8738 34.151 42.8738 34.151ZM42.1222 38.0587C42.1222 38.0587 42.0847 38.4828 41.7464 38.4828C41.4081 38.4828 40.2408 38.4828 40.2408 38.4828C40.2408 38.4828 39.7236 38.5106 39.7236 38.0587C39.7236 37.6068 39.7236 36.1749 39.7236 36.1749C39.7236 36.1749 39.5641 35.7979 40.0523 35.7979C40.5417 35.7979 41.7452 35.7979 41.7452 35.7979C41.7452 35.7979 42.121 35.723 42.121 36.3634C42.1222 37.0038 42.1222 38.0587 42.1222 38.0587Z" fill="white"/>
<path d="M42.8737 21.53C42.8737 21.53 40.6624 21.53 39.2982 21.53C37.934 21.53 38.1225 22.8011 38.1225 22.8011C38.1225 22.8011 38.1225 24.355 38.1225 25.8147C38.1225 27.2744 39.6752 27.3215 39.6752 27.3215C39.6752 27.3215 40.9923 27.3215 42.3094 27.3215C43.6264 27.3215 43.8149 26.1917 43.8149 26.1917C43.8149 26.1917 43.8149 24.0252 43.8149 22.8011C43.8149 21.5771 42.8737 21.53 42.8737 21.53ZM33.4656 2.69446C33.4656 2.69446 31.2543 2.69446 29.8901 2.69446C28.5259 2.69446 28.7144 3.96563 28.7144 3.96563C28.7144 3.96563 28.7144 5.51954 28.7144 6.97921C28.7144 8.43888 30.2671 8.486 30.2671 8.486C30.2671 8.486 31.5842 8.486 32.9013 8.486C34.2184 8.486 34.4069 7.35621 34.4069 7.35621C34.4069 7.35621 34.4069 5.18967 34.4069 3.96563C34.4069 2.74158 33.4656 2.69446 33.4656 2.69446ZM33.4656 13.996C33.4656 13.996 31.2543 13.996 29.8901 13.996C28.5259 13.996 28.7144 15.2672 28.7144 15.2672C28.7144 15.2672 28.7144 16.8211 28.7144 18.2808C28.7144 19.7404 30.2671 19.7875 30.2671 19.7875C30.2671 19.7875 31.5842 19.7875 32.9013 19.7875C34.2184 19.7875 34.4069 18.6577 34.4069 18.6577C34.4069 18.6577 34.4069 16.4912 34.4069 15.2672C34.4069 14.0431 33.4656 13.996 33.4656 13.996ZM33.4656 27.3698C33.4656 27.3698 31.2543 27.3698 29.8901 27.3698C28.5259 27.3698 28.7144 28.641 28.7144 28.641C28.7144 28.641 28.7144 30.1949 28.7144 31.6546C28.7144 33.1142 30.2671 33.1614 30.2671 33.1614C30.2671 33.1614 31.5842 33.1614 32.9013 33.1614C34.2184 33.1614 34.4069 32.0316 34.4069 32.0316C34.4069 32.0316 34.4069 29.865 34.4069 28.641C34.4069 27.417 33.4656 27.3698 33.4656 27.3698ZM33.4656 39.0484C33.4656 39.0484 31.2543 39.0484 29.8901 39.0484C28.5259 39.0484 28.7144 40.3195 28.7144 40.3195C28.7144 40.3195 28.7144 41.8735 28.7144 43.3331C28.7144 44.7928 30.2671 44.8399 30.2671 44.8399C30.2671 44.8399 31.5842 44.8399 32.9013 44.8399C34.2184 44.8399 34.4069 43.7101 34.4069 43.7101C34.4069 43.7101 34.4069 41.5436 34.4069 40.3195C34.4069 39.0955 33.4656 39.0484 33.4656 39.0484Z" fill="white"/>
<path d="M24.5287 16.0211C24.5287 16.0211 24.5287 3.25993 24.5287 1.89451C24.5287 0.529094 23.6817 0.575011 23.6817 0.575011C23.6696 0.575011 23.5234 0.575011 22.1761 0.575011C20.5763 0.575011 20.6705 1.8933 20.6705 1.8933C20.6705 1.8933 20.6234 4.34259 20.6705 4.71839C20.7176 5.09539 20.2947 5.28389 20.2947 5.28389C17.7077 5.51951 14.9793 7.2148 14.2736 7.73318C13.5679 8.25155 13.145 7.73318 13.145 7.73318C13.145 7.73318 13.3335 7.9688 11.8279 6.41489C10.3223 4.86097 8.81796 6.22639 8.81796 6.22639C8.81796 6.22639 7.21813 7.82743 6.18379 9.05147C5.14946 10.2755 5.99529 11.5008 5.99529 11.5008C5.99529 11.5008 7.31238 12.5363 7.87667 13.0076C8.44096 13.4788 7.87667 14.1373 7.87667 14.1373C6.79521 15.22 5.90104 17.8107 5.61829 19.4117C5.33554 21.0128 4.30121 20.73 4.30121 20.73C4.30121 20.73 4.20696 20.73 2.60833 20.73C1.0085 20.73 0.726958 22.4253 0.726958 22.4253C0.726958 22.4253 0.491333 24.7803 0.538458 26.3814C0.585583 27.9824 2.41983 28.2652 2.41983 28.2652C2.41983 28.2652 3.83117 28.2652 4.67821 28.2652C5.52525 28.2652 5.431 29.0192 5.431 29.0192C5.6195 31.5144 7.82954 34.5292 8.06517 35.0463C8.30079 35.5647 7.87667 35.9876 7.87667 35.9876C7.87667 35.9876 6.9825 36.8347 6.18379 37.6829C5.38388 38.53 6.18379 39.9437 6.18379 39.9437C6.18379 39.9437 7.40663 41.0735 8.81796 42.393C10.2293 43.7113 11.2636 42.9585 11.2636 42.9585L12.7692 41.4517C13.1921 40.6047 14.0863 41.0747 14.0863 41.0747C16.1562 42.8171 19.8247 43.4298 20.1074 43.524C20.3902 43.6183 20.6717 43.901 20.6717 43.901C20.6717 43.901 20.6717 45.5963 20.6717 46.9146C20.6717 48.2329 21.8003 48.4214 21.8003 48.4214C21.8003 48.4214 22.6945 48.3271 23.4932 48.4214C24.2931 48.5156 24.5275 47.4801 24.5275 47.4801V32.9728C22.4576 32.7843 16.4836 29.0639 17.8478 22.9896C19.2133 16.9153 24.5287 16.0211 24.5287 16.0211Z" fill="white"/>
</svg>
