<svg width="33" height="30" viewBox="0 0 33 30" fill="none" xmlns="http://www.w3.org/2000/svg">
<path d="M30.0316 16.7235C31.2733 16.4303 32.0422 15.186 31.749 13.9443C31.4558 12.7026 30.2115 11.9337 28.9698 12.2269C27.7281 12.5201 26.9592 13.7644 27.2524 15.0061C27.5456 16.2478 28.7899 17.0167 30.0316 16.7235Z" fill="#3A71D5"/>
<path d="M25.9118 12.3709C26.9727 12.1204 27.6297 11.0572 27.3792 9.99624C27.1287 8.93528 26.0655 8.27829 25.0045 8.52881C23.9436 8.77933 23.2866 9.8425 23.5371 10.9035C23.7876 11.9644 24.8508 12.6214 25.9118 12.3709Z" fill="#3A71D5"/>
<path d="M22.5195 8.89533C23.3802 8.69209 23.9131 7.82961 23.7099 6.96893C23.5067 6.10824 22.6442 5.57527 21.7835 5.7785C20.9228 5.98173 20.3899 6.84421 20.5931 7.7049C20.7963 8.56559 21.6588 9.09856 22.5195 8.89533Z" fill="#3A71D5"/>
<path d="M19.5885 6.14696C20.3464 6.14696 20.9608 5.53256 20.9608 4.77465C20.9608 4.01675 20.3464 3.40234 19.5885 3.40234C18.8306 3.40234 18.2162 4.01675 18.2162 4.77465C18.2162 5.53256 18.8306 6.14696 19.5885 6.14696Z" fill="#3A71D5"/>
<path d="M17.3727 3.66726C17.9471 3.66726 18.4124 3.20194 18.4124 2.62757C18.4124 2.0532 17.9471 1.58789 17.3727 1.58789C16.7983 1.58789 16.333 2.0532 16.333 2.62757C16.3312 3.20194 16.7983 3.66726 17.3727 3.66726Z" fill="#3A71D5"/>
<path d="M15.3027 1.58679C15.7408 1.58679 16.0952 1.23235 16.0952 0.794303C16.097 0.354437 15.7408 0 15.3027 0C14.8647 0 14.5103 0.354437 14.5103 0.792485C14.5103 1.23235 14.8647 1.58679 15.3027 1.58679Z" fill="#3A71D5"/>
<path d="M26.855 19.9466C27.6259 19.1757 27.6259 17.9259 26.855 17.155C26.0842 16.3841 24.8344 16.3841 24.0635 17.155C23.2926 17.9259 23.2926 19.1757 24.0635 19.9466C24.8344 20.7174 26.0842 20.7174 26.855 19.9466Z" fill="#3A71D5"/>
<path d="M22.5195 23.2195C23.3802 23.0163 23.9131 22.1538 23.7099 21.2931C23.5067 20.4325 22.6442 19.8995 21.7835 20.1027C20.9228 20.306 20.3899 21.1684 20.5931 22.0291C20.7963 22.8898 21.6588 23.4228 22.5195 23.2195Z" fill="#3A71D5"/>
<path d="M19.5885 25.5981C20.3464 25.5981 20.9608 24.9837 20.9608 24.2258C20.9608 23.4679 20.3464 22.8535 19.5885 22.8535C18.8306 22.8535 18.2162 23.4679 18.2162 24.2258C18.2162 24.9837 18.8306 25.5981 19.5885 25.5981Z" fill="#3A71D5"/>
<path d="M17.3727 25.3359C16.7983 25.3359 16.333 25.8013 16.333 26.3756C16.333 26.95 16.7983 27.4153 17.3727 27.4153C17.9471 27.4153 18.4124 26.95 18.4124 26.3756C18.4124 25.8013 17.9452 25.3359 17.3727 25.3359Z" fill="#3A71D5"/>
<path d="M15.3027 27.416C14.8647 27.416 14.5103 27.7705 14.5103 28.2085C14.5103 28.6465 14.8647 29.001 15.3027 29.001C15.7408 29.001 16.0952 28.6465 16.0952 28.2085C16.097 27.7723 15.7408 27.416 15.3027 27.416Z" fill="#3A71D5"/>
<path d="M19.7008 11.8469C20.4716 11.0761 20.4716 9.82626 19.7008 9.0554C18.9299 8.28453 17.6801 8.28453 16.9092 9.0554C16.1383 9.82626 16.1383 11.0761 16.9092 11.8469C17.6801 12.6178 18.9299 12.6178 19.7008 11.8469Z" fill="#19C787"/>
<path d="M15.861 8.47019C16.4864 7.84484 16.4864 6.83094 15.861 6.20559C15.2357 5.58024 14.2218 5.58024 13.5964 6.20559C12.9711 6.83094 12.9711 7.84484 13.5964 8.47019C14.2218 9.09554 15.2357 9.09554 15.861 8.47019Z" fill="#19C787"/>
<path d="M12.525 6.10961C13.2626 5.93544 13.7193 5.19632 13.5451 4.45872C13.371 3.72113 12.6318 3.26438 11.8942 3.43855C11.1567 3.61272 10.6999 4.35184 10.8741 5.08944C11.0482 5.82703 11.7874 6.28378 12.525 6.10961Z" fill="#19C787"/>
<path d="M10.0082 3.6653C10.5826 3.6653 11.0479 3.19999 11.0479 2.62562C11.0479 2.05125 10.5826 1.58594 10.0082 1.58594C9.43382 1.58594 8.96851 2.05125 8.96851 2.62562C8.96851 3.19999 9.43382 3.6653 10.0082 3.6653Z" fill="#19C787"/>
<path d="M8.17298 1.58692C8.61103 1.58692 8.96546 1.23249 8.96546 0.794438C8.96546 0.35639 8.61103 0.00195312 8.17298 0.00195312C7.73493 0.00195312 7.38049 0.35639 7.38049 0.794438C7.38049 1.23249 7.73493 1.58692 8.17298 1.58692Z" fill="#19C787"/>
<path d="M18.7597 20.4705C19.8206 20.22 20.4776 19.1568 20.2271 18.0958C19.9766 17.0349 18.9134 16.3779 17.8524 16.6284C16.7915 16.8789 16.1345 17.9421 16.385 19.0031C16.6355 20.064 17.6987 20.721 18.7597 20.4705Z" fill="#19C787"/>
<path d="M15.0983 23.2215C15.959 23.0183 16.492 22.1558 16.2888 21.2951C16.0855 20.4344 15.2231 19.9014 14.3624 20.1047C13.5017 20.3079 12.9687 21.1704 13.1719 22.0311C13.3752 22.8918 14.2377 23.4247 15.0983 23.2215Z" fill="#19C787"/>
<path d="M12.525 25.5627C13.2626 25.3886 13.7193 24.6494 13.5451 23.9118C13.371 23.1743 12.6318 22.7175 11.8942 22.8917C11.1567 23.0658 10.6999 23.805 10.8741 24.5426C11.0482 25.2802 11.7874 25.7369 12.525 25.5627Z" fill="#19C787"/>
<path d="M10.0082 25.3359C9.43382 25.3359 8.96851 25.8013 8.96851 26.3756C8.96851 26.95 9.43382 27.4153 10.0082 27.4153C10.5826 27.4153 11.0479 26.95 11.0479 26.3756C11.0479 25.8013 10.5826 25.3359 10.0082 25.3359Z" fill="#19C787"/>
<path d="M8.17298 27.416C7.73493 27.416 7.38049 27.7705 7.38049 28.2085C7.38049 28.6465 7.73493 29.001 8.17298 29.001C8.61103 29.001 8.96546 28.6465 8.96546 28.2085C8.96728 27.7723 8.61284 27.416 8.17298 27.416Z" fill="#19C787"/>
<path d="M22.1527 16.7884C23.4286 16.7884 24.4629 15.7541 24.4629 14.4782C24.4629 13.2023 23.4286 12.168 22.1527 12.168C20.8768 12.168 19.8425 13.2023 19.8425 14.4782C19.8425 15.7541 20.8768 16.7884 22.1527 16.7884Z" fill="#19C787"/>
<path d="M10.9426 12.4264C12.0327 12.4264 12.9165 11.5426 12.9165 10.4525C12.9165 9.36228 12.0327 8.47852 10.9426 8.47852C9.85239 8.47852 8.96863 9.36228 8.96863 10.4525C8.96863 11.5426 9.85239 12.4264 10.9426 12.4264Z" fill="#FCB64B"/>
<path d="M7.98689 8.89533C8.84758 8.69209 9.38055 7.82961 9.17732 6.96893C8.97409 6.10824 8.11161 5.57527 7.25092 5.7785C6.39023 5.98173 5.85726 6.84421 6.06049 7.7049C6.26372 8.56559 7.1262 9.09856 7.98689 8.89533Z" fill="#FCB64B"/>
<path d="M5.09033 6.14696C5.84823 6.14696 6.46263 5.53256 6.46263 4.77465C6.46263 4.01675 5.84823 3.40234 5.09033 3.40234C4.33242 3.40234 3.71802 4.01675 3.71802 4.77465C3.71802 5.53256 4.33242 6.14696 5.09033 6.14696Z" fill="#FCB64B"/>
<path d="M2.87159 3.66726C3.44596 3.66726 3.91127 3.20194 3.91127 2.62757C3.91127 2.0532 3.44596 1.58789 2.87159 1.58789C2.29722 1.58789 1.83191 2.0532 1.83191 2.62757C1.83191 3.20194 2.29722 3.66726 2.87159 3.66726Z" fill="#FCB64B"/>
<path d="M0.792485 0C0.354437 0 0 0.354437 0 0.792485C0 1.23053 0.354437 1.58497 0.792485 1.58497C1.23053 1.58497 1.58497 1.23053 1.58497 0.792485C1.58679 0.354437 1.23235 0 0.792485 0Z" fill="#FCB64B"/>
<path d="M10.9426 20.5241C12.0327 20.5241 12.9165 19.6403 12.9165 18.5501C12.9165 17.4599 12.0327 16.5762 10.9426 16.5762C9.85239 16.5762 8.96863 17.4599 8.96863 18.5501C8.96863 19.6403 9.85239 20.5241 10.9426 20.5241Z" fill="#FCB64B"/>
<path d="M8.75054 22.7964C9.37589 22.171 9.37589 21.1571 8.75054 20.5318C8.12519 19.9064 7.11129 19.9064 6.48594 20.5318C5.86059 21.1571 5.86059 22.171 6.48594 22.7964C7.11129 23.4217 8.12519 23.4217 8.75054 22.7964Z" fill="#FCB64B"/>
<path d="M5.09033 25.5981C5.84823 25.5981 6.46263 24.9837 6.46263 24.2258C6.46263 23.4679 5.84823 22.8535 5.09033 22.8535C4.33242 22.8535 3.71802 23.4679 3.71802 24.2258C3.71802 24.9837 4.33242 25.5981 5.09033 25.5981Z" fill="#FCB64B"/>
<path d="M2.87159 25.3359C2.29722 25.3359 1.83191 25.8013 1.83191 26.3756C1.83191 26.95 2.29722 27.4153 2.87159 27.4153C3.44596 27.4153 3.91127 26.95 3.91127 26.3756C3.91309 25.8013 3.44596 25.3359 2.87159 25.3359Z" fill="#FCB64B"/>
<path d="M0.792485 27.416C0.354437 27.416 0 27.7705 0 28.2085C0 28.6465 0.354437 29.001 0.792485 29.001C1.23053 29.001 1.58497 28.6465 1.58497 28.2085C1.58679 27.7723 1.23235 27.416 0.792485 27.416Z" fill="#FCB64B"/>
<path d="M16.4412 16.1101C17.3433 15.2079 17.3433 13.7452 16.4412 12.843C15.539 11.9408 14.0763 11.9408 13.1741 12.843C12.2719 13.7452 12.2719 15.2079 13.1741 16.1101C14.0763 17.0123 15.539 17.0123 16.4412 16.1101Z" fill="#FCB64B"/>
</svg>
