<svg width="80" height="29" viewBox="0 0 80 29" fill="none" xmlns="http://www.w3.org/2000/svg">
<path d="M1.39502 22.1604V7.11328H6.04144V22.1604H1.39502Z" fill="#3D3D3D"/>
<path d="M5.74174 0.752449C5.21337 0.250816 4.53973 0 3.71903 0C2.9183 0 2.2483 0.250816 1.71084 0.750632C1.17339 1.25226 0.904663 1.88476 0.904663 2.65175C0.904663 3.41874 1.17339 4.05668 1.71084 4.5674C2.24648 5.07994 2.91648 5.33439 3.71903 5.33439C4.53973 5.33439 5.21337 5.08358 5.74174 4.58194C6.27011 4.08031 6.53521 3.43873 6.53521 2.65357C6.53521 1.88839 6.27011 1.25408 5.74174 0.752449Z" fill="#3D3D3D"/>
<path d="M17.7661 6.75781C19.4602 6.75781 20.7911 7.2958 21.757 8.37176C22.723 9.44773 23.206 10.9072 23.206 12.7483V22.1594H18.5596V13.7898C18.5596 12.9137 18.3871 12.263 18.0403 11.8341C17.6935 11.4052 17.0743 11.1907 16.181 11.1907C14.3398 11.1907 13.4211 12.1849 13.4211 14.1733V22.1612H8.77466V7.11404H13.4211V8.80978C14.5323 7.4412 15.9812 6.75781 17.7661 6.75781Z" fill="#3D3D3D"/>
<path d="M47.1473 6.75781C49.6076 6.75781 51.5759 7.61022 53.052 9.31505C54.5282 11.0199 55.1474 13.1227 54.9113 15.6218H43.9517C44.0606 16.716 44.4201 17.5411 45.032 18.0973C45.6421 18.6534 46.3847 18.9315 47.2599 18.9315C47.8972 18.9315 48.4528 18.7806 48.9267 18.4808C49.4006 18.179 49.7275 17.7647 49.9108 17.2358H54.6934C54.2014 19.0042 53.2772 20.3273 51.919 21.2034C50.5609 22.0794 49.0084 22.5174 47.2599 22.5174C44.8904 22.5174 42.9603 21.7704 41.4659 20.2746C39.9716 18.7788 39.2253 16.9013 39.2253 14.6385C39.2253 12.3957 39.968 10.5219 41.4532 9.01698C42.933 7.51026 44.8323 6.75781 47.1473 6.75781ZM47.1201 10.3419C45.535 10.3419 44.5236 11.1635 44.086 12.8047H50.0724C49.909 12.0577 49.5749 11.4597 49.0756 11.0126C48.5727 10.5655 47.9208 10.3419 47.1201 10.3419Z" fill="#3D3D3D"/>
<path d="M57.1501 22.1605V1.09375H61.7966V22.1605H57.1501Z" fill="#3D3D3D"/>
<path d="M75.0521 7.11328H80L70.4057 28.9997H65.4579L69.3671 20.0812L63.7094 7.11328H68.6572L71.8274 14.9649L75.0521 7.11328Z" fill="#3D3D3D"/>
<path fill-rule="evenodd" clip-rule="evenodd" d="M37.2003 17.4573L37.9938 21.205C37.5198 21.534 36.8371 21.8339 35.9438 22.1083C35.0505 22.3809 34.168 22.5191 33.2929 22.5191C31.6714 22.5191 30.3096 22.0138 29.2075 21.0014C28.1054 19.9891 27.5534 18.4351 27.5534 16.3359V11.4922H24.9841V7.11566H27.5534V4.02407L32.1998 3.01172V7.11566H37.2566V11.4922H32.2216V11.4756H29.4051L29.4676 11.4918H29.4274L29.7803 11.5729L32.198 12.1997V16.0614C32.198 17.4846 32.8353 18.1952 34.1117 18.1952C34.622 18.1952 35.6515 17.9498 37.2003 17.4573Z" fill="#3D3D3D"/>
</svg>
