<svg width="87" height="87" viewBox="0 0 87 87" fill="none" xmlns="http://www.w3.org/2000/svg">
<path d="M43.5 0C19.4759 0 0 19.4759 0 43.5C0 67.5241 19.4759 87 43.5 87C67.5241 87 87 67.5241 87 43.5C87 19.4759 67.5241 0 43.5 0ZM43.5 84.999C20.5803 84.999 2.001 66.4197 2.001 43.5C2.001 20.5803 20.5803 2.001 43.5 2.001C66.4197 2.001 84.999 20.5803 84.999 43.5C84.999 66.4197 66.4197 84.999 43.5 84.999Z" fill="#A100FD"/>
<circle cx="43.5" cy="43.5" r="43.5" fill="#A100FD"/>
<path d="M53.9855 39.6442C48.3595 38.3368 47.9039 33.2787 47.9039 33.2787C43.4935 36.4046 39.0952 33.2787 39.0952 33.2787C37.6742 38.7911 32.8433 39.6442 32.8433 39.6442C35.6285 44.6455 32.8433 48.4529 32.8433 48.4529C37.8446 49.1344 39.0952 54.7617 39.0952 54.7617C43.5286 51.6357 47.9039 54.7617 47.9039 54.7617C48.7558 49.1357 54.1558 48.4529 54.1558 48.4529C51.1435 43.7924 53.9855 39.6442 53.9855 39.6442Z" fill="white"/>
<path d="M31.1399 50.8406C28.0333 50.8406 25.5151 53.3587 25.5151 56.4654C25.5151 59.572 28.0333 62.0902 31.1399 62.0902C34.2466 62.0902 36.7647 59.572 36.7647 56.4654C36.7647 53.3587 34.2466 50.8406 31.1399 50.8406ZM31.2257 60.2209C29.203 60.2209 27.5621 58.5787 27.5621 56.5536C27.5621 54.5284 29.2018 52.8875 31.2257 52.8875C33.2497 52.8875 34.8894 54.5296 34.8894 56.5536C34.8894 58.5775 33.2485 60.2209 31.2257 60.2209Z" fill="white"/>
<path d="M55.8597 50.8406C52.753 50.8406 50.2349 53.3587 50.2349 56.4654C50.2349 59.572 52.753 62.0902 55.8597 62.0902C58.9663 62.0902 61.4845 59.572 61.4845 56.4654C61.4845 53.3587 58.9663 50.8406 55.8597 50.8406ZM55.9442 60.2209C53.9215 60.2209 52.2806 58.5787 52.2806 56.5536C52.2806 54.5284 53.9203 52.8875 55.9442 52.8875C57.967 52.8875 59.6079 54.5296 59.6079 56.5536C59.6079 58.5775 57.9682 60.2209 55.9442 60.2209Z" fill="white"/>
<path d="M31.1399 25.9501C28.0333 25.9501 25.5151 28.4682 25.5151 31.5749C25.5151 34.6815 28.0333 37.1997 31.1399 37.1997C34.2466 37.1997 36.7647 34.6815 36.7647 31.5749C36.7647 28.4682 34.2466 25.9501 31.1399 25.9501ZM31.2257 35.3231C29.203 35.3231 27.5621 33.6834 27.5621 31.6594C27.5621 29.6355 29.2018 27.9958 31.2257 27.9958C33.2497 27.9958 34.8894 29.6355 34.8894 31.6594C34.8894 33.6834 33.2485 35.3231 31.2257 35.3231Z" fill="white"/>
<path d="M55.8597 25.9501C52.753 25.9501 50.2349 28.4682 50.2349 31.5749C50.2349 34.6815 52.753 37.1997 55.8597 37.1997C58.9663 37.1997 61.4845 34.6815 61.4845 31.5749C61.4845 28.4682 58.9663 25.9501 55.8597 25.9501ZM55.9442 35.3231C53.9215 35.3231 52.2806 33.6834 52.2806 31.6594C52.2806 29.6355 53.9203 27.9958 55.9442 27.9958C57.967 27.9958 59.6079 29.6355 59.6079 31.6594C59.6079 33.6834 57.9682 35.3231 55.9442 35.3231Z" fill="white"/>
<path d="M61.145 38.396C58.0372 38.396 55.5166 40.9142 55.5166 44.0208C55.5166 47.1274 58.036 49.6444 61.145 49.6444C64.2528 49.6444 66.7722 47.1262 66.7722 44.0208C66.7722 40.9154 64.2528 38.396 61.145 38.396ZM61.2296 47.769C59.2044 47.769 57.5635 46.1293 57.5635 44.1054C57.5635 42.0826 59.2056 40.4417 61.2296 40.4417C63.2548 40.4417 64.8957 42.0814 64.8957 44.1054C64.8957 46.1281 63.2548 47.769 61.2296 47.769Z" fill="white"/>
<path d="M25.8545 38.396C22.7467 38.396 20.2261 40.9142 20.2261 44.0208C20.2261 47.1274 22.7454 49.6444 25.8545 49.6444C28.9635 49.6444 31.4829 47.1262 31.4829 44.0208C31.4829 40.9154 28.9635 38.396 25.8545 38.396ZM25.9403 47.769C23.9151 47.769 22.273 46.1293 22.273 44.1054C22.273 42.0826 23.9151 40.4417 25.9403 40.4417C27.9654 40.4417 29.6064 42.0814 29.6064 44.1054C29.6064 46.1281 27.9654 47.769 25.9403 47.769Z" fill="white"/>
<path d="M53.4735 28.1639C53.4735 28.1639 57.3099 30.125 59.2698 34.4726C59.2698 34.4726 60.9748 31.4892 60.2933 29.5281C59.6118 27.5681 54.6335 26.2885 53.4735 28.1639ZM62.0176 39.9959C62.0176 39.9959 63.3528 44.0921 61.6756 48.5557C61.6756 48.5557 64.9889 47.6446 65.8891 45.7729C66.7893 43.9036 64.1624 39.4847 62.0176 39.9959ZM59.207 53.4905C59.207 53.4905 57.4586 57.4285 53.2246 59.6228C53.2246 59.6228 56.2973 61.1622 58.2174 60.3744C60.1386 59.5866 61.1428 54.5454 59.207 53.4905ZM33.6181 28.2303C32.4642 26.3514 27.5088 27.6322 26.8297 29.5969C26.1506 31.5617 27.8483 34.5511 27.8483 34.5511C29.7986 30.1939 33.6181 28.2303 33.6181 28.2303ZM25.1127 40.0853C22.9776 39.5729 20.3639 44.0003 21.2593 45.8744C22.1547 47.7485 25.4534 48.662 25.4534 48.662C23.7835 44.1888 25.1127 40.0853 25.1127 40.0853ZM27.91 53.6041C25.9827 54.6614 26.9832 59.7122 28.8948 60.5013C30.8063 61.2903 33.8646 59.7485 33.8646 59.7485C29.65 57.5493 27.91 53.6041 27.91 53.6041Z" fill="white"/>
<path d="M43.5843 24.5847C32.8506 24.5847 24.1494 33.2859 24.1494 44.0208C24.1494 54.7556 32.8506 63.4556 43.5843 63.4556C54.3179 63.4556 63.0203 54.7544 63.0203 44.0208C63.0203 33.2871 54.3191 24.5847 43.5843 24.5847ZM43.5843 61.5803C33.8862 61.5803 26.0247 53.7188 26.0247 44.0208C26.0247 34.3227 33.8862 26.4613 43.5843 26.4613C53.2823 26.4613 61.1437 34.3227 61.1437 44.0208C61.1437 53.7188 53.2823 61.5803 43.5843 61.5803Z" fill="white"/>
<path d="M43.4153 55.9518C40.3087 55.9518 37.7905 58.4712 37.7905 61.5803C37.7905 64.6881 40.3087 67.2087 43.4153 67.2087C46.5219 67.2087 49.0401 64.6893 49.0401 61.5803C49.0401 58.4712 46.5219 55.9518 43.4153 55.9518ZM43.4153 31.9181C46.5219 31.9181 49.0401 29.3987 49.0401 26.2897C49.0401 23.1818 46.5219 20.6613 43.4153 20.6613C40.3087 20.6613 37.7905 23.1806 37.7905 26.2897C37.7905 29.3987 40.3087 31.9181 43.4153 31.9181Z" fill="white"/>
</svg>
