<svg width="87" height="87" viewBox="0 0 87 87" fill="none" xmlns="http://www.w3.org/2000/svg">
<path d="M43.5 0C19.4759 0 0 19.4759 0 43.5C0 67.5241 19.4759 87 43.5 87C67.5241 87 87 67.5241 87 43.5C87 19.4759 67.5241 0 43.5 0ZM43.5 84.999C20.5803 84.999 2.001 66.4197 2.001 43.5C2.001 20.5803 20.5803 2.001 43.5 2.001C66.4197 2.001 84.999 20.5803 84.999 43.5C84.999 66.4197 66.4197 84.999 43.5 84.999Z" fill="#A100FD"/>
<circle cx="43.5" cy="43.5" r="43.5" fill="#A100FD"/>
<path d="M63.8738 28.4756C63.8738 28.4756 61.6625 28.4756 60.2983 28.4756C58.9341 28.4756 59.1226 29.7468 59.1226 29.7468C59.1226 29.7468 59.1226 31.3007 59.1226 32.7603C59.1226 34.22 60.6753 34.2671 60.6753 34.2671C60.6753 34.2671 61.9924 34.2671 63.3095 34.2671C64.6266 34.2671 64.8151 33.1373 64.8151 33.1373C64.8151 33.1373 64.8151 30.9708 64.8151 29.7468C64.8151 28.5227 63.8738 28.4756 63.8738 28.4756ZM63.1222 32.3833C63.1222 32.3833 63.0847 32.8075 62.7464 32.8075C62.4081 32.8075 61.2408 32.8075 61.2408 32.8075C61.2408 32.8075 60.7236 32.8353 60.7236 32.3833C60.7236 31.9314 60.7236 30.4995 60.7236 30.4995C60.7236 30.4995 60.5641 30.1225 61.0523 30.1225C61.5417 30.1225 62.7452 30.1225 62.7452 30.1225C62.7452 30.1225 63.121 30.0476 63.121 30.688C63.1222 31.3285 63.1222 32.3833 63.1222 32.3833ZM63.8738 53.151C63.8738 53.151 61.6625 53.151 60.2983 53.151C58.9341 53.151 59.1226 54.4221 59.1226 54.4221C59.1226 54.4221 59.1226 55.976 59.1226 57.4357C59.1226 58.8954 60.6753 58.9425 60.6753 58.9425C60.6753 58.9425 61.9924 58.9425 63.3095 58.9425C64.6266 58.9425 64.8151 57.8127 64.8151 57.8127C64.8151 57.8127 64.8151 55.6462 64.8151 54.4221C64.8151 53.1981 63.8738 53.151 63.8738 53.151ZM63.1222 57.0587C63.1222 57.0587 63.0847 57.4828 62.7464 57.4828C62.4081 57.4828 61.2408 57.4828 61.2408 57.4828C61.2408 57.4828 60.7236 57.5106 60.7236 57.0587C60.7236 56.6068 60.7236 55.1749 60.7236 55.1749C60.7236 55.1749 60.5641 54.7979 61.0523 54.7979C61.5417 54.7979 62.7452 54.7979 62.7452 54.7979C62.7452 54.7979 63.121 54.723 63.121 55.3634C63.1222 56.0038 63.1222 57.0587 63.1222 57.0587Z" fill="white"/>
<path d="M63.8737 40.53C63.8737 40.53 61.6624 40.53 60.2982 40.53C58.934 40.53 59.1225 41.8011 59.1225 41.8011C59.1225 41.8011 59.1225 43.355 59.1225 44.8147C59.1225 46.2744 60.6752 46.3215 60.6752 46.3215C60.6752 46.3215 61.9923 46.3215 63.3094 46.3215C64.6264 46.3215 64.8149 45.1917 64.8149 45.1917C64.8149 45.1917 64.8149 43.0252 64.8149 41.8011C64.8149 40.5771 63.8737 40.53 63.8737 40.53ZM54.4656 21.6945C54.4656 21.6945 52.2543 21.6945 50.8901 21.6945C49.5259 21.6945 49.7144 22.9656 49.7144 22.9656C49.7144 22.9656 49.7144 24.5195 49.7144 25.9792C49.7144 27.4389 51.2671 27.486 51.2671 27.486C51.2671 27.486 52.5842 27.486 53.9013 27.486C55.2184 27.486 55.4069 26.3562 55.4069 26.3562C55.4069 26.3562 55.4069 24.1897 55.4069 22.9656C55.4069 21.7416 54.4656 21.6945 54.4656 21.6945ZM54.4656 32.996C54.4656 32.996 52.2543 32.996 50.8901 32.996C49.5259 32.996 49.7144 34.2672 49.7144 34.2672C49.7144 34.2672 49.7144 35.8211 49.7144 37.2808C49.7144 38.7404 51.2671 38.7875 51.2671 38.7875C51.2671 38.7875 52.5842 38.7875 53.9013 38.7875C55.2184 38.7875 55.4069 37.6577 55.4069 37.6577C55.4069 37.6577 55.4069 35.4912 55.4069 34.2672C55.4069 33.0431 54.4656 32.996 54.4656 32.996ZM54.4656 46.3698C54.4656 46.3698 52.2543 46.3698 50.8901 46.3698C49.5259 46.3698 49.7144 47.641 49.7144 47.641C49.7144 47.641 49.7144 49.1949 49.7144 50.6546C49.7144 52.1142 51.2671 52.1614 51.2671 52.1614C51.2671 52.1614 52.5842 52.1614 53.9013 52.1614C55.2184 52.1614 55.4069 51.0316 55.4069 51.0316C55.4069 51.0316 55.4069 48.865 55.4069 47.641C55.4069 46.417 54.4656 46.3698 54.4656 46.3698ZM54.4656 58.0484C54.4656 58.0484 52.2543 58.0484 50.8901 58.0484C49.5259 58.0484 49.7144 59.3195 49.7144 59.3195C49.7144 59.3195 49.7144 60.8735 49.7144 62.3331C49.7144 63.7928 51.2671 63.8399 51.2671 63.8399C51.2671 63.8399 52.5842 63.8399 53.9013 63.8399C55.2184 63.8399 55.4069 62.7101 55.4069 62.7101C55.4069 62.7101 55.4069 60.5436 55.4069 59.3195C55.4069 58.0955 54.4656 58.0484 54.4656 58.0484Z" fill="white"/>
<path d="M45.5287 35.0211C45.5287 35.0211 45.5287 22.2599 45.5287 20.8945C45.5287 19.5291 44.6817 19.575 44.6817 19.575C44.6696 19.575 44.5234 19.575 43.1761 19.575C41.5763 19.575 41.6705 20.8933 41.6705 20.8933C41.6705 20.8933 41.6234 23.3426 41.6705 23.7184C41.7176 24.0954 41.2947 24.2839 41.2947 24.2839C38.7077 24.5195 35.9793 26.2148 35.2736 26.7332C34.5679 27.2516 34.145 26.7332 34.145 26.7332C34.145 26.7332 34.3335 26.9688 32.8279 25.4149C31.3223 23.861 29.818 25.2264 29.818 25.2264C29.818 25.2264 28.2181 26.8274 27.1838 28.0515C26.1495 29.2755 26.9953 30.5008 26.9953 30.5008C26.9953 30.5008 28.3124 31.5363 28.8767 32.0076C29.441 32.4788 28.8767 33.1373 28.8767 33.1373C27.7952 34.22 26.901 36.8107 26.6183 38.4117C26.3355 40.0128 25.3012 39.73 25.3012 39.73C25.3012 39.73 25.207 39.73 23.6083 39.73C22.0085 39.73 21.727 41.4253 21.727 41.4253C21.727 41.4253 21.4913 43.7803 21.5385 45.3814C21.5856 46.9824 23.4198 47.2652 23.4198 47.2652C23.4198 47.2652 24.8312 47.2652 25.6782 47.2652C26.5253 47.2652 26.431 48.0192 26.431 48.0192C26.6195 50.5144 28.8295 53.5292 29.0652 54.0463C29.3008 54.5647 28.8767 54.9876 28.8767 54.9876C28.8767 54.9876 27.9825 55.8347 27.1838 56.6829C26.3839 57.53 27.1838 58.9437 27.1838 58.9437C27.1838 58.9437 28.4066 60.0735 29.818 61.393C31.2293 62.7113 32.2636 61.9585 32.2636 61.9585L33.7692 60.4517C34.1921 59.6047 35.0863 60.0747 35.0863 60.0747C37.1562 61.8171 40.8247 62.4298 41.1074 62.524C41.3902 62.6183 41.6717 62.901 41.6717 62.901C41.6717 62.901 41.6717 64.5963 41.6717 65.9146C41.6717 67.2329 42.8003 67.4214 42.8003 67.4214C42.8003 67.4214 43.6945 67.3271 44.4932 67.4214C45.2931 67.5156 45.5275 66.4801 45.5275 66.4801V51.9728C43.4576 51.7843 37.4836 48.0639 38.8478 41.9896C40.2133 35.9153 45.5287 35.0211 45.5287 35.0211Z" fill="white"/>
</svg>
