<svg width="87" height="87" viewBox="0 0 87 87" fill="none" xmlns="http://www.w3.org/2000/svg">
<circle cx="43.5" cy="43.5" r="43.5" fill="#A100FD"/>
<path d="M61.5416 31.2584C61.5863 27.8135 58.586 25.0403 55.4504 24.9956C52.3148 24.9509 49.8969 26.9193 49.3592 29.29C48.8215 31.6608 49.538 33.4648 50.2546 34.4798C50.9711 35.4936 51.33 36.4482 51.33 36.4482C51.2104 39.9669 52.7631 41.4592 52.7631 41.4592C52.7631 41.4592 52.7631 42.891 52.7631 43.964C52.7631 45.0382 53.36 46.5885 55.2716 46.6477C57.1831 46.7069 57.7801 44.5005 57.7801 44.5005V41.638C59.0343 40.6532 59.2131 38.2377 59.2131 38.2377C59.2131 38.2377 58.8096 36.4035 59.9297 35.1952C61.0486 33.988 61.5416 31.2584 61.5416 31.2584ZM56.3458 44.3217C56.3458 44.3217 56.2382 45.2521 55.2704 45.2159C54.3025 45.1796 54.2312 44.4643 54.2312 44.1417C54.2312 43.819 54.1949 42.7098 54.1949 42.7098C54.1949 42.7098 55.4129 43.1387 56.3446 42.7098V44.3217H56.3458ZM56.0449 35.554H56.1669V40.9227C56.1669 40.9227 56.0328 41.4144 55.2716 41.4592C54.5103 41.5039 54.3315 41.2356 54.3762 40.9227C54.4209 40.6097 54.3762 35.554 54.3762 35.554H54.4946C53.8941 35.2652 53.4796 34.6538 53.4796 33.9445C53.4796 32.9573 54.2819 32.1574 55.2704 32.1574C56.26 32.1574 57.0611 32.9573 57.0611 33.9445C57.0599 34.6538 56.6454 35.2652 56.0449 35.554ZM58.4954 30.5431C58.1015 30.2567 58.0652 29.8628 57.7789 29.4689C57.4925 29.075 57.3487 28.7886 56.5246 28.3947C56.5246 28.3947 55.9519 28.1445 55.9869 27.6793C56.0231 27.2141 56.5596 26.4625 57.5988 27.1428C58.638 27.8231 59.3183 28.5385 59.7484 29.4689C60.1798 30.3993 58.8893 30.8295 58.4954 30.5431Z" fill="white"/>
<path d="M55.9626 21.4177C55.8829 21.1084 55.6025 20.88 55.269 20.88C54.9355 20.88 54.6552 21.1084 54.5754 21.4177H54.5513V23.2048H54.5742C54.6528 23.5142 54.9331 23.7425 55.269 23.7425C55.6037 23.7425 55.8841 23.5142 55.9638 23.2048H55.9868V21.4177H55.9626Z" fill="white"/>
<path d="M64.1672 24.3419C63.9316 24.1063 63.5727 24.0713 63.2984 24.2332L63.2803 24.2151L62.1396 25.3533L62.0127 25.4802L62.0309 25.4983C61.8689 25.7726 61.904 26.1303 62.1396 26.3659C62.3752 26.6015 62.7341 26.6366 63.0084 26.4746L63.0265 26.4928L63.1534 26.3659L64.1672 25.3533L64.2941 25.2264L64.2759 25.2083C64.4379 24.9352 64.4028 24.5776 64.1672 24.3419ZM48.7392 25.4802L47.4402 24.1824L47.4221 24.2006C47.1406 24.035 46.7732 24.0701 46.5316 24.3117C46.2899 24.5534 46.2549 24.9207 46.4204 25.2011L46.4023 25.2192L47.5707 26.3864L47.7 26.5157L47.7182 26.4976C47.9997 26.6631 48.367 26.6281 48.6087 26.3864C48.8504 26.1448 48.8854 25.7774 48.7199 25.4971L48.7392 25.4802Z" fill="white"/>
<path d="M44.8799 37.8801C45.82 35.8223 45.3282 34.7481 45.2388 34.4798C45.1494 34.2116 44.9259 33.6751 45.7765 32.6903C46.6272 31.7055 45.7765 30.1854 45.7765 30.1854C44.1187 32.7797 41.4773 30.4537 40.4018 29.8278C39.3264 29.2018 37.1321 27.5464 33.7729 29.8278C30.4138 32.1091 31.0856 36.18 31.2644 36.8071C31.4433 37.433 31.6233 38.0601 31.6233 38.0601C30.3691 38.239 30.6385 39.179 31.0856 40.2073C31.5339 41.2368 32.161 41.1015 32.161 41.1015C32.474 43.6958 35.2072 45.7536 35.2072 45.7536C35.1625 47.9902 34.1318 48.975 34.1318 48.975L33.953 64.9008L42.1938 65.4373L42.5527 48.795C41.209 47.9455 41.2984 45.9324 41.2984 45.9324C43.2692 44.7241 44.3446 41.1015 44.3446 41.1015C45.0612 41.2356 45.6883 40.4756 45.9566 39.312C46.2236 38.1483 44.8799 37.8801 44.8799 37.8801Z" fill="white"/>
<path d="M53.4796 61.1429C53.4796 61.1429 52.8525 58.638 52.2254 55.9531C51.5982 53.2694 50.344 52.4187 48.2838 51.6587C46.2236 50.8986 42.1926 48.6161 42.1926 48.6161L38.6099 64.7208H37.7145C37.7145 64.7208 35.5105 54.2953 34.6502 50.2208C34.4411 49.2311 34.3106 48.6161 34.3106 48.6161L33.4152 49.3314C33.2364 49.5103 28.7571 51.5233 26.9652 52.194C25.1732 52.8646 24.6367 54.8777 24.6367 54.8777C24.6367 54.8777 24.1884 56.2648 23.0248 60.9616C21.86 65.6584 26.6075 66.3303 26.6075 66.3303C26.6075 66.3303 44.434 66.3303 49.3604 66.3303C54.2856 66.3315 53.4796 61.1429 53.4796 61.1429Z" fill="white"/>
<path d="M27.6807 53.6271C26.3817 54.0741 26.0688 55.4166 26.0688 55.4166C26.0688 55.4166 24.8592 59.8898 24.4568 62.037C24.0532 64.1843 26.6065 64.7208 26.6065 64.7208H37.7147L34.6672 50.2268C34.1755 50.9868 27.6807 53.6271 27.6807 53.6271ZM52.0068 62.037C51.6045 59.8898 50.3997 55.4166 50.3997 55.4166C50.3997 55.4166 50.0868 54.0741 48.7915 53.6271C48.7915 53.6271 42.316 50.9881 41.8254 50.2268L38.7889 64.7208H49.8645C49.8632 64.722 52.4092 64.1843 52.0068 62.037Z" fill="white"/>
<path d="M44.1635 48.6161C43.8953 47.363 42.0139 46.6477 42.0139 46.6477L42.1927 47.7219C42.1927 47.7219 42.2821 47.7219 42.7304 47.9008C43.1787 48.0796 43.2681 49.7797 43.2681 50.048C43.2681 50.3162 41.7904 52.5975 40.9385 54.1635C40.0878 55.7295 39.1018 56.892 38.0723 56.8473C37.0416 56.8025 36.4157 55.4154 35.9227 54.5212C35.4297 53.627 33.6389 51.1657 33.2354 49.6903C32.8318 48.2137 34.6684 47.5431 34.6684 47.5431L34.8473 46.6489C31.0398 47.3195 32.5176 50.7645 32.5176 50.7645C32.5176 50.7645 34.6225 54.2542 35.5638 55.9543C36.5039 57.6544 37.7134 57.7438 37.7134 57.7438C37.7134 57.7438 37.7581 59.444 37.7134 61.3229C37.6687 63.2019 35.9215 65.5726 33.7719 65.2597C31.6222 64.9467 30.9057 61.5018 30.9057 61.5018V58.058C32.0282 57.8478 32.8777 56.8666 32.8777 55.6848C32.8777 54.3508 31.7938 53.2694 30.4574 53.2694C29.121 53.2694 28.0371 54.3508 28.0371 55.6848C28.0371 56.8485 28.8612 57.82 29.9584 58.0496L29.8291 61.1441C30.4562 66.6468 34.4872 66.3339 34.4872 66.3339C38.0699 65.708 38.6076 61.8606 38.6076 61.8606L38.7864 57.9239C40.0407 57.7003 40.7572 56.3132 40.7572 56.3132C40.7572 56.3132 43.041 53.0023 43.6234 51.6611C44.2082 50.3162 44.4318 49.8691 44.1635 48.6161Z" fill="#A100FD"/>
<path d="M43.5 0C19.4759 0 0 19.4759 0 43.5C0 67.5241 19.4759 87 43.5 87C67.5241 87 87 67.5241 87 43.5C87 19.4759 67.5241 0 43.5 0ZM43.5 84.999C20.5803 84.999 2.001 66.4197 2.001 43.5C2.001 20.5803 20.5803 2.001 43.5 2.001C66.4197 2.001 84.999 20.5803 84.999 43.5C84.999 66.4197 66.4197 84.999 43.5 84.999Z" fill="#A100FD"/>
</svg>
