<svg width="87" height="87" viewBox="0 0 87 87" fill="none" xmlns="http://www.w3.org/2000/svg">
<path d="M43.5 0C19.4759 0 0 19.4759 0 43.5C0 67.5241 19.4759 87 43.5 87C67.5241 87 87 67.5241 87 43.5C87 19.4759 67.5241 0 43.5 0ZM43.5 84.999C20.5803 84.999 2.001 66.4197 2.001 43.5C2.001 20.5803 20.5803 2.001 43.5 2.001C66.4197 2.001 84.999 20.5803 84.999 43.5C84.999 66.4197 66.4197 84.999 43.5 84.999Z" fill="#A100FD"/>
<circle cx="43.5" cy="43.5" r="43.5" fill="#A100FD"/>
<path d="M67.217 65.2306L63.1087 61.2818C65.9193 58.035 67.6218 53.7938 67.6218 49.1513C67.6218 43.7489 65.3151 38.8878 61.6394 35.5068C62.1577 37.3508 62.4356 39.2962 62.4356 41.3068C62.4356 53.07 52.9381 62.6049 41.2221 62.6049C39.3939 62.6049 37.6189 62.3729 35.926 61.9355C39.1486 65.3164 43.6352 67.4709 48.6232 67.6304C48.6196 67.6364 48.6159 67.6413 48.6159 67.6413C48.6159 67.6413 48.8322 67.6413 49.2165 67.6413H49.2177H49.2189C51.957 67.6413 63.186 67.6413 65.8154 67.6413C68.8169 67.6425 67.217 65.2306 67.217 65.2306Z" fill="white"/>
<path d="M59.6287 41.3213C59.6287 31.1097 51.3867 22.8302 41.2197 22.8302C31.0528 22.8302 22.8096 31.1085 22.8096 41.3213C22.8096 45.9601 24.5109 50.2002 27.3191 53.4457L23.2107 57.3922C23.2107 57.3922 21.6097 59.804 24.6112 59.804C27.0943 59.804 37.2504 59.804 40.6832 59.804C40.8609 59.8088 41.0397 59.8124 41.2185 59.8124C41.3974 59.8124 41.5762 59.8088 41.7538 59.804C41.7985 59.804 41.8239 59.804 41.8239 59.804L41.8227 59.8016C51.7105 59.4814 59.6287 51.3312 59.6287 41.3213ZM41.2028 55.1434C33.4139 55.1434 27.0992 48.8287 27.0992 41.0398C27.0992 33.2509 33.4139 26.9361 41.2028 26.9361C48.9917 26.9361 55.3065 33.2509 55.3065 41.0398C55.3065 48.8287 48.9917 55.1434 41.2028 55.1434Z" fill="white"/>
<path d="M44.0654 35.4258C44.0654 35.4258 35.531 35.4258 33.6133 35.4258C31.6957 35.4258 31.4734 37.5911 31.4734 37.5911C31.4734 37.5911 31.4734 42.306 31.4734 44.9378C31.4734 47.5695 33.7245 47.6795 33.7245 47.6795C33.7245 47.6795 40.2846 47.6795 43.1761 47.6795C46.0676 47.6795 46.0676 45.3764 46.0676 45.3764C46.0676 45.3764 46.0676 40.305 46.0676 38.0297C46.0676 35.7557 44.0654 35.4258 44.0654 35.4258Z" fill="white"/>
<path d="M49.9598 36.0566L47.4863 37.1526V45.9251C47.4863 45.9251 48.8203 46.5558 49.9598 47.0211C51.0992 47.4875 51.2382 46.3637 51.2382 46.3637C51.2382 46.3637 51.2382 38.3585 51.2382 36.9339C51.2382 35.508 49.9598 36.0566 49.9598 36.0566Z" fill="white"/>
</svg>
