<svg width="87" height="87" viewBox="0 0 87 87" fill="none" xmlns="http://www.w3.org/2000/svg">
<path d="M43.5 0C19.4759 0 0 19.4759 0 43.5C0 67.5241 19.4759 87 43.5 87C67.5241 87 87 67.5241 87 43.5C87 19.4759 67.5241 0 43.5 0ZM43.5 84.999C20.5803 84.999 2.001 66.4197 2.001 43.5C2.001 20.5803 20.5803 2.001 43.5 2.001C66.4197 2.001 84.999 20.5803 84.999 43.5C84.999 66.4197 66.4197 84.999 43.5 84.999Z" fill="#66099F"/>
<circle cx="43.5" cy="43.5" r="43.5" fill="#A100FD"/>
<path d="M54.9866 20.6624H28.3247V66.1199C28.3247 66.1199 51.9452 66.1199 54.809 66.1199C57.6715 66.1199 57.8516 63.2562 57.8516 63.2562C57.8516 63.2562 57.8516 26.9264 57.8516 23.705C57.8516 20.4836 54.9866 20.6624 54.9866 20.6624ZM52.6606 61.6455C50.9302 61.6455 32.9768 61.6455 32.9768 61.6455C32.9768 61.6455 31.8434 61.5863 31.8434 60.2136C31.8434 58.8409 31.8434 52.6966 31.8434 52.6966C31.8434 52.6966 31.7237 51.2055 32.798 51.2055H53.1971C53.1971 51.2055 54.3305 51.1463 54.3305 52.8754C54.3305 54.6045 54.3305 60.5713 54.3305 60.5713C54.3305 60.5713 54.3909 61.6455 52.6606 61.6455ZM42.9975 46.6126C36.6719 46.6126 31.5449 41.4856 31.5449 35.16C31.5449 28.8344 36.6731 23.7074 42.9975 23.7074C49.3231 23.7074 54.4501 28.8344 54.4501 35.16C54.4501 41.4856 49.3231 46.6126 42.9975 46.6126Z" fill="white"/>
<path d="M49.0814 54.3084C48.9738 53.1991 48.0072 53.378 48.0072 53.378H38.703C38.703 53.378 37.0923 53.0916 37.0923 54.3084C37.0923 55.5252 38.1665 55.4176 38.1665 55.4176C38.1665 55.4176 47.4356 55.4176 47.6507 55.4176C47.8646 55.4176 49.1889 55.4176 49.0814 54.3084Z" fill="white"/>
<path d="M50.692 58.6029C50.5845 57.4937 49.6178 57.6725 49.6178 57.6725H46.8725C46.7046 57.6484 46.5753 57.6725 46.5753 57.6725H40.3125C40.3125 57.6725 39.9427 57.6073 39.5573 57.6725H37.2699C37.2699 57.6725 35.6592 57.3861 35.6592 58.6029C35.6592 59.8197 36.7334 59.7122 36.7334 59.7122C36.7334 59.7122 38.0166 59.7122 39.6382 59.7122C39.7216 59.717 39.776 59.7122 39.776 59.7122C39.776 59.7122 43.4433 59.7122 46.2176 59.7122C47.8537 59.7122 49.1804 59.7122 49.2602 59.7122C49.4753 59.7134 50.7996 59.7134 50.692 58.6029Z" fill="white"/>
<path d="M42.9974 26.0322C37.9562 26.0322 33.8696 30.1188 33.8696 35.16C33.8696 40.2011 37.9562 44.2877 42.9974 44.2877C48.0385 44.2877 52.1251 40.2011 52.1251 35.16C52.1263 30.1188 48.0385 26.0322 42.9974 26.0322ZM48.4107 39.8121C48.4107 39.8121 48.366 40.9213 47.2918 40.9213C46.2176 40.9213 46.2176 40.1335 46.2176 39.4532C46.2176 38.7729 46.2176 36.0529 46.2176 36.0529H39.9995V39.6332C39.9995 39.6332 39.9995 40.9213 38.8806 40.9213C37.7617 40.9213 37.7617 39.9196 37.7617 39.4532C37.7617 38.9868 37.7617 30.3254 37.7617 30.3254C37.7617 30.3254 37.8064 29.2512 38.7005 29.2512C39.5947 29.2512 39.9983 29.7527 39.9983 30.8619C39.9983 31.9712 39.9983 34.0386 39.9983 34.0386H46.2164V30.5043C46.2164 30.5043 46.1717 29.2512 47.2906 29.2512C48.4095 29.2512 48.4095 30.2892 48.4095 30.6831C48.4095 31.077 48.4107 39.8121 48.4107 39.8121Z" fill="white"/>
<path d="M20.451 26.0313C20.451 26.0313 20.451 54.368 20.451 60.3927C20.451 66.4175 26.3561 66.1202 26.3561 66.1202V20.6627C20.0329 20.6627 20.451 26.0313 20.451 26.0313ZM62.8599 36.9486C61.9657 36.6502 59.8173 35.6956 59.8173 35.6956V60.5716C59.8173 60.5716 61.9053 59.4973 63.754 59.1397C65.6028 58.782 65.9012 55.9183 65.9012 55.9183C65.9012 55.9183 65.9012 44.166 65.9012 40.7066C65.9025 37.2471 63.7552 37.2471 62.8599 36.9486Z" fill="white"/>
</svg>
