<svg width="87" height="87" viewBox="0 0 87 87" fill="none" xmlns="http://www.w3.org/2000/svg">
<path d="M43.5 0C19.4759 0 0 19.4759 0 43.5C0 67.5241 19.4759 87 43.5 87C67.5241 87 87 67.5241 87 43.5C87 19.4759 67.5241 0 43.5 0ZM43.5 84.999C20.5803 84.999 2.001 66.4197 2.001 43.5C2.001 20.5803 20.5803 2.001 43.5 2.001C66.4197 2.001 84.999 20.5803 84.999 43.5C84.999 66.4197 66.4197 84.999 43.5 84.999Z" fill="#A100FD"/>
<circle cx="43.5" cy="43.5" r="43.5" fill="#A100FD"/>
<path d="M29.3795 32.4968C20.7496 33.0454 20.4451 41.0857 20.4451 41.0857V56.9837C20.4451 65.268 28.6497 66.1199 28.6497 66.1199C37.7049 66.1199 38.0094 57.3486 38.0094 57.3486V41.2681C37.2796 32.8617 29.3795 32.4968 29.3795 32.4968ZM35.5782 56.9837C35.5782 56.9837 35.3958 62.5118 29.7444 63.5619C29.7444 63.5619 28.7959 63.5256 28.8333 62.6484C28.8696 61.7711 29.9269 61.9173 29.9269 61.9173C29.9269 61.9173 33.7923 61.2962 33.9385 56.4351V53.146C33.9385 53.146 33.866 52.4512 34.4859 52.415C35.1058 52.3787 35.397 52.5612 35.5795 53.5109V56.9837H35.5782ZM36.6718 49.6733H21.9035V40.902C21.9035 40.902 22.086 34.6283 29.0146 33.9577C29.0146 33.9577 35.8211 33.7136 36.6718 41.2669V49.6733Z" fill="white"/>
<path d="M42.3245 21.5325C34.3749 21.9711 33.9375 29.3903 33.9375 29.3903V31.5834L35.2135 32.3145V29.2078C36.7819 22.3372 42.8707 22.9946 42.8707 22.9946C49.0332 22.8846 49.9818 29.2078 49.9818 29.2078V38.5277H39.7713C40.0625 38.7102 40.1363 40.1723 40.1363 40.1723V54.6082C40.5012 54.9369 43.0532 54.9731 43.0532 54.9731C50.4917 54.3883 51.2578 47.1153 51.2578 47.1153V29.9389C50.4554 21.3138 42.3245 21.5325 42.3245 21.5325ZM46.1525 51.3179C46.1525 51.3179 42.8707 53.3648 42.1409 51.8665C42.1409 51.8665 41.9584 50.8068 43.052 50.7705C44.1455 50.7343 46.2613 49.3822 46.8812 47.299C46.8812 47.299 47.3548 45.6545 47.2461 42.7303C47.2461 42.7303 47.1361 41.2682 47.7935 41.2682C48.4508 41.2682 48.8145 41.3407 48.887 42.9128C48.9607 44.4836 48.997 49.1985 46.1525 51.3179Z" fill="white"/>
<path d="M66.7555 42.1816C65.9894 33.2642 56.91 32.1307 56.91 32.1307H53.4457V41.4506C53.4457 41.4506 59.572 41.4144 60.3743 41.4506C61.1766 41.4869 61.8327 41.9255 61.8327 43.2776C61.8327 44.6297 60.5567 44.7397 60.5567 44.7397H53.4457C53.5919 50.4406 51.075 52.9624 51.075 52.9624C52.7521 54.2783 56.7275 54.0584 56.7275 54.0584C67.6303 52.7074 66.7555 42.1816 66.7555 42.1816Z" fill="white"/>
</svg>
