<svg width="87" height="87" viewBox="0 0 87 87" fill="none" xmlns="http://www.w3.org/2000/svg">
<path d="M43.5 0C19.4759 0 0 19.4759 0 43.5C0 67.5241 19.4759 87 43.5 87C67.5241 87 87 67.5241 87 43.5C87 19.4759 67.5241 0 43.5 0ZM43.5 84.999C20.5803 84.999 2.001 66.4197 2.001 43.5C2.001 20.5803 20.5803 2.001 43.5 2.001C66.4197 2.001 84.999 20.5803 84.999 43.5C84.999 66.4197 66.4197 84.999 43.5 84.999Z" fill="#A100FD"/>
<circle cx="43.5" cy="43.5" r="43.5" fill="#A100FD"/>
<path d="M21.7051 67.425H25.8243V57.3451C23.8378 57.3064 21.7051 56.5693 21.7051 56.5693V67.425ZM28.392 67.425H32.5112V56.9572C31.0479 57.3451 28.392 57.3451 28.392 57.3451V67.425ZM35.2251 67.425H39.296V55.019C38.8018 55.3682 35.2251 56.376 35.2251 56.376V67.425ZM41.8963 54.05V67.425H46.0312V51.7239C45.4887 52.461 41.8963 54.05 41.8963 54.05ZM48.7452 67.425H52.7774V47.8476C51.963 48.5061 48.7452 50.5615 48.7452 50.5615V67.425ZM55.4128 46.1027V67.425H59.5996V42.8076C59.0957 43.3115 55.4128 46.1027 55.4128 46.1027Z" fill="white"/>
<path d="M53.9785 30.7896L55.9167 32.7277C35.758 58.4435 20.4448 53.8567 20.4448 53.8567C37.9548 60.9 61.9269 37.9622 61.9269 37.9622L64.0596 39.7071L66.7735 26.332L53.9785 30.7896Z" fill="white"/>
<path d="M31.7355 30.5962V27.689C31.7355 27.6878 30.2335 29.1414 31.7355 30.5962ZM33.0429 21.0975C26.0853 21.0975 20.4448 26.738 20.4448 33.6956C20.4448 40.6532 26.0853 46.2937 33.0429 46.2937C40.0005 46.2937 45.641 40.6532 45.641 33.6956C45.641 26.738 40.0005 21.0975 33.0429 21.0975ZM34.3527 42.2265V43.0022C34.3527 43.0022 34.3527 44.1658 33.0441 43.9713C31.7355 43.778 31.7355 43.2934 31.7355 43.0022C31.7355 42.711 31.7355 42.2265 31.7355 42.2265C31.7355 42.2265 27.6163 41.6936 27.2284 37.9622C27.2284 37.9622 26.9855 36.412 28.392 36.2174C29.7973 36.0241 30.0402 36.9932 30.1369 37.9622C30.1369 37.9622 31.0576 39.2225 31.7355 39.3192V33.8914C31.7355 33.8914 28.392 32.6794 28.392 30.015C28.392 27.3495 29.6523 25.508 31.7355 24.9751V24.5872C31.7355 24.5872 31.7838 23.5698 32.8496 23.4236C33.9153 23.2786 34.3515 24.0531 34.3515 24.5872C34.3515 25.1201 34.3515 25.1684 34.3515 25.1684C34.3515 25.1684 37.405 25.4113 37.695 28.4635C37.695 28.4635 37.9379 30.45 36.338 30.4017C34.7382 30.3534 34.9811 28.6569 34.9811 28.6569L34.3515 27.8811V31.7575C34.3515 31.7575 38.6641 33.2594 38.6641 36.6029C38.6641 39.9463 37.3579 41.7419 34.3527 42.2265ZM34.3527 35.0538V39.5125C35.4668 39.0763 35.903 38.0106 35.9514 36.9932C36.0009 35.9745 34.3527 35.0538 34.3527 35.0538Z" fill="white"/>
</svg>
