<svg width="87" height="87" viewBox="0 0 87 87" fill="none" xmlns="http://www.w3.org/2000/svg">
<path d="M43.5 0C19.4759 0 0 19.4759 0 43.5C0 67.5241 19.4759 87 43.5 87C67.5241 87 87 67.5241 87 43.5C87 19.4759 67.5241 0 43.5 0ZM43.5 84.999C20.5803 84.999 2.001 66.4197 2.001 43.5C2.001 20.5803 20.5803 2.001 43.5 2.001C66.4197 2.001 84.999 20.5803 84.999 43.5C84.999 66.4197 66.4197 84.999 43.5 84.999Z" fill="#A100FD"/>
<circle cx="43.5" cy="43.5" r="43.5" fill="#A100FD"/>
<path d="M65.384 36.7043C65.384 36.7043 65.2499 36.7043 65.0276 33.727C64.804 30.7496 62.53 31.2257 62.53 31.2257H57.7123C59.0947 31.7622 59.3182 35.5141 55.5712 35.5141C51.8241 35.5141 50.5747 31.2257 50.5747 31.2257H45.5782C47.1841 33.3693 45.89 35.9612 42.5453 35.5141C39.1995 35.067 38.263 31.2257 38.263 31.2257H32.9101C34.5607 32.5657 33.9807 35.827 30.2336 35.5141C26.4866 35.2011 25.9513 31.2257 25.9513 31.2257C25.9513 31.2257 25.9513 31.2257 24.1666 31.2257C22.3819 31.2257 22.2042 33.0128 22.2042 33.0128L21.6689 38.4322H23.2748L23.4537 34.9776H23.9889V36.7043H65.384Z" fill="white"/>
<path d="M67.1688 56.9535L65.5629 38.4309H24.1642L26.1265 58.2041C26.1265 58.2041 22.8254 58.2041 22.0218 58.2041C21.2183 58.2041 21.4865 57.1323 21.4865 57.1323L23.4489 36.7042H21.843L19.8807 57.1323C19.2862 59.5744 21.843 59.8124 21.843 59.8124C21.843 59.8124 61.9923 59.8124 64.8476 59.8124C67.7029 59.8124 67.1688 56.9535 67.1688 56.9535ZM28.9818 48.7344V47.4838C28.9818 47.4838 28.9818 46.5908 29.8736 46.5908C30.7653 46.5908 31.8359 46.5908 31.8359 46.5908C31.8359 46.5908 32.9427 46.7334 32.9065 48.0203C32.8702 49.3071 32.9065 49.2709 32.9065 49.2709C32.9065 49.2709 32.7639 50.3427 31.8359 50.3427C30.9079 50.3427 30.0512 50.3427 30.0512 50.3427C30.0512 50.3427 28.9468 50.414 28.9818 48.7344ZM33.2642 54.9887C33.2642 54.9887 33.1216 55.7331 32.1936 55.7331C31.2656 55.7331 30.4089 55.7331 30.4089 55.7331C30.4089 55.7331 29.5522 55.3464 29.5171 54.4522C29.4809 53.5593 29.5171 53.2016 29.5171 53.2016C29.5171 53.2016 29.5884 52.1588 30.4089 52.1588H32.3712C32.3712 52.1588 33.2279 52.2361 33.263 53.5581C33.3004 54.8812 33.2642 54.9887 33.2642 54.9887ZM34.8712 48.9132C34.8712 47.6976 34.8712 47.6626 34.8712 47.6626C34.8712 47.6626 34.835 46.5908 35.9418 46.5908C37.0487 46.5908 37.7265 46.5908 37.7265 46.5908C37.7265 46.5908 38.7971 46.5195 38.7971 48.0203V49.4497C38.7971 49.4497 38.547 50.3427 37.5477 50.3427C36.5484 50.3427 35.9418 50.3427 35.9418 50.3427C35.9418 50.3427 34.8712 50.1276 34.8712 48.9132ZM39.3312 54.9887C39.3312 54.9887 39.0811 55.7331 38.2606 55.7331C37.4402 55.7331 36.4759 55.7331 36.4759 55.7331C36.4759 55.7331 35.6905 55.5965 35.5842 54.6311C35.4766 53.6668 35.4053 53.0228 35.4053 53.0228C35.4053 53.0228 35.6905 52.1588 36.2971 52.1588H38.2594C38.2594 52.1588 39.33 52.3437 39.33 53.3792C39.33 54.4148 39.3312 54.9887 39.3312 54.9887ZM40.4018 43.7319C40.3655 42.8027 40.4018 42.3024 40.4018 42.3024C40.4018 42.3024 40.2592 41.0518 41.6512 41.0518C43.0432 41.0518 43.2571 41.0518 43.2571 41.0518C43.2571 41.0518 44.2926 41.1944 44.3277 42.4813C44.3639 43.7681 44.3277 44.0896 44.3277 44.0896C44.3277 44.0896 44.1851 44.8641 43.2571 44.8641H41.4724C41.4724 44.8629 40.438 44.6611 40.4018 43.7319ZM40.9371 49.0921C40.9371 48.0916 40.9371 47.4838 40.9371 47.4838C40.9371 47.4838 40.9371 46.5908 42.0077 46.5908C43.0782 46.5908 43.7924 46.5908 43.7924 46.5908C43.7924 46.5908 44.863 46.6984 44.863 48.0203C44.863 48.7984 44.863 49.0316 44.863 49.0921C44.863 49.0921 44.9342 50.3427 43.9712 50.3427C43.0082 50.3427 42.0089 50.3427 42.0089 50.3427C42.0089 50.3427 40.9371 50.0926 40.9371 49.0921ZM45.3982 54.8099C45.3982 54.8099 45.1844 55.7331 44.1488 55.7331C43.1133 55.7331 42.543 55.7331 42.543 55.7331C42.543 55.7331 41.4724 55.489 41.4724 54.4522C41.4724 53.4155 41.4724 53.0228 41.4724 53.0228C41.4724 53.0228 41.5437 52.1588 42.3641 52.1588H44.3265C44.3265 52.1588 45.362 52.415 45.397 53.3792C45.4345 54.3447 45.3982 54.8099 45.3982 54.8099ZM46.2912 43.5531C46.2912 42.4813 46.2912 42.3024 46.2912 42.3024C46.2912 42.3024 46.255 41.0518 47.3618 41.0518C48.4686 41.0518 49.3241 41.0518 49.3241 41.0518C49.3241 41.0518 50.3947 41.3019 50.3947 42.6601C50.3947 43.744 50.3947 43.8938 50.3947 43.9107C50.3947 43.9107 50.1808 44.8641 49.3241 44.8641H47.5394C47.5394 44.8629 46.2912 44.6249 46.2912 43.5531ZM50.7524 49.2709C50.7524 49.2709 50.7161 50.3427 49.503 50.3427C48.2898 50.3427 48.0759 50.3427 48.0759 50.3427C48.0759 50.3427 46.7915 50.0926 46.8265 49.0921C46.8627 48.0916 46.6126 46.5908 47.7182 46.5908H49.6806C49.6806 46.5908 50.7512 46.7334 50.7512 47.8414C50.7524 48.9495 50.7524 49.2709 50.7524 49.2709ZM52.3582 43.3742C52.3582 42.1949 52.3582 42.1236 52.3582 42.1236C52.3582 42.1236 52.322 41.0518 53.4288 41.0518C54.5357 41.0518 55.0347 41.0518 55.0347 41.0518C55.0347 41.0518 56.2841 41.0881 56.2841 42.4813C56.2841 43.8745 56.2841 43.9107 56.2841 43.9107C56.2841 43.9107 56.1053 44.8641 55.3924 44.8641H53.6077C53.6065 44.8629 52.3582 44.5536 52.3582 43.3742ZM56.6406 49.4497C56.6406 49.4497 56.498 50.3427 55.57 50.3427C54.642 50.3427 54.143 50.3427 54.143 50.3427C54.143 50.3427 52.8585 50.2714 52.8935 48.7344V47.3049C52.8935 47.3049 52.9298 46.5908 53.6077 46.5908C54.2855 46.5908 55.7488 46.5908 55.7488 46.5908C55.7488 46.5908 56.5693 46.5546 56.6406 48.0203C56.7119 49.4848 56.6406 49.4497 56.6406 49.4497ZM58.4253 43.9107C58.354 42.9815 58.4253 42.1236 58.4253 42.1236C58.4253 42.1236 58.4966 41.0518 59.317 41.0518C60.1375 41.0518 61.1017 41.0518 61.1017 41.0518C61.1017 41.0518 62.35 41.2306 62.35 42.4813C62.35 43.7319 62.35 43.7319 62.35 43.7319C62.35 43.7319 62.1361 44.8641 61.4582 44.8641C60.7803 44.8641 59.6735 44.8641 59.6735 44.8641C59.6735 44.8641 58.4966 44.8399 58.4253 43.9107ZM62.7076 49.2709C62.7076 49.2709 62.7439 50.3427 61.637 50.3427C60.5302 50.3427 59.8523 50.3427 59.8523 50.3427C59.8523 50.3427 58.7455 50.0213 58.7817 48.9132C58.818 47.8052 58.7817 47.8414 58.7817 47.8414C58.7817 47.8414 58.6392 46.5908 59.6735 46.5908C60.7078 46.5908 61.8147 46.5908 61.8147 46.5908C61.8147 46.5908 62.7777 46.9835 62.7064 47.8414C62.6363 48.6994 62.7076 49.2709 62.7076 49.2709Z" fill="white"/>
<path d="M31.8373 27.2938C29.446 26.686 27.5187 28.8658 27.7325 30.3315C27.9464 31.7973 28.1965 33.4043 31.3008 33.727C31.3008 33.727 31.836 33.727 32.0149 33.1905C32.1937 32.654 31.7648 32.2262 31.1231 32.2975C31.1231 32.2975 29.2321 32.1549 29.3384 30.5104C29.446 28.867 31.1582 28.0804 32.729 29.4386H34.5137C34.5137 29.4374 34.2285 27.9016 31.8373 27.2938ZM44.3278 27.2938C41.9365 26.686 40.0092 28.8658 40.2231 30.3315C40.437 31.7973 40.6871 33.4043 43.7913 33.727C43.7913 33.727 44.3266 33.727 44.5054 33.1905C44.6842 32.654 44.2553 32.2262 43.6137 32.2975C43.6137 32.2975 41.7226 32.1549 41.829 30.5104C41.9365 28.867 43.6487 28.0804 45.2195 29.4386H47.0042C47.0042 29.4374 46.7191 27.9016 44.3278 27.2938ZM57.3548 29.4374H59.1395C59.1395 29.4374 58.8544 27.9004 56.4631 27.2938C54.0718 26.686 52.1445 28.8658 52.3584 30.3315C52.5722 31.7973 52.8224 33.4043 55.9266 33.727C55.9266 33.727 56.4619 33.727 56.6407 33.1905C56.8195 32.654 56.3906 32.2262 55.749 32.2975C55.749 32.2975 53.8579 32.1549 53.9642 30.5104C54.0706 28.8658 55.784 28.0792 57.3548 29.4374Z" fill="white"/>
</svg>
